<svg width="276" height="254" viewBox="0 0 276 254" fill="none" xmlns="http://www.w3.org/2000/svg">
<path fill-rule="evenodd" clip-rule="evenodd" d="M71.8998 212.311C68.6463 212.473 66.142 212.789 65.517 217.115C65.3149 218.514 61.7439 219.426 59.7139 220.561C59.7911 219.712 59.7825 218.845 59.965 218.02C60.2508 216.727 60.6657 215.463 61.0259 214.187C59.9653 214.83 58.9556 215.901 57.8343 216.035C54.704 216.408 51.4355 216.931 48.3899 216.41C43.1969 215.523 38.1834 213.587 32.9908 212.696C30.6616 212.296 28.732 217.721 30.1695 220.296C31.2349 222.204 32.2299 224.29 33.7745 225.746C34.8929 226.801 36.9813 227.62 38.4231 227.36C40.7831 226.933 42.9975 225.602 45.2103 224.524C45.8371 224.218 46.2449 223.463 46.7532 222.914C45.7734 222.463 44.8248 221.736 43.8071 221.621C41.9404 221.41 40.0291 221.625 38.1453 221.513C37.7118 221.487 37.314 220.861 36.8998 220.511C37.1808 220.194 37.4192 219.657 37.7491 219.593C44.3555 218.315 49.8187 217.949 56.0655 224.107C58.1597 226.171 58.102 227.429 55.9147 229.069C54.1177 230.417 52.4756 231.981 50.6229 233.241C50.0508 233.629 48.4643 233.619 48.2931 233.293C47.8325 232.415 47.4302 231.017 47.8345 230.283C48.5295 229.021 49.9348 228.173 50.8901 227.024C51.6518 226.109 52.1874 225.005 52.8236 223.985C51.3522 224.173 49.7383 224.048 48.4464 224.633C46.9155 225.326 45.6169 226.579 44.3088 227.697C43.7244 228.196 42.9853 228.942 42.9625 229.599C42.8384 233.182 48.6922 237.237 52.3 236.753C57.4369 236.063 62.7975 235.016 67.7856 235.826C72.4911 236.59 76.8456 239.545 81.3268 241.596C81.6362 241.738 81.9618 242.651 81.8557 242.75C81.4559 243.122 80.9018 243.465 80.3676 243.537C72.3213 244.616 64.8445 246.988 58.4756 252.342C57.4708 253.186 55.5982 252.999 54.1268 253.288C54.8004 251.796 55.0884 249.49 56.2154 248.957C60.6576 246.856 65.3707 245.33 69.9659 243.546C70.9687 243.157 71.9002 242.584 72.8646 242.096C71.7381 241.251 70.6255 239.717 69.4824 239.694C66.4618 239.634 63.4059 240.645 60.4035 240.486C49.3663 239.9 38.7923 241.467 28.7136 246.153C27.9933 246.488 26.8476 245.908 25.8998 245.754C26.5411 244.882 27.0992 243.925 27.8581 243.171C28.2496 242.782 29.0451 242.838 29.5754 242.543C30.712 241.912 31.7949 241.185 32.8998 240.497C31.6142 240.185 30.3432 239.735 29.0392 239.597C27.5559 239.44 26.0151 239.723 24.5587 239.471C24.0658 239.386 23.6121 238.298 23.3935 237.591C23.0934 236.62 23.0342 235.574 22.8718 234.561C21.6876 235.254 20.3127 235.763 19.392 236.712C18.8534 237.267 18.9235 238.525 18.9236 239.467C18.9241 241.505 18.6376 242.46 16.525 240.746C14.4493 239.062 12.0973 237.722 9.98668 236.077C9.24718 235.501 8.86431 234.467 8.31859 233.642C9.57451 233.51 11.0644 232.882 12.0414 233.343C14.7242 234.607 16.7602 235.74 17.8102 231.461C17.9861 230.744 21.8857 229.98 23.3065 230.711C27.4653 232.852 31.2237 235.764 35.2121 238.257C35.4428 238.401 36.7645 237.566 36.8274 237.087C37.2119 234.162 36.4916 231.712 32.9703 231.598C29.6317 231.491 27.3176 230.319 25.8204 227.12C24.7624 224.859 22.9029 224.106 20.6185 226.23C19.8198 226.972 18.4219 227.216 17.2537 227.386C13.9958 227.862 10.5058 227.635 7.52569 228.777C8.31859 225.746 9.71483 223.436 9.71483 223.436C9.71483 223.436 11.7797 220.739 11.805 219.31C11.9835 209.256 11.7731 199.196 11.9403 189.141C12.0712 181.276 12.7023 173.42 12.8624 165.555C13.0297 157.335 12.6404 149.098 12.9758 140.888C13.2851 133.316 14.4291 125.781 14.8127 118.209C14.9901 114.707 14.1235 111.163 13.9196 107.627C13.202 95.1826 12.9928 82.6911 11.7638 70.2995C10.7936 60.5152 8.86474 50.8929 5.59264 41.4166C2.59759 32.7428 1.46337 23.3783 0.0605979 14.2335C-0.332835 11.6689 1.28032 8.81829 1.8684 6.0764C1.8684 6.0764 3.49951 2.49999 5.59264 1.43187C7.68577 0.363756 10.5209 1.43187 10.5209 1.43187C25.0455 4.77434 39.5519 8.09728 54.5867 8.66307C68.3569 9.1812 82.0983 10.5174 95.8415 11.6274C97.2325 11.7398 98.5488 12.7779 99.8998 13.3865C98.4984 14.1113 97.0679 15.5128 95.7002 15.4539C84.6351 14.9778 73.5585 14.4848 62.5314 13.4888C51.4068 12.4839 40.3206 11.0036 29.2452 9.52471L29.1885 9.51714C23.5694 8.76689 17.9788 7.71233 12.4344 6.52013C6.34215 5.21007 3.6704 6.78136 4.05486 13.1612C4.42217 19.2544 5.90636 25.3058 7.19469 31.3124C9.65209 42.7696 13.0682 54.0768 14.6893 65.6422C16.3137 77.2315 16.1246 89.0674 16.9471 100.78C17.3386 106.356 19.639 112.16 18.6591 117.41C14.1443 141.596 16.58 165.947 15.9696 190.212C15.8294 195.786 16.7736 201.379 16.8284 206.968C16.8664 210.826 16.0573 214.687 15.9832 218.554C15.952 220.183 16.6509 221.923 17.397 223.425C17.7103 224.055 19.0206 224.478 19.8492 224.436C20.2344 224.417 20.5586 223.065 20.8986 222.312C22.6096 218.521 23.6988 214.246 26.1831 211.059C29.2217 207.16 33.8219 208.117 38.1384 209.526C42.4086 210.919 46.7374 212.838 51.1056 213.028C55.4542 213.216 60.0057 211.927 64.2459 210.584C69.3664 208.962 74.1152 206.102 79.2734 204.679C86.9075 202.572 92.3806 197.97 92.6343 190.232C92.7671 186.183 90.0823 182.067 88.8124 177.937C88.0352 175.41 87.4512 172.816 86.9224 170.222C86.4428 167.87 87.233 164.048 82.7421 167.138C82.5256 167.287 81.832 166.743 81.3606 166.522C81.6426 165.932 81.871 165.309 82.2174 164.761C83.0366 163.464 83.9119 162.202 84.7645 160.926C83.2729 161.507 81.7497 162.022 80.3055 162.704C79.7381 162.972 79.4256 163.769 78.8605 164.055C77.2945 164.849 75.6758 165.555 74.0204 166.131C73.8368 166.195 72.8899 164.811 72.9583 164.74C74.124 163.54 75.31 162.326 76.6582 161.343C79.69 159.132 84.3052 157.63 85.4362 154.731C86.371 152.335 83.3937 148.273 81.8675 145.085C78.2969 137.625 75.5348 130.016 75.8103 121.552C75.8421 120.576 74.6436 119.559 74.0155 118.561C73.6436 119.453 73.2899 120.354 72.8951 121.236C72.3955 122.352 71.8626 123.453 71.3441 124.561C70.3091 123.841 69.115 123.271 68.267 122.374C64.6864 118.587 61.06 114.825 57.7538 110.805C55.999 108.671 54.4117 106.179 53.5384 103.583C51.173 96.5506 46.4372 90.3102 46.838 82.3232C47.1937 75.233 53.1822 67.3885 60.1085 65.5448C64.8023 64.2954 69.6838 63.3923 74.0501 61.3926C77.1639 59.9666 79.96 57.3067 82.1956 54.6144C86.992 48.8382 92.6498 49.34 99.3185 50.2159C107.172 51.2474 115.312 51.1333 123.227 50.4075C133.267 49.4866 143.082 48.7405 153.043 51.3887C156.988 52.4375 161.465 51.8129 165.662 51.4804C168.966 51.2186 174.127 55.1461 175.881 60.1434C178.948 68.8773 181.89 77.6547 184.928 86.3985C185.088 86.859 185.66 87.1767 186.04 87.5608C186.327 86.9164 186.821 86.2867 186.868 85.6254C187.405 77.99 183.478 71.7977 180.223 65.3945C179.801 64.5646 179.22 63.8124 178.832 62.9693C178.313 61.8417 177.911 60.6603 177.459 59.5021C178.617 59.6995 179.805 59.7913 180.928 60.112C187.184 61.8974 193.34 64.156 199.695 65.4295C204.834 66.4592 207.368 69.9302 207.725 74.0662C208.966 88.4427 205.305 101.834 196.453 113.257C192.496 118.363 186.697 121.997 182.31 126.823C178.058 131.499 175.38 137.197 174.885 143.707C174.704 146.102 173.963 148.532 174.241 150.854C174.401 152.184 175.89 153.643 177.155 154.472C178.389 155.28 180.236 155.115 181.551 155.849C182.402 156.324 182.781 157.647 183.371 158.589C182.233 158.766 180.574 159.511 180.043 159.024C176.969 156.206 177.175 158.704 176.891 160.736C175.784 168.64 175.662 176.792 171.143 183.857C170.93 184.19 170.866 185.013 171.063 185.156C176.73 189.302 176.719 196.074 179.059 201.786C179.796 203.584 181.228 205.283 184.861 204.913C190.994 204.29 197.233 206.152 202.666 209.789C211.756 215.875 221.442 218.213 231.747 213.11C235.648 211.178 239.117 208.389 242.884 206.161C243.832 205.6 245.169 205.695 246.327 205.488C245.884 206.646 245.743 208.505 244.948 208.849C240.04 210.97 241.26 213.188 244.512 215.69C245.036 216.093 245.735 216.551 245.882 217.108C246.316 218.757 246.515 220.468 246.806 222.155C245.314 221.601 243.791 221.116 242.347 220.457C241.778 220.198 241.139 219.63 240.956 219.065C239.641 214.985 237.094 214.719 234.05 216.963C228.813 220.825 222.777 219.895 217.134 219.371C211.716 218.868 211.144 223.571 208.25 225.711C208.761 226.327 209.158 227.288 209.802 227.502C212.859 228.517 214.318 227.218 215.01 223.735C215.181 222.871 216.682 221.763 217.635 221.699C218.686 221.628 219.808 222.631 220.9 223.165C220.267 223.631 219.611 224.067 219.011 224.571C218.6 224.916 218.267 225.354 217.9 225.751C219.652 226.606 221.367 227.56 223.186 228.234C223.557 228.372 224.458 227.564 224.878 227.011C229.512 220.928 236.738 219.992 242.512 224.576C243.786 225.588 245.561 226.308 247.177 226.48C250.601 226.843 251.628 224.727 250.547 221.567C249.605 218.817 248.989 215.706 249.246 212.846C249.768 207.027 251.73 201.27 251.737 195.485C251.752 184.588 253.049 173.624 250.124 162.754C249.318 159.76 251.398 156.056 251.863 152.638C252.662 146.766 253.579 140.877 253.829 134.969C254.388 121.784 254.522 108.581 254.916 95.3878C255.161 87.1901 255.04 78.932 256.043 70.8199C257.119 62.1169 259.296 53.5479 261.071 44.9368C261.25 44.0716 261.85 43.1957 262.487 42.5548C262.969 42.0693 263.82 41.9501 264.507 41.6678C264.638 42.2801 264.991 42.9421 264.866 43.4974C263.162 51.115 261.055 58.6608 259.755 66.3442C258.887 71.4703 259.126 76.7863 258.911 82.019C258.84 83.7399 258.9 85.4662 258.9 87.19C258.9 91.1899 259.021 95.1941 258.879 99.1889C258.261 116.581 258.929 134.162 256.51 151.305C254.169 167.9 257.514 184.228 255.862 200.612C255.45 204.695 255.17 208.954 253.766 212.738C251.313 219.349 255.489 224.466 261.43 225.577C264.844 226.215 269.306 234.66 267.86 237.711C267.663 238.126 266.681 238.641 266.478 238.503C265.219 237.643 263.5 236.842 263.001 235.594C260.972 230.519 259.872 230.146 256.064 233.898C255.351 234.6 254.738 235.443 253.926 235.995C251.175 237.863 249.344 239.461 254.37 240.648C255.023 240.802 255.397 242.14 255.9 242.93C255.028 243.102 254.028 243.635 253.309 243.379C251.141 242.604 249.054 241.578 246.995 240.533C246.213 240.136 245.593 239.42 244.9 238.849C245.597 238.086 246.224 237.242 247.003 236.575C249.799 234.18 252.659 231.859 255.434 229.44C255.561 229.33 255.2 228.24 254.89 228.137C254.276 227.932 253.365 227.834 252.879 228.152C249.586 230.31 246.364 232.576 243.136 234.831C240.538 236.646 229.322 237.435 227.142 235.507C221.895 230.865 215.759 230.133 209.162 230.495C207.431 230.59 205.655 229.877 203.9 229.535C204.613 227.33 205.269 225.104 206.079 222.936C206.291 222.367 207.044 222.025 207.441 221.497C208.288 220.37 209.065 219.19 209.871 218.032C208.603 217.875 207.103 218.095 206.112 217.486C203.707 216.008 201.564 214.108 199.257 212.462C198.693 212.059 197.901 211.976 197.214 211.746C197.476 212.551 197.534 213.534 198.046 214.12C198.875 215.07 200.187 215.619 200.949 216.604C201.615 217.463 201.804 218.691 202.204 219.756C201.164 219.586 199.843 219.757 199.137 219.178C197.212 217.602 195.143 215.958 193.867 213.887C191.475 210.008 189.27 207.962 183.944 209.302C178.802 210.596 174.801 205.496 173.876 198.451C173.747 197.466 173.296 196.523 172.995 195.561C172.63 196.627 172.039 197.676 171.959 198.763C171.868 200.01 172.081 201.331 172.423 202.546C173.209 205.332 172.863 207.462 171.134 210.159C168.951 213.564 168.35 217.957 166.842 221.837C166.309 223.21 165.115 224.327 164.223 225.561C163.782 224.238 162.692 222.721 163.018 221.627C164.114 217.95 165.751 214.438 167.089 210.828C167.357 210.105 167.217 209.231 167.265 208.426C166.522 208.471 165.757 208.416 165.042 208.578C161.958 209.276 160.52 210.976 160.825 214.394C161.155 218.088 160.967 221.837 160.836 225.556C160.813 226.21 159.958 226.835 159.487 227.473C158.958 226.751 158.452 226.01 157.893 225.311C157.415 224.714 156.877 224.165 156.366 223.595C156.291 224.497 156.029 225.438 156.207 226.288C156.322 226.834 157.518 227.291 157.474 227.707C157.337 228.987 156.92 230.262 156.428 231.463C156.273 231.84 155.534 231.977 155.063 232.224C154.675 231.218 154.049 230.237 153.942 229.202C153.507 225.017 153.259 220.813 152.874 216.623C152.81 215.92 152.411 215.247 152.167 214.561C151.411 215.098 150.241 215.489 149.989 216.204C149.512 217.556 149.096 219.231 149.477 220.529C150.79 224.997 149.185 229.103 145.043 230.918C142.051 232.228 141.614 231.927 140.852 228.517C140.695 227.811 139.931 227.241 139.447 226.608C138.598 227.363 137.697 228.068 136.912 228.885C135.772 230.068 134.729 231.345 133.566 232.503C133.528 232.541 132.145 231.509 132.22 231.338C132.994 229.557 133.533 227.341 134.923 226.23C137.699 224.014 141.014 222.484 144.004 220.516C144.822 219.977 145.935 218.745 145.791 218.072C144.993 214.362 147.901 213.707 149.892 211.789C154.29 207.553 157.845 202.455 161.922 197.869C168.234 190.769 169.284 181.837 170.901 173.077C171.559 169.518 172.635 165.976 172.75 162.401C172.82 160.235 171.364 158.037 170.688 155.824C170.323 154.63 169.829 153.34 169.957 152.155C170.487 147.25 171.171 142.358 171.914 137.48C173.154 129.331 178.923 124.312 184.842 119.607C193.235 112.934 198.189 104.419 201.092 94.1311C202.718 88.3716 204.157 82.8228 203.943 76.8184C203.73 70.8482 199.996 68.1371 194.989 71.2031C192.335 72.8284 192.212 72.0255 191.889 69.9114L191.874 69.8097C191.735 68.9081 191.55 67.5431 190.968 67.2662C189.024 66.3404 186.891 65.8112 184.83 65.1301C185.506 66.7598 186.089 68.4362 186.874 70.0109C190.172 76.6188 191.048 83.4582 189.339 90.6882C188.859 92.7185 189.255 94.9491 188.831 97.0017C188.464 98.7811 187.356 100.395 186.84 102.159C185.557 106.547 184.366 110.964 183.278 115.404C183.048 116.345 183.416 117.433 183.507 118.453C182.856 118.489 181.785 118.773 181.631 118.514C181.189 117.767 181.078 116.808 180.906 115.919C179.8 110.208 178.681 104.499 177.661 98.7724C177.539 98.0875 177.99 97.3005 178.176 96.5608C181.846 99.3353 180.812 95.9927 180.875 94.4054C181.106 88.5927 180.281 83.2705 177.108 77.9402C173.845 72.4598 172.384 65.9311 169.793 60.0105C169.158 58.5614 167.318 56.9256 165.819 56.6794C150.186 54.1133 134.453 52.8473 118.58 53.5152C112.035 53.7906 105.467 53.6332 98.912 53.515C97.0447 53.4813 95.1714 52.9643 93.3288 52.5459C89.7438 51.7319 83.949 54.9029 80.8257 58.2882C74.0598 65.6218 72.4384 75.1574 69.0328 83.94C68.9208 84.2289 68.8894 84.5722 68.9089 84.8846C68.9856 86.1112 69.0978 87.3356 69.1969 88.5608C68.7655 88.3952 68.0437 88.3271 67.9499 88.048C67.3472 86.2541 66.3059 84.3473 66.5077 82.6048C66.8032 80.052 68.177 77.6417 68.7624 75.0951C68.9692 74.1955 68.4482 72.8478 67.7876 72.1537C67.4793 71.8297 66.0344 72.5364 65.1279 72.844C63.5225 73.3888 61.9631 74.3762 60.3349 74.4942C52.7377 75.0442 48.6072 81.1191 51.8721 88.4403C53.1876 91.3899 54.6519 94.3905 55.2463 97.5202C56.5087 104.166 62.0409 107.694 65.5314 112.696C66.2512 113.727 66.8583 114.854 67.6863 115.787C68.2244 116.394 69.0686 116.728 69.7757 117.185C70.1504 116.507 70.5851 115.855 70.8904 115.147C73.3081 109.54 71.3067 103.956 71.1122 98.3006C70.7389 87.4489 72.6758 76.7101 78.7439 67.4151C81.556 63.1075 85.5845 59.5712 89.2283 55.8486C89.9595 55.1015 91.4456 55.0935 92.5837 54.7447C92.2051 56.0007 92.2134 57.6677 91.3858 58.4462C85.7251 63.7703 80.9087 69.6376 78.8077 77.2639C78.4492 78.5656 79.4671 80.1909 79.4152 81.6513C79.3777 82.7058 78.8876 84.017 78.1378 84.7251C75.3246 87.3818 74.855 90.0848 77.094 93.3487C77.6168 94.1109 77.6919 95.3894 77.542 96.364C77.1132 99.1513 75.582 102.066 76.0533 104.643C78.0222 115.41 80.2847 126.144 83.0183 136.74C84.392 142.065 86.9227 147.106 89.1382 152.185C89.5155 153.049 90.9439 153.456 91.8866 154.074C92.4037 152.582 93.552 150.969 93.293 149.627C92.8849 147.513 90.3241 145.323 94.5433 144.417C93.8706 143.465 93.3851 141.955 92.4934 141.656C88.3436 140.265 88.3409 140.411 90.4869 137.36C90.6709 137.099 90.0492 135.786 89.5753 135.624C86.189 134.466 84.678 132.686 86.743 129.134C87.0604 128.588 86.8306 127.636 86.6514 126.893L86.6327 126.815C84.4094 117.575 81.6655 108.427 80.0425 99.0834C78.5568 90.5296 82.709 85.4217 91.1538 81.3702C93.9518 80.0278 95.8946 76.6112 97.8511 73.8732C100.968 69.5105 111.806 66.7718 116.248 69.6018C117.299 70.2716 118.402 71.3204 118.794 72.4363C119.192 73.5688 118.74 74.9998 118.661 76.3001C117.62 75.7668 116.295 75.4778 115.591 74.6562C113.095 71.7442 110.35 70.3398 106.655 72.3195C106.037 72.6507 105.483 73.1029 104.9 73.4992C105.477 73.8531 106.021 74.4366 106.636 74.5246C111.559 75.2285 114.069 77.4295 115.252 82.8508C116.102 86.7453 119.778 90.1003 118.881 94.7669C118.43 97.1127 118.506 100.072 117.101 101.641C105.96 114.086 99.2568 128.154 98.7264 145.151C98.5761 149.967 98.2107 155.341 93.9469 159.15C93.1697 159.844 92.6178 161.733 92.9998 162.628C95.2991 168.011 97.6359 173.415 100.501 178.507C102.217 181.556 105.493 181.428 108.193 179.674C111.877 177.283 114.01 171.479 111.795 169.181C108.399 165.658 110.199 163.283 112.449 160.451C114.329 158.084 116.132 159.518 118.018 160.179C117.33 161.122 116.492 161.992 115.99 163.025C115.3 164.446 114.865 165.991 114.321 167.482C115.459 166.73 116.771 166.147 117.703 165.194C120.55 162.28 124.02 163.427 125.968 167.726C126.778 169.513 128.286 172.232 129.571 172.287C131.995 172.389 133.56 170.751 134.217 167.501C134.778 164.73 136.175 159.727 141.806 162.436C143.118 163.067 145.182 162.135 146.9 161.922C146.566 160.227 146.65 158.258 145.773 156.919C145.015 155.762 142.898 154.405 141.841 154.714C136.197 156.361 129.711 153.055 124.439 158.046C123.444 158.988 119.066 157.324 116.944 155.857C114.505 154.171 116.21 152.123 117.693 150.107C119.518 147.626 120.711 144.992 119.131 141.364C118.198 139.221 119.634 136.08 119.846 133.375C119.891 132.798 119.25 132.167 118.926 131.561C118.584 132.15 118.359 132.865 117.881 133.308C114.166 136.755 110.422 140.171 106.609 143.51C106.368 143.722 105.485 143.202 104.9 143.022C105.144 142.457 105.245 141.737 105.659 141.354C107.443 139.702 109.25 138.061 111.176 136.582C113.96 134.442 113.714 131.974 111.468 129.367C110.209 127.905 109.287 124.006 110.086 123.287C113.749 119.992 110.483 111.379 117.577 111.902C122.002 112.228 125.83 111.709 129.863 110.571C138.089 108.25 143.525 112.54 148.275 118.428C149.895 120.435 151.638 122.347 153.19 124.404C153.923 125.374 154.616 126.538 154.81 127.7C154.957 128.583 154.288 129.602 153.983 130.561C153.622 129.824 153.339 129.035 152.884 128.361C151.823 126.788 150.795 125.165 149.523 123.773C148.843 123.029 147.684 122.723 146.741 122.22C146.338 123.711 145.776 125.183 145.586 126.701C145.443 127.841 146.143 129.146 145.84 130.197C144.04 136.436 142.027 142.613 140.184 148.84C140.013 149.418 140.391 150.305 140.796 150.832C140.947 151.029 142.122 150.806 142.458 150.436C144.964 147.68 148.631 145.47 146.973 140.682C146.672 139.812 147.33 138.61 147.546 137.561C148.336 138.067 149.239 138.457 149.898 139.098C152.985 142.098 156.237 144.979 158.919 148.314C159.825 149.44 159.223 151.777 159.311 153.561C158.279 152.499 157.183 151.492 156.235 150.36C155.432 149.4 155.005 148.008 154.043 147.328C152.822 146.464 151.229 146.126 149.796 145.561C149.497 146.693 149.014 147.812 148.933 148.959C148.657 152.916 149.38 156.269 152.13 159.709C154.158 162.246 154.024 166.496 154.91 169.969C155.523 172.373 155.971 174.875 157.01 177.091C157.528 178.195 159.201 179.377 160.362 179.387C161.535 179.397 162.899 178.174 163.857 177.18C165.195 175.792 166.233 174.115 167.65 172.561C167.233 176.95 167.077 181.519 165.631 185.634C165.104 187.134 160.861 188.897 159.432 188.21C155.568 186.354 154.057 188.936 151.893 190.731C151.087 191.4 150.201 191.972 149.362 192.602C148.535 193.224 147.72 193.863 146.9 194.494C147.571 195.021 148.244 195.978 148.912 195.974C149.954 195.968 151.667 195.557 151.914 194.884C152.894 192.214 154.911 192.352 156.957 192.623C157.641 192.714 158.562 193.429 158.758 194.053C158.925 194.585 158.39 195.717 157.848 196.025C155.571 197.318 153.266 198.672 150.802 199.499C146.923 200.801 146.486 202.244 149.274 205.596C149.613 206.004 149.669 207.214 149.351 207.512C146.865 209.842 144.562 213.001 141.58 213.955C139.434 214.641 137.177 213.844 136.108 216.797C134.169 222.151 131.898 227.386 130.006 232.756C129.768 233.429 131.026 235.461 131.513 235.435C140.744 234.939 150.459 235.814 159.048 233.128C168.169 230.276 176.269 224.088 184.701 219.163C186.747 217.968 188.007 216.001 186.298 213.357C185.89 212.726 186.259 211.592 186.27 210.69C187.193 211.193 188.275 211.528 189.009 212.228C192.002 215.083 194.93 218.009 197.775 221.01C198.296 221.561 198.32 222.583 198.573 223.388C197.651 223.581 196.379 224.251 195.871 223.878C194.299 222.728 193.052 221.144 191.608 219.804C191.048 219.284 190.297 218.969 189.633 218.561C189.389 219.247 189.017 219.916 188.92 220.622C188.164 226.151 186.5 236.5 186.771 237.224C187.043 237.948 189.181 238.689 189.181 238.689C189.181 238.689 198.093 235.62 202.324 235.862C207.738 236.171 213.005 238.617 218.613 236.614C219.647 236.244 221.01 236.305 222.065 236.648C222.813 236.89 223.297 237.942 223.9 238.632C223.279 238.942 222.689 239.379 222.032 239.541C215.26 241.216 208.529 241.557 201.668 239.674C200.537 239.364 189 242.5 182.9 237.711C182.9 237.114 181.525 236.576 180.974 236.605C176.218 236.858 171.473 237.444 166.718 237.516C156.832 237.665 146.933 237.291 137.059 237.665C131.365 237.88 125.731 239.495 120.033 239.825C113.88 240.181 107.925 243.231 101.373 239.932C98.3728 238.422 93.9389 239.756 90.1554 239.82C90.0357 239.822 89.9383 240.111 89.799 240.149C84.9019 241.461 75.769 235.953 74.9066 231.155C74.5331 229.077 74.3534 226.954 73.8233 224.921C73.6728 224.344 72.3924 223.483 71.9807 223.645C69.1176 224.77 66.3414 226.118 63.5494 227.42C62.5881 227.869 61.6614 228.391 60.7188 228.88C60.6439 227.409 59.9653 225.047 60.5972 224.619C63.5183 222.639 66.684 220.14 69.982 219.766C78.6312 218.784 84.4283 214.005 89.6498 207.811C89.9402 210.768 88.9333 214.184 90.2024 216.06C95.7234 224.221 103.019 230.398 112.548 233.813C117.945 235.748 118.607 235.273 121.041 230.159C123.689 224.595 123.971 217.959 129.228 213.442C131.396 211.579 133.465 208.021 129.196 205.204C128.636 204.835 128.902 203.215 128.786 202.175C129.49 202.64 130.172 203.457 130.904 203.505C133.055 203.646 134.891 208.789 136.884 204.771C138.772 200.964 139.028 196.329 139.843 192.027C139.999 191.202 139.707 189.83 139.122 189.416C137.498 188.265 135.611 187.487 133.828 186.561C133.185 187.878 132.681 189.29 131.86 190.484C131.073 191.627 129.957 192.544 128.985 193.561C128.623 192.992 127.818 192.223 127.97 191.886C129.092 189.396 129.997 185.37 131.749 184.93C134.571 184.223 138.721 182.719 141.088 187.106C141.971 188.743 143.275 190.123 146.151 188.696C154.496 184.555 154.618 184.802 151.2 175.361C151.096 175.071 150.966 174.784 150.905 174.484L150.898 174.453C149.187 166.103 149.173 166.035 141.369 166.656C140.492 166.726 139.178 168.005 138.995 168.911C138.283 172.446 133.368 177.744 129.776 177.414C126.183 177.085 123.158 175.233 122.798 170.797C122.711 169.727 121.357 168.761 120.586 167.747C119.879 168.663 118.96 169.485 118.502 170.512C116.56 174.871 115.167 179.534 112.764 183.609C110.976 186.64 108.218 189.317 105.343 191.392C104.01 192.355 101.372 191.511 99.3251 191.486C100.769 190.426 102.208 189.359 103.659 188.309C104.037 188.035 104.477 187.842 104.842 187.554C105.545 186.998 106.216 186.401 106.9 185.82C106.055 185.401 105.218 184.637 104.366 184.621C100.892 184.555 98.2905 183.529 96.7782 180.03C95.4324 176.916 93.5658 174.024 91.8832 171.06C91.5642 170.498 91.0311 170.057 90.5967 169.561C90.3644 170.259 89.7495 171.118 89.9633 171.63C91.1495 174.472 92.4689 177.265 93.8712 180.009C96.2014 184.569 98.1759 189.162 95.8903 194.336C93.9351 198.763 91.8997 203.154 89.8998 207.561C90.1072 204.669 88.3281 204.243 86.6118 205.644C83.8163 207.926 81.7283 210.772 77.2419 208.858C76.1206 208.38 73.7151 210.912 71.8998 212.311ZM111.982 101.13C110.317 102.946 109.003 105.085 107.69 107.224C107.104 108.179 106.517 109.135 105.9 110.061C104.718 112.449 103.432 114.598 102.199 116.659C100.648 119.251 99.1806 121.704 98.1081 124.319C97.9928 124.6 97.8866 124.871 97.7847 125.131C96.9306 127.311 96.3815 128.712 93.3538 128.66C90.3942 128.609 90.2104 127.155 89.9717 125.267C89.9267 124.911 89.8797 124.54 89.8118 124.16C89.0523 119.906 88.1794 115.671 87.3066 111.436C87.1585 110.717 87.0102 109.998 86.8626 109.279C85.8291 104.245 84.823 99.2076 84.0348 94.1357C83.3215 89.5448 86.2783 86.9358 90.8568 85.352C92.663 84.7272 94.136 83.1677 95.618 81.5988C96.3662 80.8067 97.1167 80.0122 97.9134 79.3343C98.9449 78.4569 100.04 77.6541 101.135 76.8513C101.626 76.4911 102.117 76.131 102.603 75.764C103.357 77.1176 104.912 77.4168 106.486 77.7198C108.808 78.1666 111.172 78.6214 111.068 82.4782C111.029 83.9416 111.86 85.4178 112.699 86.9062C113.133 87.6773 113.57 88.4517 113.888 89.2292C115.659 93.5606 115.389 97.4147 111.982 101.13ZM115.108 126.514C115.677 123.995 116.432 121.318 117.928 119.281C118.573 118.403 119.884 118.015 121.195 117.627C121.783 117.453 122.372 117.279 122.9 117.061C130.085 115.514 135.94 117.196 140.765 122C141.298 122.531 141.652 123.651 141.48 124.348C141.363 124.822 140.491 125.168 139.799 125.443L139.797 125.443C139.795 125.444 139.792 125.445 139.789 125.446C139.714 125.476 139.641 125.505 139.571 125.534C139.223 125.675 138.825 125.695 138.428 125.715C138.25 125.724 138.073 125.733 137.9 125.752L138.385 128.547C138.597 128.441 138.806 128.328 139.015 128.216C139.484 127.963 139.953 127.711 140.449 127.534C141.146 127.287 141.863 127.098 142.581 126.909C142.888 126.828 143.195 126.747 143.5 126.661C143.399 126.952 143.295 127.241 143.192 127.531C142.967 128.161 142.742 128.79 142.539 129.426C142.21 130.456 141.875 131.483 141.539 132.51L141.537 132.514L141.536 132.518L141.535 132.522L141.534 132.526C140.624 135.308 139.714 138.091 138.944 140.911C138.534 142.414 138.344 143.977 138.154 145.539C138.075 146.186 137.997 146.832 137.903 147.475C137.66 149.13 133.045 152.165 131.57 151.486C131.274 151.35 131.112 149.925 131.407 149.648C135.548 145.763 135.931 140.755 136.314 135.762C136.404 134.586 136.494 133.41 136.633 132.25C136.693 131.747 135.655 130.594 135.327 130.665C134.466 130.85 133.073 131.495 133.029 132.048C132.992 132.507 132.984 132.967 132.976 133.413C132.934 135.82 132.899 137.806 128.415 136.875C126.265 136.429 127.899 138.975 128.874 140.033C131.612 143.002 131.347 146.991 127.914 148.831C127.056 149.291 124.145 148.119 124.083 147.506C123.713 143.825 123.746 140.081 123.942 136.374C124.144 132.57 122.697 130.01 119.182 128.546C119.103 128.513 119.02 128.478 118.934 128.443C118.851 128.409 118.766 128.373 118.678 128.337C117.178 127.718 115.036 126.834 115.108 126.514ZM89.447 221.536C92.6675 225.437 96.104 229.184 99.7146 232.724C100.471 233.465 101.647 233.778 102.824 234.09C103.363 234.233 103.901 234.377 104.4 234.561C106.233 235.351 107.066 236.141 107.9 236.932C107.569 236.998 107.234 237.094 106.899 237.191C106.166 237.402 105.433 237.614 104.752 237.503C103.63 237.32 102.494 236.986 101.363 236.653C99.3385 236.056 97.3317 235.465 95.4525 235.762C91.8382 236.335 88.7893 235.172 85.7511 234.014C84.2549 233.443 82.7613 232.874 81.204 232.513C78.4984 231.886 77.2054 222.592 79.4154 220.545C83.5675 216.699 85.7378 217.043 89.447 221.536ZM240.804 228.116C241.157 228.561 240.428 230.677 240.149 230.687C237.584 230.771 235.013 230.695 232.442 230.618C231.761 230.598 231.08 230.578 230.4 230.561C230.328 229.227 230.636 227.783 231.207 227.669C231.802 227.551 232.451 227.569 233.094 227.587C234.864 227.637 236.597 227.685 237.065 224.896C237.426 225.192 237.801 225.476 238.176 225.761L238.355 225.897C239.248 226.576 240.128 227.265 240.804 228.116ZM140.541 211.389C140.149 211.532 139.295 211.476 139.259 211.346C139.237 211.265 139.214 211.182 139.19 211.098C138.992 210.402 138.767 209.61 139.001 209.041C139.459 207.93 140.067 206.881 140.675 205.832C140.92 205.41 141.165 204.987 141.4 204.561C141.809 203.67 142.052 202.865 142.27 202.142C142.505 201.366 142.711 200.682 143.064 200.087C143.295 199.698 145.499 199.777 145.794 200.258C146.831 201.952 142.591 210.64 140.541 211.389ZM55.8998 70.3998L61.3998 68.5608C64.5473 68.0417 66.6947 67.5225 68.8423 67.0033C68.3272 67.3475 67.8129 67.6928 67.2986 68.0382L67.2942 68.0411C65.92 68.964 64.5458 69.8869 63.1561 70.7859C63.1031 70.8202 63.0487 70.856 62.9932 70.8925L62.991 70.894L62.9901 70.8946C62.5135 71.2083 61.9563 71.5751 61.4988 71.5113C60.132 71.3208 58.7799 71.0247 57.4278 70.7286L57.4261 70.7282C56.9176 70.6169 56.4091 70.5055 55.8998 70.3998ZM166.953 202.007L164.9 200.061C166.33 197.336 167.382 194.975 168.406 192.676L168.411 192.665L168.419 192.648C168.584 192.277 168.749 191.907 168.914 191.538C169.028 191.284 169.235 191.072 169.441 190.86C169.537 190.761 169.632 190.663 169.719 190.561C169.844 190.678 170.01 190.81 170.176 190.942C170.532 191.225 170.889 191.508 170.839 191.647C169.831 194.494 168.75 197.315 167.669 200.137C167.43 200.76 167.191 201.384 166.953 202.007ZM126.304 226.465L127.9 221.061C129.169 218.33 130.438 216.6 131.708 214.869L131.268 216.467L131.264 216.481L131.26 216.495C130.855 217.968 130.45 219.441 130.047 220.915C130.007 221.063 129.982 221.223 129.957 221.382C129.907 221.697 129.857 222.011 129.688 222.236C128.894 223.291 128.057 224.315 127.221 225.339C126.915 225.714 126.609 226.089 126.304 226.465ZM125.9 152.479L120.9 154.061C121.265 152.561 121.968 151.148 123.058 150.721C123.487 150.553 124.215 151.148 124.943 151.744L125.066 151.845C125.353 152.079 125.637 152.306 125.9 152.479ZM122.151 234.273C122.958 232.509 123.905 230.807 124.885 229.129C124.951 229.017 125.237 229.034 125.523 229.051C125.656 229.058 125.789 229.066 125.9 229.061C125.092 231.868 124.284 233.676 123.477 235.484C123.329 235.352 123.134 235.199 122.939 235.046C122.519 234.716 122.099 234.386 122.151 234.273ZM40.5533 238.503C40.2565 238.414 39.9477 237.824 39.9289 237.442C39.8764 236.381 39.8849 235.317 39.8934 234.253C39.8966 233.856 39.8998 233.458 39.8998 233.061C40.8738 234.42 41.3571 236.277 41.7668 238.151C41.7766 238.196 40.9081 238.609 40.5533 238.503ZM89.4512 164.563C89.452 164.547 90.3476 164.547 90.3484 164.563C90.393 165.477 90.396 166.392 90.3989 167.308L90.3998 167.561C89.4033 166.561 89.4024 165.561 89.4512 164.563ZM178.9 227.061C178.089 227.443 177.278 227.823 176.466 228.203C174.089 229.316 171.712 230.43 169.356 231.585C168.97 231.774 168.656 232.108 168.342 232.442C168.197 232.597 168.052 232.751 167.9 232.892C168.07 232.962 168.241 233.055 168.412 233.148C168.782 233.348 169.152 233.549 169.507 233.526C170.581 233.456 171.665 233.418 172.75 233.379C175.879 233.268 179.015 233.156 181.926 232.297C183.129 231.942 183.913 230.098 184.675 228.303C184.971 227.606 185.264 226.916 185.577 226.324C185.731 226.034 185.652 225.62 185.573 225.207C185.536 225.016 185.5 224.826 185.486 224.648C185.222 224.735 184.959 224.822 184.695 224.91L184.191 225.077C183.043 225.458 181.895 225.839 180.745 226.211C180.734 226.214 180.723 226.217 180.712 226.221C180.697 226.226 180.682 226.231 180.666 226.235L180.574 226.264C180.18 226.385 179.727 226.524 178.9 227.061Z" fill="black"/>
<path d="M168.15 172.561C166.963 168.125 165.891 163.711 165.126 159.246C164.243 154.085 163.652 148.875 162.887 143.693C162.635 141.989 162.267 140.3 161.893 138.617C160.912 134.203 160.154 129.716 158.805 125.416C157.987 122.812 156.463 120.337 154.854 118.092C150.877 112.545 147.044 106.815 142.423 101.836C139.294 98.4647 139.453 95.1763 140.471 91.5646C141.721 87.1246 143.563 82.8527 144.853 78.4217C146.03 74.375 148.007 73.3709 151.439 75.6277C152.896 76.5861 154.191 77.7913 155.646 78.7529C156.199 79.1183 157.529 79.3871 157.605 79.2395C160.738 73.1092 163.637 78.6071 165.495 79.946C171.581 84.3318 173.423 91.0544 173.931 98.3028C174.829 111.115 171.645 123.26 168.579 135.509C166.657 143.187 167.029 150.973 169.413 158.729C170.802 163.243 171.385 168.151 168.15 172.561ZM157.4 90.5609C158.9 91.8773 160.49 93.1069 161.865 94.5436C162.663 95.3776 162.904 96.7988 163.765 97.5054C165.331 98.7907 167.173 99.7404 168.9 100.83C167.446 102.694 166.336 105.138 164.443 106.258C162.545 107.38 159.868 107.205 157.52 107.508C157.364 107.528 157.109 106.786 156.9 106.399C158.77 105.453 160.634 104.494 162.518 103.575C162.789 103.444 163.243 103.625 163.459 103.46C163.984 103.061 164.418 102.543 164.888 102.072C164.301 101.902 163.707 101.564 163.128 101.589C159.965 101.725 157.145 101.51 156.815 97.3496C156.79 97.0378 155.562 96.8215 154.894 96.5609C154.749 97.2476 154.576 97.9298 154.465 98.6218C154.157 100.539 153.785 102.452 153.61 104.382C153.478 105.837 152.985 107.891 153.724 108.694C159.402 114.874 162.913 121.838 162.974 130.389C162.979 131.117 164.034 131.837 164.601 132.561C165.034 131.898 165.724 131.284 165.859 130.566C166.932 124.84 167.131 118.817 169.077 113.419C172.095 105.05 170.604 97.3301 167.849 89.4993C167.577 88.726 166.628 88.1632 165.913 87.6053C165.816 87.5294 165.165 87.9897 164.914 88.3134C163.734 89.8377 163.612 89.9047 162.943 88.1431C162.396 86.6993 162.378 85.0558 161.842 83.6057C161.548 82.8119 160.699 82.1993 160.016 81.6007C159.916 81.5132 159.23 81.8745 159.017 82.1726C157.701 84.0157 156.882 84.521 155.759 83.5225C151.705 79.9202 148.937 79.3826 147.797 85.9121C147.417 88.0944 145.74 90.0249 144.862 92.1556C144.335 93.4346 143.723 94.9957 144.021 96.2181C144.4 97.7776 145.368 99.6652 146.65 100.354C147.397 100.755 149.509 99.3419 150.56 98.2957C152.826 96.0378 154.804 93.4901 157.4 90.5609Z" fill="black"/>
<path d="M270.65 36.3109C270.233 37.1583 270.081 37.7602 269.897 38.3522C269.484 39.6798 269.056 41.0024 268.634 42.3272C268.162 42.0117 267.43 41.7945 267.268 41.3629C266.732 39.9396 265.782 38.2837 266.105 36.9959C267.228 32.5103 268.925 28.1719 270.193 23.7173C270.963 21.0095 271.539 18.2135 271.862 15.4179C272.715 8.02308 268.033 6.60926 261.731 7.6493C253.863 8.9477 246.122 10.9939 238.291 12.5366C227.642 14.6342 217.006 16.8865 206.27 18.4031C201.877 19.0237 197.235 17.9299 192.715 17.5135C192.181 17.4644 191.285 16.7454 191.302 16.3713C191.33 15.7659 191.855 14.8568 192.384 14.6636C193.84 14.1326 195.426 13.5375 196.926 13.6185C210.696 14.3619 223.778 10.5041 237.092 8.02265C242.317 7.04883 247.835 7.76398 253.176 7.25373C256.167 6.96802 259.193 6.04767 261.988 4.89313C270.203 1.49988 276.109 3.65619 275.862 14.2248C275.756 18.7572 275.267 23.2829 274.86 27.8033C274.805 28.4142 274.158 28.9529 273.871 29.5651C272.86 31.7209 271.887 33.8942 270.65 36.3109Z" fill="black"/>
<path d="M215.15 113.811C219.674 110.62 224.489 108.224 228.111 104.627C236.001 96.7917 243.285 88.3461 250.809 80.1426C251.263 79.6473 251.65 79.0896 252.067 78.5609C252.345 79.2131 252.997 79.9849 252.834 80.4964C252.182 82.5408 251.7 84.8603 250.383 86.4307C246.509 91.0501 242.467 95.5691 238.117 99.7375C232.986 104.655 227.758 109.565 222.047 113.763C211.642 121.411 199.935 126.716 187.824 131.113C187.305 131.302 186.693 131.234 186.125 131.286C186.328 130.6 186.317 129.552 186.768 129.287C189.561 127.641 192.462 126.18 195.317 124.64C201.848 121.119 208.373 117.588 215.15 113.811Z" fill="black"/>
<path d="M126.149 17.3108C123.141 16.8941 120.345 16.9485 117.637 16.4871C115.664 16.151 113.808 15.1343 111.899 14.4209C113.734 13.8009 115.576 12.639 117.403 12.6601C123.422 12.7297 129.455 13.0346 135.446 13.623L146.689 13.778C150.999 13 155.953 13.5608 160.61 13.5608C164.658 13.5608 168.716 13.4065 172.748 13.6628C173.839 13.7321 174.851 15.044 175.899 15.7856C174.896 16.044 173.897 16.5058 172.888 16.5304C157.393 16.9075 141.896 17.2275 126.149 17.3108Z" fill="black"/>
<path d="M170.149 23.3108C165.481 22.8942 161.06 22.7643 156.646 22.5176C156.047 22.4842 155.481 21.8659 154.899 21.5184C155.509 21.1992 156.09 20.7054 156.735 20.6016C157.707 20.445 158.724 20.5926 159.72 20.5559C168.558 20.2311 177.395 19.8916 186.233 19.5649C187.063 19.5342 187.966 19.3504 188.712 19.6028C190.48 20.2014 192.175 21.0193 193.899 21.7485C192.244 22.0192 190.598 22.4292 188.932 22.5359C182.758 22.9317 176.578 23.2275 170.149 23.3108Z" fill="black"/>
<path d="M111.149 150.811C108.296 154.404 103.731 156.242 103.364 161.402C103.306 162.21 100.83 162.845 99.4717 163.561C99.9144 162.427 100.162 161.16 100.832 160.182C104.841 154.332 107.083 147.126 113.699 143.259C114.622 142.72 115.533 142.161 116.449 141.611C116.404 142.956 116.851 144.64 116.209 145.577C114.921 147.454 113.037 148.923 111.149 150.811Z" fill="black"/>
<path d="M242.15 197.811C239.222 200.405 236.586 202.798 233.841 205.06C233.1 205.67 232.031 205.88 231.112 206.273C231.437 205.14 231.441 203.723 232.146 202.926C234.43 200.344 237.037 198.053 239.392 195.53C241.48 193.293 243.381 190.883 245.398 188.58C246.021 187.869 246.754 187.256 247.437 186.598C247.591 187.695 248.251 189.093 247.809 189.835C246.205 192.529 244.233 195.004 242.15 197.811Z" fill="black"/>
<path d="M242.9 178.561C243.566 176.506 244.101 174.873 244.944 173.42C245.562 172.355 246.586 171.525 247.428 170.589C247.586 172.023 248.297 173.695 247.801 174.847C245.973 179.089 243.82 183.2 241.585 187.247C241.261 187.834 239.824 187.807 238.902 188.063C238.901 187.174 238.588 186.117 238.958 185.427C240.135 183.232 241.566 181.173 242.9 178.561Z" fill="black"/>
<path d="M22.8994 124.561C25.2483 127.41 27.6814 129.684 29.8931 132.155C30.5252 132.862 30.5156 134.142 30.8003 135.16C29.8805 134.841 28.8135 134.719 28.0693 134.165C26.011 132.63 23.9456 131.053 22.1649 129.219C21.1297 128.153 20.3457 126.631 19.9942 125.182C19.7277 124.083 20.3228 122.776 20.5344 121.561C21.3227 122.394 22.111 123.228 22.8994 124.561Z" fill="black"/>
<path d="M141.899 21.5608C143.732 21.5608 145.075 21.459 146.395 21.5877C147.907 21.7351 149.399 22.0873 150.899 22.3505C149.344 23.0872 147.789 24.4413 146.233 24.443C141.873 24.4478 137.51 23.9213 133.156 23.5199C132.71 23.4788 132.317 22.8678 131.899 22.5214C132.177 22.2012 132.447 21.6095 132.732 21.6028C135.62 21.5341 138.51 21.5608 141.899 21.5608Z" fill="black"/>
<path d="M170.65 219.311C172.78 216.848 174.571 214.547 176.609 212.49C177.058 212.036 178.38 212.448 179.3 212.461C179.231 213.264 179.47 214.347 179.039 214.822C176.921 217.16 174.736 219.466 172.336 221.503C171.405 222.294 169.846 222.346 168.573 222.734C169.182 221.676 169.791 220.619 170.65 219.311Z" fill="black"/>
<path d="M24.1496 194.311C22.5663 192.297 21.1386 190.591 19.9688 188.725C19.6911 188.281 20.2781 187.297 20.4675 186.561C21.1435 186.926 21.956 187.157 22.472 187.68C24.6883 189.927 26.8844 192.202 28.9455 194.589C29.7837 195.56 30.2592 196.844 30.8996 197.986C29.669 197.78 28.2884 197.853 27.2485 197.293C26.132 196.692 25.3357 195.497 24.1496 194.311Z" fill="black"/>
<path d="M133.149 59.8109C134.152 60.1412 134.905 60.7216 135.658 61.302C132.335 63.2503 132.881 66.4663 132.833 69.5562C132.824 70.1953 131.971 70.8214 131.507 71.4535C130.924 70.9421 130.164 70.5362 129.787 69.9025C127.163 65.4958 130.151 62.8048 133.149 59.8109Z" fill="black"/>
<path d="M63.8997 88.5609C63.5663 90.7281 63.3267 92.4221 62.8615 94.0516C62.6172 94.9073 61.9777 95.6501 61.5167 96.4438C60.9777 95.7605 60.389 95.1101 59.908 94.3881C57.4498 90.6978 60.4258 88.0815 61.858 85.2074C62.0181 84.8861 63.1437 85.0461 63.8216 84.9828C63.8476 86.0088 63.8737 87.0349 63.8997 88.5609Z" fill="black"/>
<path d="M133.15 161.811C130.986 162.481 129.083 162.968 127.149 163.249C126.852 163.293 126.417 162.384 126.045 161.915C127.929 160.464 129.652 158.638 131.768 157.727C132.751 157.304 134.499 158.658 135.9 159.206C135.066 159.991 134.233 160.776 133.15 161.811Z" fill="black"/>
<path d="M158.899 164.561C160.664 166.492 162.231 168.306 163.056 170.41C163.422 171.345 162.291 172.866 161.839 174.122C161.192 173.372 160.212 172.719 159.964 171.856C159.278 169.471 158.899 166.999 158.899 164.561Z" fill="black"/>
<path d="M69.8994 229.561C71.2327 230.686 72.066 231.811 72.8994 232.936C70.4833 232.811 68.058 232.762 65.6616 232.473C65.3339 232.433 65.1499 231.201 64.8994 230.521C66.3994 230.201 67.8994 229.881 69.8994 229.561Z" fill="black"/>
<path d="M131.649 93.8108C131.899 94.7188 132.042 95.4162 131.873 96.0273C131.357 97.8897 130.721 99.7188 130.132 101.561C129.721 99.9002 129.299 98.2423 128.905 96.5777C128.762 95.9727 128.58 95.3484 128.602 94.7395C128.634 93.8244 128.831 92.9151 128.957 92.0033C129.771 92.5225 130.585 93.0417 131.649 93.8108Z" fill="black"/>
<path d="M112.899 19.5609C114.745 19.8942 116.115 20.1517 117.426 20.5877C118.295 20.8763 119.078 21.4209 119.899 21.8509C119.049 22.0875 118.182 22.5748 117.353 22.5163C114.187 22.2931 111.029 21.9271 107.878 21.5347C107.197 21.45 106.558 21.0341 105.899 20.7708C106.583 20.3674 107.234 19.7054 107.956 19.6152C109.417 19.4329 110.916 19.5609 112.899 19.5609Z" fill="black"/>
<path d="M130.899 38.5609C130.129 40.5609 129.359 42.0609 128.589 43.5609C128.836 41.5838 129.016 39.5948 129.366 37.636C129.494 36.9168 129.988 36.2476 130.378 35.5934C131.379 33.9168 132.414 32.2615 133.436 30.5976C132.924 32.5643 132.452 34.5432 131.874 36.4903C131.705 37.0601 131.233 37.5398 130.899 38.5609Z" fill="black"/>
<path d="M243.65 127.311C245.567 124.259 247.176 121.421 248.934 118.678C249.472 117.839 250.416 117.259 251.175 116.561C251.083 117.443 251.252 118.469 250.855 119.181C249.044 122.436 247.121 125.633 245.103 128.764C244.831 129.185 243.789 129.11 243.104 129.265C243.202 128.697 243.301 128.129 243.65 127.311Z" fill="black"/>
<path d="M193.15 90.8108C196.239 88.1606 196.682 90.3954 196.831 92.4903C196.901 93.4826 196.353 94.5898 195.862 95.5284C195.461 96.2957 194.729 96.8899 194.143 97.5608C193.729 96.8842 193.047 96.2416 192.956 95.5239C192.769 94.0576 192.9 92.5509 193.15 90.8108Z" fill="black"/>
<path d="M236.15 177.811C237.063 178.231 237.726 178.901 238.39 179.571C236.205 181.422 234.047 183.308 231.808 185.092C231.435 185.39 230.712 185.25 230.15 185.312C230.331 184.964 230.457 184.571 230.701 184.275C232.421 182.193 234.164 180.13 236.15 177.811Z" fill="black"/>
<path d="M257.65 239.811C257.193 238.768 256.986 237.975 256.779 237.182C258.683 237.338 260.587 237.495 262.49 237.651C262.301 238.447 262.246 239.854 261.897 239.93C260.618 240.213 259.24 240.054 257.65 239.811Z" fill="black"/>
<path d="M71.8994 212.811C73.5665 212.228 75.2228 211.794 76.9062 211.613C77.5381 211.545 78.2332 212.065 78.8994 212.316C78.6107 212.853 78.422 213.754 78.0164 213.865C76.0388 214.409 74.0032 214.742 71.9882 215.15C71.9586 214.453 71.929 213.757 71.8994 212.811Z" fill="black"/>
<path d="M154.9 138.561C154.58 137.381 154.26 136.7 153.94 136.02C154.504 135.944 155.108 135.712 155.619 135.842C156.031 135.948 156.449 136.433 156.659 136.852C157.384 138.301 158.019 139.795 158.688 141.272C157.425 140.535 156.163 139.798 154.9 138.561Z" fill="black"/>
<path d="M59.1495 84.8109C58.5563 85.4041 58.2727 85.8905 57.8584 86.0636C56.6653 86.5621 55.4195 86.934 54.1943 87.3557C55.0208 85.9993 55.7333 84.5408 56.7759 83.3783C56.9698 83.162 58.491 84.1361 59.1495 84.8109Z" fill="black"/>
<path d="M197.15 228.811C198.9 229.545 200.4 230.529 201.9 231.513C201.358 231.82 200.496 232.513 200.324 232.372C199.104 231.364 198.024 230.185 197.15 228.811Z" fill="black"/>
<path d="M134.649 80.3109C133.879 80.8942 133.359 81.2275 132.838 81.5609C132.837 81.0823 132.701 80.5533 132.858 80.1339C133.56 78.2591 134.346 76.4157 135.101 74.5609C135.034 76.3942 134.967 78.2275 134.649 80.3109Z" fill="black"/>
<path d="M147.65 72.3109C147.1 71.8604 146.8 71.1599 146.501 70.4594C148.028 70.1599 149.549 69.8161 151.088 69.6095C151.314 69.5793 151.627 70.2016 151.9 70.5221C150.566 71.035 149.233 71.548 147.65 72.3109Z" fill="black"/>
<path d="M65.1495 99.8108C67.7731 101.06 65.9794 102.086 64.8864 102.978C64.4755 103.314 63.5774 103.052 62.9014 103.063C63.5674 102.062 64.2335 101.061 65.1495 99.8108Z" fill="black"/>
<path d="M139.149 67.3109C139.758 66.5862 140.617 66.1114 141.475 65.6367C141.555 66.5061 141.635 67.3757 141.715 68.2452C140.943 68.0171 140.171 67.7889 139.149 67.3109Z" fill="black"/>
<path d="M68.1494 94.3108C68.3754 95.2275 68.3515 95.8941 68.3275 96.5608C67.5182 95.7514 66.7088 94.9421 65.8994 94.1327C66.5661 94.1087 67.2327 94.0848 68.1494 94.3108Z" fill="black"/>
<path d="M191.65 106.311C190.9 105.848 190.4 105.136 189.9 104.424C190.347 104.136 190.794 103.848 191.241 103.561C191.46 104.394 191.68 105.228 191.65 106.311Z" fill="black"/>
<path d="M33.1494 218.311C33.5869 217.748 34.2744 217.436 34.9619 217.123C35.1285 217.582 35.2952 218.04 35.4619 218.498C34.7744 218.519 34.0869 218.54 33.1494 218.311Z" fill="black"/>
<path d="M115.649 226.811C115.979 228.315 116.058 229.569 116.138 230.823C115.099 230.609 114.058 230.202 113.022 230.214C105.29 230.302 107.328 223.057 105.063 219.238C102.11 214.259 100.246 208.617 98.1237 203.179C97.7308 202.172 98.333 200.777 98.4757 199.561C99.2712 200.382 100.397 201.067 100.801 202.049C102.027 205.035 102.933 208.151 104.068 211.178C104.272 211.72 104.971 212.076 105.442 212.518C105.594 211.75 106.034 210.904 105.852 210.225C104.813 206.345 103.553 202.523 102.547 198.635C102.336 197.819 102.878 196.808 103.074 195.887C103.682 196.416 104.59 196.826 104.852 197.492C106.937 202.785 108.947 208.109 110.884 213.458C112.458 217.801 113.899 222.192 115.649 226.811Z" fill="black"/>
<path d="M147.65 172.811C147.207 174.42 146.859 176.412 145.754 177.015C142.974 178.531 139.867 179.463 136.852 180.519C136.347 180.696 135.649 180.321 135.04 180.201C135.179 179.968 135.27 179.59 135.465 179.524C139.924 178.022 141.316 171.258 147.65 172.811Z" fill="black"/>
<path d="M117.649 186.811C116.554 182.616 119.676 183.177 121.382 183.723C123.106 184.275 124.411 186.136 125.899 187.423C125.175 188.136 124.264 189.566 123.76 189.435C121.738 188.906 119.842 187.894 117.649 186.811Z" fill="black"/>
<path d="M95.8996 209.561C97.0457 212.54 98.2683 214.989 99.2854 217.52C99.5481 218.174 99.1657 219.087 99.0797 219.881C98.3834 219.638 97.6239 219.502 97.001 219.135C92.9489 216.745 93.9534 212.756 93.9822 209.109C93.9824 209.088 95.2329 209.077 95.8996 209.561Z" fill="black"/>
<path d="M123.9 203.561C125.022 204.939 125.644 206.317 126.266 207.695C125.47 207.81 124.456 208.291 123.918 207.972C122.152 206.924 119.106 205.499 119.172 204.375C119.373 201.012 121.631 202.313 123.9 203.561Z" fill="black"/>
<path d="M122.65 195.311C121.63 195.663 120.839 195.685 120.098 195.89C119.268 196.121 118.485 196.518 117.681 196.842C117.498 196.171 117.055 194.965 117.172 194.908C118.901 194.066 120.704 193.376 122.489 192.65C122.626 193.454 122.763 194.257 122.65 195.311Z" fill="black"/>
<path d="M149.9 183.561C148.566 182.824 147.215 181.604 145.958 180.294C145.902 180.236 146.615 179.183 147.134 178.932C147.408 178.799 148.244 179.284 148.464 179.688C149.048 180.754 149.435 181.929 149.9 183.561Z" fill="black"/>
<path d="M94.8996 107.561C94.3084 106.227 93.752 104.706 93.1203 104.674C89.4671 104.489 87.1046 103.945 88.7526 99.2317C89.3953 97.394 88.1965 94.9761 88.235 92.8296C88.2487 92.0625 89.4383 91.3165 90.091 90.5608C90.3604 91.3841 90.6812 92.1952 90.8795 93.0353C90.9907 93.5066 90.7644 94.0759 90.9268 94.5132C91.2992 95.5162 91.8167 96.4654 92.2752 97.4365C92.9789 96.8156 93.6501 96.1524 94.3934 95.5833C95.7475 94.5464 97.0334 93.0249 98.5545 92.7125C100.081 92.399 101.86 93.3137 103.529 93.6902C102.84 95.2928 102.506 97.2658 101.347 98.3777C100.462 99.2262 98.5374 99.0448 97.0624 99.1988C96.3953 99.2685 95.6972 99.0403 95.0131 98.9472C95.4054 99.7486 95.6159 100.745 96.2258 101.313C97.7171 102.699 99.5022 103.776 100.951 105.199C101.758 105.992 102.13 107.227 102.697 108.263C101.384 108.696 100.061 109.492 98.7591 109.458C97.4615 109.425 96.1852 108.561 94.8996 107.561Z" fill="black"/>
<path d="M104.899 89.5608C105.295 87.2274 105.69 85.3941 106.086 83.5608C106.691 85.5445 107.451 87.499 107.83 89.5247C108.006 90.4653 107.442 91.5445 107.213 92.5608C106.442 91.7274 105.671 90.8941 104.899 89.5608Z" fill="black"/>
<path d="M104.15 103.311C104.016 102.611 104.075 102.136 104.26 101.716C104.729 100.651 105.254 99.611 105.757 98.5608C106.138 98.9417 106.911 99.5376 106.839 99.6703C106.105 101.011 105.233 102.275 104.15 103.311Z" fill="black"/>
<path d="M129.65 119.811C130.9 122.475 132.165 124.826 132.755 127.337C132.96 128.209 131.491 129.475 130.787 130.561C130.158 129.566 129.422 128.62 128.944 127.557C128.694 127.004 128.999 126.226 128.873 125.586C128.735 124.889 128.387 124.234 128.131 123.561C127.707 124.074 127.245 124.561 126.868 125.107C126.248 126.006 125.806 127.069 125.046 127.814C124.64 128.211 123.704 128.234 123.046 128.145C122.652 128.092 122.072 127.527 122.022 127.136C121.705 124.634 126.52 119.752 129.65 119.811Z" fill="black"/>
<path d="M89.1496 225.311C89.7522 225.913 90.2114 226.208 90.4387 226.629C91.3684 228.348 92.2273 230.105 93.1122 231.848C91.0562 231.267 88.7591 231.074 87.0169 229.989C85.4937 229.04 84.4974 227.149 83.5023 225.531C83.3037 225.208 84.2901 223.615 84.5136 223.661C86.0083 223.968 87.4444 224.561 89.1496 225.311Z" fill="black"/>
</svg>
