<svg xmlns="http://www.w3.org/2000/svg" width="221" height="353"><path d="M 219.2 38.8 L 219.2 350.9 L 1.5 350.9 L 1.5 38.8 L 39.5 38.8 L 43.8 38.6 L 43.7 34.3 C 43.7 14.7 72.4 1.6 110.4 1.6 C 136.1 1.6 157.2 6.1 169.3 18.2 C 174.4 23.3 177 28.9 177 34.5 L 177 38.8 Z M 178.4 34.5 C 178.4 28.5 175.6 22.5 170.3 17.2 C 157.9 4.8 136.4 0.2 110.4 0.2 C 71.7 0.2 42.3 14 42.3 34.4 L 42.3 37.3 L 39.4 37.5 L 0.1 37.5 L 0.1 352.4 L 220.6 352.4 L 220.6 37.4 L 178.4 37.4 Z" fill="rgb(85,53,15)"></path></svg>