<svg width="112" height="134" viewBox="0 0 112 134" fill="none" xmlns="http://www.w3.org/2000/svg">
<path d="M111.083 131.711C74.3048 132.474 37.5262 133.237 0.747681 134C1.24094 94.5594 1.73421 55.119 2.22747 15.6785C2.23299 15.2376 2.25177 14.7586 2.53317 14.4191C2.88861 13.9902 3.51876 13.9452 4.07568 13.9338C39.6653 13.2042 75.2549 12.4745 110.845 11.7449C110.924 51.7335 111.004 91.7221 111.083 131.711ZM4.03737 132.662C39.2518 131.825 74.4662 130.988 109.681 130.152C109.531 91.2433 109.382 52.335 109.232 13.4266C74.563 14.0992 39.8938 14.7717 5.22459 15.4443C4.07523 15.4666 3.71195 16.9915 3.69547 18.141C3.15629 55.742 2.61712 93.343 2.07794 130.944C2.07203 131.357 2.07567 131.801 2.31716 132.136C2.68315 132.643 3.41221 132.677 4.03737 132.662V132.662Z" fill="black"/>
<path d="M58.9672 8.54361C58.3412 8.34035 57.5889 8.66584 57.3085 9.26131C57.478 9.91451 58.3015 10.2123 58.954 10.04C59.6064 9.86771 60.1133 9.36531 60.569 8.8676C61.2355 8.13967 61.8804 7.35062 62.1714 6.40752C62.4624 5.46442 62.326 4.32947 61.6014 3.65929C60.4882 2.62957 58.4716 3.02186 57.5093 1.8499C58.82 1.167 60.5059 1.27522 61.7186 2.12006C62.9312 2.96491 63.6169 4.509 63.4304 5.97511C63.2076 7.72646 61.9034 9.11733 60.6657 10.3763C60.038 11.0148 59.3082 11.6983 58.4128 11.6965C57.7102 11.6951 57.0873 11.264 56.5412 10.8219C55.4605 9.94727 54.4469 8.91779 53.9369 7.62448C53.4269 6.33117 53.5179 4.72732 54.4579 3.70309C55.1873 2.90845 56.3765 2.56985 57.415 2.86112C58.4536 3.1524 59.2933 4.06006 59.503 5.11807C59.2249 5.38372 58.7446 5.21996 58.4855 4.93576C58.2264 4.65156 58.0833 4.27427 57.8116 4.00207C57.0472 3.23625 55.6011 3.74362 55.1328 4.71905C54.6645 5.69447 54.9227 6.86468 55.3584 7.85509C55.5676 8.3306 55.9079 8.85118 56.427 8.87227C57.0157 8.89618 57.3962 8.2797 57.8888 7.9565C58.3814 7.63331 59.3365 8.08455 58.9672 8.54361Z" fill="black"/>
<path d="M7.33064 7.01724C7.01751 8.66083 6.70438 10.3044 6.39125 11.948C6.3152 12.3472 5.81976 12.6031 5.45026 12.434C5.6485 10.2989 6.12407 8.18971 6.86123 6.17613C7.22436 6.00799 7.40553 6.62415 7.33064 7.01724V7.01724Z" fill="black"/>
<path d="M55.2718 1.81674C55.0519 1.65689 54.832 1.49706 54.6121 1.33721C55.1507 0.521378 56.514 0.454237 57.1302 1.2132C56.5277 1.37315 55.9252 1.5331 55.3227 1.69305L55.2718 1.81674Z" fill="black"/>
<path d="M86.0503 35.3006C71.2222 35.7226 56.3941 36.1447 41.566 36.5667C36.2288 36.7186 30.8632 36.8691 25.572 36.153C45.7131 35.1604 65.8891 34.876 86.0503 35.3006V35.3006Z" fill="black"/>
<path d="M28.3898 111.674C47.5449 111.236 66.7 110.797 85.8551 110.359C87.6535 110.318 89.5754 110.31 91.0839 111.29C92.5925 112.27 93.3187 114.639 92.0255 115.889C92.657 114.617 91.7826 113.011 90.5294 112.342C89.2763 111.673 87.7834 111.69 86.3633 111.723C65.0981 112.221 43.833 112.719 22.5678 113.216C24.0925 111.841 26.337 111.721 28.3898 111.674V111.674Z" fill="black"/>
<path d="M25.6373 38.1169C45.6937 37.7075 65.7501 37.2982 85.8065 36.8888C85.6576 39.5602 85.5087 42.2316 85.3598 44.903C84.7914 42.7044 84.6399 40.3988 84.9155 38.1447C65.8428 38.5779 46.77 39.0112 27.6973 39.4445C29.0168 41.1429 31.4995 41.2486 33.6499 41.2048C50.2519 40.8663 66.854 40.5278 83.4561 40.1893C82.6449 42.3138 82.6235 44.6456 82.6123 46.9197C82.5321 63.2382 82.4519 79.5567 82.3717 95.8752C81.6044 95.4953 81.4943 94.4655 81.4872 93.6094C81.344 76.2757 81.3728 58.9405 81.5735 41.6074C64.8903 41.9189 48.2071 42.2305 31.5239 42.542C32.2908 42.902 32.3824 44.1615 31.6757 44.6287C29.6629 42.4581 27.6501 40.2875 25.6373 38.1169Z" fill="black"/>
<path d="M33.6753 109.814C30.6772 110.675 27.4659 110.784 24.4164 110.128C24.5861 108.129 27.2011 107.544 29.2066 107.494C47.4548 107.04 65.703 106.586 83.9512 106.132C82.4613 105.103 81.5233 103.319 81.5202 101.508C83.0973 103.29 84.6745 105.071 86.2516 106.852C67.0846 107.323 47.9177 107.795 28.7507 108.266C27.5621 108.295 26.0382 108.596 25.8424 109.769C28.4534 109.784 31.0643 109.799 33.6753 109.814Z" fill="black"/>
<path d="M85.6643 82.7706C85.6646 83.5704 85.5734 84.5307 84.864 84.9003C84.7556 71.6156 84.7294 58.3303 84.7853 45.0454C85.3537 44.8688 85.6501 45.7036 85.6503 46.2988C85.655 58.4561 85.6597 70.6133 85.6643 82.7706Z" fill="black"/>
<path d="M66.7053 53.8891C66.1384 53.9383 65.7375 53.2017 65.964 52.6797C66.1906 52.1577 66.8228 51.9103 67.3899 51.9571C67.957 52.004 68.4756 52.2819 68.9741 52.5563C70.2142 53.2388 71.4656 53.9504 72.4468 54.9705C73.428 55.9907 74.1184 57.3783 73.987 58.7877C72.9986 58.9557 72.4587 57.7252 72.0042 56.8315C71.0322 54.9206 68.8413 53.704 66.7053 53.8891Z" fill="black"/>
<path d="M61.7715 92.6721C62.1982 92.9962 62.8684 92.7934 63.1739 92.3532C63.4794 91.9129 63.4849 91.3246 63.3542 90.8049C62.8617 88.8477 60.3701 87.6929 58.5583 88.5821C58.1961 88.7599 57.587 88.8839 57.5428 88.4828C58.632 87.1285 60.6936 86.6688 62.255 87.4321C63.8164 88.1954 64.72 90.1047 64.3202 91.796C64.6451 91.8576 64.9699 91.9192 65.2947 91.9808C66.2425 87.5109 67.1901 82.8642 66.139 78.4175C65.9064 77.4336 65.5775 76.4706 65.4263 75.471C65.0994 73.3091 65.624 71.1005 66.4158 69.0624C66.6824 69.0219 66.949 68.9813 67.2156 68.9407C66.7156 71.8735 66.7535 74.8971 67.3269 77.8163C68.1303 81.9064 67.9693 86.1827 66.8606 90.2007C66.7489 90.6055 66.6333 91.0622 66.8447 91.425C67.0561 91.7879 67.748 91.8022 67.8026 91.3858C68.0048 89.8459 68.593 88.3582 69.4985 87.0964C69.6163 89.2969 69.4383 92.0223 67.4387 92.9484C66.9658 93.1674 66.4428 93.2487 65.9276 93.3277C64.266 93.5826 62.6043 93.8374 60.9426 94.0922C59.435 94.3234 57.4154 94.2552 56.9774 92.7942C56.473 91.1115 55.067 89.7287 53.3762 89.2522C55.1087 87.2966 56.8909 85.3851 58.7207 83.5202C59.1165 83.8523 59.5288 84.2075 59.7051 84.6932C59.8813 85.1789 59.7166 85.8291 59.2304 86.0041C57.6509 86.5724 56.2338 87.5844 55.1836 88.8939C56.2582 89.0643 56.9012 90.14 57.4699 91.0675C58.0387 91.995 58.91 92.9882 59.9868 92.8329C60.6007 92.7444 61.2776 92.297 61.7715 92.6721V92.6721Z" fill="black"/>
<path d="M87.194 108.379C87.3629 108.88 86.6275 109.159 86.0997 109.17C76.0961 109.375 66.0926 109.581 56.089 109.787C55.8964 109.476 56.4093 109.219 56.7748 109.206C66.9124 108.857 77.0525 108.581 87.194 108.379Z" fill="black"/>
<path d="M91.6021 32.037C91.3175 32.4382 91.0328 32.8393 90.7481 33.2405C90.7782 58.4442 90.6917 83.6481 90.4884 108.851C90.8851 109.209 91.2818 109.567 91.6785 109.925C90.9839 110.482 89.8705 110.059 89.3966 109.305C88.9227 108.551 88.9088 107.607 88.9096 106.716C88.9315 82.3716 88.9534 58.0271 88.9753 33.6826C67.1701 34.0248 45.3668 34.4863 23.5666 35.067C23.461 60.9385 23.1599 86.8092 22.6636 112.676C21.7006 112.784 21.3422 111.454 21.3515 110.485C21.5395 90.8329 21.7275 71.1804 21.9156 51.528C21.3342 51.296 20.7529 51.064 20.1716 50.832C21.7109 51.023 22.2769 48.8757 22.2376 47.325C22.1219 42.7693 22.0062 38.2137 21.8906 33.658C23.1243 34.416 24.9848 33.7435 25.4487 32.3718C26.6655 32.9037 27.9229 33.4448 29.2508 33.465C30.5786 33.4852 32.0088 32.8517 32.5203 31.6262C32.8894 32.9932 34.6961 33.2373 36.1117 33.2074C54.6085 32.8173 73.1053 32.4272 91.6021 32.037Z" fill="black"/>
<path d="M69.1641 93.1652C70.8763 92.5266 71.6726 90.1751 70.7007 88.6276C70.3769 88.1119 71.4203 87.694 71.8226 88.1511C72.225 88.6081 72.1493 89.2948 72.2465 89.8959C72.3438 90.497 72.9021 91.1653 73.4511 90.9019C73.5233 86.7001 70.2928 82.791 71.0227 78.6525C71.4965 75.966 71.463 73.1909 70.9245 70.5167C70.7577 69.6887 70.7725 68.4994 71.608 68.3758C73.2042 72.5711 71.796 77.306 72.5096 81.7377C72.9685 84.588 74.3003 87.2615 74.5781 90.1351C74.6237 90.606 74.6356 91.1038 74.4227 91.5262C74.1015 92.1635 73.3687 92.458 72.6974 92.7002C71.9789 92.9593 71.2603 93.2185 70.5418 93.4776C70.0324 93.6613 69.2504 93.6999 69.1641 93.1652V93.1652Z" fill="black"/>
<path d="M93.6308 115.19C93.9027 114.71 94.6341 115.062 95.029 115.447C96.7086 117.085 98.3883 118.722 100.068 120.36C100.07 120.928 99.154 120.735 98.7359 120.35C96.9548 118.711 95.2507 116.988 93.6308 115.19Z" fill="black"/>
<path d="M31.8692 56.4071C31.851 61.6709 31.8328 66.9346 31.8146 72.1983C31.8131 72.6394 31.4751 73.0567 31.0439 73.1497C30.9452 67.1597 30.9862 61.1675 31.167 55.1795C31.6965 55.1624 31.8711 55.8774 31.8692 56.4071V56.4071Z" fill="black"/>
<path d="M77.8623 77.7698C77.5542 78.3839 76.5998 78.0531 75.9634 78.3123C74.4955 78.9101 75.7105 81.8828 74.2171 82.4137C73.2956 81.1912 74.3629 79.4536 74.1676 77.9352C73.7693 74.8381 73.371 71.741 72.9726 68.6439C73.6962 69.0996 74.1368 69.9701 74.0758 70.823C74.5168 70.74 74.559 70.1283 74.4819 69.6862C73.8739 66.2014 72.6227 62.8298 70.8102 59.792C70.5647 59.3804 70.3018 58.9536 70.2686 58.4756C70.2353 57.9975 70.5231 57.4582 70.9979 57.3934C71.4727 57.3286 71.9024 58.0017 71.5475 58.3237C71.1281 58.7041 71.5487 59.3738 71.9339 59.7888C73.7338 61.728 74.8479 64.2914 75.0378 66.9304C75.0752 67.4491 75.3078 67.9299 75.488 68.4178C76.4423 71.0019 75.9439 73.8681 75.4341 76.5753C75.9407 76.6281 76.4668 76.4501 76.8372 76.1006C77.1086 76.6963 77.4537 77.2583 77.8623 77.7698Z" fill="black"/>
<path d="M31.0804 54.9097C31.0515 52.1884 31.0225 49.467 30.9936 46.7457C30.9876 46.1821 31.4876 45.3802 31.8721 45.7923C31.8788 48.4247 31.8854 51.0571 31.8921 53.6895C31.8936 54.2576 31.6308 55.0509 31.0804 54.9097V54.9097Z" fill="black"/>
<path d="M101.962 54.8732C101.681 54.0002 101.986 52.969 102.697 52.3898C103.409 51.8106 104.48 51.7207 105.278 52.1733C104.567 52.711 103.856 53.2487 103.145 53.7864C103.69 53.9089 104.235 54.0315 104.78 54.1541C104.914 54.6165 104.544 55.1549 104.064 55.1957C103.584 55.2365 103.129 54.7682 103.183 54.2897C102.776 54.4842 102.369 54.6787 101.962 54.8732V54.8732Z" fill="black"/>
<path d="M56.6305 62.1238C56.0705 62.7387 54.9575 62.7077 54.4325 62.0626C53.9076 61.4175 54.1034 60.3214 54.8194 59.8981C55.6287 59.5575 56.6008 59.6339 57.347 60.0967C56.6725 60.4434 56.1949 61.1468 56.1214 61.9016L56.6305 62.1238Z" fill="black"/>
<path d="M44.5315 126.594C47.0213 126.272 49.5268 126.073 52.036 125.997C52.2618 126.223 52.2649 126.632 52.0427 126.862C49.5335 126.969 46.9967 127.074 44.5315 126.594V126.594Z" fill="black"/>
<path d="M47.878 16.947C46.2262 17.6401 44.341 17.7621 42.6137 17.2876C42.2399 17.1849 41.8272 17.0111 41.703 16.6438C43.7635 16.4938 45.8422 16.5958 47.878 16.947Z" fill="black"/>
<path d="M18.2571 17.4596C20.8795 17.3399 23.502 17.2202 26.1244 17.1005C26.281 17.4943 25.7198 17.7671 25.2985 17.8118C22.9521 18.0606 20.567 17.9413 18.2571 17.4596Z" fill="black"/>
<path d="M57.4952 54.8566C57.7549 55.7254 58.0145 56.5941 58.2742 57.4629C58.3529 57.7263 58.4258 58.0323 58.2699 58.2587C58.0201 58.6216 57.4587 58.4612 57.0647 58.2639C56.2386 57.8501 55.2711 57.1655 55.462 56.2614C56.2718 56.0396 57.0013 55.5356 57.4952 54.8566V54.8566Z" fill="black"/>
<path d="M60.6371 103.528C58.6025 103.61 56.5655 103.633 54.5295 103.597C54.2115 103.592 53.8353 103.139 54.1507 103.098C55.6502 103 57.1497 102.902 58.6492 102.804C59.4049 102.755 60.3596 102.823 60.6371 103.528V103.528Z" fill="black"/>
<path d="M36.5135 16.7714C37.3348 16.7644 38.157 16.9647 38.883 17.3486C37.3937 17.8878 35.711 17.8732 34.2313 17.3082C34.8602 16.7976 35.7048 16.562 36.5072 16.6735L36.5135 16.7714Z" fill="black"/>
<path d="M85.5415 86.6593C85.4915 91.7362 85.4415 96.8131 85.3915 101.89C85.3849 102.566 85.3312 103.341 84.7936 103.75C84.6852 97.7287 84.693 91.7054 84.8168 85.6844C85.2575 85.4744 85.5463 86.1711 85.5415 86.6593Z" fill="black"/>
<path d="M59.2123 17.2525C58.667 17.3543 58.072 17.035 57.8554 16.5243C59.1794 16.1658 60.6174 16.2422 61.8959 16.7393C61.1448 17.2964 60.1267 17.4747 59.231 17.2059L59.2123 17.2525Z" fill="black"/>
<path d="M40.364 127.14C39.8365 127.285 39.0391 127.252 39.0131 126.706C40.1749 126.199 41.5162 126.115 42.7319 126.474C42.2047 127.153 41.2222 127.435 40.4153 127.14L40.364 127.14Z" fill="black"/>
<path d="M46.0635 19.8147C45.005 19.7898 43.9452 19.8162 42.8892 19.8935C42.4467 19.9259 41.8773 19.8903 41.7318 19.4712C43.056 18.6732 44.8816 18.818 46.0635 19.8147Z" fill="black"/>
<path d="M34.2249 27.3907C34.5115 26.4918 35.8206 26.6414 36.7025 26.9766C37.0846 27.1218 37.5502 27.4312 37.4136 27.8164C36.3366 27.9063 35.2405 27.76 34.2249 27.3907Z" fill="black"/>
<path d="M16.0442 26.9395C16.1834 27.4184 16.0102 27.973 15.623 28.2875C14.7638 27.7166 14.0807 26.8842 13.6884 25.9301C14.4737 26.2665 15.2589 26.603 16.0442 26.9395V26.9395Z" fill="black"/>
<path d="M71.7736 125.455C72.1949 125.339 72.8555 125.411 72.8029 125.844C71.6318 126.273 70.2949 126.23 69.154 125.726C69.955 125.344 70.8879 125.245 71.7512 125.451L71.7736 125.455Z" fill="black"/>
<path d="M104.435 18.9389C104.117 18.2773 104.597 17.3737 105.323 17.2666C106.049 17.1595 106.77 17.886 106.657 18.611C105.95 18.8191 105.225 18.9646 104.492 19.0455L104.435 18.9389Z" fill="black"/>
<path d="M24.0006 126.838C24.7912 126.716 25.6225 126.873 26.3134 127.277C25.0942 127.62 23.7836 127.633 22.5579 127.313C22.9196 126.924 23.4339 126.682 23.9639 126.649L24.0006 126.838Z" fill="black"/>
<path d="M31.7464 76.0213C31.7675 82.6007 31.7886 89.18 31.8097 95.7594C31.8173 98.1291 31.8249 100.499 31.8397 102.869C31.289 103.174 30.8856 102.274 30.8895 101.644C30.9445 92.7167 30.9995 83.7891 31.0545 74.8615C31.5617 74.8226 31.7447 75.5126 31.7464 76.0213V76.0213Z" fill="black"/>
<path d="M8.70261 17.3082C10.0269 16.9819 11.48 17.2168 12.634 17.9439C11.1477 18.1969 9.6295 18.2612 8.12719 18.1349C7.83399 17.8461 8.30301 17.4067 8.7026 17.3082H8.70261Z" fill="black"/>
<path d="M33.0701 17.8374C32.1729 17.8241 31.2756 17.8107 30.3784 17.7974C30.9369 16.8999 32.2336 16.5597 33.1607 17.0676C33.4165 17.1644 33.336 17.6371 33.0626 17.6437L33.0701 17.8374Z" fill="black"/>
<path d="M14.4127 126.938C15.0952 126.822 16.1029 126.982 16.0379 127.672C15.0203 127.894 13.9524 127.885 12.939 127.643C13.2943 127.241 13.8488 127.023 14.3829 127.077L14.4127 126.938Z" fill="black"/>
<path d="M61.5825 102.95C62.4999 102.488 63.6621 102.555 64.5207 103.119C63.674 103.814 62.3486 103.841 61.4736 103.183L61.5825 102.95Z" fill="black"/>
<path d="M31.086 127.252C29.7758 127.658 28.3406 127.65 27.035 127.229C28.3102 126.676 29.8171 126.685 31.086 127.252V127.252Z" fill="black"/>
<path d="M45.3428 75.9676C45.1797 76.2046 44.7574 76.0252 44.7055 75.7422C44.6537 75.4592 44.8392 75.1888 45.0409 74.9836C45.5082 74.5079 46.1206 74.1769 46.7745 74.0466C46.5369 74.8265 46.0012 75.5116 45.3015 75.9301L45.3428 75.9676Z" fill="black"/>
<path d="M15.6652 17.6258C15.9033 17.376 16.2766 17.264 16.6129 17.3413C16.1325 18.3613 14.4297 18.4381 13.8595 17.4653C14.3882 17.137 15.1134 17.1602 15.6199 17.5218L15.6652 17.6258Z" fill="black"/>
<path d="M12.444 23.7172C13.0168 23.9925 13.2491 24.8035 12.9088 25.3403C12.4626 25.1407 11.9995 24.9284 11.6911 24.5492C11.3827 24.1701 11.285 23.5713 11.6069 23.2035C11.8875 23.3659 12.1681 23.5283 12.4487 23.6907L12.444 23.7172Z" fill="black"/>
<path d="M56.252 125.772C56.7407 125.626 57.4579 125.603 57.5638 126.102C56.8704 126.573 55.9654 126.719 55.1589 126.49C55.1589 125.985 55.736 125.572 56.2142 125.735L56.252 125.772Z" fill="black"/>
<path d="M8.12948 52.2329C7.74583 52.2432 7.38421 51.8608 7.46388 51.4854C7.63231 50.7694 8.76512 50.5563 9.1822 51.1621C8.83072 51.5127 8.47924 51.8633 8.12775 52.2139L8.12948 52.2329Z" fill="black"/>
<path d="M33.442 26.6603C32.8098 27.4451 31.3667 27.2982 30.9057 26.402C31.6512 26.098 32.5216 26.1154 33.2544 26.4488L33.442 26.6603Z" fill="black"/>
<path d="M21.5417 130.125C21.0249 130.273 20.244 130.252 20.2056 129.716C21.2339 129.496 22.3107 129.504 23.3354 129.741C22.9317 130.231 22.1793 130.394 21.6093 130.114L21.5417 130.125Z" fill="black"/>
<path d="M86.2327 26.784C86.4098 25.7508 87.8781 25.2236 88.6719 25.9082C87.9477 26.2826 87.2235 26.657 86.4993 27.0313L86.2327 26.784Z" fill="black"/>
<path d="M33.3825 43.7215C34.2644 43.3541 35.3158 43.4213 36.1437 43.8982C35.2526 44.2999 34.1883 44.2972 33.2992 43.891L33.3825 43.7215Z" fill="black"/>
<path d="M11.1336 127.24C11.5811 127.13 12.293 127.272 12.1586 127.712C11.3959 127.704 10.6318 127.837 9.91681 128.102C9.69844 127.855 9.69875 127.444 9.91749 127.198C10.3167 127.199 10.716 127.199 11.1152 127.2L11.1336 127.24Z" fill="black"/>
<path d="M45.4075 73.366C44.9115 73.8996 44.1957 74.2227 43.4674 74.2416C43.6949 73.7275 44.0335 73.263 44.4534 72.8891C44.7395 72.6343 45.1349 72.4118 45.4899 72.5557C45.8449 72.6996 45.845 73.3726 45.4619 73.3726L45.4075 73.366Z" fill="black"/>
<path d="M67.8779 19.6499C67.3642 19.6517 66.8506 19.6534 66.337 19.6551C66.2639 18.9473 67.2464 18.4027 67.8079 18.8398C68.0916 18.9894 68.1284 19.4526 67.8719 19.6451L67.8779 19.6499Z" fill="black"/>
<path d="M55.4069 22.9584C55.4833 22.5543 55.9708 22.2858 56.3531 22.437C55.9481 23.2883 54.9838 24.2865 54.2639 23.6778C54.2904 23.1862 54.8559 22.8048 55.3216 22.9646L55.4069 22.9584Z" fill="black"/>
<path d="M94.0185 62.222C94.0171 61.8227 94.0156 61.4233 94.0141 61.0239C94.3574 60.6576 94.9124 61.3069 94.8159 61.7995C94.7194 62.2921 94.3746 62.7817 94.5492 63.2524C94.1257 63.4499 93.9422 62.7087 94.066 62.258L94.0185 62.222Z" fill="black"/>
<path d="M43.3775 27.4015C43.0881 26.9142 43.8574 26.4238 44.4075 26.56C44.9577 26.6962 45.4509 27.1097 46.0156 27.061C45.3009 27.4893 44.3616 27.5142 43.6252 27.1244L43.3775 27.4015Z" fill="black"/>
<path d="M8.15116 64.1719C7.93828 64.9322 7.23617 65.5303 6.45172 65.6197C6.63404 64.8326 7.29782 64.1783 8.08742 64.0072L8.15116 64.1719Z" fill="black"/>
<path d="M66.4329 115.952C65.7377 116.171 64.9292 115.98 64.4063 115.472C65.0434 115.032 66.0022 115.148 66.5154 115.728L66.4329 115.952Z" fill="black"/>
<path d="M26.9718 26.2508C27.247 26.1111 27.6269 26.2493 27.7479 26.5333C27.1876 26.6684 26.9576 27.4985 27.3686 27.9027C27.1239 28.091 26.745 28.0763 26.5157 27.8695C26.447 27.272 26.438 26.5407 26.9464 26.2194L26.9718 26.2508Z" fill="black"/>
<path d="M60.2371 126.426C59.7939 126.801 59.0265 126.681 58.7193 126.188C59.2866 125.776 60.0209 125.601 60.7129 125.714C60.9467 125.972 60.6173 126.467 60.2892 126.351L60.2371 126.426Z" fill="black"/>
<path d="M103.295 43.3979C103.23 42.8914 103.281 42.2478 103.754 42.0544C104.168 42.4703 104.321 43.1263 104.133 43.6823C103.905 44.0106 103.269 43.7972 103.285 43.3976L103.295 43.3979Z" fill="black"/>
<path d="M17.5954 55.6121C17.0565 55.1288 17.102 54.147 17.6834 53.7157C18.2718 54.1012 18.2739 55.1107 17.6872 55.4987L17.5954 55.6121Z" fill="black"/>
<path d="M64.4411 55.1775C64.4612 54.9925 64.5871 54.8341 64.7346 54.7206C65.731 53.9537 67.1601 55.0828 67.5336 56.2833C67.9072 57.4839 67.8286 58.8706 68.5922 59.8695C67.8488 60.0507 67.008 59.7155 66.5932 59.0726C66.1783 58.4296 66.2194 57.5254 66.6909 56.9227C67.0396 56.477 66.3003 55.9726 65.7351 55.9423C65.1699 55.912 64.3801 55.7402 64.4411 55.1775Z" fill="black"/>
<path d="M104.894 59.4534C105.182 59.5045 104.963 60.022 104.678 59.96C104.392 59.8981 104.264 59.5693 104.198 59.2845C104.037 58.5921 103.966 57.8792 103.985 57.1687C104.567 57.7341 104.879 58.5648 104.815 59.3733L104.894 59.4534Z" fill="black"/>
<path d="M97.0059 61.6246C97.0062 61.9238 97.0066 62.223 97.0069 62.5222C96.7881 62.6626 96.515 62.7156 96.2596 62.6672C96.0922 62.2417 96.0384 61.7721 96.1052 61.3197C96.4002 61.1225 96.8666 61.2977 96.9588 61.6404L97.0059 61.6246Z" fill="black"/>
<path d="M67.6186 102.778C68.1696 102.496 68.9078 102.651 69.2993 103.13C68.6494 103.326 67.957 103.38 67.2846 103.287C67.0316 103.113 67.285 102.619 67.5738 102.723L67.6186 102.778Z" fill="black"/>
<path d="M106.511 95.8618C106.264 96.5422 105.129 96.6148 104.798 95.9714C105.149 95.4516 105.996 95.3724 106.437 95.8182L106.511 95.8618Z" fill="black"/>
<path d="M80.2625 18.2699C80.5919 18.1196 81.0292 18.2905 81.1694 18.6243C80.796 18.9742 80.3288 19.223 79.83 19.3375C79.4945 19.0086 79.8068 18.3143 80.2755 18.3472L80.2625 18.2699Z" fill="black"/>
<path d="M7.25923 71.3118C6.88599 70.8725 7.00082 70.1119 7.4871 69.8024C7.81298 70.1835 7.99597 70.684 7.99274 71.1855C7.77004 71.3268 7.49186 71.378 7.23344 71.3251L7.25923 71.3118Z" fill="black"/>
<path d="M15.894 38.4727C16.1311 38.6512 16.2946 38.9246 16.3398 39.218C16.1623 39.455 15.8893 39.6183 15.5965 39.6627C15.3597 39.4851 15.1965 39.2122 15.1522 38.9195C15.329 38.6816 15.6034 38.5187 15.8968 38.4773L15.894 38.4727Z" fill="black"/>
<path d="M59.5242 25.9678C59.9564 25.8556 60.6336 25.9458 60.5622 26.3865C59.8775 26.5958 59.1327 26.6042 58.4434 26.4106C58.3502 25.9646 59.0455 25.8561 59.4873 25.9677L59.5242 25.9678Z" fill="black"/>
<path d="M96.4115 76.5653C95.8901 76.2256 96.2148 75.2226 96.8364 75.2529C97.227 75.6805 96.9855 76.4945 96.425 76.6399L96.4115 76.5653Z" fill="black"/>
<path d="M16.9654 129.775C17.5115 129.398 18.3296 129.486 18.7826 129.971C18.2044 130.35 17.3794 130.3 16.8513 129.854L16.9654 129.775Z" fill="black"/>
<path d="M31.4038 129.824C30.792 129.98 29.9433 130.02 29.7366 129.424C30.3857 129.269 31.0618 129.228 31.7249 129.303C31.9777 129.478 31.7255 129.971 31.4357 129.869L31.4038 129.824Z" fill="black"/>
<path d="M107.118 48.4625C107.024 48.7993 106.569 48.9731 106.275 48.7849C106.216 48.1812 106.438 47.3046 107.031 47.4316C107.187 47.7527 107.228 48.1282 107.145 48.4755L107.118 48.4625Z" fill="black"/>
<path d="M78.9602 125.184C79.4928 124.928 80.181 125.044 80.5998 125.461C80.0616 125.929 79.1309 125.828 78.7056 125.256L78.9602 125.184Z" fill="black"/>
<path d="M100.412 75.6665C100.012 75.7489 99.6356 75.2385 99.8323 74.8811C100.288 74.929 100.744 74.977 101.2 75.0249C101.227 75.4245 100.851 75.8032 100.452 75.7783L100.412 75.6665Z" fill="black"/>
<path d="M52.5166 109.46C53.0628 109.083 53.8808 109.171 54.3338 109.656C53.7556 110.035 52.9307 109.985 52.4026 109.539L52.5166 109.46Z" fill="black"/>
<path d="M49.6181 26.1597C49.2357 26.5973 48.5164 26.6889 48.0366 26.3611C47.9003 26.048 48.2403 25.6953 48.5816 25.6848C48.9229 25.6743 49.2277 25.8836 49.5005 26.0889L49.6181 26.1597Z" fill="black"/>
<path d="M90.8816 126.005C90.8667 125.61 90.8519 125.215 90.8371 124.819C91.4144 124.955 91.8458 125.55 91.7953 126.141C91.7738 126.624 90.8217 126.479 90.9446 126.012L90.8816 126.005Z" fill="black"/>
<path d="M59.1912 18.8194C59.6464 18.9625 59.952 19.4739 59.8624 19.9426C59.5141 20.0213 59.099 19.9482 58.8954 19.6549C58.6917 19.3615 58.8627 18.8518 59.2196 18.84L59.1912 18.8194Z" fill="black"/>
<path d="M18.7706 19.8325C19.1324 19.4305 19.741 19.2715 20.2531 19.4453C20.2574 20.1883 19.0252 20.5023 18.6733 19.8478L18.7706 19.8325Z" fill="black"/>
<path d="M12.7489 59.5335C12.8261 59.9777 12.2424 60.3725 11.8588 60.1355C11.861 59.8361 11.8632 59.5367 11.8655 59.2374C12.1169 58.913 12.7524 59.1231 12.761 59.5334L12.7489 59.5335Z" fill="black"/>
<path d="M75.6334 102.975C75.3876 103.169 75.1514 102.648 75.3494 102.406C75.9159 102.346 76.4945 102.406 77.0372 102.579C76.7936 103.035 76.1322 103.202 75.7007 102.917L75.6334 102.975Z" fill="black"/>
<path d="M29.4739 22.7186C29.7303 23.0071 29.4491 23.504 29.0737 23.5932C28.6982 23.6825 28.3157 23.5084 27.969 23.339C28.0957 22.8372 28.8118 22.8597 29.3105 22.9976L29.4739 22.7186Z" fill="black"/>
<path d="M102.057 17.3954C102.214 17.0483 102.372 16.7012 102.53 16.3541C102.848 16.6365 103.103 17.0863 102.931 17.4747C102.759 17.8631 102.01 17.819 102.033 17.3948L102.057 17.3954Z" fill="black"/>
<path d="M18.5958 126.948C19.0188 126.833 19.6815 126.907 19.6273 127.342C19.1764 127.493 18.7255 127.645 18.2746 127.797C18.081 127.502 18.258 127.04 18.5988 126.95L18.5958 126.948Z" fill="black"/>
<path d="M19.782 75.1889C20.2812 75.2206 20.6679 75.7899 20.5133 76.2656C20.2693 76.4859 19.8573 76.4858 19.6134 76.2654C19.6333 75.914 19.6532 75.5627 19.6731 75.2113L19.782 75.1889Z" fill="black"/>
<path d="M20.6159 22.0475C20.5778 21.7936 20.5397 21.5397 20.5016 21.2858C20.8737 21.063 21.3687 21.0636 21.7403 21.2873C21.7231 21.7823 21.1542 22.173 20.686 22.0113L20.6159 22.0475Z" fill="black"/>
<path d="M51.5672 92.7233C51.0797 93.7266 49.4956 92.9272 49.0317 91.9128C48.5678 90.8985 48.2065 89.5398 47.1034 89.375C46.2371 89.2455 45.4458 90.1017 45.4162 90.9771C45.3865 91.8525 45.9386 92.659 46.6283 93.1989C45.6622 93.4839 44.5316 93.057 43.995 92.2046C43.4583 91.3522 43.5621 90.1482 44.2366 89.4003C43.1232 89.5375 41.9594 89.6694 40.9072 89.2805C39.8549 88.8915 38.9691 87.804 39.2065 86.7076C39.819 83.878 40.8117 81.1309 42.1495 78.5634C43.3401 76.2784 39.6881 73.4468 41.0417 71.2544C42.0698 69.5891 45.1556 70.03 45.8382 68.1958C44.864 66.5472 44.0503 64.5202 44.8186 62.7661C45.7123 60.7259 48.8449 60.1646 50.3913 61.7677C51.9377 63.3707 51.2642 66.4811 49.1932 67.3008C49.5922 66.3366 49.9988 65.3292 49.9293 64.288C49.8599 63.2467 49.1578 62.1679 48.1226 62.0354C46.927 61.8822 45.8958 63.0855 45.8101 64.2878C45.7243 65.4901 46.3174 66.6309 46.9668 67.6464C47.1895 68.6672 46.3777 69.6353 45.4854 70.1788C44.593 70.7224 43.5511 71.0477 42.7995 71.7736C42.048 72.4995 41.7453 73.8694 42.549 74.5371C44.237 75.9397 43.5331 78.6323 42.6867 80.6572C42.007 82.2835 41.3273 83.9097 40.6476 85.5359C39.9748 87.1455 42.1368 88.5409 43.8814 88.5299C45.626 88.519 47.5727 87.9784 48.9802 89.0093C51.067 87.6407 53.4448 85.5528 52.7486 83.1563C51.988 80.5386 51.2275 77.9208 50.4669 75.3031C50.2293 74.4852 49.9914 73.6106 50.2408 72.7963C50.4903 71.982 51.4426 71.3274 52.2032 71.7106C52.83 72.0264 53.5006 71.1064 53.2358 70.4565C52.971 69.8066 52.2291 69.5034 51.5457 69.3439C50.8622 69.1845 50.1188 69.0797 49.6026 68.6041C50.1824 67.555 51.8109 67.7776 52.7621 68.507C53.7133 69.2365 54.4212 70.3201 55.5349 70.7636C56.9555 71.3294 58.5636 70.6701 59.8472 69.839C62.3016 68.2498 64.3115 65.9816 65.5939 63.3538C66.2358 62.0385 67.231 60.3468 68.6422 60.7347C67.1834 64.4326 64.6712 67.7082 61.478 70.076C62.8237 69.6081 64.1693 69.1403 65.515 68.6725C63.3125 71.1817 59.9767 72.6553 56.6386 72.5937C54.6555 72.5571 52.308 72.1408 50.9976 73.6297C52.5782 76.9711 53.5859 80.5826 53.9637 84.2596C54.115 85.7331 53.8084 87.6939 52.3464 87.9324C51.2958 88.1037 50.4032 88.9966 50.2323 90.0474C50.0614 91.0981 50.625 92.2279 51.5672 92.7233Z" fill="black"/>
<path d="M41.1408 27.2757C40.698 27.6154 39.9299 27.2104 39.9601 26.653C40.2773 26.4994 40.6467 26.456 40.9909 26.5319C41.1367 26.743 41.1881 27.0167 41.1288 27.2663L41.1408 27.2757Z" fill="black"/>
<path d="M75.3503 124.184C75.0916 124.347 74.8046 123.833 75.0697 123.681C75.4766 123.554 75.8834 123.427 76.2903 123.299C76.5178 123.798 75.86 124.413 75.3781 124.153L75.3503 124.184Z" fill="black"/>
<path d="M10.8258 45.3754C11.2688 45.1709 11.8277 45.5945 11.8403 46.0823C11.3971 46.4988 10.531 45.8781 10.7829 45.3245L10.8258 45.3754Z" fill="black"/>
<path d="M18.7241 41.9014C18.4749 42.1227 18.0592 42.123 17.8097 41.902C17.9655 41.5491 18.1214 41.1962 18.2772 40.8433C18.7177 40.7769 18.8015 41.4528 18.6862 41.8831L18.7241 41.9014Z" fill="black"/>
<path d="M51.2325 103.451C51.3298 102.809 52.3489 102.954 52.7869 103.434C52.3929 103.812 51.7005 103.818 51.2997 103.447L51.2325 103.451Z" fill="black"/>
<path d="M35.484 126.778C35.9273 126.408 36.6856 126.522 37.0001 127.006C36.5265 127.376 35.7619 127.289 35.3832 126.823L35.484 126.778Z" fill="black"/>
<path d="M56.8207 27.0773C55.5412 27.965 53.7653 26.5101 52.2733 26.956C51.848 27.0831 51.4691 27.3625 51.0286 27.4167C50.588 27.4709 50.0482 27.1269 50.1579 26.6968C50.2524 26.3265 50.7194 26.218 51.1009 26.1949C53.0412 26.0773 55.006 26.3805 56.8207 27.0773V27.0773Z" fill="black"/>
<path d="M62.0522 23.9821C62.0526 24.2812 62.053 24.5802 62.0534 24.8792C61.8406 25.0238 61.5658 25.0737 61.3157 25.0132C60.8951 24.571 61.5117 23.698 62.069 23.9465L62.0522 23.9821Z" fill="black"/>
<path d="M94.2573 18.811C93.646 18.5862 93.4716 17.6438 93.9619 17.2151C94.3599 17.5196 94.4871 18.1271 94.2446 18.5656L94.2573 18.811Z" fill="black"/>
<path d="M107.45 64.6247C107.795 64.8022 107.884 65.336 107.613 65.6151C107.281 65.7138 106.891 65.4584 106.849 65.1145C106.807 64.7705 107.123 64.4285 107.47 64.444L107.45 64.6247Z" fill="black"/>
<path d="M62.135 18.559C62.4588 19.228 61.1992 19.8624 60.8544 19.2039C61.1454 18.8485 61.5928 18.626 62.0518 18.6085L62.135 18.559Z" fill="black"/>
<path d="M29.5609 105.264C29.6877 104.804 30.2173 104.497 30.6799 104.616C30.2627 105.217 29.6764 105.699 29.0063 105.991C29.1412 105.73 29.2761 105.468 29.4111 105.206L29.5609 105.264Z" fill="black"/>
<path d="M6.78856 19.7608C6.4931 19.6767 6.40203 19.2183 6.64289 19.0276C6.99645 19.1836 7.35 19.3395 7.70355 19.4955C7.69918 19.9122 7.04625 20.1225 6.7995 19.7866L6.78856 19.7608Z" fill="black"/>
<path d="M84.6 128.697C84.618 128.078 85.5547 127.744 85.9605 128.212C85.6753 128.658 85.1099 128.906 84.5888 128.813L84.6 128.697Z" fill="black"/>
<path d="M13.8976 130.128C14.1238 129.519 15.0615 129.344 15.4925 129.83C15.1886 130.229 14.5807 130.357 14.1416 130.115L13.8976 130.128Z" fill="black"/>
<path d="M58.5645 29.712C58.3117 30.1545 57.6361 30.2772 57.2439 29.9519C57.2278 29.4449 58.0041 29.4424 58.4745 29.6321L58.5645 29.712Z" fill="black"/>
<path d="M48.1438 20.2609C48.5062 20.8312 47.4445 21.5421 47.0552 20.9898C47.4057 20.72 47.7562 20.4501 48.1068 20.1803L48.1438 20.2609Z" fill="black"/>
<path d="M33.1345 126.655C32.9093 127.255 32.0049 127.451 31.5515 126.998C31.6917 126.501 32.3999 126.528 32.8982 126.663L33.1345 126.655Z" fill="black"/>
<path d="M18.2919 48.3817C17.7691 48.378 17.7749 47.5869 17.9662 47.1003C18.4809 47.059 18.5029 47.8566 18.3135 48.3369L18.2919 48.3817Z" fill="black"/>
<path d="M14.1036 20.5517C13.6488 20.535 13.2165 20.2349 13.0419 19.8147C13.5226 19.4892 14.293 19.9838 14.1972 20.5563L14.1036 20.5517Z" fill="black"/>
<path d="M98.6428 49.6755C98.6827 49.3843 98.7372 49.0654 98.9619 48.8758C99.1866 48.6863 99.6297 48.7706 99.6501 49.0638C99.4679 49.5099 98.9711 49.805 98.4922 49.7518L98.6428 49.6755Z" fill="black"/>
<path d="M70.5771 22.3655C70.8239 22.1747 71.0668 22.6932 70.8606 22.9272C70.511 22.9964 70.1413 22.9609 69.8113 22.8264C69.6438 22.4991 70.196 22.2977 70.5596 22.3525L70.5771 22.3655Z" fill="black"/>
<path d="M15.315 53.1496C15.1718 53.5605 15.0286 53.9715 14.8854 54.3825C14.429 54.1394 14.5084 53.3225 15.0031 53.1718L15.315 53.1496Z" fill="black"/>
<path d="M18.2963 31.9083C17.7596 32.043 17.8314 31.0647 18.2753 30.7343C18.7447 30.8917 18.7429 31.7067 18.2729 31.8621L18.2963 31.9083Z" fill="black"/>
<path d="M100.859 31.1127C100.546 31.4839 99.8346 31.3487 99.6791 30.8881C100.033 30.5321 100.732 30.6562 100.942 31.1121L100.859 31.1127Z" fill="black"/>
<path d="M27.2254 129.921C26.8061 129.777 26.3104 129.887 25.9911 130.194C25.9086 129.806 26.1874 129.378 26.576 129.296C26.9645 129.214 27.3923 129.494 27.473 129.883L27.2254 129.921Z" fill="black"/>
<path d="M103.298 32.1935C102.739 32.2208 102.417 31.3487 102.86 31.0062C103.288 30.9532 103.35 31.6097 103.227 32.0224L103.298 32.1935Z" fill="black"/>
<path d="M52.1933 124.517C52.1864 123.946 53.0916 123.657 53.4171 124.125C53.2719 124.513 52.7249 124.68 52.3877 124.44L52.1933 124.517Z" fill="black"/>
<path d="M100.395 109.907C100.778 110.208 100.644 110.933 100.179 111.078C99.8212 110.729 99.9415 110.03 100.395 109.821L100.395 109.907Z" fill="black"/>
<path d="M64.0994 20.3407C64.4652 20.2644 64.7364 20.8123 64.4973 21.0995C64.2582 21.3867 63.7452 21.309 63.5342 21.0005C63.7373 20.7994 63.9404 20.5982 64.1434 20.3971L64.0994 20.3407Z" fill="black"/>
<path d="M51.7737 19.0371C51.9386 19.3542 51.7714 19.7973 51.438 19.9264C51.2013 19.7564 51.0392 19.486 51.0008 19.1971C51.2179 19.057 51.4914 19.0073 51.7439 19.062L51.7737 19.0371Z" fill="black"/>
<path d="M96.0926 44.1515C96.6518 44.1252 96.9718 44.9978 96.5283 45.3393C96.1012 45.3901 96.0395 44.7358 96.1624 44.3236L96.0926 44.1515Z" fill="black"/>
<path d="M4.90265 52.2483C5.07318 52.1263 5.24372 52.0043 5.41425 51.8823C5.66107 52.0776 5.83411 52.364 5.8922 52.6733C5.59534 52.8667 5.13221 52.6906 5.03889 52.3488L4.90265 52.2483Z" fill="black"/>
<path d="M56.5301 18.4821C56.8563 18.3532 57.3429 18.5777 57.2659 18.9199C56.9495 19.0774 56.5766 19.1181 56.2338 19.0324C55.9788 18.8645 56.2333 18.3693 56.5182 18.4788L56.5301 18.4821Z" fill="black"/>
<path d="M30.2258 31.3012C30.6201 31.1511 30.764 31.8409 30.5534 32.2065C30.1524 32.3511 30.008 31.6614 30.2077 31.2848L30.2258 31.3012Z" fill="black"/>
<path d="M21.9813 30.8224C21.7762 31.1613 21.1304 30.9715 21.1413 30.5754C21.3766 30.2442 22.0173 30.4447 22.0218 30.851L21.9813 30.8224Z" fill="black"/>
<path d="M94.6902 41.615C94.6379 42.0569 93.8239 42.0424 93.7874 41.599C93.8926 41.408 94.0477 41.2145 94.2643 41.1887C94.4808 41.1629 94.7067 41.425 94.575 41.5988L94.6902 41.615Z" fill="black"/>
<path d="M53.1265 16.8425C53.334 16.5049 53.9778 16.6952 53.9685 17.0912C53.7306 17.4195 53.0941 17.2191 53.0873 16.8137L53.1265 16.8425Z" fill="black"/>
<path d="M89.9759 29.21C90.3701 29.0599 90.514 29.7498 90.3034 30.1153C89.9024 30.2599 89.758 29.5703 89.9577 29.1936L89.9759 29.21Z" fill="black"/>
<path d="M8.84372 86.0817C9.24129 85.8297 9.71585 86.5982 9.31253 86.8408C9.01382 87.0304 8.82565 86.4731 8.90392 86.1281L8.84372 86.0817Z" fill="black"/>
<path d="M104.81 98.9987C105.018 98.6612 105.662 98.8514 105.652 99.2475C105.414 99.5758 104.778 99.3753 104.771 98.97L104.81 98.9987Z" fill="black"/>
<path d="M102.478 15.4194C102.775 15.1292 103.378 15.526 103.228 15.914C102.93 16.1647 102.383 15.8248 102.476 15.4461L102.478 15.4194Z" fill="black"/>
<path d="M8.76794 53.6782C9.01646 54.0799 8.24051 54.5481 8.00107 54.1409C7.90169 53.7532 8.50086 53.3876 8.73951 53.709L8.76794 53.6782Z" fill="black"/>
<path d="M80.0739 28.3407C79.8431 27.9229 80.632 27.475 80.8725 27.8873C80.9011 28.2241 80.4258 28.4714 80.1663 28.2547L80.0739 28.3407Z" fill="black"/>
<path d="M94.3435 105.235C94.1578 104.983 94.6805 104.732 94.8981 104.956C94.9864 105.234 94.9117 105.557 94.7104 105.768C94.5586 105.616 94.4067 105.465 94.2549 105.313L94.3435 105.235Z" fill="black"/>
<path d="M27.5867 30.3746C27.8391 30.772 27.0696 31.2464 26.8279 30.8423C26.6418 30.543 27.196 30.3572 27.5401 30.4339L27.5867 30.3746Z" fill="black"/>
<path d="M14.7081 42.0324C14.3745 42.1055 13.8386 41.9279 14.0155 41.6357C14.225 41.2208 15.0059 41.7058 14.7268 42.0775L14.7081 42.0324Z" fill="black"/>
<path d="M10.7664 39.6856C10.5283 39.2675 11.3535 38.8347 11.562 39.2682C11.3218 39.4162 11.0815 39.5641 10.8413 39.712L10.7664 39.6856Z" fill="black"/>
<path d="M9.49848 71.7746C9.31222 71.5235 9.83509 71.2717 10.053 71.4958C10.1412 71.7737 10.0665 72.097 9.86523 72.308C9.71338 72.1563 9.56152 72.0046 9.40967 71.8529L9.49848 71.7746Z" fill="black"/>
<path d="M75.0901 128.357C75.2497 128.554 75.1427 128.899 74.9 128.972C74.6572 129.044 74.3784 128.813 74.4044 128.561C74.4123 128.263 74.9047 128.146 75.0461 128.408L75.0901 128.357Z" fill="black"/>
<path d="M108.201 127.797C108.596 127.652 108.739 128.339 108.526 128.702C108.125 128.844 107.981 128.157 108.182 127.782L108.201 127.797Z" fill="black"/>
<path d="M100.448 33.1134C100.633 32.9821 100.892 33.2345 100.856 33.4589C100.82 33.6832 100.621 33.8397 100.437 33.9732C100.232 33.7224 100.228 33.3295 100.426 33.0738L100.448 33.1134Z" fill="black"/>
<path d="M107.127 69.6601C106.919 69.9977 106.275 69.8075 106.285 69.4114C106.523 69.0831 107.159 69.2836 107.166 69.6889L107.127 69.6601Z" fill="black"/>
<path d="M102.265 107.444C101.926 107.239 102.116 106.593 102.512 106.604C102.843 106.84 102.643 107.48 102.236 107.485L102.265 107.444Z" fill="black"/>
<path d="M47.0018 29.8191C47.0777 29.5277 47.5206 29.4234 47.7186 29.6503C47.7953 30.0736 46.9997 30.2395 46.9008 29.8208L47.0018 29.8191Z" fill="black"/>
<path d="M19.5134 24.1427C19.4515 23.9236 19.8721 23.8721 19.9598 24.0821C20.0475 24.2921 19.9109 24.5231 19.7802 24.7094C19.5157 24.8806 19.2606 24.3555 19.498 24.1484L19.5134 24.1427Z" fill="black"/>
<path d="M7.82946 60.8632C7.58161 60.9294 7.30734 60.8899 7.08829 60.7564C7.23219 60.5477 7.41886 60.3158 7.67234 60.3219C7.92581 60.3281 8.05197 60.7781 7.80101 60.8143L7.82946 60.8632Z" fill="black"/>
</svg>
