<svg width="179" height="200" viewBox="0 0 179 200" fill="none" xmlns="http://www.w3.org/2000/svg">
<path d="M152.257 119.6C153.139 119.133 153.778 120.542 153.795 121.54C154.074 138.484 154.354 155.428 154.633 172.371C154.645 173.125 154.629 173.958 154.123 174.516C153.558 175.139 152.61 175.178 151.77 175.173C110.515 174.924 69.26 174.674 28.005 174.425C27.7621 173.621 27.8209 172.372 28.6612 172.377C69.3854 172.638 110.11 172.898 150.834 173.158C151.539 173.163 152.328 173.134 152.818 172.628C153.3 172.132 153.315 171.362 153.301 170.671C152.953 153.647 152.605 136.624 152.257 119.6Z" fill="black"/>
<path d="M153.531 118.766C151.919 111.971 151.801 104.923 151.691 97.94C151.377 78.0387 151.063 58.1375 150.75 38.2362C111.463 37.9216 72.176 37.6069 32.8891 37.2923C30.5458 37.2735 27.9584 37.1612 26.26 35.5464C67.3142 35.8465 108.368 36.1465 149.422 36.4466C150.133 36.4518 150.935 36.4958 151.406 37.0283C151.801 37.4748 151.834 38.1255 151.847 38.7217C152.408 65.403 152.969 92.0843 153.531 118.766Z" fill="black"/>
<path d="M68.2651 21.7744C69.0626 20.9925 70.466 20.9443 71.3153 21.6696C69.2361 24.7053 67.3149 29.2569 70.1501 31.6021C71.9012 33.0506 74.7531 32.5191 76.272 30.8287C77.7909 29.1384 78.1281 26.6357 77.6751 24.4087C79.3209 24.4425 78.0384 26.9918 77.8376 28.6257C77.5842 30.687 80.0212 31.9865 82.0721 32.3137C85.0003 32.7809 88.237 32.4663 90.5238 30.5788C92.8106 28.6912 93.6388 24.9202 91.6842 22.6904C92.4482 21.386 94.3427 20.9082 95.634 21.6941C92.6219 24.2068 91.63 28.8478 93.3517 32.3722C95.5466 32.6911 96.4272 29.644 96.4268 27.426C96.8788 28.9618 97.3309 30.4976 97.783 32.0334C116.812 32.0995 135.841 32.2311 154.869 32.4281C154.874 33.6921 153.173 34.0842 151.909 34.0733C115.036 33.7552 78.1616 33.4371 41.2876 33.119C43.9069 32.2587 43.8811 28.6448 43.9123 25.888C43.9435 23.1312 46.1673 19.5396 48.5633 20.9033C45.8444 22.5294 45.2279 26.131 44.887 29.2808C44.8201 29.8991 44.7655 30.5733 45.1034 31.0955C45.8701 32.2803 47.8959 31.5151 48.4153 30.2029C48.9348 28.8908 48.5695 27.4181 48.5654 26.0069C48.5613 24.5957 49.2133 22.9184 50.6101 22.7172C49.832 25.9374 49.713 29.3155 50.2625 32.5825C52.9433 32.2165 53.4214 28.6381 53.6998 25.9468C53.9782 23.2555 56.3842 19.8951 58.6372 21.3933C55.0082 23.2366 53.3306 28.1607 55.0796 31.8361C56.2722 31.7908 57.4452 31.3306 58.3505 30.5528C57.7643 28.1201 58.4455 25.4177 60.1149 23.5536C59.1098 25.8794 59.0775 28.8028 60.6997 30.7492C62.3218 32.6956 65.8198 32.9757 67.2739 30.9008C67.6043 27.8586 67.9347 24.8165 68.2651 21.7744Z" fill="black"/>
<path d="M173.023 191.72C173.768 191.721 174.603 191.685 175.11 191.14C175.58 190.636 175.6 189.874 175.593 189.185C175.172 149.376 174.751 109.566 174.33 69.7567C175.591 109.732 176.852 149.707 178.112 189.683C178.147 190.771 178.128 191.997 177.347 192.755C176.621 193.459 175.499 193.498 174.488 193.495C121.389 193.338 68.2906 193.181 15.1921 193.023C13.4624 193.018 11.4588 192.879 10.4567 191.469C64.6456 191.553 118.835 191.636 173.023 191.72Z" fill="black"/>
<path d="M84.5848 184.563C85.0178 182.575 83.5267 180.572 81.6765 179.726C79.8263 178.879 77.7108 178.909 75.6765 178.956C74.9243 180.905 75.1393 183.201 76.2402 184.977C74.6803 184.542 74.4354 182.502 74.0688 180.924C73.7023 179.347 71.8718 177.644 70.7239 178.786C69.7656 180.869 70.1996 183.515 71.7732 185.182C70.577 185.829 69.4225 184.15 69.3392 182.793C69.256 181.436 69.3533 179.749 68.1658 179.087C66.8622 178.359 65.2193 179.833 65.1917 181.325C65.1641 182.818 66.136 184.121 67.0614 185.292C64.591 183.528 62.9094 180.699 62.54 177.686C91.5005 177.335 120.467 177.457 149.423 178.054C150.482 178.075 151.975 178.945 151.28 179.744C146.292 178.972 141.161 179.144 136.236 180.247C135.43 179.542 134.259 179.494 133.188 179.482C123.555 179.372 113.923 179.263 104.29 179.154C103.526 181.344 104.504 184.008 106.503 185.184C105.229 186.594 103.334 184.178 102.98 182.311C102.627 180.444 100.612 178.085 99.4227 179.567C97.9708 181.375 102.016 185.062 99.7937 185.725C99.6616 182.606 97.4769 179.673 94.526 178.654C94.2525 180.117 93.979 181.581 93.7055 183.045C93.6288 180.391 90.8938 178.141 88.275 178.577C85.6562 179.013 83.7977 182.028 84.5848 184.563Z" fill="black"/>
<path d="M166.337 18.8237C135.856 19.6202 105.357 18.9808 74.8724 18.3413C66.1805 18.159 57.4886 17.9767 48.7968 17.7944C87.9774 17.1588 127.174 17.5021 166.337 18.8237Z" fill="black"/>
<path d="M20.7034 49.4626C19.6577 49.2044 18.5929 49.7516 17.5183 49.8245C16.4437 49.8974 15.118 48.9568 15.5867 47.987C17.9278 48.1864 20.2689 48.3857 22.61 48.585C21.8464 46.241 22.2935 43.5374 23.7712 41.5641C24.2777 79.9373 24.7843 118.311 25.2909 156.684C25.3684 162.554 25.4449 168.443 24.7691 174.275C23.8433 162.876 23.6052 151.421 24.0562 139.993C24.1827 136.789 19.7874 135.806 16.5829 135.924C18.8819 135.686 21.1808 135.448 23.4797 135.211C23.2983 108.206 23.1168 81.2013 22.9354 54.1966C22.9228 52.3095 22.5355 49.9149 20.7034 49.4626V49.4626Z" fill="black"/>
<path d="M102.703 122.984C98.6078 118.7 101.164 111.022 97.6429 106.254C98.4315 105.451 99.8955 105.826 100.59 106.712C101.284 107.599 101.416 108.788 101.513 109.909C101.986 115.395 102.592 121.616 106.965 124.961C94.4561 125.317 82.1574 130.65 73.3483 139.538C72.2264 138.664 72.0447 136.968 72.5413 135.636C73.0378 134.303 74.0641 133.249 75.0629 132.236C75.3893 133.054 75.5132 133.953 75.4204 134.829C83.2074 128.493 92.7571 124.347 102.703 122.984Z" fill="black"/>
<path d="M147.192 157.845C146.449 120.332 145.706 82.8193 144.964 45.3063C144.945 44.3533 144.926 43.3991 144.98 42.4473C145.035 41.4687 145.666 40.1628 146.579 40.5199C147.207 84.0736 147.973 127.625 148.876 171.174C147.385 166.93 147.281 162.343 147.192 157.845Z" fill="black"/>
<path d="M6.54253 30.1117C6.67145 54.8778 6.80038 79.6438 6.9293 104.41C6.9345 105.408 6.80379 106.628 5.88986 107.028C5.1228 76.7464 4.92744 46.45 5.30399 16.1606C6.48649 20.6905 6.51816 25.4301 6.54253 30.1117Z" fill="black"/>
<path d="M113.518 140.217C126.584 123.526 128.084 98.672 117.12 80.5311C115.854 78.4348 114.439 76.4261 112.865 74.5493C112.135 73.6785 111.572 72.0174 112.668 71.7182C127.56 88.2698 130.317 114.586 119.178 133.865C117.741 136.35 116.015 138.802 113.518 140.217Z" fill="black"/>
<path d="M12.8286 32.6561C13.375 60.3944 13.9213 88.1327 14.4676 115.871C14.5674 120.937 14.6475 126.132 12.9592 130.91C12.9156 98.1585 12.8721 65.4073 12.8286 32.6561Z" fill="black"/>
<path d="M73.6798 82.6547C74.9169 81.0388 76.154 79.4228 77.3911 77.8069C78.3395 76.568 79.3406 75.2853 80.7473 74.6103C82.4267 73.8043 84.3953 73.9979 86.2404 74.2544C88.5365 74.5736 90.8465 74.9693 92.9865 75.8606C97.1725 77.6039 100.5 81.2927 101.804 85.6356C103.108 89.9785 102.363 94.8901 99.8301 98.651C99.1087 99.7222 99.5256 101.153 99.4401 102.442C99.3547 103.73 97.9667 105.173 96.9611 104.363C96.8884 101.629 97.4188 98.8803 98.5036 96.3697C99.1972 94.7645 100.123 93.2255 100.409 91.5003C100.617 90.2426 100.47 88.9477 100.164 87.7102C98.293 80.1577 89.7718 74.9564 82.1995 76.7448C81.0735 77.0108 80.1238 77.7592 79.3013 78.5729C75.5486 82.2857 73.7418 87.8656 74.6061 93.0734C74.8634 94.6241 73.3034 95.8439 72.8282 97.3422C71.7357 100.787 76.5536 103.951 75.6966 107.462C75.4836 108.334 77.095 108.454 77.5469 107.677C77.9988 106.901 77.8286 105.898 78.1924 105.077C78.6025 104.151 79.5974 103.641 80.5507 103.299C84.0048 102.06 87.9029 102.104 91.3283 103.42C88.8374 104.323 86.1518 104.684 83.511 104.471C82.0513 104.353 80.806 105.493 79.9169 106.657C79.0277 107.82 78.2088 109.157 76.8681 109.746C75.5273 110.335 73.5234 109.589 73.5567 108.125C73.6236 105.184 72.4588 102.235 70.4008 100.134C69.3023 99.0129 70.2638 97.1537 71.2743 95.9524C72.2848 94.751 73.3754 93.0258 72.4347 91.769C71.453 90.4574 73.9248 88.3526 72.8026 87.159C71.6571 85.9406 72.6631 83.9826 73.6798 82.6547Z" fill="black"/>
<path d="M165.95 99.1618C166.756 98.4123 166.101 96.9456 165.083 96.527C164.065 96.1083 162.915 96.3478 161.816 96.4219C160.718 96.496 159.44 96.2989 158.864 95.3607C160.068 94.8575 161.436 94.7541 162.702 95.0705C163.774 95.3385 165.051 95.8507 165.863 95.1011C166.682 94.3446 166.162 92.849 165.176 92.3281C164.189 91.8071 162.998 91.9608 161.896 92.1281C161.705 91.2737 162.595 90.4879 163.469 90.4418C164.344 90.3956 165.157 90.8501 165.914 91.2902C166.419 89.959 166.14 88.3615 165.212 87.2814C165.898 87.0217 166.584 86.762 167.271 86.5023C167.572 98.7668 167.872 111.031 168.173 123.296C168.192 124.086 168.115 125.047 167.408 125.401C166.986 124.508 166.564 123.615 166.142 122.723C167.027 118.39 166.993 113.871 166.042 109.552C166.681 107.142 166.688 104.568 166.061 102.155C165.941 101.693 165.787 101.216 165.445 100.883C164.284 99.7533 162.126 101.085 160.779 100.186C160.63 99.1861 162.097 98.8088 163.068 99.0911C164.039 99.3733 165.209 99.8502 165.95 99.1618Z" fill="black"/>
<path d="M17.0314 20.641C22.2738 20.2635 27.5612 20.5146 32.7442 21.387C31.2104 24.2195 30.5283 27.5064 30.8085 30.7154C30.9105 31.8831 29.6199 32.709 28.455 32.8394C27.29 32.9697 26.0777 32.7059 24.9571 33.0496C23.8364 33.3932 22.9004 34.7869 23.6056 35.7233C21.1563 36.0102 18.7071 36.2971 16.2579 36.584C15.4009 36.2815 15.3635 34.8186 16.2038 34.4727C17.0234 34.6622 17.8429 34.8516 18.6625 35.041C19.5504 35.2462 20.4879 35.4503 21.3596 35.1842C22.2312 34.918 22.9741 33.9987 22.7083 33.127C22.3768 32.0397 20.8927 31.8658 19.7882 32.1348C18.6838 32.4038 17.4932 32.8966 16.4661 32.4094C15.4391 31.9222 15.5731 29.8734 16.6917 30.0756C18.6557 30.4306 20.6197 30.7857 22.5838 31.1407C22.8851 31.1952 23.1965 31.2495 23.4947 31.1801C24.6578 30.9095 24.6399 29.2839 24.5607 28.0924C24.4348 26.2009 24.8657 24.2757 25.786 22.6184C25.356 21.6017 23.8093 21.5171 22.9661 22.2294C22.1229 22.9418 21.8442 24.1148 21.7366 25.2133C21.6291 26.3119 21.6357 27.4546 21.1793 28.4597C19.3063 27.03 21.7303 23.1207 19.6778 21.9634C18.3501 21.2148 16.8936 22.6783 16.0692 23.9603C15.5008 22.9755 15.0346 21.4995 15.9959 20.8923C16.2994 20.7006 16.6733 20.6668 17.0314 20.641ZM25.8791 29.6836C25.8432 30.1385 25.8123 30.6203 26.0196 31.0268C26.5805 32.1269 28.4083 31.7187 29.0216 30.647C29.635 29.5753 29.4793 28.2544 29.5108 27.0201C29.5446 25.6938 29.8186 24.374 30.3156 23.1439C29.8467 22.002 28.0497 22.0548 27.211 22.9605C26.3722 23.8662 26.233 25.1973 26.1359 26.4279C26.0503 27.5131 25.9647 28.5984 25.8791 29.6836V29.6836Z" fill="black"/>
<path d="M165.374 42.409C164.23 39.956 165.942 36.3832 163.837 34.6813C164.563 32.8092 165.288 30.9372 166.014 29.0652C166.793 39.5552 167.013 50.0867 166.674 60.6002C166.647 61.4498 166.513 62.4652 165.747 62.8339C164.913 60.9401 164.757 58.7551 165.316 56.7622C165.448 56.2896 165.621 55.8007 165.522 55.32C164.646 51.0789 164.596 46.669 165.374 42.409Z" fill="black"/>
<path d="M13.4935 184.274C13.3876 170.106 13.2816 155.937 13.1756 141.769C13.1514 138.53 13.1272 135.292 13.103 132.053C13.6049 131.375 14.441 132.55 14.445 133.393C14.5296 151.459 14.6143 169.524 14.699 187.589C13.6347 186.966 13.5027 185.507 13.4935 184.274V184.274Z" fill="black"/>
<path d="M174.157 33.5672C174.318 39.1379 174.479 44.7085 174.641 50.2792C174.75 54.0583 174.859 57.8373 174.969 61.6164C175.036 63.9585 175.103 66.3182 174.717 68.6293C174.097 69.1587 173.437 68.0056 173.425 67.1904C173.246 55.0001 173.067 42.8099 172.887 30.6196C173.935 31.0563 174.124 32.4328 174.157 33.5672V33.5672Z" fill="black"/>
<path d="M38.0588 20.973C39.9549 21.0459 41.851 21.1187 43.747 21.1916C41.6046 22.317 40.1902 24.7064 40.2342 27.1261C40.2711 29.1483 40.9791 31.7543 39.2219 32.7558C38.5958 33.1126 37.8322 33.1022 37.1132 33.0542C35.5539 32.9502 34.0033 32.7159 32.4829 32.3546C34.9618 30.101 33.8038 25.9565 35.0421 22.8436C35.3275 22.1262 35.7917 21.4224 36.5072 21.1325C36.993 20.9357 37.5351 20.9528 38.0588 20.973V20.973ZM37.6069 22.1428C36.0933 24.6025 35.3901 27.5518 35.6309 30.4298C35.6538 30.7037 35.687 30.9841 35.8131 31.2283C36.4329 32.4286 38.4361 31.5386 38.7905 30.235C39.1449 28.9314 38.6767 27.5249 38.9476 26.2014C39.1577 25.1749 39.8065 24.2249 39.7356 23.1795C39.6647 22.1341 38.156 21.2503 37.6069 22.1428V22.1428Z" fill="black"/>
<path d="M163.014 184.479C164.433 183.67 165.994 183.108 167.603 182.827C167.911 181.04 168.206 179.135 167.49 177.47C166.774 175.805 164.619 174.634 163.089 175.605C162.331 175.314 163.336 174.292 164.145 174.217C165.323 174.107 166.552 174.005 167.653 174.439C168.755 174.872 169.671 176.021 169.427 177.179C168.835 179.977 169.069 182.945 170.092 185.616C167.69 185.946 165.192 185.545 163.014 184.479Z" fill="black"/>
<path d="M164.206 78.2934C165.336 78.0398 166.015 76.82 166.101 75.6658C166.188 74.5117 165.834 73.3768 165.63 72.2376C165.196 69.8257 165.438 67.2959 166.322 65.0101C167.628 67.9206 167.316 71.2602 167.16 74.4466C166.97 78.3428 167.053 82.2524 167.409 86.137C166.023 85.5074 165.94 83.6104 165.99 82.0885C166.039 80.5666 165.693 78.6226 164.206 78.2934V78.2934Z" fill="black"/>
<path d="M166.734 140.988C166.155 140.243 165.097 140.141 164.182 139.911C163.267 139.68 162.246 139.003 162.381 138.07C163.468 138.465 164.632 138.867 165.758 138.603C166.884 138.34 167.859 137.112 167.413 136.045C166.459 133.761 166.479 131.088 167.468 128.819C168.06 128.534 168.456 129.466 168.457 130.123C168.468 135.347 168.48 140.572 168.491 145.796C167.581 145.679 167.188 144.567 167.174 143.649C167.16 142.732 167.297 141.713 166.734 140.988V140.988Z" fill="black"/>
<path d="M77.7078 122.083C76.2169 125.733 74.4101 129.254 72.3142 132.594C71.8111 133.396 70.7417 134.268 70.0759 133.595C71.5491 129.088 73.4209 124.11 77.7078 122.083Z" fill="black"/>
<path d="M77.9307 6.52854C79.4114 5.52827 79.9641 3.65379 80.9093 2.13737C81.8545 0.620952 83.8852 -0.656888 85.347 0.370759C82.5936 4.25453 79.1041 7.61447 75.1189 10.2189C74.4348 9.60995 74.8116 8.41708 75.524 7.84147C76.2364 7.26587 77.1718 7.04123 77.9307 6.52854V6.52854Z" fill="black"/>
<path d="M78.6838 112.185C79.6908 109.757 81.8648 107.953 84.2713 106.896C86.8256 105.775 89.825 105.423 92.4053 106.483C87.5841 107.694 82.9437 109.623 78.6838 112.185V112.185Z" fill="black"/>
<path d="M6.28741 11.7131C6.78051 12.7729 6.55144 14.1264 5.737 14.9649C4.39612 14.0464 2.4349 15.2055 1.93942 16.7535C1.44393 18.3014 1.94278 19.9728 2.43974 21.5202C1.53387 22.2712 0.368838 20.7605 0.477071 19.5888C0.585305 18.4172 1.09455 17.0682 0.321207 16.1814C-0.642134 15.0767 0.735766 13.3817 2.15126 13.0012C3.56676 12.6207 5.22941 12.7275 6.28741 11.7131V11.7131Z" fill="black"/>
<path d="M86.2912 21.4815C85.6329 23.0763 83.3838 23.0254 81.6934 22.68C80.1388 22.3623 78.5331 22.0272 76.9799 22.3518C75.4267 22.6764 73.9303 23.8536 73.7737 25.4326C73.7003 26.1726 73.9209 26.9315 73.757 27.6569C73.5931 28.3822 72.741 29.0418 72.1316 28.6155C72.3197 26.1456 72.9642 23.7111 74.023 21.4716C78.1038 21.1458 82.2109 21.1491 86.2912 21.4815Z" fill="black"/>
<path d="M92.312 11.254C91.5858 9.00666 90.2169 6.97104 88.4095 5.4508C87.7993 4.9376 86.8921 5.15786 86.0955 5.12508C85.2989 5.09229 84.3532 4.33835 84.7735 3.66087C86.421 2.87084 88.4554 3.38025 89.929 4.46034C91.4027 5.54042 92.4337 7.1048 93.4326 8.63466C93.883 9.32447 94.3536 10.1299 94.1311 10.9231C93.9086 11.7163 92.5653 12.0379 92.312 11.254V11.254Z" fill="black"/>
<path d="M59.4264 136.841C60.9531 138.624 62.4797 140.406 64.0063 142.189C58.6201 139.732 55.6827 133.957 53.3046 128.535C53.9752 127.911 54.8022 129.093 55.0577 129.973C55.8207 132.599 57.6475 134.763 59.4264 136.841V136.841Z" fill="black"/>
<path d="M78.4272 113.961C78.7254 114.303 78.826 114.806 78.6821 115.236C77.431 115.042 76.2744 116.547 76.7851 117.706C77.6309 119.625 75.2571 122.008 73.3351 121.17C73.2298 119.9 74.2129 118.633 75.4693 118.42C74.464 117.579 74.2283 115.958 74.9526 114.866C75.6769 113.775 77.2622 113.362 78.4272 113.961Z" fill="black"/>
<path d="M33.1117 18.0384C27.7535 17.9696 22.3953 17.9009 17.0371 17.8321C16.4878 17.8251 15.7087 17.4111 16.0358 16.9698C22.1635 16.8362 28.2941 16.8358 34.4218 16.9683C34.8248 17.5443 33.8146 18.0474 33.1117 18.0384V18.0384Z" fill="black"/>
<path d="M7.08616 110.561C7.09219 114.592 7.09822 118.623 7.10425 122.655C7.10559 123.551 6.87468 124.726 5.98381 124.824C5.75862 119.347 5.83382 113.858 6.20902 108.39C6.97002 108.719 7.08492 109.731 7.08616 110.561Z" fill="black"/>
<path d="M161.714 199.894C160.593 199.884 159.243 199.74 158.747 198.734C163.349 198.974 167.961 199.034 172.568 198.916C173.736 198.886 175.173 198.657 175.55 197.552C175.652 197.252 175.661 196.909 175.86 196.662C176.059 196.416 176.566 196.423 176.599 196.738C176.913 197.828 176.123 198.992 175.104 199.491C174.085 199.991 172.902 199.992 171.768 199.982C168.417 199.953 165.065 199.923 161.714 199.894Z" fill="black"/>
<path d="M2.12254 178.71C1.93274 175.106 1.74293 171.501 1.55313 167.897C1.43149 165.587 1.32201 163.196 2.15709 161.039C3.06765 166.883 3.05593 172.87 2.12254 178.71Z" fill="black"/>
<path d="M51.1166 14.4113C45.3775 15.234 39.5203 15.2285 33.7828 14.3948C39.5214 13.567 45.3796 13.5726 51.1166 14.4113Z" fill="black"/>
<path d="M173.792 19.3868C174.648 22.9355 174.429 26.736 173.172 30.1633C172.549 26.2568 172.461 22.2651 172.914 18.3351C173.41 18.3235 173.675 18.9048 173.792 19.3868V19.3868Z" fill="black"/>
<path d="M26.2848 175.14C24.9238 177.331 23.3199 179.371 21.5118 181.21C20.1581 182.587 17.3464 181.664 17.0726 179.753C17.7437 179.246 18.6336 179.948 19.4519 180.142C22.3566 180.832 23.3011 175.244 26.2848 175.14V175.14Z" fill="black"/>
<path d="M166.202 21.8326C166.525 24.7719 163.573 27.5933 160.651 27.136C161.894 24.8516 163.863 22.9699 166.202 21.8326V21.8326Z" fill="black"/>
<path d="M162.73 147.716C164.321 146.586 166.737 147.222 167.913 148.78C169.088 150.338 169.164 152.524 168.529 154.369C168.448 154.604 168.347 154.848 168.148 154.996C167.615 155.393 166.833 154.767 166.774 154.105C166.715 153.443 167.071 152.826 167.283 152.196C167.647 151.117 167.583 149.901 167.109 148.866C165.578 148.925 164.033 148.519 162.73 147.716Z" fill="black"/>
<path d="M64.2309 28.0344C64.2635 28.6183 64.3462 29.253 64.0301 29.745C63.8098 30.088 63.4041 30.3037 62.9965 30.2946C62.7974 28.5002 62.6032 26.6473 63.1263 24.9193C63.6494 23.1914 65.0841 21.606 66.8858 21.4914C65.0968 23.1386 64.0954 25.6064 64.2309 28.0344Z" fill="black"/>
<path d="M154.913 35.968C157.181 33.9587 160.554 33.2866 163.418 34.273C160.835 35.6634 157.832 36.2618 154.913 35.968V35.968Z" fill="black"/>
<path d="M156.524 31.9734C156.034 31.069 157.228 30.1864 158.219 29.9123C159.777 29.4814 161.395 29.2689 163.011 29.2827C163.388 29.6693 163.396 30.3542 163.029 30.7498C160.861 31.1577 158.692 31.5655 156.524 31.9734Z" fill="black"/>
<path d="M51.7098 185.308C50.5027 184.325 49.7761 182.777 49.7903 181.22C49.7989 180.284 49.8896 179.048 49.0104 178.728C48.5509 178.56 48.0328 178.769 47.5538 178.67C47.0748 178.572 46.7752 177.775 47.25 177.658C48.1323 176.886 49.6133 177.334 50.325 178.265C51.0367 179.197 51.1864 180.427 51.3114 181.592C51.4442 182.831 51.577 184.07 51.7098 185.308Z" fill="black"/>
<path d="M47.931 184.866C46.8298 185.568 45.4333 184.307 45.1424 183.034C44.8516 181.761 45.0862 180.359 44.4966 179.194C44.2346 178.676 43.8169 178.239 43.312 177.953C44.1586 177.251 45.5649 177.375 46.2753 178.215C45.3604 180.479 46.0613 183.295 47.931 184.866Z" fill="black"/>
<path d="M0.826691 117.768C0.804947 117.468 0.786049 117.153 0.916797 116.882C1.07859 116.548 1.47528 116.345 1.84124 116.409C2.4788 119.775 2.35009 123.284 1.46758 126.595C1.25395 123.652 1.04032 120.71 0.826691 117.768V117.768Z" fill="black"/>
<path d="M41.6151 181.141C41.5906 182.223 41.566 183.305 41.5415 184.387C40.5682 182.19 39.5647 180.007 38.5312 177.839C39.1688 177.071 40.5209 177.419 41.0805 178.246C41.6402 179.072 41.6378 180.143 41.6151 181.141V181.141Z" fill="black"/>
<path d="M162.042 73.1609C163.055 72.8367 164.265 73.3208 164.774 74.2541C162.229 75.084 159.359 74.8659 156.968 73.661C158.554 73.0121 160.329 72.8349 162.012 73.1578L162.042 73.1609Z" fill="black"/>
<path d="M2.11961 155.365C1.09237 152.223 1.10281 148.751 2.14894 145.615C2.92668 148.803 2.91653 152.181 2.11961 155.365Z" fill="black"/>
<path d="M163.508 46.9167C161.32 48.1928 158.73 48.7687 156.208 48.5406C157.934 46.4928 161.076 45.7938 163.508 46.9167V46.9167Z" fill="black"/>
<path d="M60.6983 180.805C60.9005 181.794 61.1026 182.784 61.3048 183.773C60.8565 184.058 60.27 184.115 59.7754 183.92C60.5014 181.79 59.3615 179.198 57.3013 178.294C57.8769 177.505 59.1138 177.306 59.9083 177.873C60.7029 178.441 60.9152 179.676 60.3558 180.476L60.6983 180.805Z" fill="black"/>
<path d="M36.4092 181.29C36.7969 182.759 37.5445 184.133 38.5683 185.256C37.177 186.017 35.6356 184.283 35.4642 182.707C35.2928 181.13 35.7409 179.431 35.0367 178.01C36.3234 178.317 36.9986 180.07 36.2505 181.161L36.4092 181.29Z" fill="black"/>
<path d="M30.7525 182.516C29.6408 181.197 29.7383 179.025 30.9639 177.81C31.2006 180.079 31.7935 182.309 32.7142 184.396C32.4775 184.779 32.0439 185.032 31.5943 185.05C31.234 184.283 30.8737 183.517 30.5135 182.75L30.7525 182.516Z" fill="black"/>
<path d="M56.0006 181.062C55.984 182.38 55.9675 183.697 55.951 185.015C55.1231 182.586 54.2952 180.156 53.4673 177.727C54.2175 177.33 55.19 177.835 55.6007 178.578C56.0114 179.321 56.0112 180.213 56.0006 181.062V181.062Z" fill="black"/>
<path d="M25.6919 178.395C26.8648 178.815 27.1696 180.302 27.2921 181.542C27.4255 182.891 27.5589 184.239 27.6922 185.588C25.8971 183.717 25.1202 180.924 25.6919 178.395Z" fill="black"/>
<path d="M156.649 43.7989C158.588 42.4998 161.062 42.0262 163.343 42.5172C161.659 44.2547 158.857 44.7912 156.649 43.7989V43.7989Z" fill="black"/>
<path d="M162.984 38.4423C161.047 39.8031 158.575 40.3793 156.236 40.0149C157.873 38.1767 160.703 37.5173 162.984 38.4423V38.4423Z" fill="black"/>
<path d="M156.718 52.2704C158.492 50.9371 160.884 50.464 163.032 51.0213C161.483 52.7175 158.796 53.2491 156.718 52.2704V52.2704Z" fill="black"/>
<path d="M164.029 56.4762C162.01 57.3283 159.719 57.5203 157.586 57.0159C157.308 56.9501 157.252 56.4526 157.534 56.4048C159.51 55.2922 162.078 55.3205 164.029 56.4762Z" fill="black"/>
<path d="M6.63936 129.608C7.37521 132.309 7.36716 135.209 6.61635 137.905C5.72775 135.235 5.73597 132.274 6.63936 129.608Z" fill="black"/>
<path d="M160.909 181.182C160.509 180.881 160.109 180.58 159.709 180.28C161.154 179.026 163.644 179.281 164.806 180.801C163.792 181.731 162.133 181.862 160.986 181.102L160.909 181.182Z" fill="black"/>
<path d="M162.01 59.7293C162.523 59.5795 163.372 59.7721 163.158 60.2613C161.4 61.5364 158.945 61.776 156.974 60.8648C158.482 59.9723 160.27 59.5604 162.017 59.7031L162.01 59.7293Z" fill="black"/>
<path d="M56.0884 77.2494C56.8558 75.2535 58.3294 73.5375 60.1863 72.4773C60.6549 72.2097 61.2396 71.9827 61.7153 72.2373C60.0598 74.1353 58.1644 75.8236 56.0884 77.2494Z" fill="black"/>
<path d="M1.25572 197.452C0.273957 196.925 0.687344 195.09 1.80012 195.035C2.42569 195.593 3.07883 196.193 3.32033 196.995C3.56184 197.797 3.19301 198.845 2.37373 199.021C1.95385 198.58 1.53395 198.138 1.11407 197.697L1.25572 197.452Z" fill="black"/>
<path d="M94.3332 152.241C92.3406 152.708 90.2891 152.925 88.2428 152.883C87.6683 152.872 86.8672 152.443 87.187 151.966C89.5284 151.364 92.045 151.46 94.3332 152.241Z" fill="black"/>
<path d="M17.0621 43.7114C18.4053 43.5062 19.8051 43.6864 21.0526 44.225C20.0821 44.738 19.0636 45.2638 17.9658 45.2743C16.868 45.2847 15.6795 44.5982 15.5153 43.5127C15.9421 43.1649 16.6025 43.1418 17.0525 43.4589L17.0621 43.7114Z" fill="black"/>
<path d="M161.003 65.55C159.707 65.9473 158.239 65.742 157.102 65.0043C158.793 63.9741 160.959 63.7634 162.818 64.4484C162.506 65.1194 161.772 65.5701 161.033 65.5436L161.003 65.55Z" fill="black"/>
<path d="M75.9448 150.006C74.1077 150.074 72.2534 149.425 70.8601 148.226C70.4265 147.852 70.012 147.23 70.329 146.754C72.3403 147.569 74.2366 148.668 75.9448 150.006Z" fill="black"/>
<path d="M16.2446 51.8051C17.4941 52.2582 18.7436 52.7113 19.9931 53.1644C19.0446 53.8332 17.9326 54.5362 16.806 54.2576C15.6793 53.979 15.1793 52.0917 16.2773 51.7161L16.2446 51.8051Z" fill="black"/>
<path d="M111.948 25.1695C112.315 25.6021 111.805 26.3979 111.259 26.2455C111.103 24.9953 110.99 23.5844 111.798 22.6174C112.605 21.6504 114.649 21.9396 114.63 23.1993C113.467 23.1307 112.313 23.9644 112.013 25.0903L111.948 25.1695Z" fill="black"/>
<path d="M20.7433 58.2173C19.7717 57.7804 18.6502 58.3612 17.5874 58.2878C16.5246 58.2143 15.7141 56.4754 16.7542 56.2449C18.1514 56.9071 19.703 57.2409 21.2489 57.2121C21.6722 57.4949 21.2466 58.318 20.7711 58.136L20.7433 58.2173Z" fill="black"/>
<path d="M161.988 130.693C161.009 130.934 159.711 131.041 159.254 130.143C160.978 129.32 162.982 129.099 164.845 129.524C164.375 130.53 163.102 131.077 162.05 130.727L161.988 130.693Z" fill="black"/>
<path d="M82.7187 29.9697C81.9351 28.4229 81.9294 26.5054 82.7037 24.9539C82.8914 24.5777 83.4735 24.2276 83.6424 24.6125C84.0035 26.4304 83.6677 28.3778 82.7187 29.9697Z" fill="black"/>
<path d="M18.196 71.4738C17.1782 72.0378 15.7054 71.3946 15.4274 70.2647C16.5268 69.4949 18.1026 69.4821 19.2144 70.234C19.6629 70.7989 18.9547 71.7853 18.2761 71.5409L18.196 71.4738Z" fill="black"/>
<path d="M88.4867 180.998C89.1425 181.953 89.7982 182.908 90.4541 183.862C90.7902 184.351 91.1427 184.927 90.9859 185.499C88.9654 185.336 87.5576 182.8 88.4867 180.998Z" fill="black"/>
<path d="M151.546 199.859C150.494 200.234 149.196 199.642 148.79 198.601C150.824 198.674 152.857 198.747 154.891 198.82C154.169 199.815 152.769 200.255 151.608 199.851L151.546 199.859Z" fill="black"/>
<path d="M20.296 100.472C20.7747 100.288 21.1249 101.088 20.8022 101.486C20.4795 101.885 19.8973 101.926 19.3846 101.935C18.8658 101.944 18.3469 101.953 17.8281 101.962C17.0655 101.975 16.0389 101.751 16.0285 100.988C16.0177 100.191 17.1546 99.9714 17.9163 100.207C18.6779 100.442 19.5605 100.842 20.204 100.372L20.296 100.472Z" fill="black"/>
<path d="M17.5031 25.6291C18.037 25.8937 18.4273 26.4295 18.5156 27.0188C17.744 27.972 15.9226 27.9385 15.4828 26.7937C15.043 25.6489 17.011 24.4989 17.5942 25.5777L17.5031 25.6291Z" fill="black"/>
<path d="M162.726 68.1989C163.133 68.4669 163.025 69.146 162.644 69.4503C162.263 69.7547 161.74 69.7899 161.253 69.8123C160.018 69.8689 158.783 69.9256 157.548 69.9822C158.833 69.0265 160.348 68.3827 161.928 68.1212C162.198 68.0765 162.497 68.0484 162.726 68.1989V68.1989Z" fill="black"/>
<path d="M16.1511 161.8C18.0813 161.219 20.1907 161.251 22.1024 161.89C22.4382 162.002 22.5622 162.675 22.2578 162.494C20.2276 163.005 18.0149 162.753 16.1511 161.8Z" fill="black"/>
<path d="M102.83 24.6475C102.981 25.2751 102.205 25.9027 101.623 25.624C101.781 24.4803 101.982 23.2475 102.807 22.4397C103.632 21.6318 105.3 21.6409 105.718 22.7171C104.544 22.5938 103.345 23.4446 103.073 24.594L102.83 24.6475Z" fill="black"/>
<path d="M168.783 163.394C168.347 164.362 168.923 165.48 168.854 166.54C168.785 167.6 167.072 168.432 166.816 167.401C167.699 166.1 168.028 164.436 167.708 162.896C168.01 162.469 168.847 162.847 168.727 163.356L168.783 163.394Z" fill="black"/>
<path d="M128.402 22.2021C128.588 22.4919 128.774 22.7816 128.959 23.0714C127.885 23.8639 126.81 24.6565 125.735 25.4491C125.03 23.9751 126.594 22.0082 128.189 22.364L128.402 22.2021Z" fill="black"/>
<path d="M1.21799 73.8125C1.92628 75.3502 1.85503 77.2238 1.03201 78.7033C0.622358 76.5161 0.358075 74.3018 0.241455 72.0797C0.97877 71.8241 1.23404 73.0398 1.04015 73.7956L1.21799 73.8125Z" fill="black"/>
<path d="M7.47244 163.86C6.28297 162.552 5.82177 160.621 6.29183 158.917C6.43122 158.411 6.99711 157.836 7.37262 158.202C7.40589 160.088 7.43917 161.974 7.47244 163.86Z" fill="black"/>
<path d="M21.2271 14.809C19.942 15.2299 18.4647 15.013 17.3549 14.2404C19.3887 13.7252 21.5457 13.7036 23.5894 14.1781C23.1877 14.9474 22.0783 15.2362 21.3524 14.7604L21.2271 14.809Z" fill="black"/>
<path d="M16.5743 39.1923C17.4473 38.9827 18.4252 39.664 18.5309 40.5556C17.7293 40.5506 16.9277 40.787 16.257 41.2261C15.5132 40.5278 15.0538 39.5349 15.0033 38.516C15.501 38.1835 16.2864 38.469 16.4544 39.0435L16.5743 39.1923Z" fill="black"/>
<path d="M18.2725 80.5238C16.9973 80.7899 15.7316 79.299 16.2011 78.0839C17.3767 78.2823 18.5138 78.7063 19.5323 79.326C19.5393 79.9698 18.9186 80.5488 18.2768 80.497L18.2725 80.5238Z" fill="black"/>
<path d="M20.1032 158.018C19.0846 159.133 16.9327 158.758 16.3517 157.364C17.6129 156.416 19.6152 156.679 20.588 157.921L20.1032 158.018Z" fill="black"/>
<path d="M160.093 86.1474C161.008 85.7082 162.198 85.9378 162.885 86.6859C161.572 87.6768 159.693 87.8517 158.22 87.1199C158.829 86.7634 159.438 86.4069 160.047 86.0503L160.093 86.1474Z" fill="black"/>
<path d="M17.2954 96.0346C18.4632 95.8679 19.8833 95.8009 20.5725 96.7584C19.2898 97.7966 17.2843 97.8095 15.9884 96.7879C16.2861 96.3633 16.7614 96.0675 17.2739 95.9881L17.2954 96.0346Z" fill="black"/>
<path d="M6.67292 172.304C6.27599 170.852 6.47017 169.247 7.20208 167.931C7.74387 169.754 7.79986 171.718 7.3628 173.569C6.83367 173.857 6.51825 172.934 6.61536 172.339L6.67292 172.304Z" fill="black"/>
<path d="M17.6423 171.733C17.2335 171.414 16.8247 171.095 16.4159 170.776C17.7653 169.766 19.8483 169.911 21.0448 171.098C20.0806 171.674 18.8746 171.828 17.7964 171.514L17.6423 171.733Z" fill="black"/>
<path d="M27.2536 14.0041C28.9237 13.7568 30.8037 13.5601 32.1383 14.5942C30.3657 14.9584 28.5374 15.0503 26.7373 14.8656C26.3148 14.581 26.7473 13.7591 27.2212 13.9462L27.2536 14.0041Z" fill="black"/>
<path d="M13.3615 28.8094C13.6275 29.6236 13.106 30.6066 12.2827 30.843C11.8725 29.1325 11.8994 27.3192 12.36 25.6216C13.0851 26.4797 13.3741 27.6883 13.1155 28.7815L13.3615 28.8094Z" fill="black"/>
<path d="M41.6394 18.5203C40.2432 18.3722 38.8471 18.2241 37.4509 18.076C38.2109 17.5211 39.0237 16.9457 39.9618 16.8708C40.8998 16.7959 41.9619 17.4503 41.9594 18.3913L41.6394 18.5203Z" fill="black"/>
<path d="M7.04294 188.639C6.25819 186.823 6.28783 184.673 7.12236 182.879C7.90712 184.695 7.87748 186.846 7.04294 188.639V188.639Z" fill="black"/>
<path d="M16.5322 175.41C17.6607 174.199 20.1432 174.207 20.6004 175.797C19.3605 176.263 17.9389 176.222 16.7274 175.687L16.5322 175.41Z" fill="black"/>
<path d="M19.7481 154.115C18.5586 154.289 17.0862 154.343 16.4414 153.328C17.5733 152.642 18.9779 152.42 20.2659 152.726C20.6041 153.193 20.3011 153.969 19.7354 154.083L19.7481 154.115Z" fill="black"/>
<path d="M16.2841 60.6625C17.4654 60.7555 18.6234 61.1314 19.6341 61.75C18.8495 62.2739 17.9575 62.8221 17.0294 62.6523C16.1014 62.4824 15.4559 61.1419 16.2063 60.5701L16.2841 60.6625Z" fill="black"/>
<path d="M6.67556 155.838C5.94608 154.921 5.85463 153.547 6.45618 152.541C7.53303 154.002 7.7746 156.038 7.0695 157.71C6.30273 157.579 5.95772 156.44 6.52255 155.905L6.67556 155.838Z" fill="black"/>
<path d="M163.729 134.959C162.457 135.656 160.768 135.499 159.646 134.579C160.535 134.758 161.359 134.114 162.233 133.869C163.107 133.625 164.381 134.3 163.991 135.119L163.729 134.959Z" fill="black"/>
<path d="M16.3011 84.0266C15.877 83.6326 16.2483 82.7666 16.8261 82.8021C17.9309 82.6597 19.0946 83.2453 19.6386 84.2174C18.5822 84.7427 17.2679 84.7119 16.2374 84.1377L16.3011 84.0266Z" fill="black"/>
<path d="M18.2884 104.952C18.7569 104.837 19.273 104.935 19.6675 105.212C19.1891 106.689 16.5965 106.636 16.1793 105.14C16.5227 104.354 17.7955 104.227 18.2876 104.93L18.2884 104.952Z" fill="black"/>
<path d="M12.5193 18.6356C12.5718 17.8827 13.4764 17.14 14.0438 17.6377C13.5957 19.0951 13.1475 20.5526 12.6993 22.01C11.8041 21.189 11.7936 19.5956 12.6779 18.7629L12.5193 18.6356Z" fill="black"/>
<path d="M115.247 185.553C113.564 185.037 112.471 183.081 112.916 181.377C113.492 182.836 114.609 184.074 116.001 184.797C116.105 185.177 115.651 185.577 115.287 185.427L115.247 185.553Z" fill="black"/>
<path d="M79.0112 183.465C78.3299 182.715 78.6213 181.325 79.5466 180.912C79.9294 182.211 80.3121 183.51 80.6949 184.809C79.945 185.135 78.9813 184.356 79.1432 183.554L79.0112 183.465Z" fill="black"/>
<path d="M19.6006 109.174C19.5078 109.572 19.415 109.969 19.3222 110.367C18.1322 110.516 16.7098 110.577 15.9712 109.632C16.9159 108.796 18.3814 108.609 19.5056 109.181L19.6006 109.174Z" fill="black"/>
<path d="M161.662 81.4029C162.068 81.72 162.474 82.0371 162.879 82.3541C161.511 83.2941 159.61 83.3917 158.153 82.5967C159.168 82.0429 160.346 81.7926 161.499 81.8859L161.662 81.4029Z" fill="black"/>
<path d="M17.5989 114.665C17.1374 115.247 16.0351 114.652 16.1233 113.915C16.2115 113.177 17.1397 112.761 17.8402 113.008C18.5407 113.255 18.9876 113.965 19.1639 114.686C18.7082 114.772 18.2525 114.857 17.7968 114.942L17.5989 114.665Z" fill="black"/>
<path d="M158.154 78.5638C159.428 77.7883 160.988 77.4974 162.456 77.762C161.614 79.0777 159.681 79.5438 158.332 78.7564L158.154 78.5638Z" fill="black"/>
<path d="M78.1253 152.271C78.0262 151.45 79.197 151.087 79.9841 151.34C80.7713 151.594 81.5305 152.149 82.3413 151.985C81.3172 152.962 79.5757 153.065 78.4437 152.215L78.1253 152.271Z" fill="black"/>
<path d="M106.609 67.8605C108.25 68.1094 109.666 69.4641 109.986 71.0933C108.615 70.5534 107.421 69.5725 106.626 68.332L106.609 67.8605Z" fill="black"/>
<path d="M18.2765 123.803C17.2279 124.099 16.0521 122.711 16.7564 121.879C17.6964 122.116 18.6364 122.353 19.5764 122.59C19.4119 123.174 18.8649 123.629 18.2609 123.685L18.2765 123.803Z" fill="black"/>
<path d="M16.7316 131.243C17.7276 130.416 19.4668 130.805 20.0167 131.976C18.9457 132.652 17.3993 132.434 16.5573 131.488L16.7316 131.243Z" fill="black"/>
<path d="M69.269 145.954C69.3638 146.342 68.94 146.753 68.5547 146.646C67.3946 145.745 66.2346 144.845 65.0745 143.944C66.6627 143.974 68.22 144.759 69.1892 146.018L69.269 145.954Z" fill="black"/>
<path d="M159.639 144.05C160.346 142.56 162.629 142.151 163.81 143.303C162.577 143.692 161.306 143.961 160.021 144.104L159.639 144.05Z" fill="black"/>
<path d="M154.066 178.049C154.565 178.049 155.063 178.048 155.561 178.048C155.796 178.422 155.884 178.885 155.804 179.319C155.166 179.363 154.544 179.614 154.055 180.026C153.645 179.616 153.234 179.206 152.823 178.796C153.122 178.402 153.579 178.131 154.068 178.059L154.066 178.049Z" fill="black"/>
<path d="M18.3186 74.3429C18.9489 74.1933 19.5787 74.9673 19.304 75.5541C18.1392 75.6954 16.7619 75.7587 16.0085 74.8591C16.5064 74.1822 17.4582 73.8795 18.2556 74.1445L18.3186 74.3429Z" fill="black"/>
<path d="M89.6036 11.7023C88.8827 10.973 88.4262 9.98781 88.3359 8.96637C89.4654 9.3764 90.4513 10.1708 91.0923 11.1871C90.8659 11.7215 90.1422 11.9738 89.6325 11.6962L89.6036 11.7023Z" fill="black"/>
<path d="M162.52 161.593C162.043 161.803 161.636 160.814 162.157 160.812C163.08 160.21 164.347 160.183 165.295 160.745C164.771 161.711 163.508 162.201 162.47 161.841L162.52 161.593Z" fill="black"/>
<path d="M20.2412 140.672C18.9689 141.054 17.5228 140.804 16.4532 140.016C17.8611 139.7 19.3208 139.616 20.7556 139.769C21.1755 140.06 20.7551 140.88 20.2731 140.71L20.2412 140.672Z" fill="black"/>
<path d="M7.54071 141.787C6.20917 141.608 5.52886 139.68 6.45378 138.706C7.48844 139.069 7.99715 140.466 7.43809 141.41L7.54071 141.787Z" fill="black"/>
<path d="M135.571 24.1796C135.293 22.7054 137.234 21.3738 138.509 22.1643C137.835 23.0259 136.931 23.7054 135.916 24.1126L135.571 24.1796Z" fill="black"/>
<path d="M16.4867 64.9474C16.9694 65.2706 17.4522 65.5938 17.9349 65.9171C17.911 66.8202 16.6378 67.3884 15.9496 66.8031C15.2615 66.2177 15.618 64.8698 16.5056 64.7013L16.4867 64.9474Z" fill="black"/>
<path d="M18.2653 149.645C17.5293 149.962 16.5858 149.304 16.5875 148.503C17.5686 147.723 19.2784 148.286 19.604 149.496C19.1668 149.587 18.7296 149.678 18.2924 149.768L18.2653 149.645Z" fill="black"/>
<path d="M163.481 108.812C162.301 109.066 160.795 109.192 160.162 108.165C161.419 107.873 162.725 107.795 164.009 107.935C164.429 108.226 164.008 109.047 163.526 108.876L163.481 108.812Z" fill="black"/>
<path d="M17.0553 144.962C16.9352 144.529 17.019 144.044 17.2775 143.677C18.0514 143.75 18.8253 143.824 19.5993 143.898C19.713 145.063 17.886 145.791 17.1671 144.867L17.0553 144.962Z" fill="black"/>
<path d="M162.05 116.467C162.715 116.249 163.79 116.337 163.702 117.032C162.722 117.853 161.261 118.048 160.1 117.513C160.744 117.139 161.389 116.765 162.033 116.391L162.05 116.467Z" fill="black"/>
<path d="M17.6846 93.1928C17.1307 92.9256 16.5768 92.6585 16.0229 92.3913C16.57 91.1301 18.8634 91.4335 19.0637 92.7935C18.6409 92.8844 18.218 92.9753 17.7951 93.0662L17.6846 93.1928Z" fill="black"/>
<path d="M16.5249 126.972C17.273 126.906 18.0211 126.84 18.7692 126.774C19.007 127.141 19.0901 127.604 18.9947 128.031C18.1663 128.722 16.6613 128.136 16.519 127.066L16.5249 126.972Z" fill="black"/>
<path d="M26.5539 43.9766C26.3682 43.258 26.5191 42.1324 27.2517 42.2515C27.6002 43.3915 27.6144 44.6316 27.2921 45.7793C26.5488 45.94 26.3666 44.7765 26.5561 44.04L26.5539 43.9766Z" fill="black"/>
<path d="M6.74465 193.409C7.20097 192.9 8.22801 193.538 7.97359 194.173C7.62576 194.998 6.71642 195.55 5.82385 195.477C5.85395 194.706 6.23399 193.955 6.83767 193.474L6.74465 193.409Z" fill="black"/>
<path d="M7.27566 178.081C7.90737 179.176 7.77868 180.66 6.96788 181.63C6.31705 180.494 6.36788 178.992 7.09399 177.902L7.27566 178.081Z" fill="black"/>
<path d="M97.4327 23.3818C97.5249 22.9003 98.2617 22.7134 98.5722 23.0929C98.3559 24.2035 97.7328 25.2302 96.8475 25.9348C96.8031 25.054 96.9983 24.1622 97.4067 23.3805L97.4327 23.3818Z" fill="black"/>
<path d="M17.7768 119.355C17.3531 118.931 16.9294 118.507 16.5057 118.083C17.0842 117.535 18.0646 117.479 18.7016 117.958C19.0469 118.209 19.1783 118.714 18.9985 119.102C18.6523 119.351 18.1947 119.439 17.7805 119.337L17.7768 119.355Z" fill="black"/>
<path d="M1.79731 95.4611C1.67766 95.9484 0.930136 96.119 0.61093 95.7318C0.511327 94.9747 0.599168 94.1937 0.864429 93.4776C1.80367 93.4583 2.45542 94.7541 1.87995 95.4967L1.79731 95.4611Z" fill="black"/>
<path d="M162.509 103.945C162.709 103.455 163.614 103.616 163.633 104.145C163.206 105.236 161.564 105.587 160.727 104.767C161.082 104.165 161.827 103.821 162.515 103.94L162.509 103.945Z" fill="black"/>
<path d="M94.123 183.039C95.0675 183.494 95.8216 184.33 96.1769 185.316C95.0183 185.965 93.5007 184.214 94.3081 183.159L94.123 183.039Z" fill="black"/>
<path d="M163.22 156.284C163.663 155.564 164.949 155.671 165.266 156.456C164.566 157.142 163.475 157.398 162.542 157.095C162.11 156.836 162.551 156.004 163.008 156.216L163.22 156.284Z" fill="black"/>
<path d="M18.7697 184.515C18.2719 184.85 17.7741 185.184 17.2763 185.519C16.568 185.205 16.4741 184.045 17.1225 183.621C17.771 183.197 18.7956 183.747 18.8 184.522L18.7697 184.515Z" fill="black"/>
<path d="M98.8449 150.642C98.017 150.631 97.196 151.063 96.736 151.751C96.5664 150.455 98.1051 149.278 99.3117 149.781C99.759 150.008 99.3181 150.862 98.874 150.629L98.8449 150.642Z" fill="black"/>
<path d="M128.476 183.749C128.98 184.23 129.485 184.711 129.989 185.191C129.314 185.548 128.411 185.747 127.838 185.242C127.265 184.736 127.8 183.468 128.489 183.799L128.476 183.749Z" fill="black"/>
<path d="M112.209 188.989C111.281 189.685 109.916 189.733 108.941 189.105C109.726 188.321 111.075 188.186 111.999 188.801L112.209 188.989Z" fill="black"/>
<path d="M137.202 188.62C138.089 188.194 139.235 188.388 139.932 189.082C139.036 189.86 137.486 189.692 136.778 188.739L137.202 188.62Z" fill="black"/>
<path d="M20.2189 167.003C19.3539 167.248 18.0499 167.213 17.9824 166.317C18.8825 166.075 19.8302 166.012 20.7544 166.132C21.1752 166.422 20.7556 167.243 20.2739 167.072L20.2189 167.003Z" fill="black"/>
<path d="M161.393 185.203C160.771 186.271 159.004 186.376 158.259 185.389C159.171 185.207 160.083 185.025 160.996 184.843L161.393 185.203Z" fill="black"/>
<path d="M153.89 184.668C154.378 185.151 153.748 186.158 153.1 185.93C152.453 185.565 151.971 184.918 151.809 184.193C152.506 184.079 153.253 184.327 153.744 184.835L153.89 184.668Z" fill="black"/>
<path d="M23.9947 38.5269C23.9959 39.0256 23.997 39.5242 23.9981 40.0228C23.3884 40.4237 22.4317 39.7616 22.5921 39.0498C22.8344 38.5893 23.0766 38.1287 23.3189 37.6682C23.581 37.9104 23.8431 38.1525 24.1051 38.3947L23.9947 38.5269Z" fill="black"/>
<path d="M26.8046 88.7255C26.9896 87.8181 27.1745 86.9107 27.3595 86.0034C28.3197 86.7448 28.2428 88.4554 27.22 89.1076L26.8046 88.7255Z" fill="black"/>
<path d="M27.0819 94.1892C26.8378 93.325 26.8726 92.0228 27.7681 91.9551C28.0106 92.855 28.074 93.8027 27.9536 94.7269C27.6631 95.1475 26.8421 94.7282 27.0125 94.2463L27.0819 94.1892Z" fill="black"/>
<path d="M63.8272 188.802C64.7451 188.174 66.114 188.324 66.8729 189.138C65.9354 189.784 64.5294 189.622 63.7637 188.779L63.8272 188.802Z" fill="black"/>
<path d="M149.376 185.902C148.285 186.257 146.99 185.289 147.021 184.142C148.012 184.245 148.94 184.844 149.441 185.706L149.376 185.902Z" fill="black"/>
<path d="M137.26 184.534C138.271 184.065 139.632 184.737 139.875 185.825C138.982 186.215 137.806 185.662 137.538 184.726L137.26 184.534Z" fill="black"/>
<path d="M77.3544 12.0653C76.9633 11.7764 76.5721 11.4875 76.1809 11.1986C76.7234 10.517 77.6889 10.2048 78.5277 10.4399C78.7552 11.0623 78.1325 11.8164 77.4783 11.7107L77.3544 12.0653Z" fill="black"/>
<path d="M164.433 121.279C163.731 122.011 162.466 122.109 161.659 121.494C162.223 120.705 163.476 120.532 164.231 121.139L164.433 121.279Z" fill="black"/>
<path d="M119.326 199.007C120.029 198.275 121.293 198.177 122.1 198.792C121.537 199.58 120.284 199.753 119.528 199.147L119.326 199.007Z" fill="black"/>
<path d="M6.94079 144.055C7.4079 144.767 7.15035 145.849 6.41273 146.274C6.15818 145.773 5.89618 145.232 5.97367 144.675C6.05116 144.119 6.63667 143.604 7.15543 143.819L6.94079 144.055Z" fill="black"/>
<path d="M168.018 159.666C167.129 159.869 167.203 158.247 167.965 157.745C168.833 157.963 168.881 159.469 168.029 159.741L168.018 159.666Z" fill="black"/>
<path d="M6.13046 127.067C5.93902 126.521 6.27283 125.702 6.83431 125.84C7.20244 126.606 7.20093 127.539 6.83037 128.304C6.29975 128.564 6.01767 127.655 6.12318 127.074L6.13046 127.067Z" fill="black"/>
<path d="M123.227 183.52C123.628 183.932 124.029 184.343 124.431 184.755C124.261 185.405 123.302 185.67 122.823 185.199C122.343 184.727 122.591 183.764 123.239 183.583L123.227 183.52Z" fill="black"/>
<path d="M16.8052 88.5141C16.4572 88.1518 16.412 87.5375 16.7033 87.1282C17.3352 87.3502 17.9672 87.5721 18.5992 87.794C18.4067 88.4845 17.4479 88.8182 16.8683 88.3963L16.8052 88.5141Z" fill="black"/>
<path d="M171.667 16.5992C171.292 17.1577 170.217 16.8157 170.234 16.1435C170.813 15.8947 171.393 15.646 171.973 15.3972C172.298 15.7544 172.153 16.419 171.708 16.6075L171.667 16.5992Z" fill="black"/>
<path d="M133.136 184.491C133.62 183.763 135.035 184.389 134.823 185.237C134.286 185.838 133.067 185.301 133.149 184.499L133.136 184.491Z" fill="black"/>
<path d="M109.994 184.456C110.233 185.421 108.301 185.743 108.215 184.753C108.357 184.076 109.47 183.921 109.792 184.533L109.994 184.456Z" fill="black"/>
<path d="M164.307 112.786C164.891 112.617 165.425 113.499 165.005 113.938C164.429 113.676 163.854 113.413 163.278 113.15C163.022 112.688 163.893 112.27 164.237 112.67L164.307 112.786Z" fill="black"/>
<path d="M1.98441 132.124C2.41727 132.683 2.07988 133.644 1.39259 133.81C1.1677 133.387 0.935722 132.916 1.04759 132.45C1.15945 131.985 1.81296 131.661 2.13281 132.017L1.98441 132.124Z" fill="black"/>
<path d="M105.812 199.393C105.269 199.602 104.456 199.239 104.588 198.672C105.114 198.41 105.732 198.337 106.305 198.469C106.728 198.753 106.308 199.577 105.829 199.401L105.812 199.393Z" fill="black"/>
<path d="M98.8237 189.448C98.4129 189.781 98.0568 188.892 98.3667 188.464C98.9533 188.506 99.54 188.548 100.127 188.59C100.261 189.195 99.4469 189.756 98.9299 189.413L98.8237 189.448Z" fill="black"/>
<path d="M165.027 125.902C165.731 125.705 166.846 125.836 166.735 126.559C166.312 126.777 165.839 127.002 165.38 126.877C164.921 126.753 164.632 126.079 165.01 125.791L165.027 125.902Z" fill="black"/>
<path d="M1.65571 140.977C1.33738 140.566 2.20125 140.159 2.59072 140.503C2.70671 141.085 2.64715 141.701 2.4218 142.251C1.87719 142.528 1.54339 141.61 1.63343 141.006L1.65571 140.977Z" fill="black"/>
<path d="M2.86698 184.105C1.99587 184.099 2.00478 182.781 2.3233 181.97C3.18077 181.902 3.21718 183.231 2.90128 184.031L2.86698 184.105Z" fill="black"/>
<path d="M160.041 21.9085C160.584 21.7001 161.397 22.0629 161.265 22.6297C160.738 22.8912 160.121 22.9644 159.548 22.8329C159.125 22.5484 159.545 21.725 160.024 21.9002L160.041 21.9085Z" fill="black"/>
<path d="M163.584 151.636C164.004 152.298 162.723 153.088 162.32 152.415C162.01 151.916 162.933 151.607 163.506 151.735L163.584 151.636Z" fill="black"/>
<path d="M0.660361 112.628C0.350247 112.21 1.2208 111.791 1.58353 112.164C1.73051 112.627 1.60605 113.165 1.27095 113.516C1.01812 113.264 0.765281 113.011 0.512451 112.759L0.660361 112.628Z" fill="black"/>
<path d="M155.871 24.6699C155.544 24.9356 154.968 24.7576 154.847 24.3534C154.727 23.9492 155.112 23.4851 155.531 23.5283C156.027 23.5414 156.223 24.3613 155.786 24.5966L155.871 24.6699Z" fill="black"/>
<path d="M88.8187 22.903C88.4334 22.2079 89.7482 21.462 90.1473 22.1493C90.191 22.7091 89.4033 23.1178 88.9707 22.7599L88.8187 22.903Z" fill="black"/>
<path d="M7.48521 150.002C7.84676 150.415 7.42065 151.195 6.87809 151.114C6.19018 150.753 6.97233 149.451 7.6143 149.889L7.48521 150.002Z" fill="black"/>
<path d="M81.2603 188.795C81.6018 188.231 82.677 188.547 82.6587 189.206C82.267 189.758 81.2003 189.424 81.1929 188.747L81.2603 188.795Z" fill="black"/>
<path d="M2.37308 158.153C1.71662 158.403 1.47708 157.255 1.82777 156.646C2.49541 156.405 2.73578 157.554 2.40338 158.181L2.37308 158.153Z" fill="black"/>
<path d="M103.31 64.6871C103.895 64.8701 103.911 65.8794 103.332 66.0808C102.752 65.8822 102.766 64.8694 103.352 64.6876L103.31 64.6871Z" fill="black"/>
<path d="M141.099 23.8811C140.802 23.3767 141.072 22.6327 141.623 22.4356C142.153 22.8338 141.786 23.8714 141.124 23.8481L141.099 23.8811Z" fill="black"/>
<path d="M105.62 150.807C105.135 151.3 104.232 150.281 104.786 149.867C105.34 149.453 106.043 150.643 105.409 150.919L105.62 150.807Z" fill="black"/>
</svg>
