<svg width="182" height="203" viewBox="0 0 182 203" fill="none" xmlns="http://www.w3.org/2000/svg">
<path d="M5.08589 20.4016C5.41183 79.638 5.73774 138.874 6.06368 198.111C18.8259 185.965 31.5881 173.819 44.3503 161.672C45.4798 160.597 46.6304 159.495 47.3444 158.109C48.3593 156.138 48.3823 153.825 48.3829 151.609C48.3907 122.129 48.3986 92.6491 48.4065 63.1693C48.9695 93.273 49.5326 123.377 50.0956 153.48C50.1368 155.684 50.0674 158.167 48.4651 159.681C34.1001 173.251 19.8866 186.982 5.82842 200.87C63.7936 200.904 121.759 201.404 179.716 202.369C121.374 203.214 63.0227 202.536 4.67912 201.858C4.38959 140.246 4.10007 78.635 3.81055 17.0235C18.4141 30.7107 33.0176 44.3979 47.6211 58.0851C48.6636 59.0622 49.7808 60.5937 48.9516 61.7572C40.8148 53.2869 32.2165 45.2598 23.2078 37.7235C17.538 31.5775 11.4815 25.7883 5.08589 20.4016Z" fill="black"/>
<path d="M174.986 19.2722C147.249 19.2984 119.513 19.1161 91.7786 18.7253C96.5764 17.647 101.545 17.6779 106.462 17.7139C129.238 17.8806 152.014 18.0473 174.79 18.214C175.286 18.2176 175.827 18.2374 176.204 18.5601C176.654 18.9462 176.702 19.6141 176.716 20.2072C178.164 81.0963 179.612 141.985 181.061 202.874C167.329 188.109 153.515 173.422 139.619 158.812C138.008 157.119 137.872 154.548 137.828 152.212C137.28 123.376 136.733 94.5411 136.185 65.7058C136.147 63.7195 136.192 61.5099 137.561 60.0707C149.792 47.2163 162.024 34.3619 174.255 21.5075C174.842 20.8907 175.463 19.9776 174.986 19.2722V19.2722ZM140.647 58.4799C139.509 59.6569 138.339 60.883 137.785 62.4236C137.307 63.7523 137.329 65.2011 137.357 66.6129C137.922 95.2977 138.486 123.983 139.051 152.667C139.087 154.466 139.192 156.444 140.427 157.752C153.467 171.568 166.508 185.383 179.549 199.199C178.141 140.08 176.733 80.9604 175.325 21.841C167.89 29.808 160.454 37.775 153.019 45.7421C152.139 46.6853 151.467 48.5679 152.706 48.9293C151.958 49.2653 150.975 48.913 150.61 48.1785C147.289 51.6123 143.968 55.0461 140.647 58.4799V58.4799Z" fill="black"/>
<path d="M57.0947 154.245C56.4223 154.241 55.7045 154.225 55.15 153.844C54.2608 153.235 54.1592 151.985 54.1445 150.907C53.7934 125.094 53.4423 99.2815 53.0911 73.4688C53.0485 70.3381 53.0179 67.1305 54.0607 64.1783C54.3835 93.1394 54.7062 122.1 55.029 151.062C55.0357 151.67 55.082 152.363 55.558 152.742C55.9157 153.026 56.4109 153.041 56.868 153.044C81.9482 153.169 107.029 153.293 132.109 153.418C133.256 153.424 134.799 153.061 134.788 151.914C135.206 152.767 135.118 153.845 134.568 154.619C108.743 154.495 82.919 154.37 57.0947 154.245Z" fill="black"/>
<path d="M52.8205 156.063C52.3358 156.791 51.4283 155.589 51.4171 154.714C51.0175 123.608 50.697 92.5007 50.4559 61.3928C51.4961 61.4876 51.7857 62.8555 51.7973 63.9C52.1383 94.621 52.4794 125.342 52.8205 156.063Z" fill="black"/>
<path d="M126.216 64.5815C102.623 64.4933 79.0295 64.3511 55.4367 64.1551C54.5336 64.1476 53.2823 63.7346 53.4887 62.8553C80.7111 62.8896 107.933 63.0603 135.154 63.3674C132.379 64.583 129.246 64.5928 126.216 64.5815V64.5815Z" fill="black"/>
<path d="M130.431 68.1473C129.457 69.7481 128.04 71.0759 126.379 71.9432C127.106 97.4301 127.705 122.921 128.176 148.414C119.99 147.974 111.803 147.534 103.616 147.094C110.633 146.316 117.744 146.386 124.744 147.305C125.335 147.382 125.989 147.451 126.478 147.11C127.116 146.665 127.165 145.755 127.151 144.977C126.804 125.766 126.457 106.556 126.11 87.3453C126.025 82.6272 125.937 77.8801 125.026 73.25C124.898 72.6026 124.735 71.9208 124.27 71.4532C123.623 70.8041 122.604 70.7596 121.688 70.7559C101.203 70.6728 80.7174 70.5898 60.2319 70.5068C58.3642 70.4992 57.7435 73.0525 58.0583 74.8935C58.373 76.7345 58.9008 78.9646 57.5018 80.202C58.3709 75.6026 57.7103 70.7274 55.6487 66.5251C56.4465 68.9125 59.5719 69.3645 62.0888 69.399C68.4376 69.4861 74.7864 69.5732 81.1352 69.6603C93.6146 69.8315 106.094 70.0027 118.574 70.174C122.638 70.2297 126.938 70.2254 130.431 68.1473V68.1473Z" fill="black"/>
<path d="M86.2658 18.6555C60.5473 18.6761 34.8287 18.5535 9.11158 18.2879C7.92767 18.2757 6.53009 18.1464 5.92908 17.1263C29.569 17.2655 53.2089 17.4046 76.8488 17.5437C80.0254 17.5624 83.2722 17.5929 86.2658 18.6555V18.6555Z" fill="black"/>
<path d="M61.1613 157.428C85.9592 156.996 110.763 156.883 135.563 157.087C136.379 157.094 137.494 157.422 137.379 158.229C113.791 158.218 90.202 158.206 66.6133 158.195C64.7637 158.194 62.8508 158.18 61.1613 157.428V157.428Z" fill="black"/>
<path d="M58.4241 66.0411C76.0453 66.0736 93.6665 66.1061 111.288 66.1385C116.109 66.1474 120.937 66.1561 125.742 65.7678C123.78 67.3299 121.056 67.3859 118.548 67.3708C99.5639 67.2561 80.5798 67.1415 61.5957 67.0269C60.4486 67.02 59.1389 66.9384 58.4241 66.0411V66.0411Z" fill="black"/>
<path d="M83.0003 60.8972C98.2826 61.0195 113.565 61.1419 128.847 61.2642C130.185 61.2749 131.613 61.3128 132.713 62.0736C106.051 62.2789 79.3852 62.0265 52.7318 61.3163C62.8075 60.7358 72.9082 60.8164 83.0003 60.8972Z" fill="black"/>
<path d="M133.857 64.8861C134.168 89.1238 134.479 113.361 134.789 137.599C134.846 142.028 134.903 146.456 134.96 150.885C134.179 149.174 134.133 147.233 134.1 145.353C133.643 119.44 133.186 93.5262 132.73 67.6125C132.711 66.5583 132.864 65.2402 133.857 64.8861V64.8861Z" fill="black"/>
<path d="M135.655 156.065C110.123 156.249 84.5901 156.433 59.0576 156.617C57.1159 156.631 54.9725 156.571 53.5407 155.259C80.9121 155.528 108.284 155.796 135.655 156.065Z" fill="black"/>
<path d="M104.758 116.522C104.835 117.047 105.167 117.596 104.927 118.069C104.213 119.482 104.835 121.198 105.654 122.552C106.472 123.907 107.514 125.222 107.682 126.796C107.849 128.369 106.581 130.214 105.033 129.884C99.1096 128.621 92.8889 128.776 87.0357 130.332C83.7438 131.207 80.3747 132.672 78.4941 135.512C77.7654 136.613 75.8093 135.969 75.4458 134.7C75.0823 133.431 75.8448 132.096 76.8136 131.2C76.6233 132.493 76.8404 133.844 77.4264 135.013C79.2165 131.562 83.3192 130.1 87.0919 129.165C92.6627 127.784 98.6284 126.908 104.066 128.744C105.373 129.185 106.532 127.497 106.309 126.136C106.086 124.774 105.097 123.685 104.464 122.46C102.962 119.549 103.531 116.048 104.136 112.829C104.456 111.13 104.776 109.431 105.095 107.733C105.576 105.175 106.058 102.617 106.54 100.059C106.176 99.6533 105.813 99.2479 105.449 98.8425C105.908 97.7117 107.872 98.4633 107.976 99.6791C108.079 100.895 107.129 101.916 106.249 102.762C107.254 103.556 107.27 105.302 106.278 106.114C106.724 108.986 106.352 111.98 105.216 114.655C104.962 115.253 104.663 115.879 104.758 116.522V116.522Z" fill="black"/>
<path d="M85.0297 59.9174C84.2425 59.9122 83.2669 59.7814 83.0032 59.0397C100.644 59.0049 118.286 59.1417 135.924 59.4502C136.151 59.9328 135.391 60.2471 134.858 60.2436C118.249 60.1349 101.639 60.0261 85.0297 59.9174Z" fill="black"/>
<path d="M81.2535 85.1912C83.0035 83.4223 84.9413 81.7277 87.2983 80.9299C92.2122 79.2665 97.6153 81.9335 101.35 85.5343C102.429 86.5745 103.438 87.7112 104.141 89.0348C105.628 91.8358 105.563 95.4012 103.974 98.1456C103.387 95.7614 104.26 93.1799 103.573 90.8225C103.055 89.0471 101.719 87.6377 100.343 86.4021C97.0157 83.4139 92.5623 80.8862 88.2461 82.058C85.8636 82.7048 83.9101 84.3941 82.2089 86.1831C81.6575 86.763 81.1172 87.3665 80.7385 88.0715C79.0252 91.2609 81.0317 95.5067 79.3255 98.6999C78.9684 99.3682 78.458 99.9629 78.2333 100.686C78.0085 101.41 78.1937 102.354 78.8909 102.651C78.3421 103.035 77.5269 102.976 77.0386 102.518C76.5502 102.06 76.4402 101.25 76.7887 100.678C77.5111 99.4919 78.2335 98.306 78.956 97.12C78.8024 95.1086 78.7753 93.0899 78.7482 91.0728C78.7368 90.2235 78.7272 89.36 78.959 88.5428C79.3326 87.2258 80.2906 86.1644 81.2535 85.1912V85.1912Z" fill="black"/>
<path d="M87.7453 16.0194C87.234 15.3989 87.0624 14.566 86.6311 13.8874C86.2803 13.3355 85.7707 12.9053 85.3543 12.401C83.7708 10.4836 83.7799 7.43226 85.3747 5.52426C86.9695 3.61627 89.9708 3.066 92.1388 4.28413C94.3067 5.50226 95.3977 8.35195 94.5975 10.7064C94.3243 11.5102 93.8286 12.2749 93.082 12.6791C92.3355 13.0833 91.3152 13.0409 90.7224 12.4332C90.0416 11.7354 88.6977 12.2435 88.4079 13.1744C88.1181 14.1052 88.6608 15.133 89.4474 15.709C89.6944 15.8898 90.0046 16.0436 90.2973 15.954C90.7604 15.8123 90.8478 15.2152 90.9715 14.747C91.0952 14.2788 91.6163 13.7723 91.9875 14.0833C92.1627 15.1222 91.5682 16.2426 90.6097 16.6801C89.6513 17.1175 88.4154 16.8324 87.7453 16.0194V16.0194ZM88.5865 6.53935C88.4016 5.90331 88.2167 5.26727 88.0318 4.63124C85.5636 5.95696 84.6918 9.56579 86.2826 11.8721C86.7351 12.5281 87.7593 12.1994 88.4336 11.7747C89.1079 11.35 90.0418 10.9052 90.6183 11.4554C91.3372 12.1416 92.6365 11.7852 93.1848 10.9563C93.7331 10.1275 93.6898 9.03616 93.4391 8.07451C93.1409 6.93096 92.5001 5.784 91.4167 5.31176C90.3334 4.83952 88.8022 5.37742 88.5865 6.53935V6.53935Z" fill="black"/>
<path d="M78.5285 105.804C78.3413 105.336 78.069 104.859 78.1548 104.363C78.2406 103.866 78.9501 103.497 79.2515 103.901C79.9519 105.684 80.3411 107.588 80.3961 109.503C80.4135 110.108 81.3974 110.134 81.7857 109.67C82.1739 109.207 82.2382 108.547 82.578 108.048C83.0553 107.345 83.9619 107.098 84.7969 106.944C86.7275 106.587 88.6985 106.448 90.6601 106.532C91.0247 106.898 90.3409 107.379 89.8281 107.442C88.7651 107.573 87.7022 107.703 86.6393 107.833C85.7172 107.947 84.7603 108.072 83.9778 108.573C83.1954 109.073 82.6447 110.066 82.9544 110.942C82.3912 111.711 81.1462 111.678 80.3985 111.087C79.6509 110.496 79.3096 109.529 79.1276 108.594C78.9455 107.658 78.8826 106.689 78.5285 105.804Z" fill="black"/>
<path d="M72.763 146.572C75.1413 146.577 77.5598 146.588 79.8354 147.279C72.8889 147.632 65.9319 147.776 58.9768 147.713C58.6522 147.001 59.7629 146.544 60.5449 146.545C64.6176 146.554 68.6903 146.563 72.763 146.572Z" fill="black"/>
<path d="M60.9369 59.0316C67.658 59.0291 74.379 59.0265 81.1 59.0419C81.6617 59.0432 82.3811 59.1643 82.4975 59.7138C75.1097 59.8896 67.7164 59.8357 60.3319 59.5521C60.1246 59.2893 60.6022 59.0317 60.9369 59.0316Z" fill="black"/>
<path d="M76.4014 124.395C76.6663 123.722 76.952 123.02 77.5081 122.557C78.0642 122.095 78.9792 121.979 79.4756 122.505C77.83 123.753 77.0684 125.818 76.3879 127.767C76.0676 128.685 75.7899 129.827 76.4629 130.529C75.6875 130.825 74.502 130.922 74.3263 130.11C74.2664 129.833 74.3721 129.55 74.4759 129.286C75.1177 127.656 75.7596 126.025 76.4014 124.395V124.395Z" fill="black"/>
<path d="M91.2376 108.874C88.9992 109.824 86.7609 110.774 84.5225 111.724C84.1017 111.902 83.6131 112.175 83.6023 112.632C83.5841 113.403 84.9385 113.739 84.7882 114.495C83.9523 114.506 82.9481 114.424 82.551 113.688C82.0084 112.683 83.1 111.6 84.0572 110.976C86.2208 109.566 88.7753 108.095 91.2376 108.874Z" fill="black"/>
<path d="M58.2133 107.309C57.8024 104.218 57.6044 101.099 57.6213 97.9807C57.6282 96.707 57.6729 95.419 58.0115 94.1912C58.7569 98.5182 58.8253 102.961 58.2133 107.309Z" fill="black"/>
<path d="M95.3457 147.307C94.8553 147.281 94.1754 146.962 94.3955 146.523C96.1937 146.538 97.9918 146.553 99.79 146.567C100.911 146.577 102.032 146.586 103.15 146.666C102.804 147.549 101.613 147.645 100.666 147.594C98.8928 147.498 97.1193 147.403 95.3457 147.307Z" fill="black"/>
<path d="M82.3167 5.85579C82.0514 5.9946 81.8176 5.61205 81.7886 5.31398C81.6237 3.62017 82.8135 1.97646 84.3766 1.30353C85.9397 0.630605 87.7721 0.811973 89.3435 1.46525C89.4097 2.02981 88.5144 1.99614 87.9752 1.81619C85.4146 0.961626 82.3402 3.15643 82.3167 5.85579V5.85579Z" fill="black"/>
<path d="M80.3657 119.119C79.3627 118.783 79.347 117.221 80.1121 116.491C80.8771 115.76 82.0221 115.64 83.0769 115.558C83.6399 115.514 84.4731 115.979 84.0712 116.376C82.4192 116.349 80.8217 117.532 80.3657 119.119Z" fill="black"/>
<path d="M130.767 149.6C131.027 148.787 131.287 147.975 131.547 147.162C131.384 148.579 131.839 150.056 132.769 151.137C133.06 151.475 133.255 152.186 132.809 152.189C131.504 151.313 130.291 150.299 129.198 149.169C129.74 148.958 130.409 149.142 130.767 149.6Z" fill="black"/>
<path d="M58.3262 93.1479C58.3102 93.4503 58.0949 93.8709 57.8365 93.7128C57.5528 91.4125 57.5268 89.0805 57.7591 86.7744C58.4953 86.9863 58.6008 87.9712 58.5602 88.7362C58.4822 90.2068 58.4042 91.6773 58.3262 93.1479Z" fill="black"/>
<path d="M85.075 146.771C86.8826 146.692 88.6903 146.615 90.4981 146.54C91.2157 146.511 92.1614 146.655 92.2767 147.364C90.2574 147.374 88.238 147.384 86.2186 147.394C85.7352 147.397 85.0902 147.254 85.075 146.771V146.771Z" fill="black"/>
<path d="M58.7954 113.832C58.822 114.156 58.8448 114.5 58.6948 114.789C58.5784 115.013 58.3599 115.181 58.1137 115.236C57.7022 112.978 57.7835 110.631 58.3505 108.407C58.4988 110.215 58.6471 112.024 58.7954 113.832V113.832Z" fill="black"/>
<path d="M136.523 139.839C137.004 142.486 137.001 145.221 136.514 147.867C136.006 145.223 136.009 142.482 136.523 139.839Z" fill="black"/>
<path d="M54.0386 59.8668C53.7036 59.8994 53.3279 59.9201 53.0709 59.7027C52.9222 59.5769 52.8373 59.3793 52.8482 59.1849C54.8765 58.8259 56.9795 58.8951 58.9799 59.3865C57.3328 59.5466 55.6857 59.7067 54.0386 59.8668Z" fill="black"/>
<path d="M59.2582 157.714C58.0771 157.985 56.8663 158.126 55.6545 158.135C55.166 158.138 54.6718 158.119 54.2014 157.987C55.7145 157.101 57.6584 156.996 59.2582 157.714Z" fill="black"/>
<path d="M100.237 105.949C100.631 105.418 101.415 105.222 102.013 105.503C101.44 106.369 100.738 107.15 99.9372 107.81C99.6373 107.219 99.7747 106.438 100.258 105.985L100.237 105.949Z" fill="black"/>
<path d="M13.0678 171.678C13.4112 172.271 13.7546 172.864 14.098 173.457C14.1954 173.625 14.2956 173.825 14.2224 174.005C14.127 174.239 13.8053 174.275 13.56 174.213C12.5656 173.959 12.1006 172.55 12.7483 171.754L13.0678 171.678Z" fill="black"/>
<path d="M57.5369 83.6592C57.6497 82.994 57.7626 82.3288 57.8755 81.6635C58.6079 82.8561 58.6066 84.461 57.8723 85.6525C57.761 85.0006 57.6497 84.3487 57.5384 83.6968L57.5369 83.6592Z" fill="black"/>
<path d="M0.240708 197.934C1.19288 198.565 2.14508 199.197 3.09725 199.828C1.85672 200.405 0.192533 199.301 0.240708 197.934V197.934Z" fill="black"/>
<path d="M101.722 108.898C101.392 108.976 100.874 108.831 100.996 108.515C101.667 108.093 102.224 107.491 102.591 106.788C103.355 107.456 102.722 108.995 101.709 108.933L101.722 108.898Z" fill="black"/>
<path d="M58.5876 132.12C58.9955 133.43 58.9877 134.867 58.5657 136.172C58.0145 134.896 58.0226 133.39 58.5876 132.12V132.12Z" fill="black"/>
<path d="M58.8783 139.134C59.0017 139.493 58.7511 139.932 58.3794 140.008C58.1017 138.888 58.1348 137.692 58.474 136.589C58.8701 137.357 59.0533 138.234 58.9981 139.096L58.8783 139.134Z" fill="black"/>
<path d="M79.3109 121.273C78.7204 121.431 78.1291 120.69 78.3885 120.136C78.6478 119.583 79.5547 119.534 79.8975 120.039C80.2403 120.545 79.8993 121.345 79.3031 121.479L79.3109 121.273Z" fill="black"/>
<path d="M57.506 149.677C57.3589 150.37 56.7418 150.937 56.0389 151.025C56.2955 149.966 57.095 149.053 58.1115 148.66C58.2759 149.039 58.0263 149.538 57.6241 149.633L57.506 149.677Z" fill="black"/>
<path d="M58.2063 126.717C58.099 126.538 58.394 126.339 58.5761 126.441C58.7582 126.543 58.8117 126.777 58.8364 126.984C58.9434 127.879 58.8542 128.797 58.5771 129.655C58.1706 128.737 58.0664 127.689 58.2844 126.71L58.2063 126.717Z" fill="black"/>
<path d="M129.469 66.4409C128.708 66.7116 127.814 66.5735 127.169 66.0855C127.573 66.179 127.978 65.9778 128.355 65.8065C128.732 65.6351 129.18 65.4903 129.546 65.6842C129.911 65.8781 129.942 66.559 129.534 66.6294L129.469 66.4409Z" fill="black"/>
<path d="M15.3692 171.983C15.9396 171.878 16.7592 172.101 16.6816 172.676C16.0481 173.018 15.2563 173.05 14.5972 172.76C14.8541 172.493 15.1111 172.226 15.3681 171.959L15.3692 171.983Z" fill="black"/>
<path d="M30.3056 104.143C30.8034 104.143 31.3013 104.143 31.7992 104.143C31.952 104.339 31.9958 104.615 31.9113 104.848C31.3298 105.376 30.2103 104.936 30.143 104.154L30.3056 104.143Z" fill="black"/>
<path d="M136.467 124.323C136.675 125.083 136.573 125.923 136.188 126.61C135.715 125.863 135.746 124.829 136.265 124.113L136.467 124.323Z" fill="black"/>
<path d="M38.6731 87.1293C39.179 87.0658 39.8238 87.1143 40.0139 87.5875C39.6743 87.8584 39.2676 88.1461 38.8444 88.0477C38.4213 87.9493 38.2679 87.2102 38.6931 87.1209L38.6731 87.1293Z" fill="black"/>
<path d="M21.6492 80.2202C21.3199 80.3 20.8079 80.1426 20.9295 79.8264C21.5246 79.3675 22.5368 79.6787 22.7713 80.3926C22.4123 80.5556 21.9591 80.4835 21.6685 80.2171L21.6492 80.2202Z" fill="black"/>
<path d="M136.437 130.935C136.702 131.274 136.483 131.863 136.06 131.946C135.832 131.372 135.834 130.71 136.066 130.138C136.385 129.979 136.555 130.528 136.489 130.878L136.437 130.935Z" fill="black"/>
<path d="M39.4035 58.1509C39.3242 58.8189 38.4458 59.2401 37.8752 58.8837C37.9795 58.3034 38.7085 57.9344 39.2379 58.1939L39.4035 58.1509Z" fill="black"/>
<path d="M14.4647 113.108C14.7637 112.67 15.5576 112.755 15.7576 113.246C15.5609 113.839 14.4846 113.732 14.4089 113.111L14.4647 113.108Z" fill="black"/>
<path d="M12.4851 132.067C12.373 132.41 11.9009 132.573 11.6011 132.372C11.7016 131.848 12.1499 131.408 12.6765 131.317C12.8731 131.534 12.7905 131.934 12.5241 132.056L12.4851 132.067Z" fill="black"/>
<path d="M8.96172 105.184C8.93409 105.734 8.05382 105.97 7.75476 105.508C7.97059 105.09 8.55705 104.916 8.96544 105.149L8.96172 105.184Z" fill="black"/>
<path d="M90.664 2.01852C91.0869 1.8999 91.7563 1.97893 91.6896 2.41308C91.4359 2.54408 91.1514 2.67891 90.8759 2.60414C90.6003 2.52936 90.4263 2.12458 90.6533 1.95139L90.664 2.01852Z" fill="black"/>
<path d="M137.034 153.936C137.294 154.271 137.092 154.848 136.679 154.948C136.543 154.694 136.403 154.409 136.47 154.129C136.538 153.849 136.934 153.656 137.124 153.873L137.034 153.936Z" fill="black"/>
<path d="M9.40358 135.837C9.65037 135.646 9.89326 136.164 9.68708 136.399C9.33746 136.468 8.96794 136.432 8.63774 136.298C8.47525 135.97 9.02279 135.767 9.3849 135.824L9.40358 135.837Z" fill="black"/>
<path d="M40.4912 129.205C40.1562 128.986 40.3501 128.344 40.7499 128.348C40.895 128.596 41.04 128.844 41.185 129.092C41.0827 129.375 40.6543 129.466 40.4457 129.249L40.4912 129.205Z" fill="black"/>
<path d="M136.24 137.15C136.111 136.824 136.335 136.337 136.677 136.414C136.835 136.731 136.876 137.104 136.79 137.446C136.622 137.701 136.126 137.447 136.236 137.162L136.24 137.15Z" fill="black"/>
<path d="M44.8423 129.089C44.8089 129.505 44.1742 129.703 43.9105 129.38C43.835 129.103 43.9001 128.79 44.0804 128.566C44.3287 128.724 44.5769 128.881 44.8252 129.038L44.8423 129.089Z" fill="black"/>
<path d="M20.592 66.3527C20.4595 65.9416 21.1684 65.827 21.5364 66.0531C21.4799 66.3314 21.4234 66.6097 21.367 66.8879C21.0997 66.7296 20.8325 66.5713 20.5652 66.413L20.592 66.3527Z" fill="black"/>
<path d="M20.4446 37.5029C20.9012 37.524 21.3379 38.0807 21.0426 38.4296C20.59 38.4156 20.1533 37.8607 20.4504 37.5191L20.4446 37.5029Z" fill="black"/>
<path d="M15.6827 107.383C15.3454 107.288 15.1725 106.831 15.3623 106.537C15.6245 106.48 15.908 106.528 16.1366 106.668C16.1286 106.976 15.9349 107.272 15.6559 107.402L15.6827 107.383Z" fill="black"/>
<path d="M23.5391 134.438C23.4581 134.733 22.9378 134.477 23.011 134.181C23.0842 133.884 23.4304 133.756 23.7309 133.701C23.9263 133.921 23.8447 134.321 23.5787 134.447L23.5391 134.438Z" fill="black"/>
<path d="M12.6813 166C13.1452 166.132 12.8235 167.022 12.3821 166.828C12.1755 166.556 12.3668 166.09 12.7049 166.042L12.6813 166Z" fill="black"/>
<path d="M8.65777 153.6C8.56126 153.118 9.47449 152.794 9.48473 153.286C9.38276 153.619 8.92989 153.783 8.63818 153.594L8.65777 153.6Z" fill="black"/>
<path d="M40.7524 61.4212C41.1467 61.2711 41.2906 61.961 41.08 62.3265C40.679 62.4711 40.5346 61.7814 40.7342 61.4048L40.7524 61.4212Z" fill="black"/>
<path d="M20.6345 131.509C20.8397 131.17 21.4855 131.36 21.4745 131.756C21.2392 132.088 20.5985 131.887 20.5941 131.481L20.6345 131.509Z" fill="black"/>
<path d="M34.1799 107.13C34.5742 106.98 34.7181 107.67 34.5075 108.035C34.1065 108.18 33.9621 107.49 34.1617 107.114L34.1799 107.13Z" fill="black"/>
<path d="M52.4205 157.645C52.6716 157.459 52.9234 157.982 52.6993 158.2C52.4214 158.288 52.0981 158.213 51.8871 158.012C52.0388 157.86 52.1905 157.708 52.3422 157.557L52.4205 157.645Z" fill="black"/>
<path d="M17.8766 36.7343C18.2742 36.4824 18.7487 37.2508 18.3454 37.4935C18.0467 37.683 17.8585 37.1258 17.9368 36.7808L17.8766 36.7343Z" fill="black"/>
<path d="M18.2564 110.569C18.2144 110.983 17.5871 111.18 17.3159 110.863C17.1532 110.475 17.8464 110.36 18.2277 110.537L18.2564 110.569Z" fill="black"/>
<path d="M82.5963 8.24405C82.202 8.39415 82.0582 7.70427 82.2688 7.33872C82.6698 7.19415 82.8141 7.88377 82.6145 8.26039L82.5963 8.24405Z" fill="black"/>
<path d="M32.7034 110.094C32.3698 110.167 31.8339 109.99 32.0108 109.697C32.2203 109.282 33.0012 109.767 32.7221 110.139L32.7034 110.094Z" fill="black"/>
<path d="M135.584 101.862C135.982 101.61 136.456 102.378 136.053 102.621C135.754 102.811 135.566 102.253 135.644 101.908L135.584 101.862Z" fill="black"/>
<path d="M136.12 150.243C136.281 150.021 136.442 149.799 136.602 149.577C137.04 149.768 136.597 150.598 136.194 150.341L136.12 150.243Z" fill="black"/>
<path d="M20.314 177.404C20.5512 177.648 20.473 178.216 20.1404 178.146C19.7209 178.167 19.9295 177.303 20.2933 177.513L20.314 177.404Z" fill="black"/>
<path d="M46.3219 62.1861C46.4511 61.9096 46.9758 62.1948 46.814 62.4536C46.6781 62.8344 45.9656 62.4045 46.2393 62.1068L46.3219 62.1861Z" fill="black"/>
<path d="M148.914 56.3407C148.792 56.6399 148.233 56.5159 148.249 56.1934C148.221 55.7748 149.087 55.9645 148.886 56.3329L148.914 56.3407Z" fill="black"/>
<path d="M89.1294 9.12128C89.3438 9.10975 89.5262 8.96827 89.6915 8.83128C90.284 8.34015 90.8571 7.82564 91.4091 7.28935C91.6753 8.367 90.9548 9.59067 89.8833 9.88066C88.8118 10.1707 87.5724 9.4774 87.2588 8.4126C87.433 8.0766 87.9591 8.23271 88.2247 8.50228C88.4904 8.77185 88.7515 9.14159 89.1294 9.12128V9.12128Z" fill="black"/>
</svg>
