<svg xmlns="http://www.w3.org/2000/svg" width="155" height="241"><path d="M 152.032 238.061 L 2.77 238.061 L 2.77 27.757 L 30.538 27.757 L 30.67 26.451 C 31.791 12.54 51.513 3.396 77.434 3.396 C 103.619 3.396 122.879 12.279 124.132 26.451 L 124.264 27.757 L 152.032 27.757 Z M 126.77 24.949 C 124.33 9.993 104.279 0.653 77.434 0.653 C 50.391 0.653 30.406 9.993 28.032 24.949 L 0 24.949 L 0 240.804 L 154.868 240.804 L 154.868 24.949 Z" fill="rgb(85,53,15)"></path><path d="M 103.473 19.2 C 101.997 19.2 100.767 20.1 100.767 21.1 C 100.767 22.2 101.751 22.6 102.489 22.6 C 103.227 22.6 103.965 22.35 103.965 21.6 C 103.965 20.9 103.325 20.8 103.227 20.7 C 103.375 20.45 103.719 20.25 104.113 20.25 C 104.752 20.25 106.475 20.35 106.475 22.15 C 106.475 23.75 104.851 24.65 102.883 24.65 C 99.684 24.65 97.568 23.05 91.663 18.55 L 91.811 18.45 C 92.795 18.7 93.927 19 94.517 19 C 96.486 19 98.946 18.1 98.946 15.6 C 98.946 13.2 96.732 12.2 94.517 12.2 C 92.303 12.2 90.925 13.55 90.925 14.55 C 90.925 15.55 91.663 16.05 92.795 16.05 C 93.779 16.05 94.173 15.5 94.173 15.05 C 94.173 14.6 93.927 14 92.697 14.05 C 92.943 13.6 93.435 13.05 94.567 13.05 C 96.289 13.05 97.913 13.95 97.913 15.55 C 97.913 17.25 96.437 18.15 94.714 18.15 C 94.075 18.15 92.992 17.95 91.762 17.6 C 90.384 17.25 86.841 16.6 84.479 16.6 C 82.265 16.6 78.181 17.6 77 20.65 L 76.951 20.65 C 75.721 17.6 71.637 16.55 69.324 16.55 C 67.11 16.55 63.517 17.25 62.189 17.65 C 60.959 18 59.827 18.2 59.237 18.2 C 57.514 18.2 56.038 17.3 56.038 15.6 C 56.038 14 57.662 13.1 59.237 13.1 C 60.467 13.1 60.959 13.65 61.205 14.1 C 59.975 14 59.729 14.65 59.729 15.1 C 59.729 15.55 60.122 16.1 61.106 16.1 C 62.238 16.1 62.976 15.55 62.976 14.6 C 62.976 13.6 61.598 12.25 59.286 12.25 C 57.17 12.25 54.956 13.25 54.956 15.65 C 54.956 18.15 57.317 19.05 59.286 19.05 C 60.024 19.05 61.156 18.8 61.992 18.5 L 62.14 18.6 C 56.333 23.1 54.267 24.7 51.019 24.7 C 49.051 24.7 47.427 23.8 47.427 22.2 C 47.427 20.4 49.149 20.3 49.789 20.3 C 50.183 20.3 50.527 20.5 50.675 20.75 C 50.429 20.85 49.937 20.95 49.937 21.65 C 49.937 22.3 50.675 22.65 51.413 22.65 C 52.151 22.65 53.135 22.2 53.135 21.15 C 53.135 20.15 51.905 19.25 50.281 19.25 C 46.689 19.25 46.197 21.3 46.197 22.2 C 46.197 22.9 46.689 25.5 51.019 25.5 C 55.694 25.5 59.138 21.75 62.14 19.7 L 62.287 19.8 C 61.894 20.5 61.795 21.25 61.795 22.05 C 61.795 22.85 62.533 25.45 66.125 25.45 C 69.078 25.45 70.21 23.65 70.21 22.85 C 70.21 21.7 69.078 20.35 67.257 20.35 C 65.633 20.35 65.043 21.15 65.043 21.7 C 65.043 22.35 65.289 22.95 66.273 22.95 C 67.159 22.95 67.503 22.5 67.503 21.85 C 67.503 21.65 67.503 21.5 67.356 21.3 C 67.848 21.3 69.078 21.55 69.078 22.8 C 69.078 23.9 67.7 24.7 66.224 24.7 C 64.6 24.7 62.878 24.05 62.878 21.85 C 62.878 19.9 64.108 17.65 69.422 17.65 C 71.292 17.65 76.065 18.55 76.065 22.5 C 76.065 24.45 74.687 24.9 73.605 24.9 C 72.719 24.9 72.129 24.55 72.129 23.8 C 72.129 23.45 72.522 23.1 73.014 23 C 73.014 23.35 73.26 23.7 73.752 23.7 C 74.244 23.7 74.638 23.25 74.638 22.9 C 74.638 22.55 74.244 21.9 73.26 21.9 C 72.522 21.9 71.144 22.45 71.144 23.6 C 71.144 25.05 72.522 25.5 73.605 25.5 C 75.229 25.5 76.557 24.85 77 23.45 L 77.148 23.45 C 77.59 24.9 78.919 25.5 80.395 25.5 C 81.625 25.5 83.003 25.05 83.003 23.6 C 83.003 22.45 81.625 22 80.887 22 C 79.903 22 79.51 22.55 79.51 22.9 C 79.51 23.25 79.903 23.7 80.395 23.7 C 80.789 23.7 81.133 23.35 81.133 23 C 81.625 23.1 82.019 23.45 82.019 23.9 C 82.019 24.55 81.281 24.9 80.395 24.9 C 79.411 24.9 78.033 24.45 78.033 22.5 C 78.033 18.55 82.856 17.65 84.578 17.65 C 89.99 17.65 91.221 19.9 91.221 21.95 C 91.221 24.1 89.498 24.75 87.875 24.75 C 86.398 24.75 85.021 23.95 85.021 22.85 C 85.021 21.6 86.152 21.35 86.644 21.35 C 86.644 21.55 86.497 21.8 86.644 21.9 C 86.644 22.55 87.038 23 87.875 23 C 88.76 23 89.105 22.35 89.105 21.75 C 89.105 21.2 88.465 20.4 86.89 20.4 C 85.021 20.4 83.938 21.75 83.938 22.9 C 83.938 23.8 85.07 25.5 88.022 25.5 C 91.614 25.5 92.352 22.9 92.352 22.1 C 92.352 21.3 92.205 20.55 91.713 19.85 L 91.86 19.75 C 94.813 21.8 98.405 25.55 102.932 25.55 C 107.262 25.55 107.852 22.95 107.852 22.25 C 107.656 21.25 107.163 19.2 103.473 19.2 Z" fill="rgb(85,53,15)"></path><path d="M 79.262 15.1 C 79.262 13.75 81.821 10 84.429 10 C 85.413 10 86.151 10.65 86.151 11.35 C 86.151 12.7 83.936 13.05 82.313 13.7 C 80.836 14.15 79.852 15 79.36 15.65 C 79.262 15.5 79.262 15.3 79.262 15.1 Z M 76.063 13.9 C 75.817 12.95 74.341 10.45 74.341 9.35 C 74.341 8.3 74.735 6.4 76.802 6.4 C 78.917 6.4 79.163 8.25 79.163 9.35 C 79.163 10.5 77.786 12.9 77.54 13.9 C 77.294 14.8 76.802 17.3 76.802 17.3 C 76.802 17.3 76.309 14.8 76.063 13.9 Z M 67.944 11.35 C 67.944 10.65 68.682 10 69.666 10 C 72.225 10 74.833 13.75 74.833 15.1 C 74.833 15.3 74.833 15.45 74.685 15.65 C 74.193 15.05 73.209 14.15 71.733 13.6 C 70.109 13.05 67.894 12.7 67.944 11.35 Z" fill="#55350f"></path></svg>