<svg width="140" height="144" viewBox="0 0 140 144" fill="none" xmlns="http://www.w3.org/2000/svg">
<path d="M49.013 133.187C46.2624 132.812 43.9109 131.065 41.812 129.248C22.8024 112.793 14.3698 85.6188 18.9666 60.9003C18.6945 66.6621 18.4225 72.4393 18.8182 78.1939C20.2989 99.7251 31.6406 120.382 49.013 133.187V133.187Z" fill="black"/>
<path d="M40.882 103.619C32.4099 85.6375 32.2517 63.9372 40.4608 45.8337C41.0653 44.5005 41.8699 43.0498 43.2814 42.6619C35.1561 57.1816 33.0189 74.9375 37.4668 90.9705C41.9148 107.003 52.8942 121.12 67.3386 129.379C55.3718 125.29 46.272 115.059 40.882 103.619Z" fill="black"/>
<path d="M41.5447 57.3341C42.5991 46.3637 48.4423 35.8538 57.4604 29.5186C66.4785 23.1834 78.5621 21.2752 88.9605 24.9267C92.2485 26.0814 95.353 27.7567 98.1231 29.8712C100.426 31.6287 102.487 33.6777 104.541 35.7202C103.839 36.4915 102.61 35.6802 101.89 34.9261C95.6099 28.35 86.573 24.4942 77.48 24.511C68.3871 24.5279 59.3646 28.4171 53.109 35.0164C47.2915 41.1537 43.9969 49.2411 41.5447 57.3341Z" fill="black"/>
<path d="M76.8312 141.089C66.3632 141.441 56.2156 136.83 47.99 130.346C32.0304 117.765 22.3277 97.9148 21.1074 77.6297C20.4288 66.3481 22.2462 54.923 26.3919 44.4088C31.6452 31.0853 40.8829 19.077 53.3362 12.0039C65.7894 4.93077 81.5504 3.24466 94.6543 9.02401C90.3609 8.04599 86.0485 7.06502 81.6578 6.73016C68.134 5.69875 54.4878 11.067 44.4206 20.1559C34.3534 29.2449 27.7475 41.8102 24.7001 55.0265C23.4238 60.5615 22.7403 66.2331 22.6649 71.9129C22.453 87.8963 27.2501 104.045 36.874 116.808C46.4978 129.571 61.02 138.739 76.8312 141.089Z" fill="black"/>
<path d="M138.601 87.7129C136.895 100.851 131.089 113.428 122.196 123.248C113.303 133.069 101.362 140.09 88.457 143.087C86.3849 143.569 84.0282 143.899 82.2816 142.684C96.2655 141.385 109.52 134.578 119.362 124.56C129.205 114.542 135.699 101.454 138.601 87.7129Z" fill="black"/>
<path d="M82.4648 124.879C72.9546 125.451 63.5029 121.361 56.5048 114.896C49.5067 108.431 44.8081 99.7642 41.9295 90.6821C38.7571 80.6732 37.7132 69.6798 41.0205 59.7147C38.4091 73.274 40.4741 87.6891 46.7871 99.97C51.2236 108.601 57.9408 116.344 66.7394 120.437C71.6906 122.741 77.1077 123.819 82.4648 124.879V124.879Z" fill="black"/>
<path d="M101.365 82.4737C102.119 80.8977 99.9794 79.6353 98.5059 78.6966C95.6089 76.8509 94.3073 73.3575 93.192 70.1086C92.5243 68.1636 92.1554 65.4394 94.0184 64.5688C92.9191 63.2483 93.5378 61.2943 93.6968 59.5835C94.0794 55.4673 91.4477 51.7341 88.8425 48.5245C86.0309 45.0606 82.5245 41.4198 78.0633 41.3753C74.4913 41.3396 71.3761 43.6516 68.5728 45.8656C65.9411 47.9442 63.1166 50.3728 62.6944 53.6997C62.2129 57.4925 64.8737 62.0292 62.227 64.7883C61.1701 65.8901 61.9066 67.6957 62.6843 69.0095C64.0959 71.3942 65.5076 73.7789 66.9193 76.1637C67.5206 74.8842 67.7274 73.4226 67.5046 72.0265C71.1842 70.776 74.8638 69.5255 78.5435 68.275C80.5397 67.5965 83.2209 67.1362 84.3452 68.9197C78.7383 69.5513 73.2772 71.446 68.484 74.4229C69.8078 74.2313 70.221 76.4792 69.1567 77.2895C68.0925 78.0998 66.5907 77.8366 65.2875 77.5349C64.5739 77.3698 63.7086 77.0392 63.6501 76.3091C63.3808 72.9526 61.9283 68.7004 58.561 68.7135C60.3462 65.745 62.1996 62.3094 61.2046 58.9914C59.4088 53.0034 63.611 46.7447 68.7181 43.1393C71.5422 41.1457 74.8596 39.593 78.3139 39.7281C85.069 39.9922 89.7991 46.2631 93.5005 51.92C95.1096 54.3791 96.7894 57.2885 95.8919 60.0869C95.4879 61.3467 94.5703 62.6066 94.9892 63.8615C95.6197 63.212 96.7958 63.2161 97.4218 63.87C96.5472 65.1718 95.3994 66.2892 94.0746 67.1287C95.4183 71.3465 97.0337 75.9218 100.818 78.2185C103.429 79.8032 104.987 82.9699 104.648 86.0056C102.084 83.206 97.6021 82.3872 94.2137 84.0995C89.5902 86.4359 88.0164 92.0887 85.6003 96.6711C83.8739 99.9453 81.3968 102.978 78.0325 104.522C74.6682 106.065 70.3196 105.809 67.6676 103.227C65.5181 101.134 64.8035 97.8708 65.2577 94.9053C65.7119 91.9398 67.1959 89.2275 68.9197 86.7721C68.5209 88.7397 68.1221 90.7074 67.7232 92.675C67.1734 95.3874 66.6707 98.4003 68.1094 100.765C70.0692 103.985 74.9189 104.333 78.1746 102.431C81.4302 100.53 83.4145 97.0662 85.0624 93.6751C86.7103 90.284 88.2467 86.7014 91.0173 84.1442C93.7879 81.5871 98.2337 80.3738 101.365 82.4737Z" fill="black"/>
<path d="M92.3064 5.72632C105.825 9.18701 117.445 18.5276 125.089 30.2024C132.733 41.8772 136.608 55.7428 137.76 69.6497C137.899 71.3309 137.939 73.2078 136.834 74.4819C137.193 59.9263 133.311 45.2404 125.498 32.9541C117.685 20.6679 105.929 10.8669 92.3064 5.72632Z" fill="black"/>
<path d="M131.184 58.5561C127.713 44.1585 119.491 30.9481 108.106 21.4763C107.721 21.1556 107.307 20.799 107.21 20.3071C107.112 19.8152 107.557 19.2149 108.032 19.3739C124.57 32.6922 134.388 53.9653 133.793 75.1909C133.148 69.6117 132.5 64.0161 131.184 58.5561V58.5561Z" fill="black"/>
<path d="M86.8733 129.06C101.065 126.173 112.496 114.649 117.932 101.226C120.224 95.5658 121.59 89.5658 122.468 83.5227C122.699 83.1054 123.211 83.7764 123.18 84.2524C122.336 97.3122 116.588 109.997 107.324 119.241C101.825 124.729 94.6418 129.166 86.8733 129.06Z" fill="black"/>
<path d="M87.1609 123.438C100.224 117.935 110.564 106.332 114.533 92.7236C115.269 90.199 115.813 87.5757 117.117 85.2922C116.003 94.4979 112.322 103.379 106.597 110.675C101.7 116.916 94.9875 122.143 87.1609 123.438V123.438Z" fill="black"/>
<path d="M80.834 135.694C67.3671 136.221 53.7929 130.225 45.1134 119.915C42.5556 116.877 40.4187 113.512 38.2902 110.159C37.1095 108.299 35.8826 106.264 36.0554 104.068C38.7423 108.773 41.7189 113.313 44.963 117.652C46.6947 119.968 48.5117 122.238 50.6379 124.199C58.6713 131.606 70.0714 133.802 80.834 135.694Z" fill="black"/>
<path d="M67.6734 125.002C68.5326 125.425 69.5339 126.012 69.5562 126.97C54.1294 120.49 42.3841 105.906 39.3413 89.4528C40.3721 89.8695 40.7395 91.1104 41.0158 92.1874C44.629 106.27 54.6296 118.581 67.6734 125.002Z" fill="black"/>
<path d="M87.9196 1.08972C89.8403 0.58616 91.8703 1.10608 93.758 1.72214C103.042 4.75205 111.522 10.2095 118.125 17.4043C119.535 18.9403 121.518 20.7179 123.409 19.8396C123.801 20.6146 122.594 21.2523 121.738 21.1004C119.956 20.7837 118.627 19.3403 117.376 18.0317C109.44 9.73225 99.0837 3.77558 87.9196 1.08972Z" fill="black"/>
<path d="M35.88 43.2667C42.9535 29.2709 55.6089 17.313 71.0631 14.6511C82.6237 12.6599 94.7926 16.0989 104.321 22.9412C113.85 29.7834 120.833 39.817 125.083 50.7508C131.328 66.814 131.803 85.0518 126.404 101.418C123.59 109.947 119.155 118.06 112.724 124.328C110.458 126.536 107.967 128.497 105.481 130.453C101.105 133.897 96.4932 137.452 91.0163 138.457C79.6232 140.548 67.5225 138.545 57.4109 132.894C47.2992 127.243 39.2517 117.987 35.0617 107.188C37.7569 112.308 41.123 117.074 45.0467 121.326C47.4529 123.933 50.0717 126.351 52.9283 128.455C65.172 137.474 81.8307 140.167 96.2924 135.465C97.3787 135.112 98.5018 133.506 97.4092 133.172C98.0725 133.561 98.9014 133.143 99.546 132.725C108.178 127.119 115.81 119.729 120.691 110.668C123.445 105.555 125.289 99.9894 126.594 94.3299C130.383 77.8897 129.436 59.7927 120.854 45.2671C120.212 45.0921 119.606 44.789 119.081 44.3809C119.749 44.2295 120.416 44.0781 121.084 43.9268C114.032 33.5018 105.55 23.3562 93.9792 18.4039C85.3987 14.7314 75.4941 14.2516 66.5988 17.0777C50.829 22.0878 39.6813 36.6999 34.1675 52.3007C31.8119 58.9658 30.2886 65.9649 30.1595 73.0329C30.0037 81.5619 31.8668 89.984 33.7198 98.3107C25.9867 80.9781 27.3191 60.2058 35.88 43.2667Z" fill="black"/>
<path d="M72.4648 18.927C71.783 19.0145 70.7652 18.7788 70.9328 18.1122C82.0343 15.9921 94.011 19.0145 102.777 26.1483C102.219 26.5188 101.489 26.1206 100.935 25.7437C92.6892 20.1299 82.3593 17.6565 72.4648 18.927Z" fill="black"/>
<path d="M17.4383 35.6343C17.7102 34.9826 18.1682 34.2122 18.8707 34.2837C15.5781 42.5246 12.203 50.7324 8.74591 58.9057C8.4073 59.7062 7.87725 60.6396 7.00806 60.6332C8.67763 56.6316 10.3472 52.63 12.0168 48.6284C13.8239 44.297 15.6311 39.9657 17.4383 35.6343Z" fill="black"/>
<path d="M70.6626 76.7384C70.5545 76.1668 71.08 75.6901 71.5567 75.3566C74.3881 73.3767 77.5008 71.7997 80.772 70.6879C81.8141 70.3337 83.2016 70.1344 83.8059 71.0542C81.2027 72.199 78.5995 73.3437 75.9963 74.4885C75.2629 74.811 74.5131 75.1443 73.9344 75.6985C73.4157 76.1952 73.0459 76.8592 72.43 77.2286C71.814 77.5979 70.7961 77.4441 70.6626 76.7384V76.7384Z" fill="black"/>
<path d="M139.184 67.5788C138.948 61.2907 137.301 55.1515 135.665 49.0755C135.149 47.1608 134.633 45.2461 134.117 43.3314C137.942 52.0936 139.957 61.6411 140 71.2016C139.252 70.1896 139.232 68.836 139.184 67.5788V67.5788Z" fill="black"/>
<path d="M108.524 19.11C107.763 19.3294 107.002 19.5488 106.24 19.7683C104.956 18.8998 103.843 17.7767 102.987 16.4833C102.099 17.4522 100.59 16.4102 99.48 15.7057C97.09 14.1885 93.7169 14.3049 91.8647 12.164C94.8067 12.8388 97.6622 13.8894 100.34 15.2821C101.218 15.7388 102.209 16.2474 103.15 15.9413C103.811 15.7265 104.491 16.1586 105.051 16.5688C106.209 17.4159 107.366 18.2629 108.524 19.11V19.11Z" fill="black"/>
<path d="M121.431 63.5264C121.064 62.33 120.553 61.0146 121.087 59.8828C122.743 64.8672 123.684 70.0882 123.875 75.337C123.911 76.3492 123.846 77.5229 123.033 78.1281C122.834 75.4829 122.634 72.8377 122.434 70.1925C122.265 67.9469 122.091 65.6794 121.431 63.5264Z" fill="black"/>
<path d="M119.68 65.6473C120.661 71.6666 120.888 77.8083 120.353 83.8835C120.315 84.3147 119.768 84.6094 119.387 84.4038C119.91 78.7127 119.744 72.9587 118.894 67.3073C118.787 66.5997 118.971 65.5545 119.68 65.6473V65.6473Z" fill="black"/>
<path d="M61.4025 89.6413C62.2918 87.7129 63.4141 85.8921 64.7373 84.2312C64.9283 83.9914 65.2049 83.7287 65.496 83.8247C65.7766 83.9172 65.8541 84.2754 66.0621 84.4853C66.5313 84.9588 67.5205 84.5727 67.8905 85.1272C68.2445 85.6578 67.5926 86.2773 67.0321 86.5819C65.1556 87.6017 63.279 88.6215 61.4025 89.6413Z" fill="black"/>
<path d="M130.274 33.995C130.512 34.4358 130.687 35.1047 130.243 35.3373C127.782 30.9178 124.922 26.7213 121.707 22.8159C122.035 22.2272 122.924 22.7437 123.334 23.2788C125.923 26.6619 128.246 30.2486 130.274 33.995V33.995Z" fill="black"/>
<path d="M115.608 100.088C116.758 95.5774 117.908 91.0669 119.059 86.5564C119.183 86.068 119.395 85.4921 119.89 85.3943C119.403 90.5032 117.942 95.5174 115.608 100.088Z" fill="black"/>
<path d="M68.14 83.3699C66.7419 83.3919 65.3677 82.1374 65.5139 80.7468C65.6601 79.3562 67.5942 78.4516 68.6268 79.3944C69.2306 79.9458 70.2006 78.6709 70.9131 79.0721C71.4334 79.3651 71.1418 80.238 70.5982 80.4851C70.0546 80.7322 69.4217 80.6243 68.8323 80.7202C68.243 80.8162 67.6044 81.3115 67.7591 81.8882C67.9083 82.4441 68.657 83.1169 68.14 83.3699Z" fill="black"/>
<path d="M117.563 57.2491C117.835 57.8935 118.013 58.8125 117.397 59.1445C115.594 55.3711 113.79 51.5977 111.986 47.8243C112.376 47.4266 112.996 47.9711 113.268 48.4574C114.859 51.3062 116.294 54.2427 117.563 57.2491Z" fill="black"/>
<path d="M22.9198 35.1516C23.1052 32.7898 23.8478 30.4736 25.0702 28.4443C25.727 27.3541 26.6181 26.2803 27.8565 25.9869C26.211 29.0418 24.5654 32.0967 22.9198 35.1516Z" fill="black"/>
<path d="M32.2298 20.7211C31.9286 21.049 31.3778 21.3767 31.1057 21.0243C31.949 19.386 33.1311 17.9506 34.3038 16.5293C35.1034 15.5601 35.9031 14.5909 36.7027 13.6218C37.4075 14.7117 36.4794 16.0954 35.6013 17.0512C34.4775 18.2745 33.3536 19.4978 32.2298 20.7211Z" fill="black"/>
<path d="M43.6074 40.0795C44.9467 36.6592 47.3833 33.6784 50.4687 31.6854C48.3703 34.6309 46.0766 37.4371 43.6074 40.0795V40.0795Z" fill="black"/>
<path d="M130.779 104.014C131.575 101.258 132.371 98.5028 133.166 95.7471C133.289 95.3222 133.534 94.8046 133.975 94.8303C133.762 98.1043 132.644 101.315 130.779 104.014V104.014Z" fill="black"/>
<path d="M138.62 87.3021C138.908 83.8332 139.197 80.3644 139.485 76.8955C140.376 80.3293 140.066 84.0625 138.62 87.3021V87.3021Z" fill="black"/>
<path d="M19.0919 32.9855C18.8316 31.8785 19.1536 30.7162 19.6052 29.6724C20.1628 28.3833 20.9225 27.1819 21.8479 26.1253C21.5565 28.6017 20.5947 30.9959 19.0919 32.9855Z" fill="black"/>
<path d="M48.1292 135.015C50.2445 135.525 52.1524 136.85 53.37 138.654C51.347 137.923 49.5209 136.655 48.1292 135.015V135.015Z" fill="black"/>
<path d="M47.0154 6.74537C45.3725 7.92237 43.7296 9.09935 42.0867 10.2763C42.7763 8.23112 44.8571 6.74043 47.0154 6.74537V6.74537Z" fill="black"/>
<path d="M108.49 43.0296C107.534 41.7189 106.578 40.4082 105.622 39.0975C107.447 39.2696 108.884 41.2386 108.49 43.0296V43.0296Z" fill="black"/>
<path d="M35.4981 102.129C34.3644 101.232 33.6161 99.8633 33.4728 98.4246C34.9649 98.8773 35.9225 100.629 35.4981 102.129Z" fill="black"/>
<path d="M17.8967 48.6303C17.6911 49.4859 17.1731 50.2628 16.4623 50.7815C16.739 49.0662 17.3319 47.4023 18.2022 45.8985C18.6474 46.7516 18.5271 47.8673 17.9103 48.6059L17.8967 48.6303Z" fill="black"/>
<path d="M133.922 75.9413C134.514 77.7259 134.491 79.7085 133.858 81.4789C133.294 79.6884 133.317 77.7184 133.922 75.9413V75.9413Z" fill="black"/>
<path d="M22.5049 24.1027C22.5955 22.4071 23.3007 20.7508 24.4601 19.5103C24.5352 21.2289 23.7958 22.9656 22.5049 24.1027V24.1027Z" fill="black"/>
<path d="M40.038 10.842C40.2739 10.4603 40.8701 10.3701 41.2083 10.6649C40.9737 11.5273 40.429 12.3017 39.6968 12.814C38.9319 12.3785 39.1649 10.972 40.0293 10.8064L40.038 10.842Z" fill="black"/>
<path d="M19.7892 58.1806C19.7943 58.7251 19.3834 59.2454 18.8525 59.3667C18.8187 58.0906 19.0118 56.8088 19.42 55.5992C19.862 56.3649 19.9802 57.3108 19.7402 58.1617L19.7892 58.1806Z" fill="black"/>
<path d="M10.8405 59.8013C10.4828 58.382 11.1135 56.7686 12.3389 55.9682C12.1133 57.3315 11.5993 58.6464 10.8405 59.8013V59.8013Z" fill="black"/>
<path d="M16.2613 28.5121C16.061 28.7742 15.7852 29.0665 15.4626 28.9977C15.339 28.9714 15.2285 28.8888 15.1683 28.7776C15.6391 27.5216 16.7451 26.5227 18.0424 26.1816C17.4487 26.9585 16.855 27.7353 16.2613 28.5121V28.5121Z" fill="black"/>
<path d="M40.6835 28.8906C40.0798 29.5476 39.4762 30.2047 38.8726 30.8617C39.3359 29.1714 40.5354 27.6967 42.096 26.8989C41.6222 27.5604 41.1485 28.2219 40.6747 28.8834L40.6835 28.8906Z" fill="black"/>
<path d="M129.245 107.556C129.191 108.824 128.573 110.058 127.59 110.862C127.371 109.562 128.073 108.159 129.245 107.556V107.556Z" fill="black"/>
<path d="M85.2089 0.1705C86.0407 0.0111982 86.9482 0.344628 87.479 1.00458C86.1134 1.20526 84.6729 0.834722 83.5736 0C84.1144 0.0368167 84.6552 0.0736104 85.1959 0.110427L85.2089 0.1705Z" fill="black"/>
<path d="M33.4972 102.678C33.7937 102.865 33.1536 103.09 32.9003 102.848C32.1499 102.13 31.7891 101.027 31.9702 100.004C32.7575 100.688 33.2986 101.649 33.4746 102.677L33.4972 102.678Z" fill="black"/>
<path d="M95.4211 9.60974C96.1446 9.6827 96.8681 9.75568 97.5916 9.82864C97.8656 10.3094 97.294 10.9206 96.7417 10.8861C96.1894 10.8515 95.7494 10.4218 95.4034 9.98987L95.4211 9.60974Z" fill="black"/>
<path d="M113.173 103.755C113.505 103.198 114.355 104.075 114.056 104.65C113.757 105.226 113.05 105.451 112.613 105.931C112.538 105.183 112.801 104.408 113.315 103.86L113.173 103.755Z" fill="black"/>
<path d="M135.11 90.0126C135.521 90.7509 135.197 91.802 134.441 92.1804C134.502 91.1618 134.562 90.1432 134.623 89.1246C134.984 88.9101 135.275 89.524 135.194 89.9361L135.11 90.0126Z" fill="black"/>
<path d="M123.45 79.3567C123.852 80.2657 123.699 81.3948 123.069 82.1636C122.661 81.2735 122.686 80.1971 123.133 79.3263L123.45 79.3567Z" fill="black"/>
<path d="M79.5876 143.062C80.138 142.499 81.1715 142.526 81.6914 143.117C81.1261 143.869 79.8289 143.884 79.2467 143.145L79.5876 143.062Z" fill="black"/>
<path d="M34.3466 106.185C33.5176 105.623 33.215 104.408 33.684 103.523C34.4299 104.159 34.7184 105.279 34.3725 106.196L34.3466 106.185Z" fill="black"/>
<path d="M126.207 111.775C126.528 111.831 126.849 111.887 127.17 111.943C126.983 112.804 126.385 113.567 125.594 113.955C125.64 113.287 125.859 112.632 126.224 112.071L126.207 111.775Z" fill="black"/>
<path d="M26.2534 125.255C26.2785 125.78 25.5089 126.124 25.1344 125.755C25.4141 125.137 25.6939 124.518 25.9736 123.9C26.5446 123.842 26.5616 124.739 26.3355 125.267L26.2534 125.255Z" fill="black"/>
<path d="M136.914 76.9068C136.771 76.5411 137.019 75.9956 137.402 76.0818C137.64 76.856 137.646 77.7003 137.419 78.4779C136.811 78.4143 136.791 77.5362 136.952 76.9461L136.914 76.9068Z" fill="black"/>
<path d="M131.906 37.8889C132.714 38.5215 133.055 39.688 132.716 40.6561C132.122 39.8883 131.81 38.907 131.851 37.9369L131.906 37.8889Z" fill="black"/>
<path d="M78.1906 140.872C78.9166 140.985 79.6426 141.098 80.3686 141.212C79.7521 141.88 78.5524 141.871 77.946 141.193L78.1906 140.872Z" fill="black"/>
<path d="M77.5158 20.5882C77.9991 20.4633 78.7561 20.5648 78.6761 21.0575C77.9095 21.2919 77.0757 21.3015 76.3039 21.0849C76.1985 20.5855 76.9779 20.4635 77.4727 20.5889L77.5158 20.5882Z" fill="black"/>
<path d="M13.7658 52.8196C13.887 53.1418 13.3382 53.4341 13.1384 53.1536C13.2666 52.213 13.6866 51.3142 14.3259 50.6125C14.4284 51.3778 14.2044 52.1815 13.7208 52.7835L13.7658 52.8196Z" fill="black"/>
<path d="M121.108 120.385C121.265 119.908 121.595 119.489 122.024 119.227C122.283 119.889 122.12 120.694 121.626 121.205C121.29 121.397 121.104 120.785 121.197 120.409L121.108 120.385Z" fill="black"/>
<path d="M131.875 37.916C130.983 37.5743 130.424 36.5318 130.632 35.5999C131.313 36.197 131.787 37.0265 131.955 37.9166L131.875 37.916Z" fill="black"/>
<path d="M87.1517 140.64C86.528 141.11 85.6082 141.142 84.9526 140.718C85.481 140.19 86.3896 140.1 87.0115 140.513L87.1517 140.64Z" fill="black"/>
<path d="M92.0609 134.508C91.3816 134.637 90.7023 134.766 90.0231 134.896C90.2101 134.012 91.5487 133.665 92.1411 134.347L92.0609 134.508Z" fill="black"/>
<path d="M124.398 115.545C124.32 115.345 124.702 115.245 124.815 115.428C124.928 115.611 124.836 115.848 124.734 116.037C124.432 116.598 124.057 117.119 123.62 117.582C123.444 116.867 123.781 116.055 124.413 115.676L124.398 115.545Z" fill="black"/>
<path d="M125.821 36.4476C125.984 36.7574 125.342 37.0211 125.24 36.6859C124.853 36.3035 124.747 35.6667 124.988 35.1792C125.466 35.3908 125.793 35.9052 125.782 36.4278L125.821 36.4476Z" fill="black"/>
<path d="M15.8972 53.9788C15.8307 54.3034 15.3335 54.426 15.1237 54.1695C15.151 53.4922 15.6309 52.856 16.2746 52.6437C16.1645 53.0939 16.0544 53.5442 15.9443 53.9944L15.8972 53.9788Z" fill="black"/>
<path d="M85.0317 21.4297C85.3549 21.437 85.6579 21.6824 85.7321 21.9971C85.2355 22.4045 84.3912 22.2647 84.0524 21.719C84.1964 21.3495 84.6907 21.1673 85.0401 21.3547L85.0317 21.4297Z" fill="black"/>
<path d="M3.22811 52.0798C2.42991 51.9166 2.88362 50.6217 3.62651 50.2872C3.59018 50.8692 3.44649 51.4443 3.20484 51.975L3.22811 52.0798Z" fill="black"/>
<path d="M119.091 64.0979C118.42 63.8443 118.203 62.8327 118.711 62.3268C119.266 62.4857 119.236 63.2762 119.085 63.8333L119.091 64.0979Z" fill="black"/>
<path d="M2.21844 82.4065C2.57814 82.3591 2.84882 82.8154 2.73082 83.1585C2.61281 83.5016 2.24729 83.7022 1.89018 83.7662C1.56915 83.3573 1.76009 82.6592 2.24455 82.4706L2.21844 82.4065Z" fill="black"/>
<path d="M19.4654 38.099C19.3492 37.4726 19.7311 36.7904 20.3257 36.5619C20.499 37.2053 20.1112 37.9492 19.4844 38.1755L19.4654 38.099Z" fill="black"/>
<path d="M21.7743 108.178C22.1608 108.146 22.5277 108.52 22.4882 108.906C22.4487 109.292 22.0135 109.584 21.6416 109.474C21.3381 109.166 21.4288 108.572 21.8104 108.369L21.7743 108.178Z" fill="black"/>
<path d="M6.54224 63.0286C6.59963 63.6397 6.37016 64.2716 5.93407 64.7035C5.46368 64.1456 5.84545 63.1272 6.56662 63.0161L6.54224 63.0286Z" fill="black"/>
<path d="M85.3204 10.8143C85.2758 11.4785 84.2468 11.3256 83.6866 10.9659C83.642 10.3596 84.6392 10.5287 85.097 10.9287L85.3204 10.8143Z" fill="black"/>
<path d="M14.0889 68.8481C14.4238 68.6834 14.7381 69.2284 14.5428 69.5464C14.3475 69.8644 13.9336 69.9531 13.5652 70.0127C13.4059 69.5895 13.6892 69.0582 14.1293 68.9545L14.0889 68.8481Z" fill="black"/>
<path d="M65.6523 19.9738C65.5265 19.7752 65.4007 19.5766 65.2749 19.378C65.6767 19.2042 66.0785 19.0304 66.4804 18.8566C66.6725 19.2646 66.2544 19.8079 65.8108 19.7265L65.6523 19.9738Z" fill="black"/>
<path d="M94.2512 79.3673C93.7274 79.2294 93.7007 78.3223 94.2155 78.1539C94.7981 78.2962 94.8218 79.3125 94.2465 79.4818L94.2512 79.3673Z" fill="black"/>
<path d="M0.916448 36.6203C0.689479 36.967 0.462498 37.3137 0.235528 37.6604C-0.386391 37.2667 0.350069 36.0763 0.980033 36.457L0.916448 36.6203Z" fill="black"/>
<path d="M139.255 75.2266C139.041 74.9506 139.622 74.6784 139.884 74.9091C139.961 75.3006 139.922 75.7144 139.772 76.0842C139.404 76.2661 139.177 75.653 139.241 75.2475L139.255 75.2266Z" fill="black"/>
<path d="M20.4902 51.8082C20.2776 51.5311 20.8584 51.2591 21.1191 51.4914C21.1302 52.0081 20.7961 52.515 20.3169 52.7085C20.0799 52.4646 20.1573 51.9968 20.4603 51.8423L20.4902 51.8082Z" fill="black"/>
<path d="M9.24727 62.3486C9.55348 62.2698 9.82652 62.6351 9.77939 62.9478C9.73226 63.2604 9.48473 63.5007 9.23975 63.7006C9.01322 63.287 9.0067 62.7607 9.22291 62.3415L9.24727 62.3486Z" fill="black"/>
<path d="M129.247 107.501C129.106 106.978 129.149 106.187 129.69 106.173C130.052 106.617 129.752 107.409 129.187 107.502L129.247 107.501Z" fill="black"/>
<path d="M13.4121 65.2054C13.447 64.6991 14.0561 64.1985 14.436 64.5351C14.503 65.036 13.8637 65.47 13.423 65.2229L13.4121 65.2054Z" fill="black"/>
<path d="M22.334 31.2333C22.5674 31.6891 22.1203 32.3223 21.6127 32.2548C21.3582 31.8168 21.8034 31.1713 22.3033 31.2535L22.334 31.2333Z" fill="black"/>
<path d="M19.1669 20.7279C19.2508 20.3343 19.9384 20.3102 20.0497 20.6969C20.0142 21.1869 19.112 21.2042 19.0577 20.7159L19.1669 20.7279Z" fill="black"/>
<path d="M20.4895 35.4247C20.3572 35.0549 20.6031 34.4965 20.9787 34.6112C21.1043 34.9095 21.2269 35.2643 21.0587 35.5409C20.8905 35.8174 20.3206 35.7148 20.3975 35.4003L20.4895 35.4247Z" fill="black"/>
<path d="M78.3951 142.819C78.3483 143.284 77.6451 143.505 77.3406 143.151C77.1535 142.717 77.9335 142.587 78.3632 142.784L78.3951 142.819Z" fill="black"/>
<path d="M27.3547 17.636C27.5335 17.2556 27.7122 16.8753 27.8909 16.4949C28.3631 16.817 28.079 17.7268 27.5074 17.7229L27.3547 17.636Z" fill="black"/>
<path d="M111.541 44.4668C111.483 44.9613 110.573 44.9473 110.529 44.4513C110.639 44.0632 111.33 44.0862 111.414 44.4808L111.541 44.4668Z" fill="black"/>
<path d="M0.548519 76.7215C0.340903 76.869 0.0499435 76.5863 0.0906389 76.3349C0.131334 76.0835 0.354114 75.9082 0.560281 75.7587C0.789285 76.0397 0.794809 76.4796 0.572941 76.7663L0.548519 76.7215Z" fill="black"/>
<path d="M74.4472 77.0329C74.2312 77.2241 73.9166 76.8007 74.0894 76.5698C74.2622 76.3389 74.6124 76.3488 74.8883 76.4327C74.9233 76.6972 74.7325 76.9723 74.4726 77.0325L74.4472 77.0329Z" fill="black"/>
<path d="M89.8158 52.76C89.5673 52.5799 89.3187 52.3998 89.0701 52.2198C89.2832 51.7319 90.2092 52.2199 89.9272 52.6714L89.8158 52.76Z" fill="black"/>
</svg>
