<svg width="114" height="150" viewBox="0 0 114 150" fill="none" xmlns="http://www.w3.org/2000/svg">
<path d="M109.066 149.556C108.504 150.018 107.706 150.016 106.979 149.991C72.1267 148.804 37.274 147.617 2.42138 146.43C1.79035 146.408 1.10565 146.367 0.627459 145.954C-0.00784957 145.407 -0.0239351 144.445 0.0103079 143.607C1.65917 103.249 3.30802 62.8907 4.95688 22.5325C4.98313 21.89 5.03564 21.1839 5.48665 20.7256C5.99115 20.2129 6.79982 20.2009 7.51875 20.2228C41.9912 21.273 76.4636 22.3232 110.936 23.3734C111.562 23.3925 112.26 23.4423 112.686 23.9016C113.103 24.351 113.111 25.0322 113.095 25.6452C112.005 66.1563 110.916 106.667 109.827 147.179C109.804 148.038 109.729 149.009 109.066 149.556V149.556ZM105.234 147.942C105.898 147.964 106.622 147.968 107.15 147.563C107.833 147.039 107.914 146.058 107.937 145.197C108.981 105.691 110.024 66.1849 111.068 26.6789C111.098 25.5516 109.598 25.1549 108.471 25.1227C75.3756 24.1773 42.2803 23.2318 9.18499 22.2864C8.50695 22.267 7.74401 22.28 7.27 22.7652C6.84845 23.1967 6.80029 23.8588 6.77647 24.4616C5.24076 63.322 3.70507 102.182 2.16936 141.043C2.13117 142.009 2.13088 143.085 2.78412 143.799C3.44994 144.525 4.54778 144.607 5.53297 144.64C38.7667 145.741 72.0004 146.841 105.234 147.942Z" fill="black"/>
<path d="M57.8767 10.0498C57.1643 10.0066 56.4757 9.65682 56.0206 9.10701C54.8866 10.3684 53.8336 11.9155 53.9684 13.6064C54.1031 15.2973 56.0437 16.8333 57.5108 15.9819C58.5016 15.407 59.7545 16.0847 60.891 15.9417C62.3551 15.7576 63.3342 14.1332 63.1762 12.666C63.0181 11.1989 61.983 9.95242 60.7668 9.11671C60.0208 8.60408 59.1495 7.48193 59.9323 7.02734C61.7858 7.62834 63.4751 8.90108 64.2905 10.6708C65.1059 12.4405 64.9116 14.7101 63.5842 16.1366C62.2568 17.563 59.7867 17.8572 58.3162 16.5789C58.3633 18.1114 58.3614 19.7948 57.3814 20.9739C56.3045 19.5661 55.2276 18.1582 54.1507 16.7503C53.2684 15.5968 52.3443 14.3245 52.3573 12.8722C52.3678 11.7091 52.9854 10.6448 53.6382 9.68212C54.1234 8.96676 54.6607 8.25164 55.4095 7.81991C56.1583 7.38817 57.1713 7.30614 57.852 7.83881C58.5327 8.37147 58.6111 9.59401 57.8767 10.0498Z" fill="black"/>
<path d="M49.1572 0C51.1713 1.53208 52.9965 3.31215 54.5786 5.2872C52.173 4.32633 50.1781 2.38071 49.1572 0Z" fill="black"/>
<path d="M57.6565 2.70318C58.0639 1.72788 59.7672 1.78457 60.1089 2.7848C59.2593 3.20927 58.5062 3.82542 57.9218 4.57409C57.3244 4.16144 57.1354 3.25907 57.5171 2.64139L57.6565 2.70318Z" fill="black"/>
<path d="M61.0596 12.3141C60.6542 12.8364 60.2488 13.3586 59.8434 13.8808C58.944 13.2556 59.7872 11.8754 60.6293 11.1749C61.044 11.3317 61.236 11.9016 61.0008 12.2774L61.0596 12.3141Z" fill="black"/>
<path d="M61.0933 18.9601C60.9088 19.5591 60.2225 19.9539 59.612 19.8122C59.5742 19.1009 59.9876 18.3855 60.6227 18.063C60.9256 18.2757 61.1307 18.6223 61.1714 18.9902L61.0933 18.9601Z" fill="black"/>
<path d="M33.7462 40.9152C33.32 37.9318 33.6369 34.8451 34.6605 32.0106C34.7819 31.6743 34.919 31.3321 35.1663 31.0738C35.4703 30.7563 35.9322 30.5981 36.367 30.6625C35.8834 32.6347 35.3998 34.6068 34.9161 36.579C34.5595 38.0333 34.2025 39.489 33.7462 40.9152Z" fill="black"/>
<path d="M32.3272 33.084C31.8939 31.0724 31.6906 29.0113 31.7228 26.9538C33.6628 28.2668 33.9734 31.4174 32.3272 33.084V33.084Z" fill="black"/>
<path d="M17.0999 129.031C16.3004 128.81 15.6541 128.109 15.4985 127.294C16.3068 127.328 17.0579 127.936 17.2585 128.72L17.0999 129.031Z" fill="black"/>
<path d="M17.301 142.162C17.1325 141.504 17.6363 140.757 18.3095 140.666C18.5308 141.318 18.7325 142.102 18.3049 142.641C17.8772 143.18 16.6955 142.704 17.0391 142.108L17.301 142.162Z" fill="black"/>
<path d="M16.7567 136.863C16.0982 136.511 16.9032 135.274 17.492 135.734C17.7429 135.942 17.843 136.314 17.7304 136.62C17.4583 136.808 17.1054 136.874 16.7836 136.798L16.7567 136.863Z" fill="black"/>
<path d="M7.37493 125.161C7.05302 125.211 6.7311 125.262 6.40919 125.313C6.15006 124.923 6.35409 124.313 6.79544 124.157C7.10274 124.37 7.31139 124.719 7.35241 125.09L7.37493 125.161Z" fill="black"/>
<path d="M66.7354 31.8469C67.1801 31.3982 67.946 31.3147 68.477 31.6569C68.4272 32.5392 66.8927 32.7514 66.6055 31.9156L66.7354 31.8469Z" fill="black"/>
<path d="M99.4224 116.438C99.6904 115.948 100.584 116.076 100.703 116.622C100.408 117.242 99.7201 117.653 99.0341 117.618C98.7834 117.23 99.0049 116.629 99.4471 116.497L99.4224 116.438Z" fill="black"/>
<path d="M18.9628 31.0229C18.4887 31.3004 17.9581 30.553 18.1896 30.0548C18.4211 29.5566 19.0067 29.3499 19.533 29.1924C19.6137 29.82 19.3626 30.4807 18.8855 30.8963L18.9628 31.0229Z" fill="black"/>
<path d="M105.538 117.142C104.77 117.606 103.611 116.928 103.628 116.03C103.645 115.133 104.812 114.497 105.581 114.96C106.35 115.422 106.347 116.735 105.582 117.204L105.538 117.142Z" fill="black"/>
<path d="M21.4037 128.388C21.7271 128.149 22.0509 128.822 21.7623 129.102C21.4048 129.216 20.9887 129.119 20.7173 128.86C20.9125 128.665 21.1077 128.47 21.3029 128.274L21.4037 128.388Z" fill="black"/>
<path d="M17.9194 132.637C18.3576 132.782 18.5724 133.377 18.3272 133.768C17.983 133.691 17.5967 133.582 17.4334 133.27C17.2702 132.957 17.6114 132.465 17.9115 132.65L17.9194 132.637Z" fill="black"/>
<path d="M58.4905 143.161C59.0774 143.374 58.4324 144.476 57.9589 144.069C57.5872 143.713 58.0259 142.949 58.5204 143.091L58.4905 143.161Z" fill="black"/>
<path d="M104.309 88.9616C104.225 88.6034 104.894 88.5256 105.048 88.8599C105.201 89.1942 105.003 89.5766 104.811 89.8902C104.416 90.1178 104.18 89.4102 104.267 88.9632L104.309 88.9616Z" fill="black"/>
<path d="M99.8256 136.846C100.149 136.607 100.473 137.279 100.184 137.559C99.8267 137.673 99.4106 137.577 99.1392 137.318C99.3343 137.122 99.5295 136.927 99.7247 136.731L99.8256 136.846Z" fill="black"/>
<path d="M95.9618 129.539C96.3911 129.444 97.0806 129.673 96.853 130.049C96.5834 130.583 95.5786 129.959 95.9377 129.48L95.9618 129.539Z" fill="black"/>
<path d="M94.66 142.376C94.421 142.053 95.0936 141.729 95.3736 142.018C95.4873 142.375 95.3911 142.791 95.1321 143.063C94.9367 142.868 94.7413 142.672 94.5459 142.477L94.66 142.376Z" fill="black"/>
<path d="M13.8508 118.128C13.5839 118.562 12.7555 118.318 12.7675 117.808C13.0735 117.386 13.8925 117.643 13.9012 118.165L13.8508 118.128Z" fill="black"/>
<path d="M34.2571 25.9286C34.5289 25.9413 34.609 26.3552 34.4304 26.5605C34.2518 26.7658 33.9545 26.8085 33.684 26.8379C33.3755 26.4328 33.7977 25.7353 34.2997 25.8208L34.2571 25.9286Z" fill="black"/>
<path d="M35.2102 139.88C35.0413 140.479 33.9182 139.813 34.3634 139.377C34.5905 138.822 35.6342 139.436 35.2592 139.904L35.2102 139.88Z" fill="black"/>
<path d="M19.0434 44.9276C18.9269 45.3036 18.3534 45.427 18.0925 45.1322C18.1827 44.7445 18.3373 44.2911 18.7225 44.1911C19.1078 44.0911 19.4204 44.7981 19.0274 44.8608L19.0434 44.9276Z" fill="black"/>
<path d="M77.6655 30.4953C77.5006 30.8512 76.8252 30.4852 77.0334 30.1527C77.2099 29.6657 78.1237 30.2035 77.7836 30.5943L77.6655 30.4953Z" fill="black"/>
<path d="M30.2455 40.3561C30.5689 40.1171 30.8927 40.7896 30.6041 41.0697C30.2466 41.1833 29.8305 41.0871 29.5591 40.8281C29.7543 40.6327 29.9495 40.4373 30.1447 40.2419L30.2455 40.3561Z" fill="black"/>
<path d="M105.745 86.6158C105.515 86.8822 105.024 86.8399 104.844 86.5381C104.664 86.2363 104.859 85.7837 105.202 85.7079C105.512 85.9236 105.722 86.2756 105.765 86.6502L105.745 86.6158Z" fill="black"/>
<path d="M10.1042 59.7912C9.85046 59.9954 9.40643 59.857 9.31365 59.5448C9.22087 59.2326 9.51724 58.8741 9.84131 58.9066C10.2248 58.9186 10.3744 59.5513 10.0369 59.7338L10.1042 59.7912Z" fill="black"/>
<path d="M40.434 137.345C40.0595 137.231 39.9301 136.665 40.2179 136.399C40.7851 136.388 40.9659 137.469 40.3991 137.444L40.434 137.345Z" fill="black"/>
<path d="M24.8546 142.175C24.5357 142.261 24.1828 142.21 23.9009 142.038C24.0861 141.769 24.3262 141.471 24.6524 141.479C24.9786 141.487 25.1409 142.066 24.818 142.112L24.8546 142.175Z" fill="black"/>
<path d="M95.6299 98.5292C95.9912 103.257 93.5326 107.711 90.9255 111.672C89.2401 114.232 87.447 116.741 85.2901 118.92C83.2362 120.994 80.8803 122.741 78.5348 124.479C77.7494 123.842 78.628 122.636 79.4372 122.03C86.5364 116.71 91.9016 109.114 94.5413 100.644C94.7804 99.8768 95.0251 99.0587 95.6299 98.5292Z" fill="black"/>
<path d="M35.6677 49.2484C35.097 49.6094 34.5264 49.9703 33.9558 50.3312C34.025 49.5007 34.8797 48.8232 35.704 48.9455L35.6677 49.2484Z" fill="black"/>
<path d="M60.5963 41.8906C61.0252 41.7967 61.7143 42.0262 61.4857 42.4012C61.2173 42.9343 60.2142 42.3115 60.5729 41.8345L60.5963 41.8906Z" fill="black"/>
<path d="M89.68 62.3308C84.1646 52.8881 74.8772 45.7205 64.345 42.7783C63.7479 42.6116 63.0111 42.2831 63.0448 41.6642C74.186 43.4248 84.3294 50.6538 89.6292 60.6107C89.9225 61.1618 90.1637 61.936 89.68 62.3308Z" fill="black"/>
<path d="M30.8801 42.8074C31.0381 43.1589 31.196 43.5105 31.3539 43.8621C41.0727 35.5698 54.9694 32.7067 67.3606 35.817C79.7518 38.9273 90.4509 47.7308 96.524 58.9706C102.597 70.2103 104.133 83.6877 101.454 96.1792C99.2702 106.361 94.2923 116.02 86.8085 123.261C79.3247 130.503 69.2947 135.213 58.8936 135.724C48.1422 136.253 37.332 132.256 29.157 125.253C20.982 118.251 15.4315 108.374 13.17 97.85C11.8362 91.6429 11.6059 85.2473 11.77 78.9006C13.3268 72.9981 14.8836 67.0955 16.4404 61.1929C21.2536 55.0644 26.0669 48.9359 30.8801 42.8074ZM35.1331 43.4564C22.0033 52.43 13.5453 67.8861 13.0658 83.7822C12.5863 99.6783 20.0972 115.616 32.6622 125.365C39.2627 130.486 47.2936 133.97 55.6396 134.337C66.2911 134.805 76.7819 130.119 84.6271 122.899C98.844 109.815 104.443 88.3149 98.9517 69.7906C95.6875 58.7782 88.6638 48.7738 78.9479 42.6478C69.2319 36.5219 56.8246 34.5251 45.8975 38.0642C42.0665 39.305 38.4577 41.1842 35.1331 43.4564V43.4564Z" fill="black"/>
<path d="M54.4879 91.6599C57.4093 90.6863 60.4054 89.9368 63.441 89.4199C63.7865 89.3611 63.903 89.9342 63.655 90.1817C59.948 91.5245 56.1976 92.7475 52.4117 93.8479C52.1696 92.767 53.437 92.0101 54.4879 91.6599V91.6599Z" fill="black"/>
<path d="M87.9503 62.0548C97.5538 78.1064 95.2549 100.017 83.516 114.58C80.8514 117.885 77.7384 120.863 74.131 123.102C61.1577 131.154 42.9082 127.89 32.106 117.098C21.3037 106.307 17.7862 89.4383 21.3873 74.5999C24.892 60.1588 35.7694 46.7966 50.3393 43.8735C64.8934 40.9536 80.3292 49.3165 87.9503 62.0548ZM54.6458 126.412C69.8859 127.301 83.9211 115.556 89.1581 101.216C92.7128 91.4831 92.8656 80.5441 89.5843 70.7152C85.8861 59.6378 77.3421 49.783 66.1162 46.5639C57.0469 43.9633 46.9249 45.947 39.0967 51.2132C31.2684 56.4795 25.719 64.8209 23.1817 73.9081C20.5845 83.2098 21.0607 93.3425 24.5188 102.36C29.3829 115.043 41.0849 125.621 54.6458 126.412V126.412Z" fill="black"/>
<path d="M79.0252 125.299C68.533 132.929 53.9829 134.238 41.9827 129.308C29.9825 124.378 20.7248 113.601 16.8909 101.207C13.0569 88.8131 14.4882 75.028 20.0541 63.3093C23.5559 55.9362 28.7339 49.2384 35.532 44.7207C49.7088 35.2996 70.0083 37.1408 83.0248 48.1094C96.0413 59.078 101.377 77.9335 97.1927 94.4328C96.9688 95.3153 96.5749 96.3379 95.6864 96.5366C98.0131 82.6363 96.745 67.4487 88.5906 55.9536C81.3894 45.8023 69.0355 39.5184 56.5903 39.6767C44.1452 39.8349 31.955 46.4308 25.0143 56.762C17.4919 67.9589 14.2743 82.1226 16.9297 95.3477C19.5851 108.573 28.2751 120.608 40.3246 126.671C52.3741 132.735 67.5745 132.429 79.0252 125.299V125.299Z" fill="black"/>
<path d="M90.1706 89.4124C89.2517 99.3698 85.1551 109.195 77.9077 116.085C70.6602 122.974 60.1374 126.61 50.34 124.608C39.8802 122.472 31.3405 114.242 26.9247 104.522C21.7395 93.1087 21.7649 79.4476 26.9923 68.0537C32.1876 56.7298 43.1251 47.5675 55.5649 46.8787C65.9229 46.3051 76.1689 51.7233 82.4247 59.9987C88.6805 68.2741 91.1239 79.0824 90.1706 89.4124V89.4124ZM79.8942 111.289C86.1808 103.571 89.4737 93.4767 88.947 83.5368C88.4203 73.5969 84.0791 63.9068 77.0122 56.8969C74.0029 53.9119 70.4843 51.3829 66.525 49.8699C57.4736 46.4111 46.77 48.7804 39.1841 54.809C31.5982 60.8376 26.987 70.1038 25.4155 79.6652C23.6346 90.5002 25.7141 102.198 32.3445 110.951C38.9748 119.703 50.4252 124.984 61.2237 122.993C68.5995 121.634 75.1574 117.104 79.8942 111.289V111.289Z" fill="black"/>
<path d="M60.6886 117.971C47.8842 120.285 34.8462 110.591 30.9685 98.1704C27.0907 85.75 31.1139 71.8338 38.9534 61.4488C43.777 55.059 52.4491 52.0854 60.3401 53.4384C68.2311 54.7913 75.1719 60.1317 79.2067 67.0468C83.2415 73.9619 84.505 82.299 83.519 90.2442C81.9403 102.967 73.3043 115.692 60.6886 117.971H60.6886ZM49.4612 115.409C61.0903 119.055 74.284 111.332 79.1513 100.159C84.0186 88.9856 81.7149 75.668 75.7009 65.068C71.9019 58.372 63.8476 54.5982 56.1727 55.2025C48.4979 55.8068 41.4194 60.4372 37.0914 66.8041C32.7633 73.1709 31.0507 81.1043 31.5127 88.789C32.1959 100.154 38.5974 112.003 49.4612 115.409V115.409Z" fill="black"/>
<path d="M53.0891 121.627C40.8742 120.247 31.2877 109.427 28.0528 97.5675C26.3508 91.3275 26.0823 84.701 27.274 78.3437C28.7853 70.2813 32.7519 62.5689 38.9815 57.2324C45.2111 51.8958 53.7718 49.1346 61.8454 50.5847C71.9105 52.3925 80.0874 60.4758 84.012 69.9189C88.6266 81.0221 87.9006 94.2092 82.0949 104.739C76.3652 115.13 64.8806 122.959 53.0891 121.627V121.627ZM61.1994 51.5461C48.5737 49.4958 36.1113 58.7091 30.9522 70.4137C26.9157 79.5711 26.512 90.2721 29.8469 99.7076C33.7228 110.674 43.599 120.139 55.2221 120.563C65.5208 120.939 75.1451 114.165 80.4323 105.319C87.1762 94.0358 87.6217 79.2483 81.5693 67.5799C77.4424 59.6237 70.0464 52.9827 61.1994 51.5461V51.5461Z" fill="black"/>
<path d="M51.8507 91.312C52.0123 92.1996 50.7805 92.577 49.8825 92.6629C48.9844 92.7488 47.8081 93.4679 48.276 94.2393C48.8467 95.18 48.2622 96.4237 47.4528 97.169C46.6433 97.9143 45.6085 98.4213 44.9419 99.2967C44.3455 100.08 44.1021 101.086 43.5113 101.874C42.9206 102.661 41.6895 103.156 40.9695 102.485C41.8958 100.094 43.5307 97.9837 45.6134 96.4889C46.2919 96.002 47.121 95.2663 46.7746 94.5064C45.9146 92.6195 48.388 90.2849 50.2222 91.2523C50.2526 89.2719 46.2714 89.8351 45.7855 87.9149C45.5656 87.0458 46.2608 86.1823 46.1998 85.2879C46.1408 84.422 45.4108 83.7769 44.9879 83.019C44.565 82.2611 44.6946 80.9919 45.5578 80.9016C48.2434 81.829 46.5257 87.0419 49.1573 88.1131C49.7678 88.3616 50.4558 88.2833 51.1098 88.2011C55.1858 87.6883 59.2616 87.1756 63.3376 86.6629C67.3471 84.1695 70.1875 79.7435 70.4186 75.0276C70.6498 70.3118 68.1004 65.4777 63.9061 63.3096C59.7118 61.1415 54.0738 61.9803 50.9321 65.5049C50.6247 65.8498 50.3323 66.2344 50.2424 66.6875C49.3795 71.0366 47.8598 75.2548 45.7506 79.1548C45.2955 79.9963 43.8563 80.7282 43.6655 79.7908C45.1697 75.9885 46.8002 72.2361 48.5534 68.542C47.5296 65.99 49.7512 63.2414 52.1914 61.9739C57.9588 58.9782 65.7917 60.8351 69.6006 66.1009C73.4095 71.3668 72.7211 79.3873 68.0706 83.9271C66.1477 85.8042 66.1396 88.927 66.9125 91.5006C67.6854 94.0742 69.0918 96.4496 69.6045 99.0874C66.8028 97.0893 62.4463 97.7888 60.4109 100.563C57.5205 104.504 53.0371 107.239 48.2111 108.006C46.5139 108.276 44.5483 108.222 43.376 106.965C42.2036 105.709 42.89 103.037 44.6051 103.144C43.8198 104.932 46.3402 106.457 48.2867 106.303C55.4895 105.733 59.4743 96.3959 66.6514 95.5632C64.2857 94.1171 66.4155 89.1366 63.7797 88.2763C63.2995 88.1195 62.7791 88.1784 62.2776 88.2389C59.7462 88.5445 57.2148 88.8501 54.6833 89.1557C53.3548 89.3161 51.611 89.9954 51.8507 91.312V91.312Z" fill="black"/>
</svg>
