<svg width="224" height="194" viewBox="0 0 224 194" fill="none" xmlns="http://www.w3.org/2000/svg">
<path d="M145.8 79.2897C145.8 79.2897 144.553 79.5535 143.905 79.5987C141.76 79.7484 139.596 80.0798 137.469 79.9538C132.383 79.6525 127.52 81.1595 122.486 81.2003C121.789 81.2059 121.117 81.7735 120.396 81.8715C119.615 81.9779 118.776 81.9102 117.988 81.788C117.188 81.6638 116.381 81.1241 115.641 81.2079C109.856 81.8638 104.174 81.7476 98.4583 80.4824C96.7228 80.0982 94.943 79.5698 93.2703 79.39C91.6478 79.2156 89.9914 79.2013 88.3108 78.8796C85.3674 78.316 82.3511 78.0115 79.3493 77.7341C75.4908 77.3775 71.6048 77.2434 67.7522 76.8496C63.7852 76.444 59.7958 76.0324 55.9067 75.2653C52.7211 74.6369 52.7427 74.4557 52.998 77.6238C53.1945 80.0605 53.443 82.5038 53.4197 84.9423C53.3734 89.7668 53.1707 94.5905 52.9985 99.4136C52.9451 100.909 53.2448 102.101 55.2092 102.478C55.5684 102.547 55.8055 103.113 56.099 103.45C55.7477 103.568 55.406 103.73 55.0424 103.79C54.687 103.849 54.2384 103.921 53.9519 103.786C49.1647 101.53 44.2346 103.388 39.4089 103.556C37.8463 103.61 36.3684 104.345 34.8233 103.43C34.6202 103.309 34.1551 103.304 33.9665 103.429C30.0992 105.987 25.4138 105.429 21.1345 105.604C16.0918 105.81 11.2026 106.949 6.16227 106.967C4.89571 106.972 3.64375 107.563 2.35951 107.737C1.91268 107.798 1.07575 107.511 0.955807 107.213C0.519388 106.13 -0.290542 104.734 0.139462 103.897C1.09003 102.045 0.918882 100.467 0.0353167 98.7613C-0.0623603 98.5727 0.0729428 98.0714 0.145068 98.0642C2.60709 97.8169 1.56763 96.7509 0.927884 95.6953C0.74412 95.392 0.708704 94.7638 0.929394 94.5634C3.05791 92.631 0.406348 91.1643 0.362038 89.4646C0.306407 87.3303 0.310073 85.1945 0.311744 83.0594C0.312122 82.5579 0.46586 82.0548 0.448826 81.5552C0.318752 77.7492 0.0616765 73.9441 0.0485775 70.1382C0.0380119 67.0485 0.265278 63.9554 0.496748 60.8702C0.542999 60.2539 1.09478 59.6704 1.39411 59.0643C1.52138 58.8067 1.59885 58.5299 1.699 58.2619C1.39573 58.3192 0.982167 58.2854 0.808537 58.4497C0.0975778 59.1224 -0.0556756 58.8959 0.0159646 58.1311C0.165175 56.5369 0.260372 54.9363 0.507529 53.3542C0.549144 53.0878 1.20986 52.7814 1.63674 52.695C7.55686 51.4976 13.4436 50.0811 19.4356 49.3005C21.5736 49.022 22.8203 49.5264 21.2684 47.1954C21.0689 46.8956 21.5293 46.1523 21.8445 45.7022C23.3703 43.5229 24.8591 41.3143 26.5649 39.2475C27.1194 38.5756 28.2748 38.2681 29.2074 37.8959C29.3077 37.8559 29.818 38.4714 30.032 38.8321C30.4418 39.5232 30.6439 40.34 31.1719 40.9398C31.9341 41.8058 32.9635 42.4844 33.7741 43.3221C34.2544 43.8184 34.9756 44.5772 34.8315 45.0296C33.8144 48.222 36.1386 46.1393 36.8812 46.0074C41.6212 45.1653 46.3317 44.1951 51.066 43.3272C52.3774 43.0868 53.7357 43.0435 55.0739 42.9219C56.4774 42.7944 56.2919 43.3653 56.1084 44.3331C55.691 46.535 55.5195 48.7767 55.3348 51.0079C55.2703 51.7873 55.4603 52.5831 55.534 53.3715C55.2828 53.3369 54.8502 53.3601 54.8088 53.2587C54.4623 52.4077 53.9526 51.5362 53.9409 50.6662C53.918 48.9659 54.2297 47.2639 54.2962 45.5594C54.3099 45.2073 53.8578 44.841 53.6204 44.4812C53.2179 44.7215 52.8109 44.9562 52.4159 45.2057C52.3083 45.2737 52.1419 45.4084 52.1621 45.4748C53.3591 49.4387 52.2631 53.5859 53.3957 57.5675C53.5718 58.1864 53.0132 58.9601 52.8322 59.6697C52.7093 60.1512 52.5633 60.6482 52.5806 61.134C52.7005 64.4851 52.8952 67.8342 52.9898 71.1857C53.025 72.4308 52.9881 73.0255 54.9644 72.6647C59.2934 71.8745 63.7356 71.5796 68.1194 71.0093C72.7529 70.4066 77.3658 69.6803 82.0002 69.0836C84.6609 68.7409 87.3521 68.5859 90.0196 68.2795C94.2693 67.7913 98.5053 67.2085 102.757 66.7382C106.761 66.2954 110.782 65.9683 114.789 65.5495C118.217 65.1914 121.625 64.6342 125.062 64.4266C128.262 64.2334 131.489 64.4051 134.703 64.3677C135.306 64.3607 136.209 64.3017 136.459 63.9668C138.252 61.5627 141.199 62.587 143.561 62.129C147.805 61.3062 152.164 60.7381 156.5 60.5774C159.306 60.4733 162.161 61.2534 164.983 61.6901C168.062 62.1664 171.133 62.6855 174.199 63.2203C176.642 63.6462 179.074 64.1191 181.509 64.5791C185.97 65.422 190.425 66.2905 194.891 67.112C199.909 68.0352 204.927 68.9611 209.966 69.7886C211.244 69.9984 212.602 69.793 213.918 69.8614C215.406 69.9386 216.898 70.256 218.368 70.1799C219.145 70.1396 219.882 69.485 220.637 69.1078C220.845 69.9422 220.946 70.8152 221.305 71.5951C221.495 72.0075 222.14 72.2531 222.571 72.5828C222.848 72.7945 223.109 73.0221 223.377 73.2426C222.918 73.3063 222.46 73.3908 221.998 73.4236C221.804 73.4374 221.521 73.4006 221.413 73.287C219.228 70.9882 216.145 71.2123 213.231 71.0621C212.686 71.034 212.105 71.5515 211.54 71.8173C212.031 71.9418 212.514 72.1139 213.014 72.1813C214.199 72.341 215.41 72.3846 216.574 72.6156C217.008 72.7017 217.343 73.1789 217.722 73.4778C217.255 73.6993 216.758 74.1475 216.325 74.1035C214.317 73.8992 212.282 73.7 210.339 73.2326C208.475 72.7843 193.929 74.0814 192.839 74.4817C192.343 74.6636 191.546 74.2023 190.887 74.0372C191.536 73.682 192.145 73.113 192.84 73.0132C194.621 72.7578 196.44 72.7058 198.245 72.5822C202.096 72.3185 205.949 72.0667 209.799 71.7888C210.093 71.7676 210.371 71.5789 210.657 71.4681C210.415 71.3187 210.191 71.0737 209.928 71.0343C205.453 70.364 200.964 69.7669 196.499 69.0516C193.578 68.5837 190.695 67.9307 187.786 67.3999C182.901 66.5086 178.013 65.6336 173.119 64.781C169.96 64.2306 166.736 63.9057 163.635 63.1705C158.855 62.0373 154.138 61.9122 149.295 62.7898C146.135 63.3625 142.887 63.5477 139.707 64.0484C139.145 64.137 138.427 64.8684 138.3 65.4C138.071 66.355 138.304 67.3894 138.196 68.378C138.161 68.7018 137.435 69.2635 137.413 69.2492C135.092 67.7434 133.008 69.62 130.812 69.7059C129.441 69.7596 128.597 69.7259 128.097 68.6691C127.069 66.4958 125.336 65.5742 122.679 65.9393C117.763 66.6147 112.845 67.2778 107.918 67.8857C105.255 68.2143 102.563 68.3647 99.899 68.6899C94.8993 69.3003 89.9146 70.0065 84.9154 70.6205C81.3528 71.0582 77.7746 71.3952 74.2074 71.8044C69.8128 72.3086 65.4253 72.8606 61.0288 73.3502C59.677 73.5007 58.3013 73.4801 56.9469 73.6175C56.642 73.6485 56.3804 74.013 56.099 74.224C56.3937 74.3268 56.6806 74.4949 56.9842 74.5229C62.7729 75.0563 68.5832 75.4447 74.3479 76.1327C79.3091 76.7248 84.2026 77.7504 89.1563 78.4054C93.2167 78.9423 97.3233 79.2025 101.406 79.6113C103.716 79.8427 106.015 80.2961 108.327 80.3401C110.748 80.3861 113.177 80.0516 115.604 79.9049C116.398 79.8569 117.198 79.8552 117.994 79.871C118.71 79.8852 119.458 80.0947 120.134 79.971C122.628 79.5146 125.073 78.814 127.583 78.4705C130.856 78.0225 134.03 77.2182 137.525 78.231C139.974 78.9408 142.803 78.6327 145.389 77.4793C146.635 76.9233 148.269 77.0143 149.736 76.8824C152.922 76.5956 156.117 76.3827 159.302 76.0871C164.654 75.5905 170 75.0438 175.351 74.5461C175.904 74.4947 176.48 74.6328 177.045 74.6829C176.724 74.9969 176.27 75.2646 176.104 75.6333C174.199 75.7109 176.497 75.4643 173.371 76.1191C172.574 76.286 171.506 76.2306 171.044 76.6716C168.5 77 167.432 76.6716 164.722 77.2658C161.095 77.4334 163.5 77.5 160.331 77.7333C157.162 77.9667 145.8 79.2897 145.8 79.2897ZM10.1732 63.4096C10.026 66.6294 9.89539 69.85 9.71416 73.0683C9.68629 73.5616 9.42506 74.0447 9.27176 74.5325C8.98347 74.0228 8.45697 73.5172 8.44549 73.0027C8.37035 69.6434 8.40684 66.2821 8.40684 62.9214C8.40684 62.7264 8.32906 62.4956 8.41935 62.342C9.0432 61.2811 8.0681 61.0391 7.46926 61.3273C6.74494 61.6759 5.94433 62.4542 5.83307 63.1308C5.58866 64.6172 5.70213 66.1586 5.77081 67.6739C5.86374 69.7249 6.06535 71.7719 6.1916 73.8219C6.23688 74.5573 6.19887 75.2966 6.19887 76.0341C6.19887 78.0071 6.7983 80.1773 6.0681 81.9098C4.7459 85.0468 7.02228 88.0553 5.82488 91.1136C5.41034 92.1725 5.91581 93.4851 5.75793 94.6562C5.48613 96.6727 7.0378 99.0544 4.31752 100.635C4.15763 100.728 4.30528 101.234 4.30981 101.548C4.62192 101.475 4.95301 101.438 5.24254 101.321C6.0474 100.995 6.8017 100.442 7.63621 100.33C9.54031 100.075 11.4831 100.056 13.4052 99.8945C16.2286 99.6575 19.055 99.4306 21.867 99.1092C27.2326 98.4959 32.5883 97.816 37.9492 97.17C40.1802 96.9012 42.4151 96.6578 44.6447 96.3799C45.0858 96.3249 45.5102 96.1653 45.9423 96.054C45.4538 95.6449 45.0347 95.0909 44.4543 94.8743C44.0152 94.7104 43.3686 94.9691 42.8172 95.054C41.6521 95.2335 40.4965 95.49 39.3234 95.5946C35.9916 95.8915 32.6377 96.0252 29.3205 96.4103C23.2739 97.1123 17.249 97.9588 11.2114 98.7228C9.71357 98.9124 8.37752 97.6943 8.39789 96.3126C8.43115 94.0577 8.3925 91.802 8.43207 89.5473C8.43552 89.3533 8.79572 89.1642 8.9901 88.9728C9.23726 89.1825 9.67702 89.3764 9.70122 89.6046C9.90202 91.4969 10.0767 93.3939 10.1589 95.2929C10.2409 97.1844 10.749 97.5023 12.7858 97.0343C14.199 96.7097 15.6676 96.5439 17.1232 96.399C20.0173 96.1109 22.9304 95.9583 25.8157 95.6176C29.6982 95.1592 33.5626 94.5805 37.4332 94.0443C39.1571 93.8055 40.8883 93.2906 42.5963 93.3498C45.6059 93.454 45.487 91.7352 45.4944 90.0038C45.5135 85.5602 45.5006 81.1164 45.5009 76.6726C45.501 76.153 45.5053 75.6334 45.5051 75.1138C45.5042 72.8152 45.5092 70.5166 45.485 68.2181C45.4834 68.067 45.2882 67.8782 45.1275 67.7738C43.6434 66.8087 44.1926 65.8034 44.9006 64.6725C45.2855 64.0574 45.4457 63.2713 45.4748 62.5549C45.5515 60.6717 45.3856 58.7773 45.5359 56.9011C45.6644 55.2962 44.9455 54.8051 43.2665 55.0139C39.9942 55.4206 36.6841 55.6526 33.4506 56.2256C29.1357 56.9902 24.8815 58.0206 20.5957 58.9159C19.182 59.2113 17.7579 59.4814 16.3236 59.6766C15.9201 59.7316 15.4632 59.4798 15.0308 59.3687C15.3466 59.2196 15.6442 59.0086 15.9811 58.931C19.4364 58.1349 22.9011 57.3708 26.3559 56.573C27.3037 56.3541 28.2271 56.0525 29.1618 55.7889C28.0848 55.6622 27.0087 55.5287 25.9294 55.4203C25.8284 55.4102 25.7178 55.6042 25.5934 55.6276C21.806 56.3411 18.0112 57.0248 14.2287 57.7579C11.741 58.24 9.26469 58.7716 6.79895 59.3347C6.46069 59.412 6.21337 59.8002 5.92395 60.0444C6.29693 60.1905 6.7092 60.5108 7.03635 60.4533C8.72138 60.157 10.3798 59.7445 12.0592 59.4195C12.4322 59.3473 12.8522 59.4646 13.2506 59.4946C12.9243 59.6938 12.6272 59.9617 12.267 60.0805C10.6085 60.6276 8.84402 61.0819 10.1732 63.4096ZM19.8883 51.7013C19.2913 51.5785 18.6347 51.2498 18.1076 51.3688C15.928 51.8612 13.8212 52.6371 11.6237 53.0277C9.18712 53.4609 6.683 53.6059 4.20378 53.8389C3.20469 53.9328 3.09262 54.3167 3.54672 55.0098C3.85463 55.4798 4.50489 56.073 4.37067 56.4206C3.6976 58.1632 5.13413 57.7985 6.01726 57.7238C8.10961 57.5469 10.1936 57.264 12.264 56.9391C12.6391 56.8803 12.933 56.4177 13.2644 56.1415C12.8967 55.8973 12.5379 55.4557 12.16 55.4426C10.3806 55.3811 8.59584 55.4581 6.81366 55.4378C6.3131 55.4321 5.81496 55.2638 5.31568 55.1701C5.66909 54.9895 6.01225 54.7906 6.37822 54.6327C6.92735 54.3958 7.47056 54.081 8.05484 53.9871C9.89377 53.6916 11.6886 53.6965 13.2761 54.8166C13.8488 55.2207 14.567 55.7623 15.1994 55.743C16.7944 55.6944 18.4015 55.4497 19.962 55.1262C23.1691 54.4615 26.2331 52.8032 29.7085 54.2052C29.9462 54.3011 30.4274 53.9261 30.7953 53.7701C30.5526 53.5358 30.322 53.2905 30.0644 53.0698C29.6252 52.6937 29.1691 52.333 28.7202 51.9658C29.264 51.6825 29.828 51.4247 30.3444 51.1066C30.6643 50.9095 31.1991 50.5411 31.1441 50.3867C30.8477 49.5534 28.8347 49.3461 28.3321 50.125C27.3238 51.6874 26.0534 51.9265 24.3765 51.0112C24.2909 50.9645 23.8849 51.1582 23.8855 51.2386C23.8937 52.4808 23.7573 52.5346 22.3579 52.3539C21.7358 52.2735 20.7758 51.7872 20.7283 53.1212C20.6749 54.6241 19.8865 54.4368 18.841 53.5857C18.575 53.3691 17.6943 53.5183 17.2659 53.7476C16.8724 53.9582 16.6735 54.8532 16.449 54.8359C15.7308 54.7806 14.9538 54.5512 14.3612 54.1848C13.6214 53.7274 12.954 53.2024 14.6968 53.0208C16.3803 52.8453 18.0126 52.2868 19.8883 51.7013ZM44.3968 47.6034C46.3789 47.558 48.4497 48.6147 50.3274 47.2189C50.5945 47.0203 50.9349 46.8988 51.2415 46.7416C50.9346 46.5085 50.64 46.0909 50.3187 46.0742C48.9011 46.0005 47.4435 45.8722 46.0597 46.0768C42.9246 46.5405 39.7685 47.0245 36.7332 47.8306C35.1815 48.2427 33.9992 48.8575 33.1097 47.1443C33.0375 47.0051 32.5915 47.0175 32.3192 46.9594C32.2926 47.2352 32.1245 47.5979 32.262 47.773C33.3529 49.1624 35.656 49.5565 37.5517 49.0121C39.6385 48.4128 41.8168 48.0623 44.3968 47.6034ZM50.7999 66.1416C50.9471 65.0926 51.2376 64.041 51.213 62.9952C51.1527 60.4305 50.9695 57.8673 50.7837 55.3064C50.7386 54.6843 50.4927 54.0736 50.3391 53.4576C50.0511 54.1607 49.6706 54.8482 49.514 55.5736C49.4356 55.9368 49.8701 56.3641 49.8938 56.7706C50.0402 59.275 50.4535 61.8158 50.1163 64.2736C49.9429 65.538 48.9918 66.5961 50.3148 67.8057C50.5969 68.0636 50.5666 69.0294 50.2687 69.2684C48.6288 70.5844 49.7438 71.9482 50.0768 73.265C50.1877 73.7036 50.763 74.0505 51.1261 74.4393C51.1865 73.9044 51.3397 73.3623 51.2879 72.836C51.1849 71.79 50.9025 70.7568 50.8185 69.7106C50.7338 68.6559 50.7999 67.5918 50.7999 66.1416ZM31.1489 43.3104C30.6294 42.8513 30.0051 42.4529 29.6106 41.9214C28.529 40.4642 27.6202 41.0747 26.826 42.0788C25.6797 43.5281 24.62 45.0315 23.5585 46.5312C23.4524 46.6812 23.4984 47.045 23.6358 47.1658C23.7935 47.3046 24.2064 47.3979 24.3778 47.3106C24.9727 47.0075 25.5921 46.684 26.0518 46.2452C26.7666 45.5629 29.7762 45.3033 30.5828 45.9024C30.7247 46.0078 31.287 45.9119 31.2885 45.8894C31.3428 45.0962 31.3532 44.3007 31.1489 43.3104ZM47.4879 81.5575C47.2671 82.0591 46.7015 82.7029 46.8795 83.04C48.436 85.9865 46.0214 88.9968 47.1916 91.984C47.652 93.1591 47.1899 94.5983 47.3102 95.9056C47.3507 96.3451 47.8581 96.7765 48.2332 97.1476C48.3193 97.2329 48.9657 97.0652 48.9697 96.9966C49.0022 96.4353 49.0189 95.8565 48.8951 95.3086C48.7086 94.4837 48.2246 93.6863 48.1852 92.8653C48.0817 90.7121 48.1779 88.5519 48.1411 86.3952C48.1136 84.7821 48.003 83.17 47.4879 81.5575ZM36.0065 53.8479C34.4438 54.108 32.8719 54.3339 31.3257 54.656C30.998 54.7242 30.7638 55.1437 30.4865 55.4013C30.819 55.534 31.1853 55.8236 31.4787 55.7744C33.777 55.389 36.0519 54.892 38.353 54.5228C40.3238 54.2066 42.3175 53.997 44.3066 53.7796C44.7516 53.731 45.2226 53.884 45.6746 53.856C45.7655 53.8503 45.9581 53.3087 45.8762 53.246C45.4088 52.8875 44.8076 52.2723 44.3703 52.3402C41.7118 52.7534 39.0853 53.3275 36.0065 53.8479ZM33.3569 99.5102C32.1082 99.5102 30.8567 99.4671 29.6124 99.5329C29.1587 99.5569 28.7227 99.8401 28.2786 100.005C28.7278 100.23 29.201 100.679 29.6221 100.643C31.7375 100.465 33.8341 100.12 35.9473 99.9127C37.8623 99.7251 39.7959 99.6831 41.7088 99.4833C42.2591 99.4259 42.766 99.0443 43.2928 98.8113C42.7666 98.654 42.2185 98.3203 41.7179 98.3688C38.998 98.6322 36.2898 98.9899 33.3569 99.5102ZM17.4595 102.242C18.1454 101.982 18.8189 101.533 19.5193 101.497C21.5203 101.396 23.5324 101.471 25.5398 101.456C26.1328 101.451 26.7251 101.377 27.3177 101.335C26.7124 100.857 26.1227 100.361 25.4893 99.9144C25.3548 99.8194 25.0568 99.8751 24.8416 99.9043C21.0457 100.419 17.2503 100.937 13.458 101.472C13.2325 101.504 13.0339 101.684 12.8228 101.795C12.991 101.944 13.1477 102.21 13.3292 102.224C14.6295 102.323 15.935 102.372 17.4595 102.242ZM49.4751 86.8262C49.4751 87.2796 49.3723 87.7575 49.5007 88.1804C49.6669 88.7276 50.0177 89.231 50.2889 89.7533C50.4593 89.2828 50.6683 88.82 50.7917 88.34C51.0363 87.3886 51.2577 86.4312 51.4385 85.4689C51.5111 85.0827 51.493 84.6729 51.4441 84.281C51.2857 83.0123 51.0326 81.7507 50.9314 80.4792C50.8206 79.0876 50.8614 77.687 50.773 76.2934C50.7607 76.1002 50.387 75.925 50.1806 75.7415C49.9454 75.9538 49.5155 76.1658 49.5149 76.3786C49.5136 76.8503 49.8028 77.3181 49.8383 77.7954C49.9113 78.7781 49.9035 79.7658 49.9145 80.7516C49.9248 81.6802 49.9452 82.6097 49.909 83.5372C49.8687 84.5695 49.7695 85.5999 49.4751 86.8262ZM40.864 51.8965C41.232 51.5898 41.6 51.2831 41.968 50.9764C41.4947 50.7627 41.0347 50.4076 40.5448 50.3717C39.9516 50.3282 39.3264 50.5318 38.7268 50.6684C36.8828 51.0887 35.2428 52.3329 33.0874 51.5707C32.7133 51.4385 31.9557 52.1534 31.3752 52.477C31.9383 52.6738 32.4933 53.0056 33.0664 53.032C33.7331 53.0628 34.413 52.8137 35.0915 52.7079C36.8672 52.4311 38.6453 52.1661 40.864 51.8965ZM3.54931 70.0443C2.77463 71.0391 2.03613 72.0539 3.17585 73.2025C3.42851 73.4572 3.86627 73.5684 4.21882 73.7457C4.29002 73.4494 4.42042 73.1536 4.42301 72.857C4.44101 70.7944 4.4746 68.7306 4.40247 66.6699C4.38479 66.1646 3.99376 65.6695 3.77442 65.1697C3.40495 65.7409 2.71852 66.3206 2.73765 66.8815C2.7694 67.8121 3.25488 68.7305 3.54931 70.0443ZM136.027 67.3124C136.322 66.9816 136.616 66.6508 136.911 66.32C136.426 66.1955 135.922 65.9242 135.46 65.972C133.535 66.1714 131.623 66.4634 129.707 66.7298C129.308 66.7853 128.916 66.8763 128.52 66.951C128.802 67.2666 129.015 67.7349 129.381 67.8649C130.069 68.1092 130.867 68.3241 131.581 68.253C133.003 68.1113 134.4 67.7677 136.027 67.3124ZM46.1631 50.7257C46.6783 51.3674 47.2161 51.9964 47.6944 52.659C47.8318 52.8493 47.7971 53.1367 47.8412 53.3795C48.1002 53.2026 48.4911 53.0696 48.5893 52.8391C48.7632 52.4311 48.9658 51.8853 48.7953 51.5343C47.8638 49.6167 45.5157 49.6071 43.7475 48.8351C43.5407 48.7448 42.8669 49.4897 42.4096 49.8473C42.7809 50.1401 43.1084 50.6014 43.5333 50.6875C44.2294 50.8285 44.9889 50.7256 46.1631 50.7257ZM3.9909 82.5332C4.09106 82.1845 4.17995 81.8329 4.29428 81.488C4.41341 81.1284 4.55713 80.7752 4.69011 80.4192C4.17483 80.2783 3.63949 79.9927 3.15116 80.0458C2.80902 80.0829 2.31671 80.5563 2.26657 80.8802C2.13979 81.6997 1.98664 82.6234 2.29655 83.3559C2.56553 83.9918 3.44705 84.4303 4.08254 84.9315C4.13887 84.9759 4.51627 84.8055 4.51195 84.7918C4.35536 84.2933 4.16313 83.8036 3.99672 83.3073C3.95716 83.1892 3.9909 83.0519 3.9909 82.5332ZM46.8255 61.068C47.1859 61.6466 47.5462 62.2253 47.9065 62.8039C48.0619 62.681 48.3674 62.5388 48.3508 62.4381C47.9549 60.0371 49.4168 57.5965 48.1538 55.2164C47.9248 54.7847 47.7615 54.3249 47.515 53.9021C47.4807 53.8432 46.9687 53.9207 46.9684 53.9394C46.9592 54.4187 46.8313 54.9613 47.0387 55.3674C47.9683 57.1876 48.4823 58.9549 46.8255 61.068ZM4.87409 88.7776C4.37207 88.3223 3.88083 87.8571 3.36436 87.415C3.00222 87.1049 2.55712 86.8619 2.23887 86.523C1.94988 86.2153 1.78218 85.8187 1.561 85.4613C1.47885 86.0385 1.10238 86.7769 1.37201 87.1614C2.06572 88.1506 3.06297 88.9707 3.90002 89.8862C4.1275 90.135 4.21644 90.4828 4.369 90.7851C4.53734 90.2461 4.70569 89.707 4.87409 88.7776ZM48.1503 76.679C48.1503 75.1069 48.1707 73.5344 48.1332 71.963C48.1256 71.6466 47.8979 71.3342 47.7717 71.02C47.6035 71.3618 47.3043 71.6993 47.2902 72.046C47.2341 73.4225 47.2102 74.8042 47.2844 76.1794C47.349 77.378 47.5391 78.5732 47.7286 79.7632C47.7642 79.9874 48.0575 80.1797 48.2319 80.3867C48.3519 80.1316 48.5952 79.8663 48.5696 79.6231C48.4797 78.7678 48.2975 77.92 48.1503 76.679ZM11.2772 103.413C12.1321 102.858 12.2015 102.035 11.1892 101.924C9.76763 101.768 8.26922 102.074 6.81879 102.27C6.47907 102.316 6.19995 102.712 5.8929 102.947C6.25526 103.103 6.61836 103.391 6.97986 103.389C8.33898 103.383 9.69761 103.283 11.2772 103.413ZM2.44532 76.0936C2.60127 76.7441 2.75717 77.3945 2.91306 78.045C3.35423 77.9076 4.09246 77.855 4.17946 77.6166C4.41827 76.9627 4.38339 76.2307 4.45681 75.5297C3.85991 75.6526 3.26302 75.7755 2.44532 76.0936ZM46.1631 101.071C46.7478 101.071 47.3325 101.075 47.9171 101.07C48.2284 101.067 48.5397 101.049 48.8509 101.038C48.6508 100.789 48.502 100.388 48.241 100.319C47.4515 100.111 46.6126 99.9076 45.8044 99.9383C45.1224 99.9642 44.4563 100.32 43.7832 100.529C44.4293 100.71 45.0754 100.891 46.1631 101.071ZM50.5791 48.7743C50.2111 48.8172 49.8431 48.8602 49.4751 48.9032C49.6223 49.8775 49.7249 50.8597 49.9431 51.8214C50.0109 52.1203 50.392 52.3636 50.6298 52.6323C50.8337 52.2571 51.2188 51.8766 51.2049 51.5078C51.1729 50.6586 50.947 49.8152 50.5791 48.7743ZM47.7087 68.4832C48.0031 68.4763 48.2975 68.4694 48.5918 68.4625C48.3904 67.3808 48.2089 66.2954 47.9639 65.2214C47.9311 65.0778 47.5111 64.8589 47.3855 64.9075C47.1538 64.997 46.8277 65.2827 46.8551 65.4454C47.0156 66.3996 47.2671 67.3418 47.7087 68.4832ZM4.2117 104.584C3.94158 104.996 3.67151 105.407 3.40145 105.819C4.04847 105.855 4.74542 106.037 5.32733 105.882C5.83275 105.747 6.20782 105.231 6.64047 104.883C5.97808 104.783 5.31568 104.684 4.2117 104.584ZM4.2117 59.3117C3.84369 60.1346 3.39395 60.9397 3.15645 61.791C3.08303 62.0541 3.58704 62.443 3.82671 62.7743C4.02864 62.4605 4.36803 62.1588 4.4049 61.8306C4.49125 61.0628 4.4325 60.2822 4.2117 59.3117ZM49.4751 93.0707C49.7244 93.5007 49.9738 93.9308 50.2231 94.3609C50.4154 93.7959 50.7035 93.2394 50.7685 92.6631C50.8179 92.2266 50.5828 91.7649 50.4743 91.3144C50.1412 91.7697 49.8082 92.2251 49.4751 93.0707ZM49.4751 97.754C49.448 98.2093 49.421 98.6646 49.394 99.1199C49.7827 99.1255 50.4922 99.1953 50.5098 99.1266C50.6605 98.5382 50.686 97.9247 50.749 97.3188C50.3979 97.3988 50.0469 97.4788 49.4751 97.754ZM4.87409 94.2415C4.52478 93.7862 4.17548 93.3308 3.82611 92.8755C3.58661 93.1031 3.34716 93.3306 3.10772 93.5582C3.69653 93.916 4.28528 94.2739 4.87409 94.2415ZM4.2117 98.7297C4.25644 98.6391 4.3173 98.5512 4.33665 98.4566C4.3428 98.4266 4.22917 98.338 4.18566 98.3455C3.45061 98.4726 2.71798 98.6107 1.98476 98.7464C2.05505 98.9275 2.15553 99.2706 2.19121 99.2655C2.79587 99.1776 3.3925 99.0464 4.2117 98.7297ZM26.0706 47.7986C26.6139 47.9689 27.1572 48.1392 27.7005 48.3095C27.6884 48.0882 27.7101 47.6821 27.6587 47.6747C27.2104 47.6104 26.7489 47.6175 26.0706 47.7986ZM44.6175 98.5345C45.2064 98.5334 45.7952 98.5333 46.3833 98.5153C46.3883 98.5152 46.3883 98.1636 46.3833 98.1635C45.7952 98.1455 45.2064 98.1454 44.6175 98.5345ZM37.552 101.657C37.2285 101.462 36.9049 101.266 36.5814 101.071C36.4633 101.258 36.3453 101.445 36.2273 101.632C36.6689 101.77 37.1104 101.909 37.552 101.657Z" fill="black"/>
<path d="M132.495 110.438C133.105 111.699 133.079 111.668 131.697 112.558C131.453 112.715 131.306 113.404 131.474 113.581C133.421 115.637 132.871 118.261 133.709 120.585C133.195 122.187 131.736 122.718 130.009 122.938C129.648 122.983 129.31 123.167 128.962 123.288C129.058 123.448 129.135 123.73 129.254 123.745C129.652 123.794 130.124 123.859 130.463 123.72C132.336 122.948 134.002 123.11 135.103 124.714C135.539 125.35 135.602 126.282 135.549 127.064C135.463 128.358 135.887 129.162 137.291 129.749C139.603 130.716 139.917 131.704 139.042 133.742C138.559 134.868 138.226 136.044 137.781 137.183C137.65 137.521 137.369 137.812 137.157 138.125C136.845 137.864 136.353 137.649 136.251 137.335C135.682 135.585 135.226 133.808 134.695 132.048C134.442 131.209 134.111 130.39 133.815 129.562C133.669 130.316 133.487 131.067 133.39 131.827C133.325 132.341 133.388 132.866 133.376 133.386C133.336 135.15 130.597 136.866 128.829 136.157C128.448 136.005 128.322 135.357 128.079 134.938C128.561 134.808 129.037 134.602 129.528 134.568C130.128 134.528 131.203 134.796 131.269 134.647C131.641 133.824 131.777 132.915 131.94 132.028C131.944 132.002 131.32 131.776 131.05 131.84C130.065 132.076 128.646 132.149 128.24 132.739C127.552 133.741 127.004 135.211 127.328 136.259C127.701 137.464 127.577 138.128 126.614 138.886C126.273 139.155 125.961 139.587 125.907 139.974C125.832 140.518 126.01 141.089 126.079 141.649C126.451 141.284 126.788 140.883 127.202 140.559C128.607 139.459 129.945 138.265 131.485 137.334C133.51 136.11 134.984 137.619 136.446 138.512C137.526 139.171 138.408 140.087 139.357 140.908C139.571 141.093 139.694 141.361 139.859 141.591C139.563 141.744 139.278 142.007 138.969 142.032C137.444 142.155 135.05 140.59 134.703 139.298C134.365 138.042 133.032 137.688 131.829 138.543C130.998 139.134 130.154 139.712 129.369 140.347C129.018 140.631 128.799 141.041 128.52 141.395C128.917 141.353 129.328 141.238 129.707 141.293C130.022 141.338 130.301 141.582 130.596 141.738C130.424 141.968 130.309 142.302 130.068 142.406C129.583 142.614 128.985 142.886 128.511 142.8C125.5 142.255 126.841 143.389 127.521 144.539C128.086 145.497 129.106 146.785 126.663 147.154C125.784 147.286 125.817 147.802 126.507 148.307C126.693 148.443 126.66 148.813 126.728 149.075C124.468 149.498 124.511 151.322 125.111 152.344C126.037 153.922 125.259 155.136 124.813 156.378C124.238 157.977 125.112 158.408 126.493 158.41C128.271 158.412 130.047 158.127 131.829 158.067C133.764 158.001 135.707 158.101 137.642 158.037C139.318 157.982 139.371 157.141 139.17 155.834C138.881 153.96 139.35 151.988 139.591 150.066C139.62 149.836 140.244 149.665 140.592 149.466C140.69 149.808 140.847 150.146 140.875 150.492C141.042 152.583 141.189 154.675 141.323 156.768C141.434 158.492 139.287 159.963 136.501 159.993C132.822 160.033 129.142 159.98 125.464 160.027C124.882 160.034 124.305 160.356 123.726 160.533C124.246 160.747 124.745 161.075 125.29 161.154C127.44 161.463 129.612 161.656 131.757 161.987C132.192 162.054 132.545 162.532 132.936 162.821C132.42 162.921 131.885 163.153 131.39 163.098C129.565 162.898 127.76 162.491 125.932 162.401C125.216 162.366 124.451 162.949 123.741 163.301C123.701 163.321 123.891 163.986 124.085 164.04C124.712 164.216 125.389 164.312 126.049 164.321C127.76 164.346 129.472 164.308 131.183 164.297C131.772 164.293 132.575 164.516 132.913 164.259C134.46 163.079 136.115 164.029 137.699 163.92C138.025 163.897 138.529 163.953 138.671 164.14C139.148 164.767 139.499 165.47 139.898 166.144C139.24 165.891 138.605 165.527 137.917 165.412C136.9 165.242 135.737 164.969 134.827 165.239C132.905 165.811 131.125 166.313 129.25 165.181C129.001 165.03 128.476 165.235 128.079 165.276C128.27 165.47 128.519 165.64 128.637 165.864C128.753 166.083 128.735 166.357 128.776 166.607C128.326 166.49 127.819 166.45 127.44 166.235C127.011 165.99 126.654 165.276 126.34 165.309C125.151 165.435 125.195 166.261 125.618 166.963C126.011 167.614 126.713 168.114 127.138 168.753C128.79 171.246 127.555 174.186 124.808 175.155C124.389 175.304 123.831 175.147 123.338 175.132C123.52 174.772 123.633 174.366 123.896 174.059C125.858 171.773 127.193 171.398 124.153 168.367C123.428 167.645 123.416 166.386 122.742 165.596C120.918 163.457 120.23 161.76 123.076 159.593C123.998 158.891 123.135 156.441 123.238 154.798C123.478 151.001 123.84 147.211 124.089 143.415C124.184 141.967 124.047 140.508 124.114 139.057C124.384 133.289 124.706 127.523 124.978 121.755C125.043 120.37 124.956 118.979 124.993 117.592C125.126 112.703 125.211 107.813 125.459 102.928C125.585 100.428 126.063 97.9435 126.282 95.445C126.338 94.7973 125.959 94.1289 125.887 93.461C125.786 92.5235 125.789 91.5293 127.358 91.717C129.084 91.9233 130.801 92.1989 132.506 92.5108C132.794 92.5633 133.21 92.9482 133.216 93.1866C133.305 96.6277 133.353 100.07 133.356 103.512C133.357 103.999 133.07 104.487 132.916 104.974C132.628 104.464 132.118 103.959 132.102 103.442C132.075 102.525 132.471 101.598 132.447 100.68C132.433 100.155 131.94 99.6395 131.663 99.1199C131.499 99.533 131.298 99.9381 131.178 100.361C131.003 100.981 130.885 101.614 130.743 102.242C130.46 101.671 129.913 101.089 129.943 100.531C130.039 98.7349 130.379 96.9499 130.553 95.1552C130.596 94.7225 130.529 94.0775 130.219 93.8679C129.709 93.5224 128.96 93.4521 128.311 93.2658C128.234 93.6906 128.077 94.1176 128.093 94.5397C128.156 96.2682 127.418 98.0401 128.483 99.7309C128.61 99.9324 128.133 100.377 128.093 100.723C127.773 103.496 127.478 106.272 127.201 109.049C127.076 110.305 127.617 110.283 128.706 109.743C129.448 109.374 130.539 109.51 131.211 109.091C131.71 108.78 131.808 107.946 132.046 107.333C132.195 106.948 132.271 106.542 132.381 106.145C132.566 106.54 132.902 106.933 132.907 107.329C132.92 108.365 132.789 109.402 132.605 110.34C131.989 110.169 131.484 110.077 130.976 110.052C130.925 110.05 130.848 110.462 130.783 110.682C131.354 110.601 131.924 110.519 132.495 110.438ZM131.832 125.268C130.251 124.697 129.548 125.832 128.609 126.541C128.252 126.81 127.804 126.985 127.398 127.204C127.418 126.806 127.423 126.408 127.462 126.012C127.504 125.579 127.701 125.124 127.601 124.723C127.509 124.354 127.112 124.044 126.85 123.707C126.671 124.041 126.37 124.364 126.333 124.71C126.141 126.468 125.924 128.232 125.945 129.992C125.949 130.374 126.834 130.897 127.421 131.072C127.848 131.2 128.45 130.848 128.98 130.735C132.43 129.999 134.472 128.085 134.244 125.746C134.214 125.447 133.948 125.167 133.791 124.878C133.653 125.119 133.558 125.39 133.368 125.593C133.079 125.9 132.725 126.16 132.399 126.439C132.284 126.114 132.168 125.789 131.832 125.268ZM129.845 115.316C129.689 114.731 129.457 114.151 129.406 113.558C129.376 113.224 129.868 112.71 129.73 112.559C129.462 112.267 128.913 112.032 128.486 112.039C128.058 112.047 127.381 112.297 127.263 112.585C126.96 113.323 126.838 114.136 126.767 114.928C126.581 117.03 126.43 119.136 126.339 121.243C126.323 121.626 126.618 122.044 126.861 122.396C126.925 122.489 127.419 122.486 127.571 122.374C129.091 121.25 130.484 120.094 129.879 118.03C129.666 117.302 129.845 116.484 129.845 115.316ZM136.248 131.123C136.175 132.223 136.101 133.323 136.027 134.424C136.322 134.424 136.616 134.424 136.911 134.424C136.837 133.323 136.763 132.223 136.248 131.123ZM131.832 118.243C131.464 118.94 131.093 119.635 130.751 120.342C130.742 120.359 131.065 120.501 131.233 120.585C131.506 119.999 131.788 119.416 132.046 118.825C132.095 118.712 132.053 118.568 131.832 118.243Z" fill="black"/>
<path d="M53.8906 69.0688C57.168 63.7656 60.4228 58.6461 63.7294 53.5529C66.7675 48.8731 69.737 44.1529 72.9706 39.5797C75.4753 36.0373 78.3468 32.6978 81.0414 29.2596C81.5908 28.5586 82.1219 27.8408 82.587 27.0946C85.2592 22.8072 87.908 18.5085 90.5707 14.2166C90.6386 14.1071 90.8453 14.0423 90.868 13.9367C91.8134 9.53562 96.0741 9.72668 99.6532 8.96377C103.264 8.19417 106.869 7.40505 110.476 6.62451C117.09 5.19352 123.704 3.76402 130.317 2.33083C133.723 1.5927 137.125 0.839693 140.535 0.115773C141.009 0.0149703 141.543 -0.0477909 142.004 0.0461397C142.267 0.0998254 142.438 0.505639 142.651 0.752897C142.394 0.888817 142.155 1.08455 141.877 1.15161C138.04 2.07561 134.203 3.00078 130.355 3.8866C127.295 4.59094 124.228 5.27206 121.15 5.91074C113.033 7.59499 104.911 9.26322 96.7835 10.908C94.9133 11.2865 93.7651 11.9679 93.0732 13.8077C92.2903 15.8897 90.6207 17.7185 89.2874 19.6305C83.9756 27.2474 78.6158 34.8382 73.3302 42.4693C69.3464 48.2208 65.4279 54.0078 61.5209 59.8005C59.5202 62.7669 57.6433 65.7989 55.6144 68.7495C55.3542 69.1278 54.9911 70.5366 53.8906 69.0688Z" fill="black"/>
<path d="M96.7256 190.054C96.8728 188.873 97.0016 187.884 97.1795 186.901C97.2268 186.64 97.4251 186.401 97.5541 186.152C97.737 186.362 98.0092 186.551 98.0846 186.788C98.2475 187.302 98.5783 187.952 98.366 188.348C97.4853 189.993 98.5788 190.061 99.9119 190.057C102.414 190.049 104.919 189.974 107.416 190.071C112.668 190.276 117.916 190.581 123.166 190.831C124.649 190.902 126.044 191.095 125.991 188.979C125.971 188.18 127.18 187.215 128.065 186.583C128.883 186 130 185.481 131.014 185.435C132.665 185.36 132.659 185.007 132.141 183.775C131.861 183.109 131.408 181.792 133.098 181.427C133.254 181.394 133.431 180.574 133.289 180.478C132.699 180.083 132.018 179.729 131.311 179.568C131.057 179.511 130.385 180.012 130.334 180.314C130.196 181.141 130.342 182.002 130.273 182.843C130.19 183.845 130.06 184.868 128.527 184.986C127.947 185.031 127.373 185.136 126.796 185.214C127.132 184.632 127.305 183.788 127.841 183.526C128.735 183.091 128.953 182.948 128.602 181.919C127.818 179.627 128.869 178.685 131.578 178.73C133.658 178.764 135.643 178.541 137.246 177.132C137.515 176.896 138.483 176.854 138.67 177.055C139.2 177.625 139.492 178.367 139.878 179.041C139.514 179.036 139.13 179.096 138.791 179.012C138.312 178.894 137.554 178.433 137.458 178.531C136.823 179.185 136.312 179.938 135.805 180.682C135.653 180.906 135.643 181.204 135.567 181.468C134.533 180.948 133.997 181.472 134.341 182.222C134.587 182.759 135.55 183.077 136.252 183.388C136.439 183.471 136.95 182.995 137.127 183.079C137.555 183.283 137.873 183.667 138.235 183.978C137.908 184.182 137.59 184.398 137.252 184.588C136.863 184.805 136.457 184.999 136.059 185.204C136.56 185.39 137.069 185.748 137.562 185.731C139.583 185.662 140.087 184.985 139.56 183.248C139.418 182.781 139.139 182.309 139.167 181.851C139.183 181.582 139.679 181.335 139.959 181.078C140.12 181.364 140.444 181.661 140.417 181.933C140.243 183.726 140.834 184.826 143.166 184.63C143.297 184.619 143.663 185.407 143.628 185.427C142.478 186.089 141.37 186.959 140.093 187.264C138.075 187.745 135.944 187.878 133.852 188.081C133.247 188.14 132.532 188.067 132 187.826C129.956 186.898 128.24 187.288 127.282 189.003C126.658 190.118 127.366 191.131 128.785 191.234C129.979 191.321 131.17 191.598 132.353 191.562C132.854 191.548 133.38 190.991 133.806 190.604C134.238 190.212 134.561 189.726 134.932 189.281C135.15 189.721 135.338 190.176 135.595 190.598C135.813 190.956 136.223 191.601 136.355 191.565C137.594 191.228 138.879 190.896 139.967 190.3C140.552 189.98 140.781 189.15 141.17 188.55C141.369 189.323 141.622 190.088 141.758 190.869C142.055 192.579 141.631 193.273 139.301 192.871C137.033 192.48 134.607 192.863 132.257 192.771C126.858 192.56 121.461 192.29 116.067 191.998C111.992 191.777 107.924 191.447 103.848 191.252C102.816 191.203 101.762 191.475 100.722 191.618C99.0868 191.843 97.6986 191.525 96.7256 190.054Z" fill="black"/>
<path d="M127.085 176.785C127.299 177.202 127.316 177.657 127.524 178.029C128.105 179.071 128.527 179.83 126.519 179.964C125.26 180.048 124.801 180.946 125.411 182.096C125.668 182.581 125.763 183.146 125.846 183.685C125.869 183.838 125.62 184.13 125.438 184.175C125.196 184.235 124.719 184.189 124.651 184.061C124.132 183.084 123.673 182.08 123.229 181.073C123.064 180.7 122.987 180.297 122.869 179.907C122.545 179.984 121.988 179.999 121.938 180.148C121.755 180.691 121.625 181.29 121.698 181.845C121.769 182.386 122.475 183.166 122.275 183.377C121.434 184.266 120.487 185.352 119.335 185.667C117.902 186.059 116.228 185.761 114.658 185.761C112.746 185.761 110.833 185.735 108.922 185.785C108.556 185.794 108.201 186.107 107.841 186.28C108.204 186.498 108.548 186.87 108.932 186.906C110.924 187.092 112.928 187.175 114.923 187.337C115.344 187.371 115.745 187.584 116.156 187.714C115.818 187.844 115.483 188.08 115.142 188.086C113.058 188.12 110.945 188.295 108.895 188.057C105.95 187.716 103.047 187.079 100.137 186.523C99.7044 186.441 99.2926 186.15 98.9473 185.879C98.7034 185.689 98.6598 185.252 98.4021 185.129C97.4294 184.663 97.3011 184.032 97.7683 183.055C98.5 182.5 100.174 182.938 100.174 182.938C100.174 182.938 100.122 184.079 100.108 184.653C100.663 184.642 101.217 184.625 101.771 184.621C103.458 184.608 105.157 184.697 106.827 184.542C107.468 184.482 108.089 183.918 108.634 183.497C109.048 183.177 109.327 182.721 109.667 182.325C109.979 182.68 110.391 182.997 110.584 183.398C111.182 184.637 111.625 184.741 112.984 183.825C114.383 182.881 115.674 182.054 116.13 180.506C116.233 180.159 116.23 179.788 116.276 179.428C115.943 179.458 115.501 179.381 115.3 179.541C114.956 179.814 114.753 180.231 114.506 180.595C114.204 181.042 114.032 181.656 113.592 181.906C113.138 182.164 112.429 182.073 111.832 182.135C111.926 181.607 111.94 181.055 112.129 180.555C112.913 178.489 114.422 177.349 117.042 177.533C117.598 177.572 118.192 177.202 118.766 177.014C119.786 176.68 120.81 176.053 121.822 176.069C123.544 176.095 125.258 176.525 127.085 176.785ZM118.143 181.859C119.153 180.948 120.002 179.743 121.224 179.217C122.249 178.776 123.712 179.158 124.978 179.104C125.283 179.092 125.636 178.842 125.836 178.613C125.903 178.536 125.63 178.082 125.404 177.972C123.57 177.077 120.288 177.384 118.985 178.846C117.641 180.354 116.653 182.113 115.545 183.781C115.306 184.141 115.218 184.579 115.061 184.981C115.72 184.738 116.601 184.648 116.985 184.215C117.499 183.634 117.628 182.787 118.143 181.859ZM119.688 184.005C119.836 183.479 120.013 182.957 120.11 182.424C120.136 182.283 119.917 182.107 119.81 181.946C119.502 182.349 119.047 182.723 118.936 183.164C118.861 183.46 119.273 183.852 119.688 184.005Z" fill="black"/>
<path d="M110.304 64.2879C108.71 64.5156 107.227 64.6609 105.74 64.7687C105.094 64.8156 104.2 65.0278 103.836 64.7451C102.745 63.8987 102.068 62.8091 102.526 61.3962C103.997 56.8594 105.527 52.3349 106.854 47.7648C108.019 43.7502 108.957 39.6833 109.951 35.631C110.048 35.2331 109.835 34.7755 109.765 34.3456C109.401 34.6599 108.836 34.9208 108.708 35.2978C108.175 36.8671 107.782 38.4733 107.316 40.061C107.224 40.3747 107.038 40.6668 106.895 40.9689C106.744 40.6095 106.409 40.2216 106.474 39.8959C106.676 38.8836 107.003 37.8883 107.328 36.8982C108.642 32.8929 109.951 28.8861 111.314 24.8935C111.646 23.9199 112.157 22.9921 112.62 22.0568C112.734 21.8285 112.986 21.6542 113.174 21.4551C113.285 21.7207 113.553 22.0264 113.481 22.2455C112.951 23.8672 112.338 25.4677 111.78 27.0828C111.162 28.8742 110.561 30.6708 109.992 32.4747C109.93 32.6718 110.125 32.9323 110.201 33.1634C110.452 32.9398 110.711 32.7232 110.951 32.4909C111.25 32.2015 111.532 31.8991 111.822 31.6023C111.942 32.0549 112.259 32.5483 112.152 32.9542C109.835 41.7253 107.477 50.4881 105.107 59.2482C104.822 60.3047 104.519 61.3732 104.048 62.3709C103.473 63.5863 103.675 64.146 105.288 64.0005C106.991 63.8469 109.04 64.1956 110.299 63.4654C111.39 62.833 111.754 61.0343 112.14 59.6844C112.641 57.9353 112.951 56.1285 113.135 54.3299C113.232 53.3769 112.922 52.3833 112.729 51.4183C112.611 50.8256 112.112 50.2112 112.222 49.677C113.03 45.7607 113.964 41.8652 114.824 37.9571C115.302 35.7837 115.683 33.5934 116.179 31.4234C116.291 30.9354 116.699 30.5005 116.971 30.0412C117.141 30.5146 117.53 31.0216 117.445 31.4562C116.82 34.6602 115.977 37.8343 115.455 41.0498C115.153 42.909 115.356 44.8289 115.262 46.7188C115.161 48.7479 115.085 50.7856 114.802 52.798C114.485 55.0563 113.921 57.2868 113.516 59.5366C113.279 60.8506 113.346 62.2424 112.854 63.4664C112.677 63.9074 111.264 63.9603 110.304 64.2879Z" fill="black"/>
<path d="M157.665 5.45357C161.223 6.49431 164.56 7.53629 167.899 8.57337C168.157 8.65353 168.478 8.63961 168.684 8.77286C169.161 9.08096 169.585 9.45256 170.03 9.7984C169.453 9.91123 168.808 10.2299 168.309 10.1023C165.757 9.44928 163.252 8.65364 160.713 7.95925C155.69 6.58579 150.735 4.8454 145.595 4.04672C142.638 3.58715 139.358 4.60848 136.261 5.13535C135.785 5.21632 135.356 6.19391 135.186 6.81666C135.001 7.49231 135.214 8.24509 135.121 8.9507C135.051 9.48715 134.774 10.0025 134.589 10.5272C134.332 9.92455 133.952 9.33752 133.852 8.7152C133.734 7.98766 134.073 6.64872 133.845 6.58369C132.794 6.28341 131.534 6.06338 130.493 6.30352C124.732 7.63259 119.044 9.2085 113.272 10.4928C108.98 11.4478 104.598 12.0873 100.256 12.8694C98.8324 13.1259 97.418 13.4427 95.9811 13.6058C95.682 13.6397 95.3018 13.1166 94.959 12.8503C95.2297 12.7264 95.4856 12.5443 95.7733 12.4872C100.622 11.5258 105.492 10.6483 110.321 9.6144C117.128 8.15672 123.901 6.57459 130.694 5.06785C134.297 4.26889 137.88 3.33487 141.535 2.81607C143.531 2.53296 145.708 2.78499 147.718 3.15821C150.997 3.76739 154.206 4.67301 157.665 5.45357Z" fill="black"/>
<path d="M94.4072 25.2602C95.2524 22.3354 96.2833 19.6613 98.6882 17.513C99.4233 16.8564 99.6911 15.8076 100.284 15.002C100.549 14.6413 101.087 14.4374 101.501 14.1624C101.528 14.6292 101.76 15.1882 101.552 15.5488C98.9499 20.0566 96.1532 24.4799 93.6691 29.0367C90.8688 34.1734 88.4213 39.4598 85.6583 44.6132C83.4717 48.6916 81.0027 52.651 78.7306 56.6946C77.1588 59.4921 75.7251 62.3499 74.1912 65.1643C73.8641 65.7644 73.4062 66.3183 72.9383 66.8447C72.731 67.0779 72.3488 67.1896 72.046 67.3565C71.926 66.9129 71.5434 66.3398 71.7284 66.0464C72.9982 64.0327 74.5339 62.1432 75.7063 60.0898C78.0951 55.9059 80.3133 51.6458 82.5928 47.4134C84.0537 44.7009 85.756 42.0598 86.8546 39.2362C87.5189 37.529 89.8084 36.0629 88.3738 33.8403C88.2595 33.6632 88.5933 33.0576 88.8857 32.9111C90.7065 31.9988 91.3557 30.4126 92.1392 28.856C92.7479 27.6465 93.5697 26.5208 94.4072 25.2602Z" fill="black"/>
<path d="M97.7192 48.4817C98.7863 45.6129 99.7608 42.8462 100.675 40.0639C100.774 39.7609 100.525 39.3685 100.437 39.0175C100.231 39.328 100.025 39.6392 99.8165 39.9488C99.3244 40.6796 98.8308 41.4095 98.3377 42.1397C98.5363 41.3186 98.5836 40.434 98.9798 39.6956C99.3174 39.0665 99.2676 38.0139 100.793 38.0897C101.127 38.1063 101.631 36.2708 101.96 35.2636C102.201 34.5279 102.116 33.6831 102.47 33.007C103.415 31.2027 104.494 29.4517 105.578 27.7079C105.784 27.3777 106.259 27.1786 106.609 26.9189C106.553 27.278 106.55 27.6515 106.433 27.9941C103.499 36.5437 100.56 45.0919 97.6054 53.6361C96.4484 56.9825 95.2853 60.3278 94.0428 63.6496C93.8496 64.1658 93.2146 64.5529 92.7839 64.9998C92.773 64.4612 92.6153 63.8859 92.774 63.3897C94.3557 58.4455 95.9896 53.5142 97.7192 48.4817Z" fill="black"/>
<path d="M133.378 82.7284C132.103 82.9886 131.038 83.2215 129.999 83.5235C129.626 83.6319 129.315 83.9069 128.975 84.1059C129.327 84.2972 129.864 84.7277 130.002 84.6439C132.046 83.4076 134.827 85.9802 136.719 83.6046C136.958 83.3047 138.292 83.6862 139.119 83.752C138.846 84.3672 138.7 85.0674 138.264 85.5726C137.865 86.035 137.186 86.3446 136.569 86.6129C136.069 86.8308 135.653 87.4297 135.545 87.8417C135.438 88.254 135.061 88.8594 134.693 88.9294C132.668 89.3146 130.525 89.3412 128.912 90.7524C128.85 90.8062 128.487 90.7204 128.477 90.6684C128.436 90.446 128.378 90.1588 128.498 89.9907C129.342 88.8067 128.491 86.0313 127.127 85.4465C126.532 85.1916 126.021 84.785 125.472 84.4474C125.974 84.2637 126.539 84.157 126.968 83.8838C129.819 82.0703 133.092 81.7116 136.471 81.5307C138.664 81.4133 140.836 81.015 143.024 80.7954C143.473 80.7503 143.953 80.9405 144.418 81.0222C144.123 81.3308 143.875 81.692 143.525 81.9388C141.958 83.0419 140.524 83.4776 138.405 82.4846C137.193 81.9163 135.226 82.6054 133.378 82.7284ZM131.612 87.2166C131.256 87.1408 130.9 87.065 130.544 86.9893C130.777 87.4767 130.876 88.109 131.286 88.4053C131.609 88.639 132.315 88.4593 132.851 88.4632C132.511 88.1127 132.172 87.7622 131.612 87.2166Z" fill="black"/>
<path d="M73.7625 49.5548C76.8844 44.5191 79.9992 39.675 83.1328 34.8403C83.9867 33.5228 84.9442 32.2562 85.7609 30.9217C86.1443 30.2952 86.2188 29.5206 86.6046 28.8957C86.807 28.5678 87.379 28.4181 87.7841 28.188C87.7872 28.5099 87.9255 28.8964 87.7738 29.1443C83.7401 35.735 79.651 42.2992 75.6258 48.8939C71.8964 55.004 68.2512 61.1543 64.5039 67.2557C64.1168 67.886 63.287 68.3039 62.6626 68.8203C62.8245 68.0622 62.7763 67.1998 63.1814 66.5623C66.5048 61.3326 69.917 56.1471 73.2845 50.9392C73.517 50.5797 73.6065 50.148 73.7625 49.5548Z" fill="black"/>
<path d="M88.0039 46.5303C89.1522 44.0844 90.1071 41.7042 91.2461 39.3948C93.309 35.212 95.4779 31.0699 97.6176 26.9168C97.7594 26.6415 97.9681 26.2908 98.246 26.1889C100.325 25.4264 99.8436 23.6658 100.239 22.2615C100.36 21.8333 100.087 21.2783 100.296 20.9185C100.675 20.2661 101.28 19.7167 101.791 19.1243C101.869 19.7381 101.991 20.3506 102.014 20.9661C102.052 21.9615 102.081 22.9621 102.007 23.9543C101.947 24.75 101.821 25.5607 101.561 26.3211C101.208 27.3525 100.736 28.3563 100.243 29.3438C99.9951 29.8398 99.5874 30.2734 99.2519 30.7353C99.1457 30.377 99.0848 30.0013 98.9193 29.6659C98.7831 29.3897 98.523 29.1612 98.3177 28.9115C98.0813 29.1872 97.7763 29.4355 97.619 29.7428C95.6591 33.5718 93.6443 37.381 91.7987 41.2531C90.0855 44.8476 88.5289 48.5014 86.9706 52.1516C86.5612 53.1104 86.4351 54.1613 86.1027 55.1499C86.0231 55.3866 85.6381 55.5431 85.3937 55.7365C85.3437 55.4949 85.196 55.231 85.2591 55.0153C85.9102 52.7886 86.5892 50.5682 87.2754 48.3497C87.455 47.7694 87.6861 47.2015 88.0039 46.5303Z" fill="black"/>
<path d="M85.3542 59.7996C87.599 54.7676 89.7035 49.8229 91.8788 44.9026C93.2129 41.8848 94.6546 38.9042 96.0495 35.9074C96.5661 34.7975 97.0733 33.6838 97.6172 32.5844C97.7289 32.3585 97.9848 32.1883 98.1742 31.9924C98.2727 32.3241 98.5512 32.7135 98.4423 32.9786C97.1677 36.0824 95.8033 39.1574 94.5251 42.2601C92.8738 46.2686 91.3813 50.3305 89.6298 54.3038C88.0038 57.9923 86.1493 61.6032 84.3293 65.2224C84.1279 65.6228 83.4927 65.8527 83.0587 66.1617C83.0511 65.6877 82.8917 65.1651 83.0626 64.7483C83.7332 63.1131 84.5078 61.5114 85.3542 59.7996Z" fill="black"/>
<path d="M144.528 181.371C144.278 180.415 144.961 179.819 145.542 180.428C146.766 181.712 147.913 180.619 149.07 180.679C149.263 180.69 149.464 180.59 149.662 180.541C149.491 180.357 149.346 180.044 149.143 180.011C147.903 179.811 146.64 179.715 145.404 179.497C144.917 179.411 144.482 179.099 144.023 178.89C144.465 178.579 144.856 178.107 145.358 177.983C148.089 177.305 151.31 179.455 151.479 182.012C151.509 182.466 151.407 182.935 151.505 183.373C151.596 183.774 151.876 184.143 152.072 184.525C152.317 184.204 152.543 183.869 152.814 183.565C153.061 183.286 153.356 183.041 153.631 182.781C153.945 183.315 154.647 183.982 154.485 184.354C154.234 184.929 153.473 185.542 152.788 185.722C148.587 186.827 145.267 185.049 144.528 181.371ZM148.613 184.2C149.128 184.108 149.643 184.015 150.158 183.923C149.986 183.668 149.882 183.298 149.628 183.179C148.872 182.823 148.057 182.565 147.265 182.269C147.64 182.848 148.016 183.427 148.613 184.2Z" fill="black"/>
<path d="M192.22 51.7989C190.968 49.5209 189.858 47.3265 188.676 45.1629C186.457 41.101 184.189 37.0602 181.969 32.9987C181.814 32.7135 181.888 32.3301 181.855 31.9924C182.182 32.2725 182.618 32.5022 182.819 32.8407C184.469 35.6122 186.127 38.3815 187.679 41.1958C189.258 44.057 190.677 46.9864 192.243 49.8536C194.224 53.4836 196.306 57.0713 198.282 60.7034C198.55 61.1956 198.46 61.8396 198.536 62.4133C198.078 62.0216 197.445 61.703 197.188 61.2263C195.523 58.1355 193.94 55.0104 192.22 51.7989Z" fill="black"/>
<path d="M70.2299 49.9451C73.0267 45.5804 75.8238 41.411 78.6162 37.2392C78.6484 37.1911 78.5885 37.0864 78.625 37.0503C79.1425 36.5391 79.6692 36.0352 80.1937 35.5295C79.9636 36.1123 79.8239 36.7395 79.4895 37.271C76.1356 42.6028 72.6647 47.8786 69.4037 53.2539C67.3177 56.6923 65.5299 60.2718 63.6045 63.7865C63.3079 64.3278 63.0286 64.8817 62.6639 65.3861C62.5183 65.5875 62.1633 65.6707 61.9035 65.8078C61.7741 65.4943 61.4547 65.1228 61.5503 64.8779C61.859 64.0878 62.2842 63.3273 62.7289 62.5856C65.2188 58.4322 67.7275 54.2878 70.2299 49.9451Z" fill="black"/>
<path d="M75.6394 57.0677C74.1291 59.8335 72.7352 62.5042 71.3118 65.1625C71.2414 65.2939 70.914 65.3179 70.7062 65.3918C70.6484 65.1623 70.4645 64.8817 70.5529 64.7116C71.149 63.5651 71.8499 62.4605 72.428 61.3076C73.6379 58.8952 74.7079 56.4257 75.9887 54.044C78.4693 49.4313 81.0474 44.8594 83.603 40.2784C84.566 38.5519 85.5663 36.8412 86.5814 35.1382C86.7469 34.8606 87.0785 34.6603 87.3333 34.4243C87.3609 34.73 87.5199 35.0877 87.3954 35.3332C86.3956 37.3051 85.3682 39.267 84.2973 41.2096C83.4029 42.832 82.3896 44.4038 81.5147 46.0339C79.5646 49.6674 77.6681 53.3234 75.6394 57.0677Z" fill="black"/>
<path d="M188.467 38.3345C187.785 37.2117 187.175 36.2013 186.665 35.1529C186.498 34.8086 186.589 34.3658 186.563 33.968C186.94 34.2574 187.384 34.5023 187.677 34.8474C188.042 35.2773 188.301 35.7818 188.574 36.2681C190.963 40.5253 193.341 44.7874 195.73 49.0447C197.333 51.9015 198.966 54.7453 200.536 57.6158C200.74 57.9869 200.65 58.4832 200.695 58.9215C200.336 58.6052 199.855 58.3437 199.636 57.9641C196.664 52.8176 193.723 47.6574 190.789 42.4942C190.026 41.1515 189.313 39.7867 188.467 38.3345Z" fill="black"/>
<path d="M124.988 47.9937C124.693 51.4581 124.571 54.7508 124.012 57.9843C123.813 59.1359 122.773 60.1574 123.639 61.4211C123.719 61.5379 123.468 61.8319 123.371 62.0437C123.127 61.937 122.721 61.873 122.668 61.7161C122.49 61.1886 122.331 60.624 122.357 60.081C122.457 58.0549 122.586 56.0279 122.792 54.0083C123.034 51.644 123.407 49.2902 123.651 46.9261C123.856 44.9492 123.863 42.9536 124.14 40.9864C124.307 39.7978 124.788 38.6375 125.214 37.4894C125.289 37.2856 125.787 37.204 126.09 37.0659C126.164 37.3631 126.334 37.6698 126.298 37.9559C125.879 41.2386 125.429 44.5182 124.988 47.9937Z" fill="black"/>
<path d="M127.306 176.785C128.345 176.436 129.491 176.074 130.652 175.754C130.786 175.717 131.026 176.016 131.177 175.989C132.358 175.772 133.529 175.514 134.702 175.269C133.636 174.994 132.571 174.715 131.502 174.448C131.366 174.414 131.205 174.465 131.064 174.44C130.361 174.315 129.662 174.177 128.962 174.044C129.755 173.787 130.539 173.344 131.342 173.317C132.522 173.276 133.713 173.581 134.905 173.633C135.25 173.648 135.616 173.305 135.973 173.126C135.741 172.914 135.55 172.595 135.269 172.511C134.235 172.203 133.181 171.932 132.114 171.725C131.36 171.578 130.553 171.627 129.814 171.446C129.502 171.37 129.304 170.929 129.055 170.653C129.417 170.486 129.797 170.15 130.138 170.179C131.668 170.31 133.238 170.401 134.689 170.801C135.451 171.011 137.372 170.033 136.891 172.006C136.664 172.941 136.241 173.841 135.891 174.752C135.827 174.92 135.566 175.102 135.607 175.218C135.793 175.74 136.055 176.24 136.29 176.748C135.598 176.839 134.686 176.714 134.253 177.059C132.383 178.547 130.279 176.982 128.357 177.523C128.152 177.58 127.735 177.045 127.306 176.785Z" fill="black"/>
<path d="M127.637 149.466C129.425 148.081 131.121 146.748 133.049 145.774C133.774 145.407 135.042 145.836 136.048 145.984C136.226 146.01 136.513 146.57 136.437 146.648C136.113 146.985 135.654 147.491 135.278 147.47C133.695 147.382 133.294 147.986 133.325 149.292C133.343 150.031 134.215 151.69 131.811 151.123C131.663 151.088 130.798 152.433 130.786 153.144C130.749 155.129 128.654 154.558 127.648 155.3C127.644 155.303 127.196 154.885 127.218 154.862C128.23 153.812 127.38 153.051 126.782 152.205C126.611 151.963 126.775 151.536 126.785 151.194C127.139 151.266 127.495 151.332 127.846 151.413C127.907 151.427 127.953 151.498 128.003 151.546C128.499 152.023 128.996 152.501 129.492 152.978C129.61 152.267 129.637 151.53 129.88 150.853C130.017 150.47 130.518 150.194 130.832 149.853C131.049 149.617 131.226 149.353 131.42 149.102C131.066 149.007 130.672 148.774 130.365 148.843C129.438 149.053 128.544 149.38 127.637 149.466Z" fill="black"/>
<path d="M140.443 44.8716C140.002 39.8961 139.538 35.1171 139.146 30.3336C139.097 29.728 139.424 29.0984 139.577 28.48C139.865 29.0543 140.345 29.6125 140.409 30.2057C140.643 32.3777 140.666 34.5674 140.899 36.7395C141.443 41.795 142.06 46.8443 142.654 51.8954C142.785 53.0134 142.965 54.1274 143.073 55.2469C143.089 55.4207 142.836 55.6147 142.707 55.7994C142.541 55.6478 142.292 55.5209 142.224 55.3404C141.898 54.4822 141.481 53.6251 141.353 52.7387C140.984 50.1889 140.738 47.6251 140.443 44.8716Z" fill="black"/>
<path d="M155.457 192.006C158.85 191.876 162.022 191.743 165.195 191.616C167.201 191.536 166.252 190.164 166.507 189.309C166.63 188.895 166.851 188.504 167.028 188.103C167.146 188.492 167.28 188.878 167.373 189.271C167.417 189.458 167.379 189.659 167.381 189.854C167.409 193.2 167.606 192.677 164.14 192.816C161.363 192.928 158.606 193.399 155.83 193.53C154.286 193.603 152.721 193.304 151.165 193.177C149.536 193.044 147.905 192.935 146.28 192.771C145.941 192.737 145.627 192.507 145.301 192.367C145.588 192.116 145.834 191.721 146.17 191.648C146.725 191.528 147.338 191.591 147.924 191.62C150.362 191.74 152.799 191.876 155.457 192.006Z" fill="black"/>
<path d="M137.794 102.633C136.421 100.836 136.806 99.2318 137.8 97.6358C137.912 97.4568 138.117 97.3233 138.279 97.1687C138.412 97.3493 138.665 97.5337 138.658 97.7099C138.581 99.6409 138.381 101.571 138.388 103.5C138.393 104.64 138.767 105.774 138.866 106.918C138.927 107.613 138.932 108.371 138.672 109.007C138.521 109.377 137.795 109.563 137.327 109.831C137.413 109.38 137.533 108.931 137.572 108.477C137.605 108.093 137.543 107.703 137.524 107.316C137.174 107.509 136.811 107.688 136.484 107.908C136.413 107.957 136.525 108.185 136.46 108.279C136.046 108.877 135.606 109.46 135.174 110.048C135.017 109.824 134.683 109.563 134.732 109.383C135.002 108.402 133.812 107.009 135.819 106.48C136.348 106.34 136.734 105.78 137.186 105.413C136.529 105.441 135.869 105.451 135.215 105.507C134.958 105.529 134.712 105.657 134.462 105.737C134.395 105.437 134.245 105.128 134.284 104.84C134.323 104.558 134.596 104.307 134.694 104.023C134.872 103.501 134.998 102.966 135.146 102.436C135.613 102.72 136.15 102.945 136.534 103.3C137.502 104.192 137.619 103.49 137.794 102.633Z" fill="black"/>
<path d="M135.475 114.633C135.482 114.315 135.313 114.099 135.288 113.871C135.186 112.95 135.129 112.025 135.056 111.101C136.196 111.146 137.335 111.191 138.475 111.236C138.395 111.611 138.366 112.001 138.225 112.358C137.864 113.274 137.16 114.088 138.81 114.778C140.379 115.433 138.947 120.108 137.622 120.499C137.252 120.608 136.497 120.445 136.346 120.201C136.142 119.873 136.206 119.276 136.417 118.915C136.89 118.108 137.612 117.411 138.057 116.595C138.268 116.208 138.077 115.65 138.068 115.169C137.61 115.412 137.004 115.565 136.731 115.919C136.362 116.398 136.286 117.044 136.014 117.592C135.83 117.963 135.525 118.288 135.273 118.634C135.083 118.31 134.954 117.941 134.692 117.672C133.471 116.418 135.207 115.72 135.475 114.633Z" fill="black"/>
<path d="M91.868 59.3118C92.3096 57.6533 92.7094 56.1788 93.2012 54.7286C94.3965 51.2036 95.6178 47.6852 96.876 44.1773C97.0367 43.7292 97.4792 43.3599 97.7913 42.9541C97.8777 43.4849 98.1758 44.0739 98.0131 44.5363C97.3677 46.3718 96.5061 48.1479 95.8566 49.9825C94.2457 54.5319 92.7028 59.1002 91.1489 63.6653C91.0288 64.0182 91.0302 64.4045 90.9863 64.7763C90.9249 65.296 90.9954 66.2269 90.7995 66.2721C89.1919 66.6433 87.5356 66.8498 85.894 67.1063C85.9165 66.8498 85.9513 66.3682 85.9595 66.3685C90.9598 66.5849 89.9887 62.5978 91.424 60.3191C91.5892 60.0569 91.7208 59.7781 91.868 59.3118Z" fill="black"/>
<path d="M126.644 72.2885C126.754 71.0014 126.754 70.9913 128.151 71.0242C128.883 71.0414 129.948 70.762 129.428 72.0504C129.379 72.1721 129.65 72.4227 129.824 72.5637C129.859 72.5927 130.177 72.4303 130.279 72.3026C131.643 70.5965 135.729 69.6494 137.697 70.6502C138.092 70.851 138.316 71.3143 138.619 71.6566C138.117 71.8293 137.536 72.2405 137.126 72.1345C135.049 71.5968 133.423 72.7738 131.904 73.4614C130.104 74.2761 129.372 74.4672 128.048 72.8274C127.824 72.5497 127.196 72.5267 126.644 72.2885Z" fill="black"/>
<path d="M145.742 56.9701C145.448 57.1443 144.907 57.1591 144.895 57.0973C144.557 55.2653 144.222 53.4306 143.986 51.5864C143.511 47.8592 143.09 44.1265 142.656 40.3952C142.619 40.0742 142.61 39.7415 142.662 39.4239C142.728 39.023 142.871 38.6321 142.98 38.2368C143.165 38.6307 143.464 39.0128 143.517 39.4201C144.278 45.2031 145.006 50.9894 145.742 56.9701Z" fill="black"/>
<path d="M135.586 92.095C138.239 92.1099 138.876 92.6067 138.658 94.3918C138.623 94.6793 138.335 94.9427 138.164 95.2172C137.893 95.0305 137.619 94.8479 137.353 94.6562C136.943 94.3604 136.539 94.0582 136.132 93.7588C136.164 94.2385 136.264 94.7239 136.214 95.1971C136.032 96.9358 135.807 98.6713 135.567 100.405C135.552 100.512 135.263 100.667 135.111 100.659C134.968 100.651 134.739 100.469 134.719 100.342C134.585 99.5227 134.448 98.6988 134.406 97.8726C134.325 96.2539 134.246 94.6309 134.312 93.0143C134.325 92.6971 134.997 92.4009 135.586 92.095Z" fill="black"/>
<path d="M132.936 26.9189C132.789 30.6882 132.659 34.263 132.478 37.8358C132.448 38.4344 132.218 39.0285 132.048 39.6172C131.878 40.2027 131.667 40.7789 131.474 41.3591C131.373 40.6981 131.163 40.0336 131.189 39.3766C131.289 36.8805 131.507 34.388 131.598 31.8919C131.667 29.9933 131.595 28.0909 131.625 26.1907C131.631 25.7819 131.802 25.3752 131.897 24.9675C132.14 25.3316 132.395 25.6902 132.622 26.0619C132.75 26.2713 132.833 26.5024 132.936 26.9189Z" fill="black"/>
<path d="M137.021 127.903C136.616 126.627 136.264 125.456 136.057 124.266C135.979 123.815 136.061 123.121 136.388 122.891C136.815 122.59 137.595 122.485 138.153 122.59C138.537 122.662 139.039 123.215 139.075 123.584C139.191 124.797 139.157 126.026 139.103 127.246C139.074 127.891 138.883 128.53 138.766 129.171C138.221 128.781 137.676 128.391 137.021 127.903Z" fill="black"/>
<path d="M163.848 186.542C161.26 186.672 158.894 186.826 156.524 186.906C156.177 186.918 155.814 186.575 155.458 186.396C155.748 186.123 156.032 185.619 156.329 185.613C159.427 185.555 162.527 185.549 165.625 185.621C165.925 185.628 166.207 186.252 166.497 186.59C166.068 186.704 165.639 186.908 165.21 186.905C164.829 186.903 164.449 186.672 163.848 186.542Z" fill="black"/>
<path d="M136.911 75.3131C138.017 75.9117 137.796 76.3576 136.814 76.4681C134.097 76.774 131.371 77.027 128.643 77.2336C128.329 77.2574 127.756 76.8957 127.697 76.6415C127.637 76.3817 128.039 75.7807 128.278 75.7639C131.078 75.5662 133.885 75.4505 136.911 75.3131Z" fill="black"/>
<path d="M150.269 38.1393C149.423 35.0105 148.674 31.9816 147.965 28.9455C147.863 28.511 147.87 28.0257 147.982 27.5953C148.045 27.3506 148.423 27.1697 148.66 26.96C148.865 27.1437 149.215 27.3064 149.254 27.5143C149.873 30.8538 150.466 34.1974 151.009 37.5472C151.041 37.7465 150.6 38.0056 150.269 38.1393Z" fill="black"/>
<path d="M139.118 168.199C136.129 168.459 133.14 168.534 130.15 168.57C129.903 168.573 129.652 168.307 129.403 168.166C129.604 168.047 129.788 167.863 130.008 167.82C130.816 167.661 131.631 167.491 132.454 167.434C133.398 167.368 134.671 167.765 135.243 167.354C136.999 166.092 137.957 167.245 139.118 168.199Z" fill="black"/>
<path d="M148.392 23.4062C148.185 24.1748 147.978 24.7482 147.77 25.3216C147.536 24.7821 147.116 24.2471 147.099 23.7023C147.025 21.3226 147.1 18.9393 147.039 16.5589C147.027 16.1132 146.516 15.685 146.47 15.23C146.431 14.8473 146.732 14.4374 146.883 14.0396C147.091 14.2827 147.454 14.5117 147.485 14.7713C147.818 17.5817 148.098 20.3971 148.392 23.4062Z" fill="black"/>
<path d="M173.232 27.9922C173.069 27.8486 172.979 27.8077 172.971 27.7559C172.791 26.7005 172.62 25.6438 172.447 24.5874C172.863 25.4689 173.303 26.3423 173.691 27.2333C174.694 29.5334 175.687 31.8366 176.648 34.15C176.821 34.5646 176.824 35.034 176.905 35.4781C176.498 35.1361 175.888 34.8586 175.717 34.441C174.862 32.344 174.122 30.2105 173.232 27.9922Z" fill="black"/>
<path d="M140.443 143.611C140.149 145.144 139.952 146.508 139.51 147.806C139.34 148.306 138.669 148.739 138.113 149.04C137.849 149.183 137.32 148.946 136.911 148.881C137.065 148.614 137.258 148.359 137.367 148.078C137.674 147.283 137.985 146.487 138.226 145.676C138.549 144.588 138.634 143.351 140.443 143.611Z" fill="black"/>
<path d="M166.608 31.5047C166.056 29.4929 165.597 27.5814 165.198 25.6603C165.156 25.4587 165.467 25.1998 165.615 24.9675C165.762 25.2 165.964 25.418 166.048 25.667C166.944 28.3242 167.835 30.9832 168.696 33.6496C168.878 34.2154 168.935 34.813 169.05 35.3959C168.583 34.9259 167.993 34.512 167.679 33.9724C167.249 33.2323 167.029 32.3968 166.608 31.5047Z" fill="black"/>
<path d="M92.3096 18.723C93.4876 17.3566 94.6507 16.173 95.8582 15.0258C96.0671 14.8273 96.4637 14.7831 96.7737 14.6677C96.7784 15.0254 96.9408 15.4691 96.7611 15.7262C95.8928 16.9687 94.9396 18.1651 94.0015 19.3688C93.6634 19.8026 93.2834 20.2109 92.9226 20.6308C92.7182 20.0599 92.5139 19.489 92.3096 18.723Z" fill="black"/>
<path d="M193.987 64.6781C196.024 65.0475 197.954 65.3039 199.873 65.611C200.11 65.649 200.292 65.9579 200.5 66.1413C200.237 66.2065 199.955 66.3623 199.715 66.3228C197.199 65.9107 194.684 65.4912 192.186 65.0061C191.821 64.9352 191.544 64.5098 191.227 64.2485C191.614 64.164 192.027 63.9629 192.384 64.0228C192.902 64.11 193.381 64.3854 193.987 64.6781Z" fill="black"/>
<path d="M76.4121 67.5077C77.9698 67.4177 79.4159 67.5122 79.5479 65.7707C79.5646 65.5506 80.1904 65.3667 80.5339 65.166C80.567 65.5487 80.723 65.9622 80.6116 66.3086C80.1602 67.7116 78.8078 68.054 77.403 68.2815C77.1184 68.3276 76.8151 68.2751 76.522 68.2908C75.7489 68.332 74.9767 68.3856 74.2041 68.4343C74.8665 68.1254 75.5289 67.8165 76.4121 67.5077Z" fill="black"/>
<path d="M139.56 162.735C138.596 162.605 137.848 162.491 137.112 162.335C136.882 162.287 136.653 162.154 136.489 162.004C136.446 161.965 136.645 161.586 136.74 161.584C138.006 161.555 139.299 161.437 140.528 161.629C141 161.702 141.327 162.503 141.72 162.973C141.074 162.893 140.427 162.814 139.56 162.735Z" fill="black"/>
<path d="M104.233 50.7258C103.938 52.1075 103.667 53.299 103.329 54.4759C103.268 54.6879 102.937 54.8394 102.731 55.0189C102.714 54.7611 102.632 54.4915 102.69 54.2475C103.039 52.7615 103.405 51.2781 103.802 49.8014C103.898 49.4445 104.13 49.116 104.299 48.7744C104.424 49.1549 104.617 49.5313 104.646 49.9174C104.661 50.1128 104.38 50.3257 104.233 50.7258Z" fill="black"/>
<path d="M131.169 106.145C130.763 106.829 130.455 107.447 129.92 107.767C129.483 108.028 128.773 107.933 128.185 107.995C128.418 107.596 128.625 107.183 128.892 106.802C129.18 106.392 129.526 106.013 129.845 105.619C130.636 104.64 130.987 105.029 131.169 106.145Z" fill="black"/>
<path d="M170.03 37.4562C170.472 38.5847 170.95 39.5068 171.33 40.4593C171.428 40.7048 171.219 41.0461 171.152 41.3434C170.851 41.2181 170.346 41.1469 170.282 40.9586C169.852 39.6929 169.514 38.4022 169.147 37.1196C169.441 37.1668 169.736 37.2139 170.03 37.4562Z" fill="black"/>
<path d="M97.1674 64.7757C97.609 65.1768 98.0506 65.3828 98.4922 65.5887C97.9957 65.708 97.5046 65.8979 97.001 65.9287C96.3608 65.968 95.7105 65.8783 95.0645 65.8442C95.4624 65.1704 95.8604 64.4966 96.2583 63.8229C96.5613 64.0754 96.8644 64.328 97.1674 64.7757Z" fill="black"/>
<path d="M132.936 140.099C133.084 140.496 133.265 140.685 133.371 140.903C133.571 141.317 133.728 141.748 133.902 142.172C133.603 142.217 133.096 142.374 133.038 142.289C132.517 141.53 132.063 140.733 131.663 139.919C131.649 139.889 132.396 139.568 132.788 139.383C132.837 139.556 132.887 139.73 132.936 140.099Z" fill="black"/>
<path d="M172.238 46.0423C172.134 45.6252 171.981 45.4108 171.935 45.1799C171.79 44.4337 171.684 43.6814 171.563 42.9314C171.788 43.0903 172.171 43.2227 172.212 43.4125C172.455 44.5419 172.618 45.6846 172.808 46.8229C172.618 46.6278 172.428 46.4326 172.238 46.0423Z" fill="black"/>
<path d="M137.904 55.1163C136.991 54.7254 136.712 52.7759 137.417 52.4441C137.613 52.3518 138.027 52.3213 138.124 52.4235C138.373 52.686 138.684 53.0611 138.638 53.3508C138.549 53.9212 138.235 54.4643 137.904 55.1163Z" fill="black"/>
<path d="M163.737 48.4816C163.406 47.4304 163.163 46.4801 162.983 45.5205C162.946 45.3219 163.145 45.0888 163.234 44.8716C163.439 45.0523 163.794 45.216 163.823 45.4164C163.979 46.5043 164.055 47.6013 164.152 48.6956C164.152 48.699 164.043 48.7293 164.006 48.7118C163.944 48.6826 163.9 48.6249 163.737 48.4816Z" fill="black"/>
<path d="M165.172 60.0923C164.882 59.8321 164.812 59.572 164.742 59.3118C165.986 59.4419 167.232 59.5614 168.471 59.7217C168.573 59.7349 168.628 60.0268 168.705 60.1892C168.41 60.287 168.103 60.4887 167.822 60.463C167.007 60.3882 166.202 60.2224 165.172 60.0923Z" fill="black"/>
<path d="M88.2248 25.8456C88.1924 25.3577 88.2705 24.9674 88.3486 24.5771C88.778 25.0256 89.3168 25.4303 89.5802 25.9451C89.6787 26.1377 89.1353 26.5867 88.8847 26.9188C88.7015 26.5936 88.5184 26.2683 88.2248 25.8456Z" fill="black"/>
<path d="M83.0361 61.2632C82.8889 61.7846 82.7761 62.1282 82.581 62.4302C82.4728 62.5975 82.2269 62.6952 82.0431 62.8243C81.9326 62.4405 81.6936 62.0433 81.7423 61.676C81.8103 61.1629 82.093 60.6721 82.2839 60.1718C82.5347 60.4705 82.7854 60.7693 83.0361 61.2632Z" fill="black"/>
<path d="M108.207 24.9675C107.961 25.3359 107.716 25.509 107.47 25.6822C107.617 24.6858 107.759 23.6888 107.927 22.6952C107.933 22.656 108.261 22.5928 108.298 22.6357C108.445 22.8065 108.655 23.03 108.627 23.2068C108.541 23.7355 108.354 24.2515 108.207 24.9675Z" fill="black"/>
<path d="M109.974 19.1132C110.081 18.5929 110.189 18.2676 110.297 17.9424C110.484 18.198 110.708 18.4392 110.842 18.7146C110.921 18.8758 110.932 19.1269 110.843 19.2762C110.555 19.7576 110.205 20.2105 109.88 20.6743C109.911 20.219 109.942 19.7637 109.974 19.1132Z" fill="black"/>
<path d="M184.272 52.9699C184.06 52.6528 183.933 52.4394 183.863 52.2125C183.713 51.7322 183.592 51.2449 183.459 50.7605C183.693 50.8963 184.075 50.9942 184.134 51.1747C184.335 51.7847 186.143 52.2677 184.272 52.9699Z" fill="black"/>
<path d="M82.1531 33.5535C81.7893 34.2002 81.4255 34.6518 81.0617 35.1035C80.9839 34.9445 80.7905 34.7338 80.8471 34.6349C81.1995 34.0195 81.6077 33.4292 81.9975 32.8306C82.0493 33.0065 82.1012 33.1824 82.1531 33.5535Z" fill="black"/>
<path d="M104.674 46.4326C104.873 45.8015 105.072 45.3656 105.271 44.9297C105.366 45.1739 105.602 45.4605 105.528 45.6533C105.379 46.0379 106.167 47.1617 104.674 46.4326Z" fill="black"/>
<path d="M141.768 59.702C141.839 60.0923 141.689 60.4826 141.539 60.8729C141.321 60.7772 141.103 60.6815 140.885 60.5857C141.106 60.2912 141.326 59.9966 141.768 59.702Z" fill="black"/>
<path d="M133.93 120.585C134.162 120.325 134.504 120.065 134.846 119.805C134.936 120.008 135.026 120.211 135.116 120.415C134.758 120.471 134.399 120.528 133.93 120.585Z" fill="black"/>
<path d="M19.0049 66.7271C18.9531 66.226 18.9013 65.7248 18.8494 65.2237C18.4333 65.553 18.0055 65.8716 17.6028 66.2133C14.0061 69.2663 12.1821 73.2306 12.0991 77.4046C12.0213 81.3176 12.4243 85.5339 15.1072 88.9007C17.439 91.8269 20.8318 94.1624 25.0685 93.9471C30.5347 93.6694 35.4242 91.7962 38.0534 87.116C39.6524 84.2698 40.8823 81.2624 42.3178 78.3427C42.5168 77.9382 42.9453 77.6218 43.2675 77.2646C43.423 77.6853 43.7937 78.1478 43.701 78.5203C42.7192 82.4688 41.2846 86.2173 38.2255 89.3924C34.1025 93.6718 28.7994 95.2303 22.7066 94.7474C21.0481 94.616 19.3303 93.7082 17.9231 92.81C16.2134 91.7188 14.6658 90.364 13.2955 88.9376C11.0549 86.6055 11.0391 83.615 10.5983 80.7659C10.4976 80.1148 10.1919 79.4884 9.98039 78.8506C9.75021 79.4649 9.47303 80.0695 9.30765 80.6971C9.21013 81.0671 9.33832 81.4806 9.26835 81.8606C9.23595 82.0369 8.97306 82.18 8.81463 82.3382C8.67868 82.1602 8.41573 81.9762 8.42608 81.8051C8.54257 79.8849 8.68844 77.9657 8.86347 76.0489C8.88654 75.7961 9.11601 75.5581 9.24986 75.3132C9.41039 75.5995 9.58941 75.8791 9.72666 76.1739C9.89279 76.5307 10.0236 76.9004 10.1696 77.2646C10.4652 76.8263 11.0719 76.3463 11.005 75.9568C10.6156 73.6907 12.0508 71.8942 12.9364 70.0066C14.2712 67.1615 16.6438 64.9896 19.3608 63.045C22.4214 60.8545 25.8817 59.7515 29.7239 59.7345C34.4025 59.7138 38.1215 61.7516 40.5569 65.085C42.5235 67.7769 44.116 70.8062 43.7191 74.2402C43.6767 74.6075 43.4265 74.956 43.2726 75.3132C42.9849 74.933 42.3871 74.499 42.4578 74.1811C43.0909 71.3355 40.7499 69.4118 39.7338 67.088C39.653 66.9032 39.0689 66.6763 38.9462 66.7531C37.7194 67.5201 37.1403 66.6305 36.5566 66.0035C36.1885 65.6082 36.0565 65.0412 35.8187 64.5513C36.373 64.6705 36.9243 64.8037 37.4835 64.9014C37.681 64.9359 37.8979 64.8839 38.106 64.8714C38.0653 64.6416 38.1176 64.2894 37.9691 64.2013C36.8263 63.5225 35.6519 62.8839 34.4646 62.2668C34.3325 62.1981 33.9756 62.2869 33.8752 62.4042C33.7846 62.5102 33.8702 62.7653 33.9357 62.9374C34.0579 63.2586 34.222 63.5674 34.3687 63.8813C33.9325 63.7892 33.4675 63.7536 33.0659 63.5937C32.0727 63.1984 31.1462 62.6396 30.1189 62.3561C29.4886 62.1822 28.7031 62.3242 28.0238 62.4633C27.6748 62.5348 27.4058 62.911 27.1007 63.1495C27.471 63.3013 27.8254 63.5068 28.2141 63.5957C30.0113 64.0068 31.8763 64.253 33.592 64.8424C34.257 65.0709 34.4303 66.3019 35.1068 66.6407C37.3879 67.783 37.5135 69.4832 37.1325 71.4402C37.0819 71.7001 37.4735 72.0279 37.4216 72.2868C36.8833 74.9711 38.775 74.6218 40.6407 74.3478C40.9269 74.3058 41.2306 74.3575 41.5262 74.3659C41.4668 74.9293 41.4074 75.4927 41.348 76.0561C41.0969 75.8592 40.863 75.6402 40.5881 75.474C40.4271 75.3768 40.0559 75.2864 40.0285 75.3263C39.8932 75.5237 39.7125 75.9273 39.7785 75.9684C41.7154 77.1731 40.3477 78.7561 39.988 79.8657C38.8906 83.2519 37.5623 86.6674 34.4588 89.128C32.6407 90.5694 30.5733 91.4438 27.9808 91.8401C25.3711 92.2391 22.996 92.9042 20.6659 91.4012C18.676 90.1178 16.3746 89.0181 16.3333 86.3877C16.3291 86.1225 16.0369 85.8491 15.8433 85.6009C15.6236 85.3194 15.3643 85.0619 15.1222 84.794C15.4847 84.6259 15.8943 84.2745 16.1981 84.3354C16.5892 84.4136 17.0307 84.7645 17.2142 85.0991C17.8655 86.2872 18.38 87.5337 19.0311 88.7218C19.1877 89.0074 19.671 89.1531 20.0041 89.3632C20.1126 89.0309 20.4135 88.6307 20.2989 88.3772C19.4666 86.5371 18.5593 84.7231 17.6129 82.9266C17.5884 82.8801 16.838 83.2373 16.4416 83.2127C15.9215 83.1803 15.4169 82.9553 14.9056 82.8132C15.1479 82.5247 15.365 82.2155 15.6408 81.9549C15.8382 81.7686 16.1144 81.6476 16.3554 81.4974C15.9953 81.3873 15.6435 81.2298 15.2732 81.1795C14.8205 81.1179 14.2936 81.2516 13.9167 81.0883C13.7438 81.0134 13.6856 80.2427 13.8668 80.1177C14.2732 79.8375 14.9811 79.8781 15.3483 79.579C15.8757 79.1494 16.9499 80.8 16.9981 79.2052C17.0458 77.6257 16.9049 77.5932 14.9695 78.269C14.5128 78.4285 13.9551 78.3617 13.4438 78.399C13.6361 77.9931 13.7906 77.5689 14.029 77.1853C14.4707 76.4744 16.1006 76.1943 15.0489 74.9367C15.0117 74.8922 15.2444 74.6713 15.3513 74.5326C15.5388 74.6651 15.7499 74.7786 15.9094 74.9335C16.4332 75.4422 16.9382 75.966 17.4504 76.484C17.2388 75.6439 17.0283 74.8035 16.8145 73.9638C16.7694 73.7864 16.7351 73.4664 16.6562 73.4564C12.8607 72.9748 15.581 71.1546 16.0088 70.1982C16.5814 68.918 17.8273 67.873 18.8945 66.8247C19.1546 67.3103 19.3044 67.6983 19.4542 68.0863C20.6184 67.3175 21.7979 66.5657 22.9348 65.7664C23.1765 65.5965 23.2629 65.254 23.4209 64.9911C23.0321 64.9377 22.5401 64.7242 22.2723 64.8589C21.1467 65.4249 20.0881 66.095 19.0049 66.7271ZM30.4864 70.4347C30.6335 69.6859 30.984 68.9036 30.8362 68.2034C30.7695 67.8873 29.709 67.5408 29.1031 67.546C27.6175 67.5588 26.0986 67.641 24.6659 67.955C24.0148 68.0977 23.4381 68.7954 23.0041 69.3493C22.4655 70.037 22.1329 70.848 21.6688 71.5849C21.0684 72.5386 20.534 73.547 19.7758 74.3956C18.7176 75.5802 20.9322 77.7868 18.1279 78.3757C18.0783 78.3861 18.0898 78.7477 18.1275 78.9369C18.2598 79.6007 18.3252 80.2905 18.5865 80.9146C18.9062 81.6787 19.3978 82.3865 19.8151 83.1187C19.9867 82.3868 20.1592 81.6551 20.3278 80.9227C20.3421 80.8602 20.3121 80.7883 20.3325 80.7287C20.5492 80.0937 20.772 79.4604 20.9931 78.8266C21.5079 79.5485 22.0509 80.257 22.5109 81.0053C22.5905 81.1346 22.3165 81.4317 22.2098 81.6527C21.7295 82.6475 20.7883 83.6744 20.8724 84.6308C21.0237 86.355 21.6724 88.0749 22.3561 89.7177C22.6233 90.3596 23.5455 90.7886 24.1693 91.3145C24.6558 90.7736 25.2237 90.2744 25.6115 89.6829C26.3635 88.5362 26.9563 87.3072 27.7227 86.1689C28.5368 84.9599 29.5374 83.8476 30.322 82.6256C30.5513 82.2684 30.3205 81.6804 30.3005 81.1983C29.8932 81.4076 29.3512 81.5325 29.1034 81.8417C28.3082 82.8338 27.6815 83.9331 26.865 84.9094C26.5257 85.315 25.8707 85.5145 25.3594 85.8077C25.4526 85.2335 25.3315 84.5148 25.6791 84.1121C26.7674 82.8514 28.1012 81.7573 29.2082 80.5076C30.1429 79.4524 30.9479 78.298 31.7124 77.1371C32.6048 75.7819 33.5911 74.4332 34.1639 72.9678C34.6742 71.6622 35.289 69.9899 34.7855 68.8491C33.3705 65.6429 29.288 64.1928 25.6127 65.1872C25.2711 65.2796 25.0322 65.6685 24.7457 65.9197C25.0729 66.0587 25.394 66.3022 25.7286 66.3177C26.8293 66.3686 27.936 66.3094 29.0384 66.3429C30.9072 66.3998 32.0562 67.087 32.7698 68.7923C33.5803 70.7293 31.8775 71.3024 30.9623 72.3443C30.6975 72.6458 30.3453 72.8873 30.0331 73.1564C29.9546 72.7123 29.7868 72.2624 29.8235 71.8258C29.8576 71.4198 30.1095 71.028 30.4864 70.4347ZM33.5775 82.5333C34.2505 81.8084 35.3106 81.1617 35.5221 80.3435C36.0965 78.1224 36.3252 75.8301 36.639 73.5603C36.661 73.4011 36.283 73.0942 36.0434 73.0478C35.8826 73.0166 35.5493 73.2878 35.4447 73.4862C34.6382 75.013 33.4615 76.3469 33.4853 78.2421C33.5018 79.5572 32.8302 80.9586 32.1483 82.1832C30.9457 84.3428 29.4694 86.3823 28.1922 88.5116C28.0127 88.8109 28.3109 89.334 28.388 89.7534C29.0874 89.1983 30.0087 88.7528 30.4427 88.0666C31.5316 86.3453 32.4 84.515 33.5775 82.5333ZM32.2528 88.3875C32.3041 88.693 32.3554 88.9985 32.4067 89.3041C32.7612 89.1603 33.2572 89.1028 33.4478 88.8589C34.9401 86.9501 36.4209 85.0309 37.7831 83.0494C38.0362 82.6812 37.7398 82.0178 37.697 81.4907C37.2818 81.6421 36.6817 81.6877 36.4809 81.9617C35.0263 83.9476 33.6523 85.9797 32.2528 88.3875ZM18.1217 70.0445C17.936 69.9794 17.7504 69.9144 17.5647 69.8493C17.1655 70.8285 16.7663 71.8076 16.3671 72.7868C16.6265 72.8484 17.1036 72.9841 17.1138 72.9608C17.4768 72.128 17.7962 71.2803 18.1217 70.0445ZM21.4337 63.6049C22.8738 63.0845 24.3168 62.5703 25.7514 62.0384C26.0221 61.938 26.2594 61.7672 26.512 61.6288C26.1675 61.507 25.7136 61.1957 25.4961 61.2939C24.0402 61.9504 22.6347 62.6942 21.4337 63.6049ZM19.8881 70.4347C20.0029 70.6299 20.1176 70.825 20.2324 71.0202C20.7064 70.6025 21.2616 70.2299 21.6087 69.7417C21.7237 69.58 21.3027 69.1207 21.1267 68.7974C20.7138 69.2131 20.301 69.6288 19.8881 70.4347ZM38.4351 76.2889C38.2879 76.8794 38.1196 77.4669 38.0133 78.0631C37.9945 78.1687 38.221 78.3965 38.358 78.4129C38.5172 78.4319 38.8563 78.2743 38.8529 78.2035C38.8186 77.4991 38.7295 76.7967 38.4351 76.2889Z" fill="black"/>
</svg>
