<svg width="306" height="139" viewBox="0 0 306 139" fill="none" xmlns="http://www.w3.org/2000/svg">
<path d="M153.022 0.802008C153.421 0.643008 153.775 1.09601 154.286 2.14301C158.561 10.91 171.249 16.245 187.852 16.258C196.051 16.265 211.903 14.306 224.498 11.731C236.566 9.26401 239.482 8.69901 242.329 8.27701C267.722 4.51301 283.882 10.447 289.613 25.639C292.066 32.143 290.432 40.547 285.764 45.429L285.042 46.184L287.123 46.287C297.569 46.805 304.313 55.694 305.333 69.472C304.313 83.251 297.569 92.139 287.123 92.657L285.042 92.76L285.764 93.516C290.432 98.398 292.066 106.802 289.613 113.306C283.882 128.498 267.722 134.432 242.329 130.668C239.482 130.246 236.566 129.681 224.498 127.213C211.903 124.638 196.051 122.68 187.852 122.687C171.249 122.7 158.561 128.035 154.286 136.802C153.775 137.849 153.421 138.302 153.022 138.143C152.622 138.302 152.268 137.849 151.757 136.802C147.482 128.035 134.794 122.7 118.191 122.687C109.992 122.68 94.14 124.638 81.545 127.213C69.477 129.681 66.561 130.245 63.714 130.668C38.321 134.432 22.161 128.498 16.43 113.306C13.977 106.802 15.611 98.398 20.279 93.516L21.001 92.76L18.92 92.657C8.47401 92.139 1.73001 83.251 0.710007 69.472C1.73001 55.694 8.47401 46.805 18.92 46.287L21.001 46.184L20.279 45.429C15.611 40.547 13.977 32.143 16.43 25.639C22.161 10.447 38.321 4.51301 63.714 8.27701C66.561 8.69901 69.477 9.26401 81.545 11.731C94.14 14.306 109.992 16.265 118.191 16.258C134.794 16.245 147.482 10.91 151.757 2.14301C152.268 1.09601 152.622 0.642008 153.022 0.802008ZM303.63 69.473C302.943 60.824 299.88 53.99 295 50.66C285.194 43.97 271.662 50.63 274.776 60.613C276.534 66.249 284.337 67.215 284.337 61.797C284.337 59.061 282.394 57.861 279.845 59.023L278.433 59.667L279.133 58.356C282.34 52.349 288.937 51.697 293.127 56.973C296.021 60.616 297.784 64.599 298.386 69.473C297.784 74.346 296.021 78.329 293.127 81.972C288.937 87.248 282.34 86.596 279.133 80.589L278.433 79.278L279.845 79.922C282.394 81.084 284.337 79.884 284.337 77.148C284.337 71.73 276.534 72.696 274.776 78.332C271.662 88.315 285.194 94.975 295 88.285C299.88 84.955 302.943 78.122 303.63 69.473ZM2.41401 69.473C3.10101 78.122 6.16401 84.955 11.044 88.285C20.849 94.975 34.382 88.315 31.268 78.332C29.509 72.696 21.706 71.73 21.706 77.148C21.706 79.884 23.649 81.084 26.198 79.922L27.61 79.278L26.91 80.589C23.703 86.596 17.107 87.248 12.916 81.972C10.022 78.329 8.25901 74.346 7.65801 69.473C8.25901 64.599 10.022 60.616 12.916 56.973C17.107 51.697 23.703 52.349 26.91 58.356L27.61 59.668L26.198 59.024C23.649 57.861 21.706 59.061 21.706 61.797C21.706 67.215 29.509 66.249 31.268 60.613C34.382 50.63 20.849 43.97 11.044 50.66C6.16401 53.99 3.10101 60.824 2.41401 69.473ZM153.022 12.157C153.427 12.118 153.807 12.516 154.675 13.327C159.882 18.192 170.662 22.345 180.553 23.296C192.023 24.399 205.65 23.422 226.049 20.033C255.504 15.141 263.299 14.578 270.241 16.842C280.524 20.195 285.468 29.819 281.14 38.06C279.538 41.11 274.794 43.978 274.486 42.083C273.911 38.538 272.954 37.505 270.257 37.521C266.355 37.544 264.214 41.081 265.972 44.602C268.308 49.278 273.336 50.656 278.713 48.093C279.551 47.694 280.39 47.297 281.231 46.902C288.74 43.384 291.284 31.276 286.333 22.619C278.3 8.59101 261.756 5.66101 229.165 12.5C218.209 14.8 206.739 16.585 196.537 17.585C177.25 19.474 160.519 14.601 154.111 5.23001L153.116 3.77601L153.021 3.91501L152.927 3.77601L151.932 5.23001C145.524 14.601 128.793 19.474 109.506 17.585C99.304 16.585 87.834 14.8 76.878 12.5C44.287 5.66001 27.743 8.59101 19.71 22.619C14.759 31.276 17.304 43.384 24.813 46.902C25.388 47.172 26.521 47.708 27.33 48.093C32.707 50.656 37.735 49.278 40.071 44.602C41.829 41.081 39.689 37.543 35.786 37.52C33.089 37.505 32.132 38.538 31.557 42.083C31.249 43.978 26.506 41.11 24.903 38.059C20.576 29.819 25.519 20.195 35.802 16.842C42.745 14.578 50.539 15.141 79.994 20.033C100.393 23.421 114.02 24.399 125.49 23.296C135.381 22.345 146.161 18.192 151.368 13.327C152.237 12.516 152.616 12.118 153.022 12.157ZM153.022 126.789C152.616 126.827 152.237 126.429 151.368 125.618C146.161 120.753 135.381 116.6 125.49 115.649C114.02 114.546 100.393 115.523 79.994 118.912C50.539 123.804 42.745 124.367 35.802 122.103C25.519 118.75 20.576 109.126 24.903 100.885C26.506 97.835 31.249 94.967 31.557 96.862C32.132 100.408 33.089 101.44 35.786 101.424C39.689 101.401 41.829 97.864 40.071 94.343C37.735 89.667 32.707 88.289 27.33 90.852C26.492 91.251 25.653 91.648 24.813 92.043C17.304 95.561 14.759 107.669 19.71 116.326C27.743 130.354 44.287 133.284 76.878 126.445C87.834 124.145 99.304 122.36 109.506 121.36C128.793 119.471 145.524 124.344 151.932 133.715L152.927 135.17L153.022 135.03L153.116 135.17L154.111 133.715C160.519 124.344 177.25 119.471 196.537 121.36C206.739 122.36 218.209 124.145 229.165 126.445C261.757 133.284 278.3 130.354 286.333 116.326C291.284 107.669 288.74 95.561 281.231 92.043C280.391 91.648 279.551 91.251 278.713 90.852C273.336 88.289 268.308 89.667 265.972 94.343C264.214 97.864 266.355 101.401 270.257 101.424C272.954 101.44 273.912 100.407 274.487 96.862C274.794 94.967 279.538 97.835 281.14 100.885C285.468 109.126 280.524 118.75 270.242 122.103C263.299 124.367 255.505 123.804 226.049 118.912C205.651 115.523 192.024 114.546 180.554 115.649C170.662 116.6 159.882 120.753 154.675 125.618C153.807 126.429 153.427 126.827 153.022 126.789Z" fill="black"/>
</svg>
