<svg width="540" height="540" viewBox="0 0 540 540" fill="none" xmlns="http://www.w3.org/2000/svg">
<path d="M343.968 59.4008C363.079 72.0061 381.007 97.9541 366.63 115.777C340.508 148.161 281.345 54.5257 255.162 121.52L280.67 150.422L310.596 185.822C346.868 226.919 383.979 269.417 402.084 321.169C420.189 372.922 414.878 436.823 374.688 474.092C330.819 514.773 259.171 510.795 207.241 481.104C155.312 451.413 118.53 401.604 83.3142 353.228C73.1011 339.198 62.3778 323.39 64.2048 306.128C66.0318 288.867 88.3814 274.377 101.19 286.082C137.142 318.936 173.093 351.791 209.045 384.645C232.632 406.2 262.865 429.384 293.287 419.642C334.228 406.532 335.354 346.169 312.742 309.586C288.516 270.389 248.901 243.646 217.828 209.628C186.755 175.61 163.675 126.064 182.612 84.0529C208.074 27.5684 292.266 25.3004 343.968 59.4008Z" fill="#FAF4E6" />
</svg>
