<svg xmlns="http://www.w3.org/2000/svg" width="640" height="428"><path d="M 610.099 1.168 L 12.909 1.359 C -3.579 1.359 -0.001 12.459 -0.001 26.341 L -0.001 422.108 C -0.001 426.757 4.476 430.526 9.999 430.526 L 629.999 430.526 C 635.522 430.526 639.999 426.757 639.999 422.108 L 640 19.702 C 640.001 5.82 638.403 1.159 610.099 1.168 Z M 636.306 16.991 L 636.306 269.423 L 632.427 269.423 C 629.66 260.493 623.15 237.774 616.699 202.76 C 609.138 161.715 600.171 95.178 599.62 8.662 L 631.113 8.662 C 633.977 8.662 636.306 12.399 636.306 16.991 Z M 44.474 212.452 C 58.291 169.92 74.679 100.96 75.655 11.358 L 101.528 11.358 C 101.191 32.227 99.58 52.99 96.719 73.342 C 96.687 73.482 96.652 73.617 96.624 73.761 C 96.515 74.342 96.444 74.94 96.414 75.545 C 94.313 90.001 91.595 104.203 88.278 118.045 C 81.185 147.678 71.281 176.252 58.844 202.973 C 46.915 228.601 34.887 247.632 26.583 259.454 C 31.871 247.585 38.164 231.879 44.474 212.452 Z M 16.11 266.555 C 19.472 254.194 24.125 235.108 28.794 209.561 C 36.509 167.335 45.661 98.892 46.21 9.999 L 72.089 9.999 C 71.12 95.834 55.488 161.872 42.308 202.621 C 31.948 234.647 21.492 256.348 16.11 266.555 Z M 492.569 19.343 C 446.68 25.522 445.356 44.159 324.076 44.159 C 197.401 44.159 196.04 25.522 150.148 19.344 C 151.11 14.886 151.759 10.416 152.109 5.933 L 490.608 5.933 C 490.958 10.415 491.606 14.885 492.569 19.343 Z M 541.693 77.885 C 541.651 77.411 541.579 76.944 541.48 76.487 C 541.47 76.442 541.455 76.401 541.446 76.355 C 538.057 55.902 536.151 35.031 535.754 14.054 L 566.11 14.054 C 567.255 103.678 586.483 172.654 602.693 215.196 C 610.097 234.627 617.481 250.337 623.685 262.208 C 613.942 250.384 599.829 231.348 585.833 205.714 C 571.24 178.986 559.621 150.406 551.299 120.765 C 547.375 106.801 544.165 92.473 541.693 77.885 Z M 571.081 10.021 L 597.283 10.021 C 597.839 98.904 607.105 167.34 614.917 209.561 C 619.648 235.128 624.364 254.225 627.769 266.582 C 622.371 256.49 611.907 235.066 601.439 203.243 C 588.002 162.394 572.065 96.167 571.081 10.021 Z M 11.54 8.641 L 42.644 8.641 C 42.1 95.166 33.242 161.71 25.776 202.76 C 19.405 237.778 12.975 260.499 10.242 269.43 L 6.411 269.43 L 6.411 16.97 C 6.411 12.378 8.711 8.641 11.54 8.641 Z M 6.347 293.974 L 13.315 293.974 L 13.326 293.975 L 13.335 293.974 L 14.769 293.974 C 22.348 328.489 25.717 401.683 26.729 428.488 L 6.347 428.488 Z M 37.182 428.488 C 36.255 404.069 26.544 334.962 19.023 295.524 L 23.1 295.524 C 31.935 315.049 44.447 350.671 48.129 380.766 C 48.12 380.981 48.111 381.198 48.111 381.418 C 48.11 382.965 48.325 384.488 48.737 385.852 C 50.766 403.289 52.052 418.826 52.757 428.488 Z M 59.108 428 C 59.108 374.541 35.544 298.213 16.306 271.067 C 41.772 245.602 66.802 202.137 81.529 161.01 C 97.655 100.623 89.635 134.991 111.423 12.229 C 148.501 21.566 179.937 46.634 320 48.235 C 460.063 49.836 482.67 25.642 519.745 16.305 C 536.706 58.756 539.765 156.714 568.662 194.978 C 590.73 224.198 592.283 238.267 625.732 274.463 C 589.139 293.081 585.648 384.941 585.648 428 Z M 593.7 385.828 C 594.09 384.507 594.313 382.999 594.313 381.396 C 594.313 381.183 594.303 380.975 594.296 380.766 C 594.35 380.31 594.404 379.858 594.46 379.402 C 599.155 341.003 605.308 312.549 612.328 296.67 L 616.413 296.67 C 609.036 336.108 605.942 404.048 605.033 428.467 L 589.752 428.467 C 590.441 418.797 591.703 403.245 593.7 385.828 Z M 615.475 428.467 C 616.491 402.206 619.872 330.502 627.492 296.67 L 635.952 296.67 L 635.952 428.467 Z" fill="hsl(353, 39%, 30%)"></path></svg>