<svg width="193" height="220" viewBox="0 0 193 220" fill="none" xmlns="http://www.w3.org/2000/svg">
<path d="M129.559 85.1418C138.17 99.4892 141.793 117.173 137.568 133.364C133.343 149.556 120.702 163.75 104.528 168.041C88.3543 172.331 69.3681 165.458 61.1483 150.883C53.0677 136.555 49.8005 119.176 54.064 103.288C58.3275 87.3999 70.6675 73.4655 86.5195 69.0706C102.372 64.6758 121.093 71.0373 129.559 85.1418V85.1418ZM128.734 96.9611C130.079 96.6145 131.425 96.2679 132.77 95.9213C130.257 89.0827 125.986 80.9723 118.703 81.1633C119.184 80.3779 120.041 79.8353 120.957 79.7375C110.352 68.0812 91.0785 66.9145 77.5726 75.0337C64.0668 83.1529 56.2286 98.7836 54.7619 114.474C53.5705 127.218 56.3216 140.571 63.8322 150.936C71.3427 161.3 83.8974 168.257 96.6804 167.598C107.453 167.044 117.58 161.212 124.526 152.959C131.473 144.707 135.422 134.222 137.03 123.556C133.812 122.99 130.593 122.423 127.375 121.856C130.162 120.192 133.687 119.822 136.759 120.873C137.375 116.323 137.987 111.662 137.006 107.177C136.026 102.692 133.112 98.3436 128.734 96.9611Z" fill="black"/>
<path d="M160.819 177.783C161.127 133.271 161.434 88.7591 161.741 44.2473C118.822 44.6101 75.9039 44.9729 32.9853 45.3357C31.4756 45.3485 29.5214 45.0185 29.2493 43.5335C74.1913 42.7996 119.138 42.3602 164.086 42.2153C163.546 89.7221 163.405 137.233 163.663 184.742C163.679 187.656 163.778 190.814 165.597 193.09C166.053 191.498 167.061 190.071 168.407 189.106C167.732 192.023 168.113 195.173 169.464 197.845C165.752 196.619 163.145 193.129 161.961 189.403C160.776 185.678 160.792 181.692 160.819 177.783V177.783Z" fill="black"/>
<path d="M190.643 39.2644C190.4 32.8006 190.157 26.3368 189.914 19.873C189.892 19.2973 189.853 18.6741 189.48 18.2351C188.983 17.6498 188.105 17.6206 187.337 17.6378C173.622 17.9453 159.907 18.2528 146.193 18.5602C144.14 18.6063 141.963 18.6895 140.254 19.8266C139.183 20.5392 138.23 21.6791 136.943 21.6571C135.657 21.6351 135.168 19.1922 136.448 19.3246C109.53 19.6057 82.6116 19.8867 55.6934 20.1678C48.0561 20.2475 40.3286 20.3387 32.937 22.2621C33.0516 23.1097 34.5696 22.2994 34.2134 21.5218C33.8571 20.7443 32.8158 20.6363 31.9605 20.6401C22.7807 20.6806 13.6008 20.721 4.4209 20.7615C3.70983 83.5922 2.99877 146.423 2.2877 209.254C2.2628 211.454 2.94547 214.421 5.14597 214.402C63.3317 213.912 121.517 213.422 179.703 212.931C182.054 212.912 185.192 212.155 185.191 209.805C185.174 150.349 185.157 90.8926 185.141 31.4364C185.139 27.026 185.194 22.391 187.362 18.5502C187.289 83.3805 187.216 148.211 187.143 213.041C186.26 214.79 183.907 215.038 181.948 215.055C121.299 215.595 60.6493 216.134 0 216.674C0.80385 150.756 1.6077 84.8383 2.41155 18.9207C63.632 18.041 124.852 17.1614 186.073 16.2817C188.046 16.2534 190.366 16.3975 191.452 18.0451C192.168 19.1308 192.094 20.5364 191.994 21.833C191.543 27.6435 191.093 33.4539 190.643 39.2644Z" fill="black"/>
<path d="M47.462 218.753C66.5571 218.59 85.6522 218.427 104.747 218.265C111.064 218.211 117.38 218.157 123.697 218.103C83.2819 220.22 42.7744 220.565 2.32935 219.139C7.67435 219.093 13.0193 219.047 18.3643 219.002C28.0636 218.919 37.7628 218.836 47.462 218.753Z" fill="black"/>
<path d="M44.6533 27.3295C46.1631 27.3553 47.6695 27.582 49.1201 28.0018C49.227 26.9526 48.3351 26.1009 47.9119 25.1349C47.4887 24.1688 48.1458 22.5823 49.115 22.9981C50.1899 24.6279 50.7506 26.6223 52.1622 27.9711C53.5737 29.3198 56.4055 29.463 57.0935 27.6359C57.6207 28.9154 56.4183 30.3544 55.0722 30.6756C53.7262 30.9969 52.3312 30.5787 50.9735 30.3109C47.4671 29.6195 43.8498 29.9368 40.2902 30.2567C38.885 30.383 37.0616 30.9456 37.0978 32.356C41.6008 32.5692 46.1038 32.7823 50.6068 32.9955C52.7081 33.0949 54.8176 33.1943 56.9124 33.0008C62.546 32.4805 68.1796 31.9602 73.8132 31.44C77.7593 31.0755 81.8437 30.7261 85.5956 32.0017C86.4106 32.2788 87.3465 32.8677 87.234 33.7212C81.3165 34.9559 75.0814 32.4043 69.1808 33.7178C58.0987 36.185 46.4083 35.8691 35.4756 32.807C34.8114 32.621 34.0227 32.2767 33.9724 31.5888C35.3462 29.9172 37.5076 28.9228 39.6708 28.9669C40.6409 28.9867 41.6138 29.2025 42.5742 29.0643C43.5346 28.9262 44.5295 28.2919 44.6533 27.3295V27.3295Z" fill="black"/>
<path d="M67.002 210.874C68.2837 209.24 70.7484 208.67 72.6173 209.576C74.3992 210.44 76.3632 208.828 77.5706 207.259C78.778 205.689 80.2555 203.818 82.2242 204.032C90.4433 204.923 98.6624 205.814 106.881 206.705C111.089 207.161 115.422 207.608 119.49 206.443C121.457 205.88 123.327 204.947 125.351 204.647C127.375 204.347 129.715 204.856 130.827 206.573C124.564 205.903 118.557 210.551 112.333 209.577C102.989 208.115 93.5376 207.342 84.0803 207.268C82.6366 207.257 81.147 207.271 79.8193 207.838C78.4916 208.405 77.3551 209.669 77.3872 211.112C77.4092 212.103 75.96 212.41 75.0693 211.974C74.1785 211.539 73.4506 210.713 72.4676 210.583C71.4809 210.454 70.572 211.064 69.6459 211.429C68.7198 211.793 67.4188 211.778 67.002 210.874Z" fill="black"/>
<path d="M27.1059 39.4642C34.3217 39.4082 41.5375 39.3523 48.7533 39.2963C63.3395 39.1832 77.9258 39.0701 92.5121 38.957C96.2506 38.928 99.6531 34.5173 103.008 36.1664C99.6865 40.4547 93.4702 40.8496 88.0458 40.8751C68.8234 40.9655 49.601 41.0559 30.3786 41.1463C27.6176 41.1593 25.4468 44.4642 26.5316 47.0032C24.5618 44.9518 24.8481 41.1935 27.1059 39.4642V39.4642Z" fill="black"/>
<path d="M103.408 38.8116C123.734 38.5767 144.06 38.3418 164.386 38.1069C164.856 38.1014 165.353 38.0882 165.749 37.8363C166.345 37.4579 166.518 36.6813 166.915 36.098C167.312 35.5148 168.339 35.2058 168.636 35.846C168.864 37.3157 167.763 38.7315 166.416 39.3619C165.069 39.9923 163.528 40.017 162.041 40.0301C141.3 40.213 120.56 40.3959 99.8186 40.5788C100.105 39.1582 101.958 38.8284 103.408 38.8116V38.8116Z" fill="black"/>
<path d="M84.4602 192.297C103.53 192.115 122.6 191.934 141.669 191.752C142.967 191.74 144.623 191.989 144.934 193.248C120.508 193.937 96.0679 194.078 71.6365 193.673C75.7567 192.39 80.1448 192.338 84.4602 192.297Z" fill="black"/>
<path d="M107.997 33.7917C113.054 33.8436 118.077 31.3887 121.142 27.3664C122.297 28.5333 121.829 30.5634 120.815 31.8542C118.302 35.0537 113.705 35.4917 109.64 35.6702C108.342 35.7272 106.72 35.5896 106.232 34.3855C105.687 33.0435 107.058 31.7581 108.231 30.9089C109.404 30.0596 110.67 28.5925 109.916 27.3558C113.217 26.4385 116.551 25.6427 119.91 24.9705C120.636 25.5182 119.768 26.6156 118.953 27.0189C115.035 28.9576 110.196 30.0128 107.997 33.7917V33.7917Z" fill="black"/>
<path d="M15.7786 121.493C16.2809 122.714 16.1453 124.178 15.4272 125.287C14.1945 124.995 13.2732 123.727 13.3769 122.464C13.4805 121.201 14.5964 120.1 15.8602 120.013C15.3482 112.451 20.9945 104.709 18.0317 97.7327C17.3351 96.0925 16.2614 94.002 17.5505 92.7717C22.046 99.4312 20.7214 108.403 18.0564 115.983C17.7199 116.94 17.453 118.21 18.2801 118.798C19.3117 117.405 20.3433 116.013 21.3749 114.62C22.3829 116.045 21.7682 118.143 20.4904 119.333C19.2126 120.522 17.4606 121.026 15.7786 121.493Z" fill="black"/>
<path d="M174.995 32.6292C174.571 34.0343 172.611 34.1717 171.208 33.7408C169.805 33.3098 168.261 32.6027 166.956 33.2736C162.835 35.3914 157.885 34.5778 153.333 33.7129C149.65 33.0132 145.967 32.3134 142.284 31.6137C142.238 30.2088 144.235 29.8764 145.622 30.1027C152.127 31.1637 158.768 33.5212 165.134 31.8144C166.888 31.344 168.579 30.5688 170.39 30.4236C172.2 30.2784 174.258 30.9691 174.995 32.6292Z" fill="black"/>
<path d="M19.7615 160.176C19.8518 159.604 20.1619 159.093 20.3329 158.54C21.3324 155.311 17.4931 151.682 19.2019 148.764C19.7354 148.061 20.6935 147.71 21.5549 147.901C21.0036 149.121 21.1568 150.528 21.321 151.856C21.74 155.245 22.1591 158.635 22.5781 162.025C22.7934 163.766 22.9897 165.627 22.2009 167.194C21.4121 168.761 19.2226 169.741 17.8402 168.66C16.6051 167.695 14.6809 168.364 13.7157 169.599C12.7505 170.834 12.4562 172.444 12.0496 173.958C11.7233 175.173 10.3705 176.618 9.51855 175.692C11.4625 170.499 13.8696 165.478 16.7022 160.711C16.8545 161.648 17.0069 162.584 17.1592 163.521C17.3204 164.512 17.5015 165.549 18.1223 166.338C18.7431 167.127 19.9562 167.546 20.7774 166.969C21.7867 166.26 21.5431 164.687 20.968 163.596C20.3929 162.505 19.5689 161.394 19.7615 160.176Z" fill="black"/>
<path d="M175.796 143.136C175.832 141.498 176.09 139.874 176.347 138.256C177.237 132.662 178.127 127.069 179.016 121.476C179.216 120.218 179.767 118.636 181.041 118.625C179.901 128.274 178.761 137.924 177.621 147.573C178.492 147.157 179.511 148.203 179.375 149.159C179.24 150.115 178.375 150.806 177.486 151.181C176.318 148.676 175.735 145.9 175.796 143.136Z" fill="black"/>
<path d="M178.062 50.2763C177.696 50.3436 177.331 50.4108 176.965 50.4781C176.048 46.8037 175.811 42.9603 176.271 39.201C176.604 36.48 176.937 33.7591 177.269 31.0381C177.748 27.1312 177.771 22.2625 174.334 20.3443C176.196 20.6103 177.892 21.849 178.712 23.5423C179.571 25.3163 179.469 27.3847 179.348 29.352C179.042 34.3203 178.737 39.2886 178.432 44.2569C178.308 46.2634 178.185 48.2699 178.062 50.2763Z" fill="black"/>
<path d="M11.1357 33.5006C11.0563 34.3414 10.977 35.1821 10.8976 36.0229C10.5194 40.0282 10.1413 44.0334 9.76317 48.0387C9.18599 54.1523 8.6088 60.2659 8.03162 66.3795C6.6358 63.4135 6.19897 60.0052 6.80167 56.783C7.05431 55.4324 7.47618 53.9944 6.93801 52.7301C5.53369 49.431 9.05966 46.0901 9.33647 42.5152C9.46641 40.837 8.861 39.1878 8.79336 37.5059C8.72573 35.8241 9.48967 33.8524 11.1357 33.5006V33.5006Z" fill="black"/>
<path d="M7.69163 195.538C8.96129 194.101 10.9696 192.541 12.5661 193.604C11.3605 196.084 6.77371 195.742 6.24245 198.448C6.07192 199.317 6.43932 200.199 6.44487 201.084C6.45041 201.969 5.76447 203.016 4.91041 202.783C4.57411 199.865 4.71789 196.893 5.33421 194.021C5.6855 192.384 6.21781 190.728 7.32124 189.469C8.42466 188.21 10.2146 187.434 11.813 187.932C13.4114 188.43 14.4679 190.466 13.6236 191.911C11.2337 190.174 7.23441 192.62 7.69163 195.538Z" fill="black"/>
<path d="M29.3996 149.481C29.3099 161.045 29.2201 172.609 29.1304 184.173C29.1239 185.009 28.5334 186.199 27.8336 185.741C27.6909 173.291 27.8128 160.839 28.1992 148.394C28.5036 147.692 29.4055 148.716 29.3996 149.481V149.481Z" fill="black"/>
<path d="M11.2914 71.2095C11.1057 69.5946 12.5384 68.3257 13.5826 67.0799C14.6268 65.8341 15.2098 63.6401 13.8076 62.8177C15.3822 62.9326 16.7559 64.3449 16.8271 65.9221C17.6722 66.0749 17.5704 64.6863 17.2874 63.8756C16.5207 61.6793 17.9381 58.9812 20.1815 58.3661C19.8445 60.1105 19.5075 61.8549 19.1705 63.5993C18.9876 64.5456 18.7864 65.533 18.1833 66.2848C17.5803 67.0366 16.441 67.453 15.6249 66.9404C14.5741 69.2741 13.5233 71.6078 12.4725 73.9415C11.9031 75.2062 11.3337 76.4708 10.7735 77.7396C10.0118 78.3825 8.77244 77.4488 8.7585 76.4521C8.74457 75.4554 9.44845 74.613 10.0945 73.8539C10.7405 73.0948 11.4052 72.1998 11.2914 71.2095Z" fill="black"/>
<path d="M19.4829 123.204C18.9402 126.196 17.8205 129.082 16.2035 131.657C17.4148 132.039 18.0342 133.471 17.9137 134.736C17.7933 136 17.1143 137.133 16.4523 138.217C15.4753 139.817 14.2811 141.571 12.4342 141.892C11.3025 139.273 10.3433 135.789 12.5088 133.933C15.7995 131.112 15.7143 125.345 19.4829 123.204ZM14.3954 133.816C13.9218 134.712 13.4482 135.609 12.9747 136.505C12.5226 137.36 12.3024 138.775 13.2491 138.975C14.7409 138.029 15.7239 136.327 15.7971 134.562C15.8236 133.923 15.3736 133.053 14.7989 133.333C14.6069 133.427 14.4951 133.627 14.3954 133.816Z" fill="black"/>
<path d="M23.3757 202.624C24.2502 202.964 25.3199 203.279 26.0564 202.698C29.7465 199.786 35.0033 199 39.384 200.704C37.7584 203.355 33.3958 201.515 30.6951 203.056C29.0656 203.986 27.6546 206.213 25.9302 205.474C23.5801 204.467 21.23 203.459 18.8799 202.452C18.9585 201.8 19.6606 201.296 20.3034 201.43C21.3275 201.828 22.3516 202.226 23.3757 202.624Z" fill="black"/>
<path d="M157.785 27.1189C156.597 25.7492 156.108 23.8033 156.506 22.0344C158.5 22.949 160.197 24.9929 159.861 27.1608C159.526 29.3286 156.374 30.6963 154.974 29.0075C154.296 28.1889 153.059 28.1636 152.006 28.3155C150.954 28.4674 149.821 28.7155 148.873 28.2354C147.924 27.7553 147.577 26.1406 148.544 25.6997C149.784 26.5375 151.328 26.9136 152.815 26.7396C151.989 25.8824 151.135 24.979 150.795 23.8383C150.455 22.6975 150.815 21.2528 151.897 20.7576C152.918 22.0245 153.145 23.7431 153.875 25.197C154.605 26.651 156.366 27.9145 157.785 27.1189Z" fill="black"/>
<path d="M17.0218 89.6944C15.7827 90.4705 13.8981 89.8054 13.4206 88.4235C9.84061 90.1666 7.48512 94.159 7.69056 98.1355C7.76416 99.5599 7.59348 101.637 6.16868 101.571C5.6209 97.3048 6.42681 92.875 8.44203 89.0751C9.11204 87.8117 9.98595 86.5529 11.3007 85.9903C12.6154 85.4277 14.4409 85.8744 14.9283 87.2189C15.3045 88.2564 16.0611 89.1511 17.0218 89.6944V89.6944Z" fill="black"/>
<path d="M93.0319 32.9539C92.9693 32.7035 92.9068 32.4531 92.8443 32.2026C92.5651 31.0845 92.2678 29.9286 91.5502 29.0269C90.8327 28.1251 89.5699 27.5485 88.5013 27.9799C88.1374 27.8913 88.1516 27.3044 88.457 27.0876C88.7624 26.8708 89.1749 26.9154 89.5456 26.9694C95.0347 27.7681 100.524 28.5669 106.013 29.3657C106.064 30.279 104.897 30.7819 103.992 30.6435C103.088 30.5051 102.24 30.0097 101.326 30.046C98.3005 30.166 98.1806 35.1414 95.4825 36.515C94.54 34.1705 95.7485 31.1859 98.0565 30.1575C97.2271 29.4103 95.8628 29.5916 94.9685 30.2598C94.0742 30.928 93.5382 31.959 93.0319 32.9539Z" fill="black"/>
<path d="M4.95664 209.421C6.02502 207.863 8.37219 208.392 10.2611 208.43C12.8034 208.481 15.1852 207.316 17.5985 206.514C20.0119 205.713 22.8482 205.32 24.95 206.752C18.7964 209.475 12.0717 210.899 5.34241 210.905C4.71258 210.905 4.60047 209.94 4.95664 209.421Z" fill="black"/>
<path d="M7.45042 146.621C8.33789 148.764 7.902 151.19 7.6161 153.491C7.00576 158.403 7.15284 163.409 8.05055 168.277C6.16515 168.049 5.65858 165.582 5.62885 163.683C5.55859 159.195 5.48833 154.706 5.41807 150.217C5.39377 148.665 5.89959 146.555 7.45042 146.621H7.45042Z" fill="black"/>
<path d="M109.389 11.0003C110.081 11.7956 110.804 12.6554 110.944 13.7006C111.083 14.7458 110.341 15.9739 109.288 15.9238C109.865 13.0595 106.681 10.1754 103.887 11.0326C101.981 10.2066 103.473 6.79172 101.899 5.43515C101.053 4.70604 99.4513 4.71814 99.2263 3.62416C99.0471 2.75211 100.121 2.04686 100.994 2.2215C101.867 2.39615 102.517 3.10681 103.101 3.77828C105.197 6.18562 107.293 8.59296 109.389 11.0003Z" fill="black"/>
<path d="M20.382 175.427C17.8602 178.219 16.5664 182.083 16.8983 185.831C17.0404 187.435 16.8296 189.798 15.2234 189.689C13.7522 182.906 16.2631 175.409 21.5224 170.88C22.2697 171.376 22.3668 172.483 22.0155 173.308C21.6642 174.133 20.983 174.761 20.382 175.427L20.382 175.427Z" fill="black"/>
<path d="M5.48347 206.614C4.7642 204.892 6.5669 203.125 8.34276 202.551C10.1186 201.977 12.1639 201.899 13.5429 200.641C15.2955 199.043 15.189 196.327 15.6488 194C17.6676 195.052 18.1174 197.957 17.0786 199.983C16.0399 202.008 13.945 203.273 11.831 204.117C9.71711 204.962 7.46943 205.502 5.48347 206.614Z" fill="black"/>
<path d="M32.4382 33.9033C29.923 32.6779 26.3965 31.6678 24.7472 33.9278C24.3429 33.4035 23.9387 32.8792 23.5344 32.355C24.5991 32.7486 25.6191 31.2372 25.1054 30.2249C24.5918 29.2127 23.2133 28.9187 22.1281 29.2516C21.6654 29.3936 21.3529 28.6552 21.6408 28.2662C21.9288 27.8771 22.4689 27.798 22.9506 27.7505C26.1388 27.436 29.327 27.1215 32.5152 26.8069C32.8898 26.77 33.2865 26.7366 33.6258 26.8997C34.6152 27.3755 34.1339 29.053 33.1053 29.4367C32.0767 29.8204 30.9462 29.4053 29.89 29.1055C28.8339 28.8058 27.5481 28.6779 26.7774 29.4598C27.1073 30.7919 28.8489 31.0217 30.2019 31.252C31.5548 31.4823 33.1646 32.7389 32.4382 33.9033Z" fill="black"/>
<path d="M22.3076 69.3672C23.5602 69.6924 22.9888 71.5787 22.2527 72.643C19.0605 77.2582 17.6552 83.0766 18.3889 88.64C15.859 87.462 15.7172 83.916 16.3599 81.2002C17.3858 76.8651 19.4407 72.777 22.3076 69.3672Z" fill="black"/>
<path d="M57.7702 197.353C60.4044 197.189 63.0747 197.641 65.5084 198.662C63.9861 199.736 61.8098 199.782 60.2432 198.774C58.2781 201.845 53.8424 203.019 50.6153 201.323C49.4408 200.705 48.0626 201.477 46.7906 201.855C45.5187 202.233 43.6164 201.647 43.8415 200.339C48.5006 199.842 53.1823 199.556 57.8673 199.483C57.8349 198.773 57.8026 198.063 57.7702 197.353Z" fill="black"/>
<path d="M160.193 209.556C160.617 208.598 161.361 207.786 162.278 207.279C163.294 208.703 165.276 208.953 167.024 209.045C171.957 209.306 176.905 209.309 181.839 209.054C181.888 208.052 181.937 207.049 181.986 206.047C183.436 206.726 183.192 209.075 181.917 210.043C180.642 211.01 178.9 210.996 177.301 210.938C173.127 210.789 168.954 210.639 164.78 210.49C163.204 210.433 161.553 210.356 160.193 209.556Z" fill="black"/>
<path d="M141.524 29.7416C140.419 31.0908 138.234 30.3631 136.791 29.3837C135.349 28.4043 133.583 27.2179 132.02 27.9915C128.525 29.7218 124.385 27.9672 120.894 26.2278C123.052 24.2562 126.427 27.227 129.308 26.7345C130.604 26.513 131.738 25.5756 133.053 25.5676C133.986 25.5619 134.848 26.0281 135.663 26.4816C137.617 27.5683 139.57 28.6549 141.524 29.7416Z" fill="black"/>
<path d="M132.552 202.045C131.387 201.115 130.223 200.186 129.059 199.256C133.758 201.356 139.492 197.959 144.291 199.82C141.182 201.788 137.374 202.627 133.725 202.147C133.593 203.34 132.527 204.36 131.329 204.44C130.131 204.519 128.94 203.647 128.652 202.482C129.952 202.336 131.252 202.19 132.552 202.045Z" fill="black"/>
<path d="M24.6254 173.958C26.6294 179.605 23.6873 186.105 25.6584 191.763C26.7149 194.797 23.5803 198.392 20.4314 197.758C23.1003 195.478 24.5181 191.816 24.0805 188.333C23.4799 183.554 23.6648 178.677 24.6254 173.958V173.958Z" fill="black"/>
<path d="M42.6342 208.694C41.5621 207.49 40.49 206.287 39.4179 205.083C38.299 203.827 40.0729 202.076 41.5911 201.352C41.2534 203.74 42.3054 206.274 44.2349 207.721C47.4988 208.294 50.7395 208.998 53.9464 209.833C52.6986 211.436 50.2533 211.478 48.3246 210.84C46.3958 210.201 44.6359 209.042 42.6342 208.694Z" fill="black"/>
<path d="M174.769 139.442C174.346 141.84 173.811 144.442 171.947 146.01C170.934 146.862 169.537 147.31 168.25 147C167.295 145.105 167.597 142.648 168.982 141.041C170.368 139.435 172.754 138.775 174.769 139.442V139.442ZM169.709 142.631C169.922 143.206 169.705 143.911 169.206 144.268C169.58 144.723 170.12 145.037 170.7 145.138C171.095 144.293 171.49 143.448 171.886 142.603C171.579 141.754 170.098 141.782 169.823 142.642L169.709 142.631Z" fill="black"/>
<path d="M177.177 78.52C176.672 78.2077 176.168 77.8954 175.663 77.583C173.786 79.4845 171.751 82.0196 172.653 84.5347C172.976 85.4359 171.43 86.0372 170.751 85.3623C170.071 84.6875 170.169 83.5688 170.429 82.6474C170.689 81.726 171.066 80.7581 170.788 79.8418C172.532 79.9603 172.727 77.2361 174.038 76.0787C175.201 75.0507 177.031 75.4733 178.486 74.9294C179.337 74.6108 180.045 73.9618 180.919 73.7102C181.792 73.4585 182.99 73.8836 183.018 74.7924C180.618 74.9705 178.349 76.4185 177.177 78.52Z" fill="black"/>
<path d="M9.39451 132.965C9.52648 133.989 9.57006 135.231 8.72795 135.829C7.67436 136.577 8.7279 138.133 9.3074 139.288C10.2448 141.157 9.43719 143.703 7.59421 144.69C7.88124 142.958 7.48037 141.123 6.49781 139.669C6.07092 139.037 5.52975 138.456 5.31798 137.724C5.1062 136.991 5.38848 136.032 6.12629 135.841C7.67855 135.437 7.93238 133.348 7.72751 131.758C7.52265 130.167 7.33571 128.202 8.66534 127.305C8.9084 129.191 9.15145 131.078 9.39451 132.965Z" fill="black"/>
<path d="M93.4417 14.3297C93.5612 11.3756 95.0493 8.5049 97.3942 6.70433C96.456 5.95876 95.494 5.18569 94.9099 4.13924C94.3259 3.09279 94.2068 1.69286 94.9432 0.747494C95.6797 -0.197871 97.3893 -0.296139 97.9934 0.738858C96.5559 0.720851 95.8865 2.76891 96.6136 4.00899C97.3407 5.24906 98.8082 5.8106 100.165 6.28448C97.9241 8.96623 95.6829 11.648 93.4417 14.3297Z" fill="black"/>
<path d="M175.689 36.1282C174.837 38.1458 173.985 40.1633 173.134 42.1808C172.893 42.7514 172.641 43.338 172.2 43.7723C171.021 44.9326 169.081 44.5627 167.489 44.113C167.574 43.0793 168.921 42.7948 169.949 42.6527C170.976 42.5106 172.266 41.7069 171.825 40.7681C170.964 40.4807 170.102 40.1934 169.241 39.906C170.537 37.6436 173.082 36.1525 175.689 36.1282V36.1282Z" fill="black"/>
<path d="M13.4354 107.212C13.4735 106.508 13.3349 105.749 13.6857 105.138C13.9396 104.696 14.4431 104.408 14.9531 104.415C16.1609 106.908 15.5544 110.156 13.5282 112.046C11.502 113.935 8.21942 114.314 5.81641 112.935C9.16195 112.195 13.2499 110.633 13.4354 107.212V107.212Z" fill="black"/>
<path d="M79.7016 37.4541C74.3127 37.5225 68.9239 37.5909 63.535 37.6594C62.7493 37.6693 61.6328 37.2484 61.9168 36.5157C68.3242 35.9794 74.7663 35.8572 81.1895 36.1503C81.7026 36.7997 80.5293 37.4436 79.7016 37.4541V37.4541Z" fill="black"/>
<path d="M11.9775 132.441C10.4142 131.389 11.3091 128.865 10.5021 127.162C9.42846 124.897 5.41269 124.069 5.98556 121.628C8.43591 122.219 11.1656 123.016 12.3673 125.231C13.5501 127.412 12.7746 130.092 11.9775 132.441V132.441Z" fill="black"/>
<path d="M168.208 53.8816C169.871 51.4625 171.534 49.0434 173.197 46.6242C173.492 46.1957 174.248 45.8154 174.393 46.3148C173.538 50.8254 170.944 54.9834 167.268 57.7339C166.601 56.5083 167.417 55.0315 168.208 53.8816V53.8816Z" fill="black"/>
<path d="M17.0637 26.6994C15.5226 27.0422 14.2691 28.4217 14.0753 29.9886C13.8997 31.4079 14.5163 32.803 14.5967 34.2308C14.6771 35.6586 13.8089 37.3935 12.3815 37.3063C13.1252 33.489 12.6544 29.4445 11.0537 25.9001C13.0571 26.1665 15.0604 26.433 17.0637 26.6994Z" fill="black"/>
<path d="M176.181 64.7272C177.868 63.3074 180.728 62.3776 182.03 64.1572C180.151 64.8104 178.197 65.5114 176.827 66.953C175.457 68.3946 174.897 70.8164 176.131 72.3766C174.48 72.3032 173.354 70.4334 173.557 68.7936C173.76 67.1538 174.917 65.7911 176.181 64.7272Z" fill="black"/>
<path d="M182.146 76.5677C182.316 79.2154 181.066 81.9126 178.937 83.4954C177.854 84.3004 176.489 84.9214 175.985 86.173C175.534 86.6016 174.725 86.0738 174.677 85.4539C174.63 84.8341 175.042 84.2834 175.438 83.8038C177.532 81.2652 179.773 78.8478 182.146 76.5677Z" fill="black"/>
<path d="M182.245 179.345C182.271 181.868 181.186 184.382 179.331 186.093C178.079 187.247 176.533 188.023 175.007 188.779C174.384 188.16 174.99 187.127 175.589 186.485C177.808 184.105 180.026 181.725 182.245 179.345Z" fill="black"/>
<path d="M176.595 97.3742C175.968 100.039 175.34 102.704 174.712 105.368C174.392 106.726 173.017 108.446 172.027 107.464C172.513 103.449 173.881 99.543 176.005 96.1013C176.51 96.2545 176.805 96.8896 176.595 97.3742Z" fill="black"/>
<path d="M176.508 170.165C176.015 170.759 175.561 171.411 175.367 172.158C175.11 173.148 175.335 174.193 175.561 175.191C173.672 173.602 173.201 170.572 174.519 168.484C175.837 166.396 178.774 165.517 181.022 166.538C179.295 167.429 177.75 168.67 176.508 170.165V170.165Z" fill="black"/>
<path d="M31.8894 36.0039C34.5407 35.7745 37.1919 35.5452 39.8432 35.3159C41.1735 35.2008 42.4879 35.6049 43.7622 36.0042C45.2776 36.4792 46.7931 36.9541 48.3086 37.4291C44.567 37.3572 40.8253 37.2852 37.0837 37.2133C35.2745 37.1785 33.33 37.099 31.8894 36.0039V36.0039Z" fill="black"/>
<path d="M173.08 199.95C173.47 200.911 171.613 201.36 171.065 200.48C170.516 199.6 170.891 198.469 171.138 197.462C171.667 195.309 171.514 192.995 170.708 190.931C171.863 190.373 172.883 191.977 172.977 193.256C173.07 194.536 173.104 196.164 174.298 196.632C174.936 196.883 174.583 197.874 174.054 198.309C173.524 198.745 172.822 199.315 173.08 199.95V199.95Z" fill="black"/>
<path d="M151.14 209.874C150.194 209.626 149.248 209.378 148.302 209.129C146.655 208.697 145.837 206.652 146.277 205.008C147.288 205.265 148.151 205.9 149.026 206.468C151.385 207.999 154.013 209.114 156.753 209.748C155.144 210.816 153.009 210.365 151.14 209.874Z" fill="black"/>
<path d="M45.0482 195.759C45.9144 195.453 46.8047 195.142 47.7232 195.165C49.6483 195.214 51.2973 196.704 53.2192 196.824C48.6809 197.664 44.045 197.974 39.4353 197.747C41.3063 197.084 43.1772 196.422 45.0482 195.759V195.759Z" fill="black"/>
<path d="M22.2987 129.929C22.2264 132.735 22.1541 135.541 22.0818 138.347C22.0292 140.384 21.6271 142.915 19.6817 143.523C18.5952 143.863 17.3031 143.331 16.7708 142.325C18.4222 142.903 20.1013 141.246 20.4785 139.537C20.8558 137.829 20.4403 136.046 20.5839 134.302C20.7143 132.719 21.3185 131.178 22.2987 129.929V129.929Z" fill="black"/>
<path d="M14.7459 41.5606C13.9922 41.8776 13.1399 41.1194 13.0383 40.3081C12.9368 39.4968 13.3338 38.7155 13.7188 37.9942C15.848 37.8288 17.5554 35.557 17.1222 33.4658C16.9206 32.4926 16.3401 31.6195 16.2108 30.6341C16.0815 29.6487 16.7219 28.4237 17.7108 28.5231C19.5788 31.8744 18.5882 36.5372 15.5191 38.8396C15.0331 39.2042 14.4826 39.5393 14.2131 40.0838C13.9436 40.6284 14.1473 41.4563 14.7459 41.5606H14.7459Z" fill="black"/>
<path d="M98.9936 200.399C99.9939 200.047 100.994 199.695 101.995 199.343C103.013 198.985 104.285 198.677 105.056 199.432C103.215 201.814 100.393 203.413 97.4034 203.768C96.5962 203.549 96.4203 202.376 96.8912 201.685C97.3621 200.994 98.2046 200.676 98.9936 200.399V200.399Z" fill="black"/>
<path d="M22.0289 45.5649C22.7923 48.5091 22.989 51.5991 22.605 54.6162C20.324 51.7132 19.4427 47.7583 20.2753 44.1614C20.9984 43.6481 21.8064 44.7065 22.0289 45.5649H22.0289Z" fill="black"/>
<path d="M72.4836 200.045C74.6258 199.465 76.768 198.886 78.9101 198.306C78.7185 199.284 78.0694 200.163 77.1906 200.633C78.9147 200.972 80.6387 201.312 82.3628 201.651C81.3656 202.856 79.6017 203.191 78.0683 202.881C76.5349 202.571 75.1713 201.726 73.8451 200.897C73.3912 200.613 72.9374 200.329 72.4836 200.045V200.045Z" fill="black"/>
<path d="M62.2212 211.724C60.8894 211.778 59.5306 211.83 58.2492 211.462C56.5303 210.97 55.0497 209.703 54.2981 208.08C57.7265 208.887 61.1549 209.694 64.5832 210.501C64.3946 211.442 63.1807 211.685 62.2212 211.724V211.724Z" fill="black"/>
<path d="M151.836 36.3221C148.663 36.192 145.49 36.0618 142.318 35.9316C140.94 35.8751 139.156 35.4561 139.038 34.0827C143.395 33.4063 147.967 34.2064 151.836 36.3221Z" fill="black"/>
<path d="M7.32335 83.564C5.97292 82.6452 6.35925 80.1508 7.92437 79.6835C8.3639 81.1695 10.9038 79.9569 12.1133 80.9257C12.8476 81.5137 12.7358 82.735 12.1335 83.4575C11.5311 84.1801 10.6027 84.5284 9.71774 84.8471C8.94965 85.1237 8.02513 85.3802 7.37508 84.8863C8.51583 84.1009 9.56412 83.1813 10.4914 82.1526C9.30653 81.5823 7.69175 82.3017 7.32335 83.564Z" fill="black"/>
<path d="M103.378 211.923C100.641 211.795 97.904 211.666 95.1667 211.537C94.4677 211.504 93.4992 211.083 93.7746 210.44C98.6617 210.138 103.576 210.269 108.44 210.834C107.123 212.022 105.15 212.006 103.378 211.923V211.923Z" fill="black"/>
<path d="M19.751 211.727C23.0682 210.756 26.3853 209.786 29.7025 208.816C30.2293 208.661 30.989 208.627 31.1295 209.158C31.2504 209.614 30.7506 209.974 30.3265 210.182C26.9988 211.813 23.0323 213.449 19.751 211.727H19.751Z" fill="black"/>
<path d="M182.189 176.376C180.277 178.52 177.776 180.133 175.034 180.989C174.674 181.48 174.315 181.971 173.955 182.462C173.096 182.254 172.799 181.075 173.192 180.282C173.584 179.49 174.411 179.02 175.208 178.637C177.419 177.574 179.774 176.811 182.189 176.376Z" fill="black"/>
<path d="M175.256 62.8559C174.25 63.857 173.243 64.8582 172.236 65.8593C170.917 65.5357 171.664 63.501 172.695 62.6145C173.808 61.6565 174.987 60.7754 176.222 59.9797C176.845 59.5781 177.532 59.1848 178.272 59.2193C179.013 59.2539 179.767 59.9096 179.624 60.637C178.139 61.3113 176.653 61.9856 175.168 62.6599L175.256 62.8559Z" fill="black"/>
<path d="M134.83 218.224C140.304 217.344 145.919 217.343 151.393 218.222C145.928 219.18 140.296 219.181 134.83 218.224V218.224Z" fill="black"/>
<path d="M174.114 136.345C172.3 136.689 170.487 137.033 168.673 137.378C168.719 135.807 170.487 134.541 171.989 135.005C173.062 135.336 173.81 133.899 173.836 132.777C173.862 131.655 173.787 130.268 174.761 129.71C175.033 131.089 175.306 132.469 175.579 133.848C175.714 134.532 175.817 135.337 175.333 135.84C175.023 136.162 174.553 136.261 174.114 136.345V136.345Z" fill="black"/>
<path d="M6.42479 181.153C6.67452 182.259 8.2923 182.225 9.1692 182.943C10.6228 184.134 8.99329 186.771 7.11544 186.702C6.75738 185.478 6.39933 184.255 6.04127 183.031C5.51578 181.236 5.04947 179.105 6.22659 177.651C6.83018 177.169 7.50401 178.314 7.2119 179.029C6.91979 179.744 6.25466 180.4 6.42479 181.153Z" fill="black"/>
<path d="M171.932 87.3916C172.45 89.2527 172.968 91.1138 173.486 92.9749C173.901 94.4674 173.797 96.736 172.248 96.7837C171.273 93.8084 170.711 90.6983 170.583 87.57C171.032 87.5105 171.482 87.4511 171.932 87.3916Z" fill="black"/>
<path d="M78.0022 26.7096C79.2947 26.9255 80.672 26.5717 81.7004 25.7595C83.037 24.7039 84.1605 22.8031 85.834 23.1197C85.1095 26.3242 81.9957 28.8198 78.7103 28.829C78.4742 28.1225 78.2382 27.416 78.0022 26.7096V26.7096Z" fill="black"/>
<path d="M119.997 36.4003C121.832 34.8915 124.506 34.4802 126.71 35.3675C128.366 36.0342 130.464 35.2793 131.315 33.7104C131.839 34.4914 131.39 35.624 130.61 36.1487C129.83 36.6735 128.839 36.7461 127.899 36.7757C125.261 36.8589 122.616 36.7332 119.997 36.4003Z" fill="black"/>
<path d="M179.579 162.803C179.476 163.415 178.766 163.678 178.179 163.878C175.81 164.685 173.727 166.308 172.365 168.407C172.326 165.404 174.519 162.512 177.422 161.741C178.348 161.496 179.739 161.859 179.579 162.803V162.803Z" fill="black"/>
<path d="M167.276 127.491C166.953 125.867 166.632 124.173 167.062 122.573C167.493 120.974 168.919 119.512 170.572 119.625C171.449 119.685 172.334 120.28 172.496 121.145C172.421 122 171.109 121.365 170.252 121.324C168.987 121.264 168.505 122.958 168.55 124.224C168.594 125.49 168.493 127.142 167.276 127.491V127.491Z" fill="black"/>
<path d="M179.69 115.545C177.931 117.844 176.171 120.143 174.412 122.442C173.036 119.211 176.212 115.062 179.69 115.545V115.545Z" fill="black"/>
<path d="M73.6647 25.9197C73.8116 25.6228 73.9618 25.321 74.1896 25.0805C75.1335 24.084 77.1801 25.0142 77.0501 26.3806C75.5778 28.3126 73.5635 29.827 71.2986 30.7047C72.0873 29.1097 72.876 27.5147 73.6647 25.9197Z" fill="black"/>
<path d="M22.5489 89.437C23.0165 90.2898 22.0753 91.2056 21.796 92.1372C21.415 93.408 22.3109 94.6591 22.8979 95.8488C23.4849 97.0386 23.548 98.8633 22.2983 99.3087C21.6616 97.05 21.0249 94.7914 20.3882 92.5328C20.1342 91.6317 19.8872 90.6328 20.2978 89.7915C20.7083 88.9501 22.0989 88.6161 22.5489 89.437V89.437Z" fill="black"/>
<path d="M61.7839 206.453C62.0037 206.849 62.2311 207.288 62.1457 207.734C62.0751 208.102 61.774 208.416 61.4088 208.501C59.9363 206.558 57.8399 204.383 55.4885 205.027C55.3344 203.511 57.3714 202.56 58.7865 203.126C60.2016 203.692 61.0448 205.12 61.7839 206.453Z" fill="black"/>
<path d="M92.3954 199.67C93.1256 200.132 93.6329 200.931 93.7411 201.789C92.9858 201.717 92.2772 201.26 91.9015 200.601C91.5131 201.139 91.1247 201.677 90.7363 202.215C90.3861 202.869 89.5714 201.845 89.5909 201.104C89.6287 199.668 89.6665 198.233 89.7043 196.797C90.6481 196.799 91.5918 196.8 92.5356 196.801C92.4311 197.706 92.3266 198.61 92.2221 199.515L92.3954 199.67Z" fill="black"/>
<path d="M11.4144 107.27C10.8233 108.202 10.2322 109.134 9.64113 110.066C9.10366 110.914 7.62204 110.347 7.36627 109.376C7.11051 108.406 7.62622 107.415 8.13318 106.549C8.55693 105.825 9.02457 105.069 9.77051 104.685C10.5165 104.301 11.6164 104.482 11.9304 105.26C12.2 105.927 11.8 106.662 11.4144 107.27Z" fill="black"/>
<path d="M172.282 107.994C173.405 108.812 173.864 110.428 173.34 111.715C171.405 110.188 169.47 108.662 167.535 107.136C167.385 106.138 168.993 105.928 169.83 106.492C170.667 107.056 171.497 107.98 172.474 107.729L172.282 107.994Z" fill="black"/>
<path d="M15.2716 150.854C13.4695 149.944 12.0567 148.291 11.438 146.37C11.163 145.516 11.0453 144.565 11.383 143.734C11.5999 143.369 12.1797 143.298 12.4784 143.599C13.8942 145.791 14.8516 148.278 15.2716 150.854Z" fill="black"/>
<path d="M165.045 204.155C166.421 204.407 166.76 206.677 165.517 207.32C164.475 205.312 162.339 203.918 160.082 203.773C159.663 202.708 161.061 201.662 162.174 201.93C163.286 202.199 164.036 203.208 164.688 204.149L165.045 204.155Z" fill="black"/>
<path d="M20.1941 193.946C19.6999 194.286 18.9729 193.903 18.74 193.35C18.5071 192.797 18.6186 192.167 18.7337 191.578C19.1888 189.25 19.6439 186.922 20.0991 184.594C21.1418 187.261 21.3478 190.249 20.681 193.035C20.599 193.378 20.4846 193.746 20.1941 193.946Z" fill="black"/>
<path d="M117.672 201.571C118.423 200.208 119.174 198.844 119.925 197.48C120.32 196.762 120.715 196.044 121.11 195.326C122.056 195.236 122.23 196.646 122.017 197.572C121.759 198.695 121.48 199.863 120.745 200.75C120.01 201.638 118.674 202.141 117.672 201.571V201.571Z" fill="black"/>
<path d="M174.58 149.704C173.742 151.388 172.904 153.073 172.066 154.757C171.985 154.919 171.902 155.086 171.767 155.206C171.314 155.612 170.525 155.246 170.311 154.678C170.096 154.11 170.278 153.474 170.494 152.906C171.13 151.232 172.057 149.668 173.22 148.306C173.673 148.772 174.127 149.238 174.58 149.704Z" fill="black"/>
<path d="M12.2651 153.439C13.3964 153.277 13.5045 155.106 12.9144 156.085C12.0445 157.528 10.7708 158.724 9.27647 159.502C9.08336 157.405 9.94754 155.237 11.5305 153.847C11.7441 153.66 11.9837 153.479 12.2651 153.439V153.439Z" fill="black"/>
<path d="M11.0301 102.108C10.199 102.303 9.36779 102.498 8.53662 102.694C9.41278 99.769 14.0461 99.0116 15.808 101.505C14.3707 102.257 12.6625 102.477 11.0816 102.114L11.0301 102.108Z" fill="black"/>
<path d="M37.7086 192.299C39.8167 192.314 41.9214 192.72 43.8835 193.491C41.5565 194.85 38.5464 194.961 36.1258 193.776C35.5168 193.088 36.7897 192.293 37.7086 192.299V192.299Z" fill="black"/>
<path d="M25.9079 63.3365C25.3847 65.426 23.346 67.0341 21.1921 67.0561C22.3895 65.0064 23.5869 62.9566 24.7843 60.9068C25.5199 61.4723 25.9534 62.4098 25.9079 63.3365V63.3365Z" fill="black"/>
<path d="M165.483 21.4393C167.662 21.037 169.944 21.2071 172.039 21.9281C170.818 24.4675 166.314 24.1317 165.483 21.4393V21.4393Z" fill="black"/>
<path d="M169.714 95.3088C169.557 97.6218 169.003 99.9074 168.083 102.035C167.758 102.785 167.339 103.566 166.603 103.92C166.147 100.775 167.353 97.4366 169.714 95.3088Z" fill="black"/>
<path d="M65.0543 193.668C61.7447 194.054 58.3731 193.905 55.1105 193.228C54.8323 193.17 54.7236 192.669 55.007 192.65C58.3395 191.822 61.9558 192.189 65.0543 193.668Z" fill="black"/>
<path d="M180.207 172.867C179.565 173.141 178.923 173.416 178.282 173.691C177.847 173.357 177.546 172.854 177.458 172.313C178.865 171.129 180.272 169.945 181.68 168.761C182.854 170.058 181.919 172.546 180.181 172.749L180.207 172.867Z" fill="black"/>
<path d="M116.716 196.845C117.315 196.55 118.18 197.092 118.061 197.749C116.423 197.987 116.87 201.047 115.3 201.572C114.103 201.972 113.116 200.233 113.647 199.087C114.177 197.942 115.469 197.396 116.65 196.949L116.716 196.845Z" fill="black"/>
<path d="M167.502 65.7144C168.464 68.1992 168.813 70.9185 168.509 73.5656C168.431 74.2459 167.766 75.1297 167.284 74.643C166.709 71.698 166.784 68.6279 167.502 65.7144Z" fill="black"/>
<path d="M15.4491 45.5348C15.7206 46.3451 15.992 47.1554 16.2635 47.9656C15.2649 48.5495 13.979 48.6107 12.9295 48.1244C13.3151 47.5343 13.7008 46.9442 14.0864 46.3542C13.6947 45.8734 13.1513 45.5181 12.5538 45.3519C12.1463 44.5018 12.8728 43.3443 13.8155 43.3417C14.3656 44.0709 14.9156 44.8001 15.4657 45.5293L15.4491 45.5348Z" fill="black"/>
<path d="M178.26 69.6937C179.552 68.9504 180.844 68.2071 182.136 67.4637C182.703 68.5061 182.499 69.9117 181.659 70.7497C180.819 71.5878 179.413 71.788 178.372 71.2176C177.873 70.9073 177.836 70.0729 178.305 69.7196L178.26 69.6937Z" fill="black"/>
<path d="M152.983 205.602C151.946 205.558 151.077 204.485 151.25 203.462C152.721 203.77 154.241 204.1 155.456 204.986C156.671 205.872 157.498 207.476 157.013 208.899C155.739 207.722 154.465 206.545 153.191 205.369L152.983 205.602Z" fill="black"/>
<path d="M92.6703 10.0835C91.3404 12.0249 90.0106 13.9664 88.6808 15.9079C87.3714 13.3491 89.8112 9.78716 92.6703 10.0835V10.0835Z" fill="black"/>
<path d="M83.7028 210.092C85.1663 209.839 86.8897 209.664 87.9287 210.725C84.8983 211.375 81.7848 211.638 78.6882 211.503C80.018 210.319 81.895 209.777 83.6514 210.069L83.7028 210.092Z" fill="black"/>
<path d="M167.402 161.054C166.23 159.753 166.151 157.602 167.224 156.219C167.412 155.977 167.637 155.752 167.921 155.638C168.92 155.236 169.928 156.517 169.717 157.573C169.506 158.629 168.595 159.378 167.742 160.036L167.402 161.054Z" fill="black"/>
<path d="M179.232 206.469C177.868 205.588 176.426 204.827 174.928 204.2C173.754 203.708 171.757 203.894 171.976 205.147C171.145 205.152 170.792 203.916 171.304 203.262C171.816 202.607 172.754 202.473 173.583 202.541C175.977 202.737 178.214 204.293 179.232 206.469V206.469Z" fill="black"/>
<path d="M138.968 34.0704C136.099 33.2579 133.405 31.8334 131.119 29.9197C134.212 29.8309 137.3 31.4636 138.968 34.0704V34.0704Z" fill="black"/>
<path d="M182.513 193.497C180.851 191.243 180.837 187.91 182.479 185.642C183.256 188.182 183.268 190.951 182.513 193.497Z" fill="black"/>
<path d="M67.7042 196.228C69.0161 195.07 71.4703 195.886 71.8286 197.598C71.5022 198.298 70.7323 198.765 69.961 198.731C68.4899 198.377 66.6033 197.121 67.411 195.841L67.7042 196.228Z" fill="black"/>
<path d="M9.31543 179.039C10.5212 178.535 12.047 178.968 12.809 180.029C13.5709 181.091 13.4931 182.675 12.6307 183.656C12.264 184.074 11.4453 184.292 11.2611 183.768C11.9766 182.731 11.1646 181.353 10.3785 180.369C10.0241 179.926 9.66978 179.482 9.31543 179.039V179.039Z" fill="black"/>
<path d="M170.869 115.668C171.561 115.412 171.351 114.314 170.777 113.85C170.203 113.386 169.413 113.184 168.973 112.592C168.533 111.999 168.996 110.829 169.675 111.119C169.998 112.218 171.489 112.773 172.452 112.153C172.912 113.051 173.341 114.083 173.022 115.039C172.704 115.996 171.25 116.526 170.669 115.702L170.869 115.668Z" fill="black"/>
<path d="M82.1396 36.7871C84.0915 35.641 86.5014 35.3022 88.6935 35.8656C89.2288 36.0032 89.8523 36.631 89.4195 36.9747C87.0359 37.5732 84.4892 37.5076 82.1396 36.7871Z" fill="black"/>
<path d="M25.5478 153.623C25.5104 153.925 25.4212 154.285 25.131 154.378C24.941 154.438 24.7133 154.335 24.6337 154.152C24.2465 151.047 24.4096 147.874 25.1133 144.825C25.7617 147.704 25.9094 150.694 25.5478 153.623H25.5478Z" fill="black"/>
<path d="M8.68055 70.3707C9.39247 70.9755 8.76527 72.3193 7.83477 72.4016C6.90428 72.4838 6.09228 71.6529 5.86165 70.7477C5.63103 69.8425 5.83508 68.8899 6.03927 67.9784C6.18231 67.52 6.80226 67.2897 7.2099 67.5435C7.67459 68.5458 8.13929 69.5481 8.60398 70.5504L8.68055 70.3707Z" fill="black"/>
<path d="M145.192 196.853C147.374 195.379 150.186 194.876 152.743 195.501C150.613 197.075 147.737 197.59 145.192 196.853V196.853Z" fill="black"/>
<path d="M170.934 57.9451C171.56 56.751 172.841 55.9278 174.187 55.855C174.397 58.3878 171.242 59.6575 168.744 60.1255C169.013 59.1194 169.877 58.2972 170.895 58.0785L170.934 57.9451Z" fill="black"/>
<path d="M30.6395 119.528C30.3715 122.258 30.1036 124.988 29.8356 127.719C28.1178 125.273 28.479 121.592 30.6395 119.528V119.528Z" fill="black"/>
<path d="M166.73 26.8274C167.647 26.8276 168.563 26.8278 169.479 26.8279C169.775 27.1773 169.845 27.7009 169.653 28.1159C168.326 29.6678 165.334 29.0522 164.727 27.1026C165.334 26.7895 166.055 26.7024 166.719 26.8615L166.73 26.8274Z" fill="black"/>
<path d="M5.05737 170.786C5.28028 170.491 5.6757 170.295 6.02559 170.414C6.38442 170.536 6.56796 170.924 6.71303 171.274C7.33506 172.775 7.95709 174.277 8.57912 175.779C7.08297 175.418 5.76916 174.364 5.09308 172.981C4.75428 172.289 4.59223 171.401 5.05737 170.786H5.05737Z" fill="black"/>
<path d="M107.555 196.066C107.997 196.506 108.439 196.946 108.881 197.385C106.797 197.915 104.543 197.75 102.558 196.922C103.669 195.527 105.893 195.188 107.369 196.189L107.555 196.066Z" fill="black"/>
<path d="M66.9229 23.2454C67.4746 23.4163 68.0576 23.6679 68.3291 24.1777C68.6007 24.6874 68.3231 25.4872 67.7457 25.5029C65.8266 25.306 64.0043 24.2957 62.8206 22.7724C64.2015 22.6745 65.6005 22.8358 66.9229 23.2454V23.2454Z" fill="black"/>
<path d="M126.106 209.627C126.795 209.477 127.598 209.353 128.136 209.808C128.444 210.069 128.599 210.498 128.527 210.895C126.64 211.946 124.132 211.753 122.427 210.425C123.654 210.159 124.88 209.893 126.106 209.627V209.627Z" fill="black"/>
<path d="M66.867 206.972C67.0716 207.675 66.7264 208.499 66.0815 208.845C65.0623 208.191 64.3354 206.927 64.6744 205.765C65.0134 204.602 66.7001 203.969 67.5303 204.851C67.3226 205.559 67.1148 206.268 66.907 206.976L66.867 206.972Z" fill="black"/>
<path d="M15.1384 54.5465C13.8668 55.6782 12.4964 56.6988 11.0479 57.593C10.6313 56.476 11.035 55.1069 11.9911 54.3948C12.9471 53.6827 14.3745 53.6878 15.3254 54.4067L15.1384 54.5465Z" fill="black"/>
<path d="M36.7079 24.9284C37.5232 23.8774 39.0949 22.7694 39.9765 23.7654C40.5976 24.4671 40.0778 25.6716 39.2293 26.0693C38.3808 26.467 37.3884 26.3067 36.4666 26.1383C36.009 25.9067 36.1553 25.0644 36.6641 25.0007L36.7079 24.9284Z" fill="black"/>
<path d="M47.3899 205.111C48.7127 204.915 50.3597 204.861 51.0554 206.003C49.1452 207.115 46.5237 206.828 44.8999 205.328C45.3629 204.514 46.684 204.397 47.2832 205.116L47.3899 205.111Z" fill="black"/>
<path d="M86.0674 202.209C84.308 201.393 83.8804 198.653 85.3075 197.34C86.7889 198.329 87.2171 200.592 86.1992 202.054L86.0674 202.209Z" fill="black"/>
<path d="M176.656 194.015C176.022 193.666 175.669 192.871 175.836 192.166C176.933 191.531 178.208 191.206 179.475 191.24C180.044 192.774 178.19 194.558 176.678 193.93L176.656 194.015Z" fill="black"/>
<path d="M181.369 204.06C179.722 203.4 178.588 201.633 178.676 199.862C179.45 200.807 180.811 201.047 181.724 201.859C182.638 202.672 182.453 204.723 181.242 204.557L181.369 204.06Z" fill="black"/>
<path d="M90.3043 21.6951C91.5062 21.8909 92.7081 22.0868 93.91 22.2826C92.352 23.4369 90.4295 24.0913 88.4909 24.1273C88.3104 23.1281 89.2392 22.0878 90.2524 22.1543L90.3043 21.6951Z" fill="black"/>
<path d="M180.344 88.9575C180.362 91.0514 176.986 92.0508 175.861 90.2845C176.77 89.0885 178.482 88.5772 179.898 89.0796L180.344 88.9575Z" fill="black"/>
<path d="M15.189 60.2302C14.6521 60.2998 14.1152 60.3695 13.5783 60.4391C13.442 58.5406 15.4006 56.7947 17.2709 57.1473C17.5366 58.4085 16.4671 59.776 15.1791 59.8221L15.189 60.2302Z" fill="black"/>
<path d="M181.383 133.252C181.215 131.798 181.991 130.279 183.267 129.562C183.076 131.654 182.885 133.746 182.694 135.839C181.905 135.234 181.416 134.256 181.406 133.262L181.383 133.252Z" fill="black"/>
<path d="M19.8257 42.9173C18.5491 42.6675 17.408 41.8012 16.8242 40.6388C18.51 40.075 20.4846 40.4843 21.8075 41.6716C21.1505 42.023 20.4935 42.3744 19.8365 42.7259L19.8257 42.9173Z" fill="black"/>
<path d="M12.8732 115.217C13.3206 115.578 13.768 115.939 14.2154 116.3C12.4452 117.237 10.3897 117.624 8.40015 117.397C9.35111 116.039 11.0577 115.249 12.7084 115.404L12.8732 115.217Z" fill="black"/>
<path d="M181.026 21.9001C179.851 21.8776 178.695 21.3274 177.936 20.4291C179.149 19.6232 180.712 19.3647 182.119 19.737C182.405 20.0983 182.509 20.5957 182.392 21.0409C181.928 21.3003 181.463 21.5596 180.999 21.8189L181.026 21.9001Z" fill="black"/>
<path d="M125.16 24.2759C124.373 24.5202 123.992 23.0955 124.67 22.6269C125.348 22.1583 126.285 22.4654 126.989 22.8931C127.693 23.3207 128.393 23.8766 129.217 23.8837C128.17 24.8552 126.466 25.027 125.246 24.2839L125.16 24.2759Z" fill="black"/>
<path d="M111.178 201.197C112.055 202.006 112.577 203.188 112.583 204.381C111.428 204.393 110.271 204.134 109.23 203.631C109.133 202.551 110.255 201.809 111.223 201.324L111.178 201.197Z" fill="black"/>
<path d="M141.943 203.886C143.077 203.003 144.212 202.12 145.346 201.238C145.886 202.25 145.593 203.631 144.69 204.339C143.786 205.046 142.376 204.998 141.522 204.232L141.943 203.886Z" fill="black"/>
<path d="M10.5084 199.536C9.94196 199.93 9.37557 200.324 8.80918 200.719C8.00236 200.176 8.19902 198.835 8.93844 198.204C9.67786 197.573 10.7132 197.456 11.6812 197.367C11.8827 198.217 11.3171 199.176 10.4753 199.41L10.5084 199.536Z" fill="black"/>
<path d="M21.7838 35.4621C22.6046 35.4858 23.3586 36.16 23.4735 36.9731C22.0476 37.6381 20.268 37.4701 18.9917 36.5501C19.6171 35.6712 20.7146 35.1508 21.7909 35.2229L21.7838 35.4621Z" fill="black"/>
<path d="M69.2242 201.156C68.6677 201.684 68.0754 202.231 67.3305 202.413C66.5856 202.595 65.6544 202.256 65.4625 201.514C65.2369 200.641 66.1909 199.828 67.0924 199.835C67.9939 199.841 68.7918 200.385 69.5267 200.907L69.2242 201.156Z" fill="black"/>
<path d="M182.758 46.9798C183.306 48.7083 183.51 50.5449 183.355 52.3514C181.747 50.9789 181.329 48.4063 182.419 46.5953L182.758 46.9798Z" fill="black"/>
<path d="M141.148 207.513C140.839 207.953 140.336 208.25 139.802 208.307C139.169 207.884 138.55 207.312 138.438 206.559C138.325 205.806 139.01 204.938 139.743 205.148C140.638 205.557 141.239 206.539 141.194 207.523L141.148 207.513Z" fill="black"/>
<path d="M64.8548 30.3006C64.441 29.9911 64.0273 29.6816 63.6135 29.3721C64.004 28.3402 64.9811 27.5541 66.0726 27.3937C66.5336 27.8501 66.9945 28.3064 67.4554 28.7627C66.7693 29.4269 65.8973 29.897 64.9653 30.1052L64.8548 30.3006Z" fill="black"/>
<path d="M96.8412 196.722C97.4702 195.918 99.0561 196.86 98.651 197.797C97.2615 197.163 95.2921 199.718 94.5085 198.407C93.9091 197.404 95.6608 196.709 96.8227 196.832L96.8412 196.722Z" fill="black"/>
<path d="M36.5946 208.519C37.5083 208.083 37.625 206.588 36.7901 206.015C35.9552 205.442 34.6021 206.088 34.5234 207.098C34.4446 208.107 35.681 208.956 36.5946 208.519Z" fill="black"/>
<path d="M125.989 202.201C124.932 202.593 123.648 202.27 122.904 201.423C124.359 200.192 126.859 200.54 127.923 202.122C127.294 202.204 126.665 202.286 126.036 202.367L125.989 202.201Z" fill="black"/>
<path d="M12.5433 96.4519C13.1878 95.444 14.2422 94.2892 15.353 94.7337C14.2251 96.7569 12.0161 98.1336 9.70288 98.2551C10.3887 97.3709 11.3627 96.714 12.4395 96.4095L12.5433 96.4519Z" fill="black"/>
<path d="M20.4716 182.464C19.7421 180.839 19.8928 178.849 20.8589 177.353C21.1789 178.972 21.4989 180.591 21.8188 182.211C21.4126 182.48 20.8962 182.577 20.4198 182.475L20.4716 182.464Z" fill="black"/>
<path d="M13.6313 159.144C13.8295 158.246 15.3355 158.305 15.7375 159.132C15.2789 159.945 14.8203 160.758 14.3618 161.57C13.8313 161.916 13.064 161.442 12.9279 160.824C12.7919 160.205 13.1065 159.573 13.5066 159.083L13.6313 159.144Z" fill="black"/>
<path d="M55.2466 26.6971C56.2597 26.4523 56.6958 24.9717 55.9772 24.2168C55.2587 23.4619 53.7584 23.8245 53.4639 24.8243C53.1694 25.824 54.2336 26.942 55.2466 26.6971Z" fill="black"/>
<path d="M14.0563 81.0003C12.996 79.2465 14.0298 76.8986 15.5831 75.5616C15.6616 77.3459 15.2016 79.1503 14.2788 80.6793L14.0563 81.0003Z" fill="black"/>
<path d="M21.7138 127.266C22.0611 127.792 21.5746 128.626 20.9462 128.583C20.3908 127.102 20.6647 125.341 21.6432 124.099C22.6052 124.8 22.6752 126.425 21.777 127.207L21.7138 127.266Z" fill="black"/>
<path d="M11.0878 92.3118C11.7084 92.0993 12.3291 91.8867 12.9497 91.6742C12.6694 93.2426 11.4458 94.6037 9.91597 95.0489C9.44696 94.0647 10.0574 92.7277 11.1083 92.4375L11.0878 92.3118Z" fill="black"/>
<path d="M16.104 156.017C15.424 155.539 15.5988 154.287 16.3836 154.014C17.5813 154.967 18.8446 156.761 17.718 157.797C17.1506 157.228 16.5831 156.659 16.0156 156.09L16.104 156.017Z" fill="black"/>
<path d="M110.625 21.8769C111.359 21.8765 112.093 21.876 112.828 21.8756C113.085 22.2894 113.185 22.7978 113.105 23.2783C111.852 23.7923 110.319 23.5364 109.301 22.6436C108.983 22.0869 109.999 21.7824 110.621 21.94L110.625 21.8769Z" fill="black"/>
<path d="M167.463 79.3238C167.314 79.9403 166.478 80.2662 165.951 79.913C165.617 78.4154 166.497 76.74 167.92 76.1649C168.069 77.2332 167.923 78.341 167.503 79.3343L167.463 79.3238Z" fill="black"/>
<path d="M167.607 177.784C167.321 177.171 167.882 176.266 168.527 176.469C168.605 178.46 167.944 180.472 166.701 182.029C166.305 180.605 166.659 178.995 167.615 177.868L167.607 177.784Z" fill="black"/>
<path d="M191.124 50.8074C191.478 51.318 191.012 52.1514 190.391 52.1163C189.792 50.4887 189.923 48.6071 190.743 47.0789C190.967 48.2912 191.19 49.5035 191.414 50.7159L191.124 50.8074Z" fill="black"/>
<path d="M22.154 55.2502C23.6706 55.9096 23.9142 58.3659 22.5567 59.3103C21.6574 58.2665 21.4655 56.6687 22.092 55.4416L22.154 55.2502Z" fill="black"/>
<path d="M163.677 23.6512C162.409 23.3256 161.343 22.303 160.966 21.0491C162.297 20.0884 164.404 22.0352 163.552 23.4379L163.677 23.6512Z" fill="black"/>
<path d="M181.478 102.699C182.606 103.933 183.089 105.733 182.706 107.36C181.599 106.208 180.953 104.625 180.936 103.027L181.478 102.699Z" fill="black"/>
<path d="M159.308 201.473C158.515 202.11 157.1 201.389 157.148 200.374C157.845 199.29 159.704 199.289 160.401 200.372C160.036 200.738 159.67 201.104 159.304 201.469L159.308 201.473Z" fill="black"/>
<path d="M182.183 149.393C183.629 150.088 183.907 152.391 182.668 153.41C181.73 152.375 181.518 150.746 182.159 149.505L182.183 149.393Z" fill="black"/>
<path d="M155.129 196.124C156.463 195.473 158.09 195.454 159.44 196.074C158.243 197.166 156.35 197.412 154.914 196.663L155.129 196.124Z" fill="black"/>
<path d="M166.998 46.8962C167.951 45.7751 169.927 45.7743 170.881 46.8947C169.93 48.0226 167.954 48.0418 166.982 46.9325L166.998 46.8962Z" fill="black"/>
<path d="M166.942 131.099C166.896 130.097 168.737 130.104 168.967 131.08C169.035 132.107 169.102 133.133 169.17 134.159C168.419 133.149 167.668 132.138 166.917 131.128L166.942 131.099Z" fill="black"/>
<path d="M172.195 185.254C172.883 185.941 172.231 187.371 171.262 187.303C170.721 186.6 170.151 185.705 170.502 184.89C170.853 184.076 172.519 184.448 172.129 185.244L172.195 185.254Z" fill="black"/>
<path d="M28.1167 198.994C27.6522 198.531 27.1877 198.069 26.7231 197.606C27.4853 196.475 29.5982 196.876 29.8933 198.208C29.5833 198.837 28.7791 199.174 28.1131 198.952L28.1167 198.994Z" fill="black"/>
<path d="M24.6596 158.516C24.376 157.398 24.2934 155.86 25.3735 155.454C25.796 156.909 25.8036 158.482 25.3954 159.94C24.8057 160.246 24.4678 159.231 24.5742 158.575L24.6596 158.516Z" fill="black"/>
<path d="M25.4963 108.718C26.5915 109.972 26.5774 112.047 25.4652 113.285C25.2856 111.884 25.1059 110.483 24.9263 109.082L25.4963 108.718Z" fill="black"/>
<path d="M125.516 217.804C126.821 217.523 128.487 217.384 129.187 218.52C127.797 218.843 126.352 218.929 124.933 218.774C124.468 218.452 124.934 217.544 125.467 217.734L125.516 217.804Z" fill="black"/>
<path d="M134.06 196.495C134.391 197.325 133.227 198.107 132.384 197.809C131.541 197.512 131.062 196.645 130.658 195.847C131.776 196.042 132.894 196.237 134.012 196.431L134.06 196.495Z" fill="black"/>
<path d="M190.226 44.6559C189.942 43.5374 189.859 41.9986 190.94 41.5933C191.362 43.0479 191.37 44.6204 190.961 46.079C190.371 46.3797 190.036 45.3693 190.139 44.7149L190.226 44.6559Z" fill="black"/>
<path d="M148.57 22.8249C148.762 23.664 147.351 24.0575 146.764 23.4271C146.178 22.7966 146.247 21.819 146.353 20.9646C147.301 20.806 148.168 21.9888 147.731 22.8447L148.57 22.8249Z" fill="black"/>
<path d="M173.347 27.3914C172.084 27.4575 171.58 25.2787 172.743 24.7831C173.903 24.9438 174.341 26.7698 173.38 27.4387L173.347 27.3914Z" fill="black"/>
<path d="M22.7344 78.3636C23.2722 79.1587 22.9408 80.3975 22.0779 80.8179C21.6518 79.5536 21.6235 78.1585 21.9978 76.8779C22.5876 76.5494 22.9591 77.5729 22.8678 78.2419L22.7344 78.3636Z" fill="black"/>
<path d="M25.804 52.2249C26.693 53.3025 26.9489 54.8669 26.4495 56.1715C25.3125 55.14 24.9315 53.3605 25.5463 51.9539L25.804 52.2249Z" fill="black"/>
<path d="M169.626 115.15C169.378 116.149 168.701 117.034 167.801 117.536C167.37 117.254 167.089 116.754 167.073 116.239C167.42 115.418 168.333 114.876 169.219 114.965L169.626 115.15Z" fill="black"/>
<path d="M127.483 33.1179C127.247 32.5867 127.012 32.0554 126.776 31.5242C127.743 30.7593 129.426 31.9743 129.004 33.1326C128.571 33.542 127.826 33.5611 127.372 33.1744L127.483 33.1179Z" fill="black"/>
<path d="M28.942 35.353C28.9528 36.1021 28.9637 36.8511 28.9745 37.6002C28.4402 37.9481 27.6875 37.426 27.5647 36.8003C27.4418 36.1747 27.7313 35.5497 28.0129 34.9777C28.0544 34.4221 29.1582 34.8074 28.8449 35.2681L28.942 35.353Z" fill="black"/>
<path d="M58.8878 24.6433C58.2008 23.6407 59.4341 22.0507 60.576 22.4667C61.1046 23.4783 60.0244 24.8841 58.9108 24.6339L58.8878 24.6433Z" fill="black"/>
<path d="M148.892 200.396C149.217 199.752 150.031 199.401 150.722 199.607C151.331 200.104 151.162 201.248 150.435 201.547C149.708 201.846 148.782 201.153 148.865 200.371L148.892 200.396Z" fill="black"/>
<path d="M15.1238 174.026C15.4597 174.579 14.9293 175.416 14.2857 175.349C13.9033 174.244 14.1779 172.938 14.973 172.081C15.81 171.799 15.7885 173.335 15.2067 173.999L15.1238 174.026Z" fill="black"/>
<path d="M166.2 201.704C165.586 201.374 165.139 200.748 165.027 200.06C166.285 199.924 167.288 201.04 168.055 202.047C167.784 202.815 166.354 202.549 166.378 201.735L166.2 201.704Z" fill="black"/>
<path d="M167.015 149.216C167.607 148.362 168.904 148.098 169.783 148.655C169.799 149.953 167.554 150.394 167.077 149.187L167.015 149.216Z" fill="black"/>
<path d="M179.891 198.58C179.114 198.381 179.828 197.096 180.628 197.14C181.429 197.185 182.192 197.753 182.97 197.559C182.275 198.419 181.001 198.753 179.974 198.345L179.891 198.58Z" fill="black"/>
<path d="M160.086 193.136C159.083 192.932 158.079 192.727 157.076 192.523C157.896 191.461 159.787 191.546 160.509 192.677L160.086 193.136Z" fill="black"/>
<path d="M62.1116 202.636C63.1939 202.071 64.7175 203.071 64.6292 204.289C63.5988 204.513 62.4521 203.872 62.103 202.877L62.1116 202.636Z" fill="black"/>
<path d="M164.76 113.471C164.859 112.652 165.829 111.786 166.403 112.378C166.707 113.247 166.38 114.296 165.637 114.84C165.198 114.51 164.896 114.003 164.816 113.46L164.76 113.471Z" fill="black"/>
<path d="M60.5641 25.7329C61.1896 24.7729 63.0363 25.3708 62.9804 26.5153C62.1932 27.2345 60.6944 26.7898 60.4268 25.7577L60.5641 25.7329Z" fill="black"/>
<path d="M18.8724 52.6674C18.9494 53.1465 19.0263 53.6257 19.1033 54.1048C18.1143 54.5301 16.9491 53.1729 17.5193 52.2597C17.952 52.3263 18.3846 52.3928 18.8173 52.4594L18.8724 52.6674Z" fill="black"/>
<path d="M69.7933 28.1032C69.3721 27.7763 68.951 27.4494 68.5298 27.1225C68.9908 26.6616 69.4518 26.2007 69.9127 25.7398C70.7353 26.1463 70.7861 27.6527 69.8873 27.8376L69.7933 28.1032Z" fill="black"/>
<path d="M173.224 160.162C172.597 159.858 171.97 159.554 171.344 159.25C171.629 158.739 172.178 158.384 172.762 158.334C173.373 158.568 173.676 159.385 173.365 159.961L173.224 160.162Z" fill="black"/>
<path d="M169.669 162.936C169.498 163.556 168.658 163.875 168.119 163.525C167.903 162.785 168.333 161.955 168.999 161.566C169.28 162.015 169.56 162.464 169.84 162.914L169.669 162.936Z" fill="black"/>
<path d="M33.2181 204.798C33.5125 205.85 31.8984 206.781 31.135 205.999C31.4903 205.142 32.4184 204.558 33.345 204.609L33.2181 204.798Z" fill="black"/>
<path d="M10.8749 30.4617C10.3128 31.3841 8.57501 30.1887 9.23546 29.3339C9.89078 28.8646 10.9667 29.6313 10.7371 30.4039L10.8749 30.4617Z" fill="black"/>
<path d="M188.709 218.265C188.372 217.764 188.597 216.981 189.149 216.735C189.7 216.489 190.433 216.844 190.581 217.43C190.23 218.062 189.427 218.404 188.728 218.219L188.709 218.265Z" fill="black"/>
<path d="M81.2003 197.735C80.7509 197.678 80.7919 196.918 81.2001 196.722C81.6083 196.526 82.0891 196.706 82.5047 196.885C83.0055 197.285 83.0009 198.162 82.4958 198.556C82.0427 198.275 81.5896 197.995 81.1366 197.714L81.2003 197.735Z" fill="black"/>
<path d="M170.87 205.855C170.938 206.387 170.557 206.939 170.036 207.064C169.399 207.035 168.981 206.173 169.352 205.655C169.724 205.137 170.674 205.255 170.906 205.848L170.87 205.855Z" fill="black"/>
<path d="M103.492 33.4772C103.949 33.1301 104.404 34.0885 104.007 34.5036C103.103 34.7075 101.96 34.0294 102.099 33.113C102.561 33.2019 103.022 33.2908 103.483 33.3797L103.492 33.4772Z" fill="black"/>
<path d="M180.977 101.114C180.679 100.529 180.985 99.7187 181.595 99.4767C182.035 99.7712 182.328 100.274 182.369 100.802C182.185 101.327 181.397 101.507 181.004 101.112L180.977 101.114Z" fill="black"/>
<path d="M175.535 191.328C174.694 191.289 173.89 190.264 174.434 189.621C175.267 189.647 176.072 190.669 175.524 191.298L175.535 191.328Z" fill="black"/>
<path d="M29.4351 115.037C30.1671 114.573 31.0408 115.988 30.2982 116.435C29.7482 116.784 29.4018 115.758 29.5459 115.122L29.4351 115.037Z" fill="black"/>
<path d="M72.1041 204.445C71.647 204.792 71.1901 203.836 71.5867 203.421C72.0501 203.296 72.565 203.377 72.9679 203.638C73.0666 204.081 72.5854 204.54 72.1476 204.42L72.1041 204.445Z" fill="black"/>
<path d="M32.5031 46.6734C33.1172 46.5387 34.1038 46.8658 33.7782 47.4036C33.3924 48.1676 31.9547 47.2747 32.4685 46.5902L32.5031 46.6734Z" fill="black"/>
<path d="M21.4987 82.9325C22.2246 82.6561 22.4895 83.9263 22.1017 84.5993C21.3634 84.8655 21.0976 83.5958 21.4652 82.9024L21.4987 82.9325Z" fill="black"/>
<path d="M131.051 209.939C131.515 210.67 130.1 211.544 129.654 210.801C129.304 210.252 130.33 209.905 130.965 210.049L131.051 209.939Z" fill="black"/>
<path d="M143.641 211.051C143.027 211.186 142.041 210.857 142.368 210.321C142.752 209.558 144.187 210.449 143.674 211.132L143.641 211.051Z" fill="black"/>
<path d="M7.7785 23.0256C8.2407 22.6827 8.70441 23.6454 8.29169 24.0465C7.78009 24.2091 7.18476 24.0715 6.79639 23.7009C7.07567 23.4213 7.35496 23.1417 7.63424 22.8621L7.7785 23.0256Z" fill="black"/>
<path d="M44.0826 24.0332C43.4684 24.1678 42.4818 23.8408 42.8074 23.3029C43.1933 22.5389 44.6309 23.4319 44.1171 24.1163L44.0826 24.0332Z" fill="black"/>
<path d="M170.799 69.3824C171.531 68.9181 172.405 70.3334 171.662 70.7796C171.112 71.1294 170.765 70.1032 170.91 69.4681L170.799 69.3824Z" fill="black"/>
<path d="M25.184 24.3568C25.1067 25.1202 23.9518 25.4822 23.4525 24.8997C23.1529 24.1854 24.4292 23.972 25.1311 24.2994L25.184 24.3568Z" fill="black"/>
<path d="M30.8529 192.987C31.4671 192.853 32.4537 193.18 32.128 193.718C31.7422 194.482 30.3046 193.589 30.8184 192.904L30.8529 192.987Z" fill="black"/>
<path d="M163.709 23.5727C164.432 23.4291 165.551 23.6782 165.341 24.3844C164.71 24.7546 163.767 24.2529 163.721 23.5222L163.709 23.5727Z" fill="black"/>
<path d="M30.2909 188.014C31.1789 187.836 31.7744 189.518 30.869 189.537C30.257 189.349 29.9537 188.515 30.3021 187.978L30.2909 188.014Z" fill="black"/>
<path d="M34.1586 196.248C34.3828 195.697 35.4125 195.925 35.383 196.519C35.4352 197.29 33.8411 196.94 34.2107 196.262L34.1586 196.248Z" fill="black"/>
<path d="M130.82 136.922C131.414 138.244 130.594 139.871 129.348 140.611C128.101 141.351 126.568 141.398 125.122 141.29C122.476 141.092 119.666 140.316 118.024 138.232C118.696 136.822 120.776 137.751 122.179 138.438C124.987 139.812 128.647 139.169 130.82 136.922V136.922Z" fill="black"/>
<path d="M97.0837 162.223C97.996 161.835 99.1196 161.114 99.8294 161.806C101.215 163.157 103.604 163.309 105.149 162.144C105.585 163.604 103.784 164.82 102.26 164.787C100.737 164.754 99.2554 164.058 97.7409 164.224C93.9613 164.638 90.1375 164.65 86.3555 164.257C86.7139 162.302 89.2518 161.671 91.2186 161.957C93.1855 162.243 95.2548 163.001 97.0837 162.223V162.223Z" fill="black"/>
<path d="M77.8961 95.688C76.9791 97.8818 74.1223 98.3289 71.7479 98.4549C68.9546 98.6032 66.1614 98.7515 63.3681 98.8998C62.8001 99.293 62.1266 98.2877 62.4966 97.7043C62.8665 97.1209 63.652 97.0007 64.3399 96.9373C67.6421 96.633 70.9443 96.3286 74.2465 96.0243C75.463 95.9122 76.6795 95.8001 77.8961 95.688Z" fill="black"/>
<path d="M86.0565 73.1905C88.5123 72.8055 90.9681 72.4206 93.4239 72.0356C94.2293 71.9094 95.3458 71.9905 95.4786 72.7949C93.8987 74.7433 90.9799 74.6871 88.4715 74.6702C85.9631 74.6534 82.9161 75.2265 82.0678 77.5872C81.2732 76.6658 81.7087 75.1383 82.6492 74.3664C83.5898 73.5945 84.8545 73.3789 86.0565 73.1905Z" fill="black"/>
<path d="M90.3877 80.5432C92.3172 78.6639 95.5032 80.1727 98.1899 79.9815C99.4922 79.8888 100.758 79.346 101.723 78.4667C102.464 79.2413 102.038 80.6268 101.157 81.2381C100.276 81.8493 99.1376 81.9035 98.0661 81.9366C95.4192 82.0182 92.5697 82.0437 90.3877 80.5432Z" fill="black"/>
<path d="M69.7232 121.832C67.884 123.261 65.3082 123.087 62.9921 122.844C61.1072 122.646 59.2223 122.448 57.3374 122.25C60.6792 119.366 66.8268 122.432 69.8519 119.217C70.9396 119.416 70.5964 121.154 69.7232 121.832V121.832Z" fill="black"/>
<path d="M95.6633 149.53C94.8704 149.734 94.1358 150.232 93.3175 150.205C92.6674 150.183 92.0413 149.797 91.73 149.226C93.1682 147.343 95.9317 147.129 98.2671 147.529C100.603 147.929 102.94 148.777 105.28 148.403C105.318 150.247 102.812 151.002 101.021 150.56C99.231 150.118 97.4493 149.07 95.6633 149.53V149.53Z" fill="black"/>
<path d="M116.67 147.877C118.429 148.094 120.273 147.105 121.064 145.519C122.08 146.521 121.594 148.39 120.437 149.225C119.28 150.06 117.743 150.114 116.321 150.003C114.898 149.892 113.444 149.652 112.063 150.01C111.673 149.014 112.485 147.86 113.507 147.542C114.528 147.225 115.639 147.532 116.619 147.962L116.67 147.877Z" fill="black"/>
<path d="M79.3154 88.0022C80.5832 87.5446 81.851 87.087 83.1188 86.6295C83.7563 87.8727 83.2566 89.5745 82.048 90.2757C79.5272 90.2677 77.0064 90.2597 74.4856 90.2517C75.589 88.8085 77.4377 87.9694 79.2504 88.0889L79.3154 88.0022Z" fill="black"/>
<path d="M86.1872 122.586C84.7016 123.95 82.2927 122.236 80.3319 122.706C78.3281 123.186 77.4442 125.764 75.4823 126.394C75.1219 124.043 77.0771 121.774 79.3816 121.183C81.6861 120.592 84.1511 121.356 86.1872 122.586Z" fill="black"/>
<path d="M77.2956 104.705C76.9593 106.643 74.2114 106.703 72.2951 106.258C71.0773 105.975 69.8594 105.693 68.6416 105.41C68.8889 102.893 71.6575 101.391 74.1711 101.114C73.3383 102.462 72.2914 103.677 71.0816 104.7C73.1529 104.702 75.2243 104.703 77.2956 104.705Z" fill="black"/>
<path d="M106.239 73.1159C107.71 72.9266 109.258 73.7381 109.938 75.0553C106.82 75.383 103.63 74.9983 100.679 73.9388C102.314 72.9521 104.349 72.6522 106.198 73.1256L106.239 73.1159Z" fill="black"/>
<path d="M124.666 105.287C125.402 103.313 128.346 104.178 130.404 103.729C131.553 103.478 132.566 102.668 133.064 101.602C133.83 101.65 133.763 102.834 133.335 103.47C131.51 106.18 127.425 107.036 124.666 105.287V105.287Z" fill="black"/>
<path d="M81.4216 80.9861C78.7379 81.4613 75.9723 81.4703 73.2856 81.0126C75.1538 78.4778 79.537 78.4635 81.4216 80.9861V80.9861Z" fill="black"/>
<path d="M59.1516 137.58C63.8522 137.29 68.5527 137 73.2533 136.71C74.8052 136.614 76.483 136.55 77.7766 137.413C78.051 137.596 78.3209 137.86 78.3226 138.19C78.3257 138.796 77.5248 139.005 76.9191 139.025C72.7265 139.165 68.534 139.306 64.3414 139.446C62.392 139.512 60.0087 139.332 59.1516 137.58V137.58Z" fill="black"/>
<path d="M120.543 88.4982C121.816 88.3133 123.356 88.2307 124.128 89.2588C122.369 91.0133 119.261 91.1684 117.336 89.5978C118.286 89.0206 119.404 88.7256 120.515 88.7597L120.543 88.4982Z" fill="black"/>
<path d="M68.2638 114.746C65.7988 114.769 63.3339 114.792 60.8689 114.815C61.4436 113.344 62.9639 112.295 64.543 112.281C66.1221 112.266 67.6618 113.286 68.2638 114.746V114.746Z" fill="black"/>
<path d="M112.78 155.108C112.622 155.755 112.43 156.456 111.895 156.852C111.387 157.229 110.704 157.232 110.072 157.219C105.259 157.121 100.446 157.023 95.6329 156.924C95.3893 156.919 95.1351 156.912 94.921 156.796C94.3192 156.469 94.4589 155.48 95.011 155.075C95.5631 154.669 96.3059 154.678 96.9902 154.704C99.6139 154.802 102.238 154.9 104.861 154.998C106.39 155.055 107.972 155.103 109.389 154.526C110.805 153.95 112.014 152.565 111.879 151.042C113.266 151.652 113.138 153.635 112.78 155.108V155.108Z" fill="black"/>
<path d="M83.4886 156.816C82.4905 156.583 83.2245 154.919 84.2407 154.786C85.2569 154.654 86.3759 155.119 87.2712 154.621C88.2011 154.103 89.3126 152.709 89.8865 153.606C89.9181 154.986 88.8513 156.222 87.5664 156.728C86.2815 157.233 84.8334 157.129 83.4886 156.816V156.816Z" fill="black"/>
<path d="M69.3717 154C71.1837 154.039 72.9137 155.264 73.5523 156.96C71.5539 157.616 69.1561 155.992 69.0229 153.893L69.3717 154Z" fill="black"/>
<path d="M65.487 148.926C65.9496 147.182 66.9814 145.595 68.3868 144.464C69.3946 146.498 67.7354 149.31 65.4678 149.411L65.487 148.926Z" fill="black"/>
<path d="M113.849 122.203C114.257 120.855 116.026 120.127 117.264 120.798C118.502 121.469 118.859 123.348 117.953 124.426C117.2 123.137 115.7 122.324 114.21 122.398L113.849 122.203Z" fill="black"/>
<path d="M129.318 112.378C130.186 112.252 130.787 113.473 130.333 114.223C129.879 114.974 128.818 115.159 127.988 114.876C127.157 114.594 126.503 113.958 125.88 113.341C126.812 112.572 128.154 112.333 129.294 112.732L129.318 112.378Z" fill="black"/>
<path d="M112.63 80.1562C113.143 80.0274 113.605 79.6727 114.134 79.6826C114.966 79.698 115.486 80.5613 115.843 81.3126C113.446 81.946 110.92 82.0859 108.467 81.7209C107.519 81.2848 108.508 79.7487 109.552 79.7569C110.596 79.7651 111.618 80.4105 112.63 80.1562V80.1562Z" fill="black"/>
<path d="M80.9219 125.837C82.2059 125.837 83.4899 125.836 84.7738 125.836C85.0596 126.281 85.1456 126.85 85.0044 127.36C84.0123 127.084 82.986 127.678 81.9565 127.661C80.927 127.644 79.9483 126.165 80.8623 125.69L80.9219 125.837Z" fill="black"/>
<path d="M122.584 97.6362C121.764 97.8889 121.497 96.4337 122.097 95.8201C123.126 94.7699 125.189 95.1509 125.774 96.4992C124.805 97.1479 123.621 97.4692 122.457 97.3991L122.584 97.6362Z" fill="black"/>
<path d="M61.9317 112.577C60.7553 112.742 59.3195 112.802 58.6411 111.827C59.2903 111.053 60.1522 110.269 61.1573 110.371C62.1623 110.473 62.777 112.075 61.8582 112.495L61.9317 112.577Z" fill="black"/>
<path d="M77.0893 149.001C77.8969 148.618 78.912 149.393 78.9664 150.285C77.7469 150.925 76.1439 150.74 75.1023 149.839C75.4945 149.183 76.3125 148.81 77.065 148.946L77.0893 149.001Z" fill="black"/>
<path d="M77.2325 117.816C76.3422 118.838 75.4518 119.86 74.5615 120.882C73.9092 119.544 75.0133 117.707 76.501 117.655L77.2325 117.816Z" fill="black"/>
<path d="M59.487 129.102C60.1561 129.382 60.8251 129.662 61.4942 129.942C61.694 130.803 60.6532 131.536 59.7796 131.395C58.906 131.255 58.2317 130.577 57.6228 129.935C57.9849 129.318 58.7747 128.987 59.4687 129.161L59.487 129.102Z" fill="black"/>
<path d="M85.9983 163.725C85.7936 164.307 84.6931 164.021 84.7975 163.413C84.5608 162.137 85.3753 160.748 86.6051 160.331C86.3495 161.454 86.094 162.576 85.8384 163.699L85.9983 163.725Z" fill="black"/>
<path d="M82.5725 129.687C83.1451 129.681 83.7178 129.675 84.2905 129.669C84.583 130.801 83.0401 131.886 82.074 131.228C81.6464 130.772 81.9827 129.874 82.605 129.811L82.5725 129.687Z" fill="black"/>
<path d="M74.3718 148.064C74.2727 148.894 74.0822 149.797 73.4239 150.313C72.7656 150.828 71.5313 150.571 71.4513 149.739C71.4185 149.399 71.5809 149.074 71.7387 148.77C72.4675 147.369 73.8328 145.721 75.273 146.369C75.0218 146.938 74.7706 147.507 74.5194 148.076L74.3718 148.064Z" fill="black"/>
<path d="M78.7168 113.18C77.7745 113.757 76.8321 114.333 75.8898 114.91C75.1396 114.03 75.4397 112.479 76.464 111.943C77.4883 111.406 78.9338 112.042 79.2301 113.16L78.7168 113.18Z" fill="black"/>
<path d="M58.5042 118.491C58.8544 119.015 58.6521 119.823 58.0962 120.12C57.5402 120.417 56.7564 120.137 56.5151 119.555C56.8496 118.725 57.7695 118.172 58.6592 118.267L58.5042 118.491Z" fill="black"/>
<path d="M127.387 145.927C127.854 146.244 128.185 147.046 127.674 147.286C126.84 147.404 125.976 147.31 125.187 147.014C125.166 145.976 126.598 145.256 127.42 145.891L127.387 145.927Z" fill="black"/>
<path d="M65.2163 125.019C65.3537 125.478 65.2675 125.998 64.9896 126.387C64.5049 126.483 63.9861 126.395 63.5608 126.143C63.596 125.301 64.6074 124.462 65.243 125.016L65.2163 125.019Z" fill="black"/>
<path d="M70.3996 130.745C70.5479 131.339 69.4713 131.056 69.1663 130.524C69.256 130.133 69.6375 129.793 70.0331 129.86C70.4288 129.927 70.6587 130.505 70.3551 130.768L70.3996 130.745Z" fill="black"/>
<path d="M123.794 134.639C124.001 135.207 123.33 135.869 122.765 135.653C122.3 135.429 122.187 134.706 122.562 134.351C122.936 133.997 123.652 134.149 123.85 134.626L123.794 134.639Z" fill="black"/>
<path d="M68.7806 127.664C68.3117 126.714 69.2831 125.421 70.3263 125.607C71.3695 125.794 71.8338 127.342 71.0651 128.072C70.4046 128.698 69.1583 128.467 68.7496 127.654L68.7806 127.664Z" fill="black"/>
<path d="M82.5007 163.198C82.649 163.793 81.5724 163.509 81.2673 162.977C81.357 162.586 81.7385 162.246 82.1342 162.313C82.5299 162.38 82.7598 162.959 82.4562 163.221L82.5007 163.198Z" fill="black"/>
<path d="M121.453 105.609C120.587 105.664 119.722 105.72 118.856 105.775C118.556 105.795 118.234 105.809 117.976 105.654C116.977 105.056 118.312 103.668 119.434 103.361C120.267 103.132 121.184 102.909 121.969 103.27C122.754 103.63 123.14 104.86 122.435 105.36C122.156 105.558 121.794 105.587 121.453 105.609V105.609Z" fill="black"/>
<path d="M108.232 117.584C110.199 118.695 111.428 120.996 111.258 123.249C108.361 121.434 105.465 119.62 102.568 117.805C101.39 119.165 102.787 121.185 104.11 122.405C105.798 123.963 107.487 125.521 109.176 127.079C110.204 128.027 111.286 129.007 112.635 129.377C113.626 129.649 114.674 129.565 115.698 129.48C119.33 129.178 122.962 128.875 126.594 128.573C126.19 130.17 125.787 131.767 125.383 133.364C122.522 130.701 117.91 130.144 114.497 132.047C115.178 134.218 115.86 136.39 116.541 138.561C117 140.022 116.434 142.483 115.051 141.825C108.067 138.505 99.4455 138.892 92.7869 142.823C90.508 144.169 88.4418 145.902 85.9992 146.92C83.5566 147.939 80.5071 148.101 78.4636 146.419C79.2429 141.901 81.0048 137.404 84.3064 134.223C86.4634 132.144 88.2775 129.498 88.5312 126.513C88.7849 123.529 87.0676 120.251 84.1722 119.484C80.03 118.386 82.785 110.238 78.793 108.681C82.0047 104.981 83.7525 100.044 83.5839 95.1476C83.5296 93.571 84.235 92.0616 85.1168 90.7536C86.83 88.2125 89.3969 86.12 92.41 85.5604C95.4232 85.0009 98.8462 86.2432 100.335 88.9218C99.307 86.7469 101.779 84.2912 104.183 84.1975C106.587 84.1038 108.779 85.4251 111.009 86.3295C112.077 86.763 113.235 87.1419 113.989 88.0144C114.732 88.874 114.948 90.0649 115.022 91.1987C115.287 95.2525 114.115 99.2472 112.956 103.141C111.838 106.897 110.675 110.744 108.303 113.864C112.107 115.367 116.97 109.479 119.788 112.443C116.879 115.642 110.611 113.974 108.232 117.584ZM110.766 100.938C111.915 97.6462 113.078 94.1275 112.257 90.7393C111.713 88.4993 107.839 89.3482 106.514 87.4626C105.491 86.0073 103.221 87.1654 101.957 88.4168C100.692 89.6682 98.5701 90.9746 97.3826 89.6501C95.1814 87.1949 90.8514 88.1051 88.6954 90.6002C86.5394 93.0953 85.9683 96.5463 85.4655 99.8053C84.9627 103.064 84.3538 106.518 82.1498 108.97C84.7594 110.492 83.0713 115.493 85.7496 116.89C89.4306 118.811 91.6447 123.208 90.9965 127.309C89.9549 133.899 82.6887 138.223 81.8131 144.837C82.2455 146.028 84.0368 145.347 85.0185 144.546C92.7966 138.197 103.517 135.618 113.331 137.734C112.879 131.529 105.621 128.567 101.698 123.738C99.9301 121.562 99.2512 117.593 101.841 116.521C102.771 116.89 103.701 117.258 104.631 117.627C105.384 116.354 105.876 114.947 106.364 113.551C107.831 109.347 109.299 105.142 110.766 100.938Z" fill="black"/>
</svg>
