<svg width="91" height="102" viewBox="0 0 91 102" fill="none" xmlns="http://www.w3.org/2000/svg">
<path d="M46.1374 2.32098C44.3445 2.46546 42.5027 1.63501 41.424 0.195758C42.4377 -0.340179 43.5837 0.742653 44.7305 0.741806C45.9533 0.740903 47.2226 -0.477134 48.234 0.210117C47.4668 0.557183 46.8639 1.24956 46.6255 2.05723C46.5697 2.24639 46.334 2.30514 46.1374 2.32098V2.32098Z" fill="black"/>
<path d="M21.136 8.26586C18.859 5.57574 15.3617 4.15602 11.867 3.69933C8.37232 3.24265 4.82906 3.65124 1.32845 4.05987C1.29561 28.5588 1.26277 53.0578 1.22993 77.5567C4.45442 73.9384 3.92916 67.1177 8.46633 65.4137C7.28894 67.9292 6.11154 70.4447 4.93415 72.9603C4.43102 74.0352 3.91944 75.1236 3.15801 76.034C0.978754 78.6396 0.914375 82.356 0.957713 85.7525C1.01236 90.0355 1.06701 94.3184 1.12166 98.6013C1.12613 98.9519 1.13699 99.3243 1.33037 99.6168C1.6603 100.116 2.35714 100.174 2.95531 100.181C4.75718 100.202 6.55904 100.223 8.3609 100.244C6.73524 100.78 5.03369 101.324 3.34208 101.061C1.65048 100.798 -0.0053023 99.4503 1.27618e-05 97.7383C0.0961091 66.7871 0.1922 35.8358 0.288297 4.88451C0.290486 4.17914 0.331961 3.38251 0.861928 2.91702C1.31262 2.52117 1.97029 2.50023 2.57013 2.49997C15.6494 2.49428 28.7287 2.48858 41.808 2.48289C41.0335 3.21669 42.6206 4.11781 43.6771 3.96953C45.5178 3.71121 47.6798 3.34647 48.9917 4.66321C40.8611 4.48017 32.7306 4.29712 24.6001 4.11408C22.3066 3.32049 19.7821 3.20825 17.4273 3.79519C17.8489 5.53623 19.9265 6.31479 21.7178 6.31962C23.5092 6.32445 25.3354 5.85133 27.0681 6.30596C25.2631 6.55942 23.535 7.33777 22.149 8.52153C37.0409 8.50802 51.9328 8.49451 66.8247 8.481C66.5861 9.25406 65.5693 9.39435 64.7602 9.39156C51.321 9.34513 37.8818 9.2987 24.4426 9.25227C23.2533 9.24817 21.9043 9.17364 21.136 8.26586V8.26586ZM38.7449 3.543C38.3242 2.95017 37.3642 2.84598 36.8261 3.33476C37.2739 3.72367 37.9448 3.83465 38.494 3.61066L38.7449 3.543Z" fill="black"/>
<path d="M84.4075 25.4169C84.5895 28.1324 83.558 30.9067 81.6462 32.8437C82.5522 33.0804 83.5928 32.5968 83.9958 31.7516C83.6809 33.3073 82.5019 34.6586 81.0033 35.1817C80.6339 30.0588 82.8595 24.8148 86.8009 21.5215C88.5971 20.0207 88.7002 17.3448 88.6586 15.0045C88.599 11.6473 88.5394 8.29007 88.4798 4.93285C88.4756 4.70039 88.4609 4.44213 88.2944 4.27984C88.128 4.11761 87.8696 4.10943 87.6372 4.11116C81.9224 4.15378 76.2076 4.1964 70.4928 4.23902C68.5996 2.56989 65.7089 3.19363 63.2224 3.62624C57.8723 4.55702 52.2869 4.10089 47.1588 2.31439C60.7878 2.41472 74.4169 2.51504 88.046 2.61536C88.3869 2.61787 88.7523 2.628 89.029 2.82723C89.4492 3.12979 89.4935 3.7273 89.4988 4.24506C89.8129 35.3377 90.127 66.4303 90.4411 97.5229C90.4562 99.0164 89.0301 100.207 87.5583 100.461C86.0865 100.715 84.5938 100.271 83.1665 99.8308C85.4106 99.5706 87.6546 99.3103 89.8987 99.0501C85.3166 98.73 80.7278 98.5038 76.1364 98.3717C80.0609 98.1383 83.9855 97.9049 87.91 97.6716C88.3584 97.6449 88.8546 97.5966 89.1581 97.2653C89.4546 96.9417 89.4667 96.4568 89.4622 96.0179C89.2232 72.9822 88.9841 49.9466 88.7451 26.9109C88.74 26.4139 88.7176 25.8699 88.3883 25.4977C88.0589 25.1255 87.3084 25.1356 87.1734 25.614C88.2485 24.4717 88.8427 22.8905 88.786 21.3229C86.6664 22.6104 85.3875 25.1634 85.6257 27.6319C85.2196 26.8936 84.8136 26.1552 84.4075 25.4169ZM83.0427 27.7072C82.4305 27.7367 82.1753 28.7236 82.6965 29.0461C82.9709 28.8744 83.2618 28.6837 83.3833 28.3837C83.5049 28.0836 83.3479 27.6554 83.0251 27.6312L83.0427 27.7072Z" fill="black"/>
<path d="M13.1287 15.2901C13.4849 14.8675 14.1116 14.8309 14.6643 14.8272C34.6599 14.6942 54.6563 14.6693 74.6522 14.7525C76.5911 14.7606 78.0772 17.1521 77.2257 18.8941C78.7648 18.1973 78.5558 15.7214 77.2365 14.6661C75.9171 13.6109 74.0808 13.5727 72.3914 13.5828C69.5996 13.5995 66.8079 13.6162 64.0161 13.6329C47.2568 13.7332 30.4976 13.8335 13.7383 13.9339C12.9522 13.9386 11.9014 14.1906 11.9029 14.9767C11.9478 38.8416 11.7979 62.7069 11.4532 86.5693C11.4384 87.592 11.2472 88.8667 10.2717 89.1742C10.4346 63.7369 10.5975 38.2996 10.7605 12.8623C32.823 12.6167 54.8872 12.5209 76.951 12.5748C77.438 12.576 77.9649 12.5903 78.349 12.8898C78.8712 13.2971 78.9231 14.0538 78.9307 14.716C79.2018 38.3677 79.4729 62.0195 79.744 85.6712C79.7539 86.5416 79.7088 87.5373 79.0355 88.0891C78.5237 88.5086 77.8046 88.5321 77.1429 88.5359C56.299 88.656 35.4551 88.7761 14.6112 88.8962C13.5108 88.9025 12.2345 88.8244 11.5913 87.9314C33.1659 87.7355 54.7406 87.5395 76.3152 87.3435C76.9445 87.3378 77.6577 87.2947 78.0627 86.813C78.3898 86.4239 78.4071 85.8696 78.4082 85.3613C78.4492 65.8821 78.2083 46.4024 77.6853 26.9302C77.324 32.2621 76.9627 37.5941 76.6014 42.926C76.4708 34.5673 76.3402 26.2085 76.2096 17.8498C76.1842 16.226 74.0113 15.7335 72.3873 15.7401C53.341 15.8169 34.2948 15.8937 15.2485 15.9705C14.9004 15.9719 14.5293 15.98 14.2404 16.1742C13.7666 16.4927 13.7107 17.1557 13.7021 17.7265C13.5608 27.0973 13.4195 36.4682 13.2782 45.839C13.1298 36.0925 12.9813 26.346 12.8329 16.5995C12.8259 16.1418 12.8337 15.6402 13.1287 15.2901Z" fill="black"/>
<path d="M52.5571 59.6625C52.2382 61.0219 51.4147 62.3929 51.8508 63.7194C51.9589 64.0481 51.4112 64.2602 51.1507 64.0325C50.8902 63.8048 50.8761 63.4116 50.8818 63.0657C50.8987 62.0325 50.9157 60.9994 50.9326 59.9663C51.3936 59.9292 51.837 59.7061 52.1414 59.3579C49.894 57.9273 46.5309 58.7337 45.1766 61.0278C44.1944 62.6918 42.4822 64.0037 40.555 64.1429C38.6278 64.282 36.5868 63.0308 36.1553 61.1474C35.7237 59.2639 37.324 57.0941 39.2509 57.2365C38.7039 57.9714 38.1569 58.7064 37.6099 59.4413C36.7041 60.6582 37.8793 62.5524 39.3761 62.7992C40.8729 63.0461 42.329 62.1606 43.4233 61.11C44.5176 60.0593 45.4308 58.7962 46.704 57.9713C47.9771 57.1464 49.8065 56.8854 50.933 57.9015C51.8536 57.2733 51.1506 55.8208 50.3081 55.0912C49.4657 54.3616 48.4127 53.3528 48.8847 52.3432C49.0361 52.0193 49.3273 51.7801 49.4969 51.4654C50.1833 50.1915 48.8072 48.0738 50.0887 47.4018C50.8902 49.2891 50.6508 51.5814 49.4767 53.2623C51.7892 54.3601 53.1418 57.1703 52.5571 59.6625V59.6625Z" fill="black"/>
<path d="M52.8761 29.213C57.6477 32.6064 61.0526 37.7838 62.5936 43.4326C64.1346 49.0814 63.856 55.1652 62.1192 60.7569C61.7321 62.0032 61.1526 63.3597 59.9441 63.8523C62.7811 58.0239 63.5095 51.1963 61.9661 44.9006C60.4227 38.6048 56.619 32.8883 51.4081 29.0328C51.7618 28.6196 52.4328 28.8978 52.8761 29.213V29.213Z" fill="black"/>
<path d="M86.1259 65.0653C86.1474 66.5379 86.1689 68.0106 86.1904 69.4832C86.2059 70.5485 86.2237 71.6293 86.525 72.6512C86.6422 73.0488 85.9213 73.2044 85.6807 72.8669C85.44 72.5295 85.537 72.0706 85.5762 71.6579C85.6155 71.2453 85.5131 70.7279 85.1154 70.6111C83.561 71.5757 85.4853 74.7095 83.8976 75.6184C82.3515 76.5034 82.241 78.6516 82.3207 80.4314C82.4408 83.111 82.5608 85.7907 82.6809 88.4704C82.7076 89.0659 82.7155 89.7216 82.3374 90.1825C81.9594 90.6434 81.0466 90.6419 80.8936 90.0657C81.2333 89.5966 81.381 88.9926 81.2961 88.4197C80.7513 84.7422 80.73 80.9874 81.2332 77.3039C81.3745 76.2701 81.8526 74.9763 82.896 74.9888C83.5639 74.9968 83.4402 73.9763 83.3994 73.3096C83.3676 72.7902 83.5453 72.2834 83.7205 71.7934C84.5223 69.5507 85.3241 67.308 86.1259 65.0653V65.0653Z" fill="black"/>
<path d="M31.0926 68.7333C33.5578 72.2187 37.4299 74.6779 41.6327 75.4275C45.8355 76.177 50.319 75.208 53.8372 72.7898C54.2843 72.4825 55.0079 72.2062 55.2645 72.6842C51.5946 75.6761 46.6657 77.0699 41.9725 76.4431C37.2792 75.8163 32.8889 73.1778 30.1328 69.3276C30.4527 69.1295 30.7726 68.9314 31.0926 68.7333Z" fill="black"/>
<path d="M85.7159 50.059C85.5023 54.4704 85.2887 58.8818 85.0752 63.2932C85.3344 63.3648 85.5935 63.4364 85.8527 63.508C85.5892 64.1291 85.2083 64.7001 84.736 65.1819C84.2161 65.0311 84.1322 64.3408 84.1485 63.7997C84.4365 54.2526 84.374 44.6948 83.9611 35.1523C84.8917 35.6979 85.3413 36.9435 84.9737 37.9577C85.3849 37.6762 85.8466 38.3692 85.6759 38.8373C85.5052 39.3054 85.0567 39.6313 84.8893 40.1006C84.6947 40.6461 84.9203 41.2402 85.1022 41.7901C85.9754 44.43 85.8504 47.2817 85.7159 50.059Z" fill="black"/>
<path d="M45.5107 28.1706C42.5309 27.671 39.3994 28.1194 36.6795 29.4351C36.017 29.7556 35.379 30.1256 34.763 30.5284C31.4395 32.7019 28.7666 35.8569 27.1689 39.4923C26.9353 37.6209 28.1271 35.8954 29.3133 34.4293C31.1036 32.2168 33.0804 30.063 35.6056 28.7502C40.1463 26.3896 45.606 27.1207 50.6621 27.9115C49.2707 29.0177 47.2639 28.4644 45.5107 28.1706V28.1706Z" fill="black"/>
<path d="M77.7495 85.4887C77.757 85.9663 77.4547 86.6522 77.0368 86.4208C76.73 77.6674 76.5946 68.908 76.6309 60.1492C77.0213 59.8885 77.3579 60.5534 77.3653 61.0227C77.4934 69.1781 77.6215 77.3334 77.7495 85.4887Z" fill="black"/>
<path d="M39.6279 40.4902C38.4951 40.7852 37.8086 42.197 38.276 43.2701C38.934 44.7809 38.7467 46.6284 37.7991 47.9765C37.538 48.3479 37.6156 48.8506 37.7042 49.2959C38.0301 50.9331 38.815 52.9697 40.4843 52.9541C39.9075 53.6838 38.7963 53.9271 37.9673 53.5052C37.1383 53.0833 36.6811 52.0417 36.9316 51.1459C37.2487 50.0119 35.3713 48.7009 36.2599 47.9282C37.3806 46.9536 37.8009 45.2528 37.2631 43.8685C37.0492 43.3177 36.6987 42.8104 36.6156 42.2255C36.4068 40.7554 38.4609 39.572 39.6279 40.4902Z" fill="black"/>
<path d="M85.4099 79.7586C85.589 83.674 85.6663 87.594 85.6417 91.5133C85.6397 91.8326 85.6343 92.1642 85.4941 92.4511C85.2008 93.0518 84.4484 93.2411 83.7863 93.3336C81.057 93.7152 78.2585 93.5967 75.5713 92.9856C78.0789 92.516 80.658 92.4293 83.1915 92.7297C84.0836 92.8355 84.5939 91.7364 84.7065 90.8451C84.9257 89.1099 84.732 87.3241 84.146 85.6763C84.0178 85.3159 83.8687 84.942 83.9223 84.5634C83.9759 84.1847 84.3254 83.8169 84.6985 83.901C83.8697 82.6062 84.1966 80.7027 85.4099 79.7586Z" fill="black"/>
<path d="M3.03566 35.2912C3.44935 40.0632 3.39715 44.8619 3.34462 49.6516C3.33084 50.9085 3.31705 52.1654 3.30327 53.4224C3.2945 54.2216 3.17277 55.1983 2.43424 55.5038C2.30449 48.49 2.24328 41.4749 2.25062 34.4599C2.63372 34.1966 2.99551 34.8281 3.03566 35.2912V35.2912Z" fill="black"/>
<path d="M29.0537 98.9739C28.5078 98.974 27.7423 98.7036 27.9025 98.1818C35.6731 97.9591 43.4525 98.0431 51.2164 98.4334C51.4359 98.7001 50.9433 98.9715 50.598 98.9715C43.4165 98.9723 36.2351 98.9731 29.0537 98.9739Z" fill="black"/>
<path d="M13.5413 59.2493C13.5619 64.3833 13.5825 69.5174 13.603 74.6514C13.6178 78.3488 13.6327 82.0462 13.6475 85.7436C13.6484 85.9691 13.6316 86.2308 13.4478 86.3613C13.0254 86.661 12.6519 85.9168 12.6583 85.399C12.7634 76.903 12.8685 68.4071 12.9736 59.9112C12.9781 59.5491 13.2492 59.0354 13.5413 59.2493V59.2493Z" fill="black"/>
<path d="M51.6633 46.9191C50.578 44.9131 49.4453 42.8496 47.6571 41.4339C46.6961 40.673 45.5834 40.1316 44.4807 39.5964C44.1842 39.0709 44.8039 38.4116 45.407 38.4301C46.0102 38.4486 46.5121 38.8766 46.9594 39.2816C47.8001 40.0426 48.6407 40.8036 49.4814 41.5647C50.3152 42.3195 51.2092 43.1944 51.2729 44.3174C51.3361 45.4326 52.2985 46.2436 53.0169 47.0988C53.7354 47.9541 54.2104 49.3484 53.3844 50.1003C52.8107 49.0399 52.237 47.9795 51.6633 46.9191Z" fill="black"/>
<path d="M80.7394 95.2956C82.5014 95.2762 84.2634 95.2569 86.0254 95.2376C86.2826 95.2348 86.5662 95.2219 86.7532 95.0453C86.958 94.8519 86.9712 94.5359 86.9705 94.2542C86.9616 90.9462 86.9528 87.6381 86.944 84.3301C87.6923 84.5351 87.827 85.5231 87.813 86.2989C87.7709 88.6409 87.7287 90.9829 87.6866 93.3249C87.6713 94.1738 87.6217 95.1099 87.0327 95.7213C86.4749 96.3004 85.602 96.4101 84.8016 96.4863C83.3106 96.6282 81.4734 96.6011 80.7394 95.2956V95.2956Z" fill="black"/>
<path d="M68.5817 7.67954C68.9885 8.13257 69.3953 8.58561 69.8021 9.03864C68.3689 8.92452 67.0315 7.9814 66.4428 6.66971C67.0388 6.8001 67.7495 6.89999 68.1817 6.46944C68.614 6.03889 68.0753 5.04569 67.5852 5.40912C66.3449 6.32899 64.3062 5.78905 63.6838 4.37582C64.7043 4.47345 65.7247 4.57108 66.7451 4.66871C68.5646 4.84279 70.3095 5.70754 71.55 7.04991C71.8198 7.34187 72.0791 7.68952 72.0781 8.08705C72.0771 8.48459 71.6795 8.88827 71.3075 8.7482C71.0071 8.23315 70.684 7.69494 70.1663 7.39909C69.6486 7.10325 68.8774 7.16184 68.5817 7.67954Z" fill="black"/>
<path d="M38.4443 95.2501C41.0193 95.6424 43.67 95.5312 46.2031 94.9248C47.8437 94.532 49.6268 94.7688 51.108 95.5761C47.3951 96.3127 43.595 96.6088 39.8128 96.4561C39.0686 96.4261 38.0365 95.8734 38.4443 95.2501V95.2501Z" fill="black"/>
<path d="M2.49324 19.5058C2.17024 15.0024 2.09379 10.4813 2.26433 5.9695C2.28738 5.35966 2.7861 4.50922 3.2558 4.89885C3.19109 9.56947 3.12638 14.2401 3.06167 18.9107C3.05675 19.2665 2.73584 19.7661 2.49324 19.5058V19.5058Z" fill="black"/>
<path d="M25.9578 96.3752C24.97 95.8641 23.7288 95.878 22.7527 96.4112C22.5552 96.1428 22.4775 95.7896 22.5442 95.4631C23.08 95.5076 23.6308 95.3278 24.0371 94.9758C23.7737 94.3547 22.8749 94.4744 22.2229 94.6478C21.5709 94.8213 20.6086 94.7319 20.5646 94.0587C21.1524 93.3073 22.2777 93.165 23.1825 93.4673C24.0873 93.7695 24.8241 94.4236 25.5336 95.0614C26.3569 95.8016 27.1803 96.5418 28.0037 97.282C27.3518 97.6284 26.6801 97.9811 25.9466 98.0643C25.2131 98.1475 24.3931 97.9002 24.0025 97.2737C24.7544 97.4361 25.5913 97.0516 25.9578 96.3752Z" fill="black"/>
<path d="M5.94659 22.1468C6.2761 23.8616 6.59982 25.5975 6.51052 27.3414C6.4346 28.8238 6.04715 30.3108 5.23844 31.5554C4.67733 32.419 3.94771 33.6474 4.73599 34.3102C3.98075 34.4997 3.36262 33.5523 3.49229 32.7845C3.62196 32.0167 4.18529 31.4091 4.60998 30.7564C5.63208 29.1857 5.88407 27.1383 5.27336 25.3666C5.05551 24.7346 4.73062 24.1142 4.74225 23.4459C4.75388 22.7775 5.28493 22.0515 5.94659 22.1468V22.1468Z" fill="black"/>
<path d="M65.4081 97.6774C64.2467 98.5817 62.5294 98.6978 61.2568 97.958C61.0366 96.0566 64.8234 95.7164 64.714 93.8054C64.6806 93.2206 65.4134 92.7487 65.9319 93.0212C66.4505 93.2937 66.4776 94.1648 65.977 94.469C65.6517 94.6667 65.9441 95.2122 66.3181 95.2832C66.692 95.3543 67.077 95.1915 67.4546 95.2396C67.8322 95.2877 68.1859 95.7742 67.902 96.0278C66.6368 96.1081 65.3715 96.1884 64.1063 96.2687C63.5409 96.3046 62.7598 96.7682 63.1163 97.2085C63.2381 97.359 63.4486 97.3966 63.6403 97.4241C64.2295 97.5085 64.8188 97.5929 65.4081 97.6774Z" fill="black"/>
<path d="M2.45911 56.4055C2.67146 56.1668 3.10264 56.3108 3.25526 56.5915C3.40788 56.8722 3.36839 57.2137 3.32821 57.5306C2.88393 61.0361 2.87328 64.5964 3.29659 68.1044C3.40258 68.9827 3.41622 70.0997 2.62092 70.4871C2.05223 65.818 1.99786 61.0865 2.45911 56.4055Z" fill="black"/>
<path d="M83.9454 11.3392C84.9056 12.3266 85.1759 13.9215 84.5946 15.1701C84.8297 14.8368 85.4039 14.9829 85.6106 15.3346C85.8173 15.6862 85.7693 16.1255 85.7148 16.5297C85.5481 17.7659 85.3814 19.0021 85.2147 20.2383C84.8107 20.649 84.2401 19.9272 84.1368 19.3604C83.6553 16.7185 83.5905 14.0011 83.9454 11.3392Z" fill="black"/>
<path d="M24.4899 53.8185C24.8989 55.9043 25.3079 57.99 25.7169 60.0758C25.9371 61.1988 26.7203 62.1108 27.3339 63.0768C27.9476 64.0427 28.412 65.2707 27.9333 66.3101C25.6858 63.0355 24.2604 59.2014 23.8229 55.254C23.7573 54.6624 23.8953 53.8446 24.4899 53.8185V53.8185Z" fill="black"/>
<path d="M18.6256 95.2887C19.3932 95.0077 20.3471 95.5881 20.4503 96.399C19.1945 95.8058 17.626 95.9368 16.486 96.7303C15.3676 97.5087 13.5974 97.0387 13.0123 95.8082C13.9061 95.9725 14.8383 96.1353 15.7117 95.8846C16.5852 95.6338 17.3731 94.8336 17.2886 93.9288C17.2689 93.7167 17.2034 93.5027 17.2479 93.2944C17.3887 92.6356 18.4895 92.7326 18.7916 93.3348C19.0936 93.937 18.8611 94.6575 18.6256 95.2887V95.2887Z" fill="black"/>
<path d="M55.8552 93.0527C52.1268 93.8521 48.2419 93.9147 44.4897 93.2358C48.2253 92.487 52.0974 92.4247 55.8552 93.0527V93.0527Z" fill="black"/>
<path d="M3.4269 25.4991C4.36739 25.8888 4.75262 27.0837 4.55214 28.0818C4.35166 29.0799 3.71185 29.9247 3.09013 30.7308C2.85978 31.0295 2.62941 31.3282 2.39905 31.6269C2.35192 30.7121 2.27771 29.7987 2.17654 28.8882C2.03865 27.6474 2.51616 26.3531 3.4269 25.4991ZM2.80107 28.3717C3.38035 28.595 3.98074 27.7083 3.55835 27.2533C3.0668 27.2775 2.68469 27.8444 2.84672 28.3091L2.80107 28.3717Z" fill="black"/>
<path d="M76.6032 45.9308C76.603 45.5558 76.8397 45.0217 77.1707 45.1981C77.2324 49.8769 77.2313 54.5566 77.1676 59.2354C76.9062 59.4761 76.6108 58.9708 76.6106 58.6155C76.6082 54.3873 76.6057 50.1591 76.6032 45.9308Z" fill="black"/>
<path d="M28.2805 96.035C30.6991 95.2941 33.2932 95.1331 35.7848 95.5692C36.3226 95.6633 36.9966 95.9752 36.9097 96.5142C34.6674 96.1322 32.3544 96.169 30.1254 96.6222C29.4119 96.7672 28.3852 96.7555 28.2805 96.035V96.035Z" fill="black"/>
<path d="M2.82529 91.927C2.82563 92.3069 2.61713 92.8439 2.26385 92.7043C2.18466 88.6198 2.18851 84.5336 2.27543 80.4493C2.542 80.2284 2.81522 80.7218 2.81553 81.068C2.81878 84.6877 2.82203 88.3073 2.82529 91.927Z" fill="black"/>
<path d="M13.5314 11.0992C13.0963 10.0225 13.9511 8.77454 15.0345 8.35645C16.118 7.93835 17.3286 8.11814 18.475 8.30381C18.9579 8.38202 19.5729 8.61603 19.5357 9.10383C19.4849 9.77042 18.4846 9.63878 17.8415 9.45629C16.2561 9.00645 14.4151 9.70822 13.5314 11.0992V11.0992Z" fill="black"/>
<path d="M2.37717 98.6477C6.34463 98.1678 10.3718 98.1834 14.3354 98.6941C10.3738 99.2426 6.33444 99.2269 2.37717 98.6477V98.6477Z" fill="black"/>
<path d="M4.3631 96.8221C6.241 95.6651 8.65014 95.4138 10.7264 96.1584C10.8137 96.1897 10.9055 96.2264 10.9596 96.3017C11.1376 96.5495 10.7646 96.8221 10.4679 96.8928C8.46824 97.3695 6.35116 97.3449 4.3631 96.8221V96.8221Z" fill="black"/>
<path d="M51.1955 96.7248C51.1883 96.0282 52.1849 95.901 52.8719 96.0165C53.4187 96.1084 53.9656 96.2003 54.5125 96.2922C55.31 95.0568 57.4216 95.0407 58.2378 96.2639C55.9702 96.9678 53.5356 97.1271 51.1955 96.7248Z" fill="black"/>
<path d="M5.61645 72.2801C5.81698 72.0166 6.25483 71.9824 6.49383 72.2116C5.93427 73.3179 6.32859 74.8137 7.36085 75.5004C8.50446 76.2611 8.58305 78.1823 7.50539 79.0339C7.64849 77.88 7.21088 76.6687 6.36331 75.8726C5.41361 74.9807 5.10094 73.4767 5.61645 72.2801V72.2801Z" fill="black"/>
<path d="M39.4054 37.6931C40.4882 37.5079 41.5811 37.3822 42.6776 37.3166C43.1159 37.2904 43.6187 37.2994 43.908 37.6297C44.1974 37.96 43.9103 38.6552 43.4987 38.5024C42.9581 38.0368 42.1179 38.2625 41.4983 38.6161C40.8787 38.9698 40.2608 39.4444 39.548 39.4155C38.8352 39.3866 38.1919 38.4478 38.7124 37.9599C38.8958 37.7881 39.1577 37.7354 39.4054 37.6931V37.6931Z" fill="black"/>
<path d="M5.19004 89.069C5.24296 89.4751 5.29595 89.882 5.3086 90.2914C5.33636 91.1897 5.12909 92.1623 4.45487 92.7566C4.14356 90.0274 4.19248 87.2573 4.59996 84.5407C4.79665 86.0502 4.99334 87.5596 5.19004 89.069Z" fill="black"/>
<path d="M14.3085 100.141C17.3819 99.6849 20.5225 99.6852 23.5958 100.141C20.5379 100.734 17.3663 100.734 14.3085 100.141Z" fill="black"/>
<path d="M81.0865 7.55114C79.2921 7.66019 77.4239 7.75754 75.7658 7.06302C77.8848 6.44608 80.16 6.37394 82.3138 6.8554C82.2518 7.36453 81.5985 7.52003 81.0865 7.55114V7.55114Z" fill="black"/>
<path d="M81.1939 13.2122C80.6787 13.3588 80.4027 12.6221 80.3951 12.0865C80.3875 11.5508 80.1776 10.8108 79.6485 10.8949C80.6632 10.1632 81.6779 9.43152 82.6926 8.69986C82.9747 9.42505 83.0502 10.553 82.2827 10.6811C81.2065 10.8608 80.5842 12.3073 81.1939 13.2122Z" fill="black"/>
<path d="M22.3896 86.4126C25.4557 85.9322 28.5967 85.9328 31.6627 86.4145C28.6005 86.9318 25.4515 86.9311 22.3896 86.4126V86.4126Z" fill="black"/>
<path d="M54.6949 55.9616C55.7276 57.8224 55.1335 60.4181 53.3942 61.6445C53.8675 60.6155 54.3488 59.5547 54.4056 58.4235C54.4624 57.2923 53.9947 56.0589 52.9891 55.5376C53.2355 54.8366 54.3344 55.3119 54.6949 55.9616V55.9616Z" fill="black"/>
<path d="M73.7377 97.1511C74.3624 96.5921 75.5498 97.0288 75.6635 97.8594C74.788 98.1592 73.8828 98.4631 72.96 98.3944C72.0373 98.3258 71.084 97.7855 70.8248 96.8972C71.805 97.0056 72.7851 97.1139 73.7653 97.2223L73.7377 97.1511Z" fill="black"/>
<path d="M86.3316 75.6443C85.8337 76.3185 85.139 76.8456 84.3557 77.1436C84.5231 76.0808 85.2956 75.1348 86.3035 74.7582C86.4282 75.3437 87.3459 75.5372 87.6964 75.0519C88.2239 75.8651 88.2917 76.9563 87.8686 77.8285C87.43 77.0521 86.9143 76.3192 86.3316 75.6443Z" fill="black"/>
<path d="M70.4733 95.834C70.0727 95.8371 69.64 95.8302 69.3197 95.5895C69.1377 95.4528 69.0175 95.1614 69.1857 95.0081C70.8543 94.5245 73.1039 94.2669 73.9072 95.8073C72.7626 95.8162 71.6179 95.8251 70.4733 95.834V95.834Z" fill="black"/>
<path d="M7.89663 81.9108C7.89751 83.6209 7.89839 85.331 7.89928 87.041C7.89958 87.6272 7.51419 88.4632 7.00684 88.1696C7.13612 85.8978 7.26541 83.6259 7.3947 81.3541C7.62872 81.1357 7.89647 81.5908 7.89663 81.9108Z" fill="black"/>
<path d="M60.3328 89.9129C59.3783 90.5132 58.1787 90.514 57.0513 90.4956C55.8928 90.4767 54.7343 90.4579 53.5758 90.439C53.5682 89.9131 54.257 89.7167 54.7826 89.6955C56.6345 89.6205 58.4924 89.6933 60.3328 89.9129Z" fill="black"/>
<path d="M8.2185 28.7398C8.19257 29.9747 8.16664 31.2097 8.14071 32.4447C7.26835 32.3403 6.97796 31.1919 7.12705 30.3261C7.27614 29.4603 7.63869 28.5401 7.269 27.7431C7.45687 27.5011 7.87654 27.6002 8.05071 27.8523C8.22487 28.1043 8.22493 28.4335 8.2185 28.7398V28.7398Z" fill="black"/>
<path d="M13.3656 46.2005C13.4872 48.3065 13.6088 50.4125 13.7305 52.5184C13.7569 52.9756 13.5837 53.6245 13.1337 53.54C12.7502 51.1079 12.8294 48.6036 13.3656 46.2005V46.2005Z" fill="black"/>
<path d="M66.0623 92.4016C67.3972 90.9482 70.2531 91.5961 70.8302 93.4833C70.6764 93.7762 70.308 93.9375 69.9884 93.8519C70.1426 93.0763 69.2 92.521 68.4095 92.5023C67.6189 92.4836 66.7844 92.7238 66.0623 92.4016V92.4016Z" fill="black"/>
<path d="M75.5493 86.1409C73.0023 86.6152 70.3674 86.6127 67.8214 86.1335C70.363 85.6177 73.0087 85.6202 75.5493 86.1409V86.1409Z" fill="black"/>
<path d="M5.8565 60.3648C6.59946 61.9969 6.56377 63.9636 5.76206 65.5677C5.10076 63.9136 5.1356 61.9938 5.8565 60.3648V60.3648Z" fill="black"/>
<path d="M52.2041 5.66427C54.2557 5.54125 56.3073 5.41824 58.3588 5.29522C58.7462 5.27199 59.2918 5.69191 58.9494 5.87453C56.7212 6.29374 54.4019 6.22144 52.2041 5.66427V5.66427Z" fill="black"/>
<path d="M8.77588 8.68769C10.0619 8.55539 11.3791 8.73688 12.5814 9.21204C10.9597 9.44936 9.33803 9.68668 7.71636 9.92399C7.23539 9.43925 8.0966 8.75757 8.77588 8.68769V8.68769Z" fill="black"/>
<path d="M14.1736 90.4852C15.3123 90.5014 16.461 90.5187 17.5711 90.7729C17.9787 90.8662 18.4831 91.2092 18.2881 91.5791C16.897 92.2548 15.0455 91.7625 14.1736 90.4852Z" fill="black"/>
<path d="M65.2965 91.6026C65.1907 91.9663 64.7631 92.1261 64.3858 92.1599C63.4337 92.2452 62.4507 91.8373 61.8387 91.103C62.5352 90.7105 63.3482 90.5278 64.1456 90.5847C64.7337 90.6265 65.4612 91.0365 65.2965 91.6026V91.6026Z" fill="black"/>
<path d="M18.5548 98.74C19.7103 98.0764 21.1099 97.8494 22.416 98.1138C22.9314 98.2181 23.4597 98.4156 23.785 98.8288C22.0544 99.1061 20.275 99.0759 18.5548 98.74Z" fill="black"/>
<path d="M36.9792 55.8739C37.5455 55.0595 38.7095 54.7251 39.6217 55.1146C38.1631 56.0973 36.7044 57.08 35.2458 58.0626C35.5212 57.1579 36.1038 56.3498 36.8751 55.8026L36.9792 55.8739Z" fill="black"/>
<path d="M12.0962 93.8466C13.2098 93.4396 14.4599 93.4173 15.5873 93.7843C15.8916 93.8834 16.2019 94.327 15.9018 94.4382C14.6615 94.9868 13.1114 94.7458 12.0962 93.8466Z" fill="black"/>
<path d="M27.3404 90.4983C26.5979 90.4722 25.8487 90.7079 25.2549 91.1544C24.9446 91.3879 24.6587 91.6852 24.281 91.7753C23.9032 91.8654 23.4119 91.6009 23.4653 91.2162C23.4978 90.9824 23.7092 90.8201 23.9095 90.6951C24.8948 90.08 26.0376 89.7195 27.1975 89.6578C27.2452 89.938 27.2928 90.2181 27.3404 90.4983Z" fill="black"/>
<path d="M29.8275 93.0265C31.1431 92.5271 32.6359 92.5103 33.9624 92.98C34.1732 93.0547 34.2089 93.3984 34.018 93.5148C32.6241 93.8674 31.103 93.6901 29.8275 93.0265Z" fill="black"/>
<path d="M12.6774 7.66093C11.9154 7.64449 11.1776 7.19408 10.8147 6.52382C11.1566 5.93579 12.0575 6.1167 12.6385 6.47046C13.2195 6.82421 13.8813 7.29532 14.513 7.04303C14.1504 7.65554 13.3475 7.96759 12.6665 7.76064L12.6774 7.66093Z" fill="black"/>
<path d="M78.2627 89.4467C78.9934 89.3029 79.7928 89.5916 80.263 90.1691C78.8136 90.4002 77.3275 90.3989 75.8785 90.1654C76.3389 89.4078 77.4145 89.1017 78.2048 89.5034L78.2627 89.4467Z" fill="black"/>
<path d="M20.6722 92.7701C20.0072 93.3845 18.715 92.9175 18.5966 92.0199C19.7085 91.4892 21.1183 91.6535 22.0783 92.4259C21.6374 92.5784 21.1965 92.7309 20.7556 92.8835L20.6722 92.7701Z" fill="black"/>
<path d="M53.4153 7.29335C53.5976 7.31199 53.8189 7.36547 53.8657 7.5426C53.8921 7.64261 53.8412 7.75762 53.7495 7.80533C51.8639 8.0133 49.9459 7.92407 48.0879 7.54195C49.8383 7.19595 51.6403 7.11186 53.4153 7.29335V7.29335Z" fill="black"/>
<path d="M2.45848 25.008C1.99957 23.9585 2.05741 22.6972 2.61045 21.6941C3.73089 22.4192 3.64059 24.3885 2.45848 25.008V25.008Z" fill="black"/>
<path d="M9.79387 90.519C9.47414 90.6362 9.15441 90.7533 8.83468 90.8704C8.42058 90.3823 8.60803 89.5186 9.18724 89.246C10.2404 89.9618 11.5547 90.2838 12.8195 90.136C11.9571 90.6967 10.8411 90.8491 9.85997 90.54L9.79387 90.519Z" fill="black"/>
<path d="M81.0037 49.7239C81.6484 49.9877 81.9821 50.7398 81.9687 51.4363C81.9554 52.1328 81.6665 52.7907 81.3826 53.4269C81.2759 53.6661 81.0071 53.9485 80.8103 53.7756C80.8748 52.425 80.9392 51.0745 81.0037 49.7239Z" fill="black"/>
<path d="M15.5534 6.84888C15.4024 6.78219 15.2473 6.69769 15.1675 6.55317C14.9034 6.07474 15.6564 5.66608 16.1999 5.72289C17.0659 5.8134 17.8906 6.25214 18.4496 6.91977C17.5247 7.27521 16.4597 7.24914 15.5534 6.84888Z" fill="black"/>
<path d="M56.0908 98.5216C57.4287 97.9755 58.9374 97.8572 60.3441 98.1881C60.4893 98.2222 60.4559 98.4922 60.3067 98.49C59.0036 99.1363 57.4035 99.1483 56.0908 98.5216Z" fill="black"/>
<path d="M82.4442 22.5327C82.8634 23.6602 82.6813 24.992 81.9749 25.9655C81.0596 25.0061 81.305 23.2112 82.4442 22.5327V22.5327Z" fill="black"/>
<path d="M53.6955 43.5705C53.8765 43.1082 53.9986 42.623 54.058 42.1301C55.0571 42.9142 55.1335 44.6131 54.2089 45.4837C53.7807 44.9417 53.5592 44.2403 53.5985 43.5506L53.6955 43.5705Z" fill="black"/>
<path d="M82.1079 67.5925C83.1635 68.4846 83.2031 70.3223 82.1869 71.2591C81.7429 70.0941 81.7144 68.7755 82.1079 67.5925V67.5925Z" fill="black"/>
<path d="M5.98208 46.4021C5.6906 45.1421 5.70131 43.8133 6.01306 42.5581C7.00997 43.5733 6.99522 45.4031 5.98208 46.4021V46.4021Z" fill="black"/>
<path d="M7.32939 22.5548C6.97531 21.6178 7.01008 20.5406 7.42384 19.6283C8.0793 19.503 8.6029 20.3048 8.477 20.9602C8.3511 21.6155 7.82614 22.1092 7.32939 22.5548V22.5548Z" fill="black"/>
<path d="M87.6522 59.3178C87.636 59.5067 87.5866 59.7342 87.4064 59.7931C87.2973 59.8288 87.1665 59.7766 87.1119 59.6757C86.7732 58.2042 86.8874 56.6316 87.4352 55.2245C87.6964 56.5701 87.7696 57.9521 87.6522 59.3178V59.3178Z" fill="black"/>
<path d="M6.62044 6.82461C6.95563 7.00424 7.29082 7.18387 7.62602 7.3635C7.17461 7.83851 6.72319 8.31352 6.27178 8.78853C5.91397 8.22987 5.55617 7.67122 5.19836 7.11257C5.62445 6.93998 6.09769 6.88553 6.55184 6.95683L6.62044 6.82461Z" fill="black"/>
<path d="M83.8082 8.59259C83.6823 8.10127 83.5563 7.60994 83.4304 7.11861C83.6482 6.96935 83.9291 6.91568 84.1866 6.97413C84.6524 8.12836 84.6638 9.45908 84.2178 10.6211C83.6117 10.2251 83.6886 9.32912 83.8368 8.62042L83.8082 8.59259Z" fill="black"/>
<path d="M70.4846 90.0092C71.1813 90.0096 71.8781 90.01 72.5748 90.0104C72.7503 90.1779 72.7754 90.4795 72.63 90.6737C72.1087 91.0309 71.5092 91.4055 70.89 91.2788C70.2709 91.152 69.8924 90.2029 70.4371 89.8825L70.4846 90.0092Z" fill="black"/>
<path d="M31.3219 6.29664C30.814 6.44165 30.0604 6.44145 29.9854 5.91859C30.9817 5.24742 32.4033 5.28619 33.3615 6.01067C32.7933 6.41697 32.0273 6.53146 31.3651 6.30907L31.3219 6.29664Z" fill="black"/>
<path d="M73.6208 92.8534C73.0957 93.4774 71.9843 93.4524 71.4877 92.8055C72.3455 92.228 73.3605 91.8864 74.3929 91.8279C74.272 92.2459 73.9891 92.6147 73.6169 92.84L73.6208 92.8534Z" fill="black"/>
<path d="M75.6522 10.9725C76.3469 10.5575 77.2326 10.4788 77.9896 10.7648C76.6165 11.4494 75.0265 11.6907 73.5121 11.4443C73.9703 10.8514 74.8414 10.6198 75.5335 10.9069L75.6522 10.9725Z" fill="black"/>
<path d="M82.6555 21.0737C82.1407 20.5855 82.1762 19.6415 82.7264 19.1935C83.0706 19.6966 83.4248 20.2252 83.5014 20.83C83.578 21.4348 83.2791 22.1343 82.6923 22.2997C82.6417 21.9183 82.5911 21.5369 82.5405 21.1555L82.6555 21.0737Z" fill="black"/>
<path d="M39.609 6.19067C39.8636 6.6992 39.3383 7.31717 38.7729 7.37891C38.2075 7.44065 37.6726 7.14103 37.1828 6.85189C37.6549 6.13388 38.7008 5.86694 39.4592 6.2709L39.609 6.19067Z" fill="black"/>
<path d="M25.6621 93.8597C25.2196 94.0675 24.6632 93.6391 24.6453 93.1506C25.0335 92.5269 25.8606 92.2151 26.5639 92.4275C26.7152 92.6335 26.7719 92.9062 26.7151 93.1554C26.3072 93.2959 25.9412 93.5558 25.6742 93.8948L25.6621 93.8597Z" fill="black"/>
<path d="M5.53291 57.8843C5.45232 57.2681 5.45544 56.4851 6.01488 56.2146C6.50586 57.0128 6.58458 58.0503 6.21967 58.9135C5.81269 59.2846 5.40682 58.4281 5.54555 57.8951L5.53291 57.8843Z" fill="black"/>
<path d="M4.13947 78.678C3.80496 78.6633 3.60178 78.2589 3.66804 77.9307C3.73429 77.6024 3.97899 77.3438 4.21315 77.1045C4.62433 76.6843 5.03552 76.264 5.4467 75.8438C5.51826 76.8838 4.95357 77.9419 4.04977 78.4615L4.13947 78.678Z" fill="black"/>
<path d="M5.172 10.6961C5.28518 11.6808 5.28649 12.6784 5.17592 13.6635C4.39961 12.8216 4.21059 11.4897 4.722 10.4651C4.75986 10.1697 5.33628 10.4242 5.14345 10.6512L5.172 10.6961Z" fill="black"/>
<path d="M86.9735 31.3732C86.3589 30.9354 86.0204 30.1398 86.131 29.3933C86.6722 29.6066 87.257 29.8576 87.5291 30.3717C87.8012 30.8858 87.4887 31.7028 86.9084 31.663L86.9735 31.3732Z" fill="black"/>
<path d="M88.3295 81.8429C87.8769 82.4896 87.4243 83.1363 86.9718 83.783C86.7847 83.2062 86.6003 82.5635 86.8526 82.0122C87.105 81.4609 88.0149 81.2385 88.2967 81.7754L88.3295 81.8429Z" fill="black"/>
<path d="M33.7671 86.3861C34.8944 86.0655 36.0918 85.994 37.2492 86.1783C37.4418 86.209 37.5199 86.5046 37.3676 86.6264C36.1782 86.8983 34.9097 86.8137 33.7671 86.3861Z" fill="black"/>
<path d="M4.65814 39.9563C4.54047 39.5349 4.61625 38.87 5.04936 38.9315C5.67898 39.6935 5.65002 40.919 4.9851 41.6504C4.46633 41.3391 4.53349 40.5792 4.66728 39.9892L4.65814 39.9563Z" fill="black"/>
<path d="M37.0841 93.1726C37.4206 93.3393 37.757 93.506 38.0935 93.6727C37.7193 94.3346 36.8629 94.6801 36.1341 94.4634C35.9821 94.2611 35.9247 93.9906 35.9814 93.7441C36.3291 93.5946 36.6768 93.4451 37.0245 93.2956L37.0841 93.1726Z" fill="black"/>
<path d="M70.16 98.6156C69.2275 99.0023 68.1021 98.8821 67.2723 98.3071C68.243 97.9066 69.3777 97.9231 70.3363 98.3517L70.16 98.6156Z" fill="black"/>
<path d="M88.4061 66.2161C88.634 67.0536 88.04 68.0211 87.19 68.1968C86.9226 67.3697 87.3894 66.375 88.1965 66.0521L88.4061 66.2161Z" fill="black"/>
<path d="M25.9474 11.9721C25.4518 12.1144 24.7314 12.1351 24.6182 11.6321C25.5657 11.1759 26.6722 11.059 27.6942 11.307C27.2492 11.7547 26.6065 11.9982 25.9766 11.9579L25.9474 11.9721Z" fill="black"/>
<path d="M5.37686 50.9448C5.56709 50.5886 5.75731 50.2324 5.94754 49.8762C6.52394 50.6882 6.61089 51.8212 6.16509 52.7116C5.78296 52.2379 5.56891 51.6313 5.56912 51.0227L5.37686 50.9448Z" fill="black"/>
<path d="M33.2068 10.8271C34.0918 10.2865 35.321 10.3865 36.1069 11.0632C35.228 11.4517 34.1658 11.3964 33.332 10.9185L33.2068 10.8271Z" fill="black"/>
<path d="M37.924 91.7813C37.3493 91.8622 36.5006 91.6524 36.6294 91.0865C37.1292 90.4421 38.328 90.6121 38.6289 91.37C38.4695 91.6068 38.2006 91.7666 37.9165 91.7932L37.924 91.7813Z" fill="black"/>
<path d="M40.905 93.7693C40.468 93.7743 40.0369 93.5283 39.8188 93.1496C40.7275 92.884 41.7173 92.9036 42.6148 93.2052C42.151 93.6149 41.5291 93.8408 40.9105 93.8242L40.905 93.7693Z" fill="black"/>
<path d="M52.1636 51.4555C52.1593 51.1488 52.155 50.8421 52.1507 50.5355C52.9435 50.8858 53.5094 51.7009 53.5607 52.5662C52.9486 52.6162 52.3519 52.0808 52.3354 51.4669L52.1636 51.4555Z" fill="black"/>
<path d="M52.8357 41.2503C52.0578 41.5415 51.1071 41.2816 50.5855 40.6353C51.3506 40.1077 52.554 40.4225 52.9628 41.2571L52.8357 41.2503Z" fill="black"/>
<path d="M59.7295 95.6856C60.2529 95.6885 60.7763 95.6913 61.2998 95.6941C61.2085 96.4856 60.1352 96.9618 59.4872 96.4985C59.2275 96.2879 59.4041 95.775 59.7383 95.769L59.7295 95.6856Z" fill="black"/>
<path d="M29.3382 67.8534C29.6622 68.088 29.7486 68.5926 29.5208 68.9216C28.7923 68.4752 28.3068 67.6554 28.2656 66.802C28.7819 66.7272 29.3 67.2206 29.2505 67.7399L29.3382 67.8534Z" fill="black"/>
<path d="M56.6628 93.2805C56.4847 92.7564 57.2427 92.383 57.7819 92.5083C58.3211 92.6336 58.8376 92.9888 59.3801 92.8786C58.7031 93.4352 57.6816 93.5295 56.9142 93.1063L56.6628 93.2805Z" fill="black"/>
<path d="M57.0582 71.048C57.02 71.2399 56.6814 71.1501 56.6604 70.9556C56.6394 70.761 56.7978 70.5985 56.9433 70.4676C57.6061 69.8715 58.269 69.2753 58.9318 68.6791C58.6904 69.6456 58.0315 70.5001 57.1582 70.9793L57.0582 71.048Z" fill="black"/>
<path d="M55.9849 100.294C55.1029 100.662 54.0516 100.594 53.2236 100.118C54.1148 99.7159 55.1791 99.7186 56.0681 100.125L55.9849 100.294Z" fill="black"/>
<path d="M63.919 7.27946C63.4738 7.2304 63.0053 6.70492 63.3205 6.38667C64.0111 6.29413 64.8372 6.25228 65.2708 6.7978C64.971 7.20204 64.4011 7.38216 63.9234 7.22371L63.919 7.27946Z" fill="black"/>
<path d="M11.6072 93.5214C11.1902 94.3189 9.84742 94.3557 9.38745 93.5821C9.99498 93.1779 10.8229 93.1316 11.4718 93.4653L11.6072 93.5214Z" fill="black"/>
<path d="M87.5795 61.5309C87.8586 61.9586 87.7002 62.6079 87.2555 62.859C87.0071 62.4824 86.7498 62.0782 86.7436 61.6271C86.7375 61.176 87.1017 60.6903 87.5494 60.7463C87.6018 60.9876 87.6542 61.229 87.7066 61.4704L87.5795 61.5309Z" fill="black"/>
<path d="M43.4247 11.1646C44.261 10.6592 45.3723 10.6473 46.2192 11.1348C45.4061 11.4974 44.4755 11.591 43.6064 11.3974L43.4247 11.1646Z" fill="black"/>
<path d="M24.4983 46.9813C24.244 46.2905 24.0907 45.5625 24.0449 44.8278C24.5194 44.7107 24.9728 45.1869 25.0236 45.6729C25.0745 46.159 24.8492 46.6266 24.6299 47.0634L24.4983 46.9813Z" fill="black"/>
<path d="M5.49541 19.2388C5.11355 18.4476 5.24729 17.4354 5.82154 16.7706C6.24367 17.4292 6.18786 18.358 5.68989 18.9613L5.49541 19.2388Z" fill="black"/>
<path d="M7.65449 24.8892C7.55912 24.054 7.96674 23.1809 8.66826 22.7177C8.96357 23.5296 8.53917 24.5341 7.75121 24.8883L7.65449 24.8892Z" fill="black"/>
<path d="M21.0295 11.2331C20.7252 11.2392 20.4381 10.9855 20.4064 10.6828C21.2276 10.3987 22.2293 10.8151 22.6069 11.5977C22.0971 11.8203 21.4502 11.6725 21.0877 11.2506L21.0295 11.2331Z" fill="black"/>
<path d="M66.626 10.6104C67.1567 10.3656 67.8312 10.4762 68.2559 10.8776C67.8942 11.2 67.4736 11.5433 66.9907 11.5038C66.5078 11.4643 66.1374 10.7694 66.5286 10.4834L66.626 10.6104Z" fill="black"/>
<path d="M5.35479 37.6074C5.44493 37.9922 4.96209 38.3708 4.60988 38.1915C4.52625 37.5076 4.58366 36.8068 4.77748 36.1456C5.17598 36.5139 5.42529 37.0393 5.45864 37.581L5.35479 37.6074Z" fill="black"/>
<path d="M81.5652 56.8343C81.1897 56.0621 81.2612 55.0912 81.7456 54.3823C82.1398 55.1663 82.1303 56.1405 81.7209 56.9167L81.5652 56.8343Z" fill="black"/>
<path d="M22.0514 5.17189C21.535 5.49458 20.8832 5.59204 20.295 5.4345C20.0713 5.20417 20.0691 4.79532 20.2904 4.56263C20.866 4.49621 21.4659 4.67547 21.9108 5.04679L22.0514 5.17189Z" fill="black"/>
<path d="M84.0777 77.9104C84.0805 78.4195 84.0833 78.9287 84.086 79.4378C83.6088 79.5401 83.0929 79.1186 83.098 78.6306C83.103 78.1425 83.6276 77.7318 84.1026 77.844L84.0777 77.9104Z" fill="black"/>
<path d="M68.4113 93.249C68.8428 93.3973 69.2212 93.6952 69.4665 94.0799C68.9473 94.5759 67.9474 94.3598 67.6792 93.6937C67.9077 93.5438 68.1362 93.3938 68.3648 93.2439L68.4113 93.249Z" fill="black"/>
<path d="M48.5407 90.4104C48.2497 90.3636 48.1411 89.9089 48.3795 89.7358C49.0797 89.6406 49.9292 89.6051 50.3416 90.1789C49.7459 90.3125 49.1502 90.4461 48.5545 90.5797L48.5407 90.4104Z" fill="black"/>
<path d="M5.28319 67.5404C5.00139 67.9355 4.30217 67.5438 4.28822 67.0587C4.27427 66.5736 4.64923 66.1759 4.99815 65.8386C5.10001 66.3729 5.20188 66.9073 5.30374 67.4416L5.28319 67.5404Z" fill="black"/>
<path d="M2.72422 96.3545C2.07766 95.6999 1.98585 94.5719 2.51807 93.8213C2.87536 94.5788 2.96837 95.458 2.7775 96.2736L2.72422 96.3545Z" fill="black"/>
<path d="M5.82032 39.3682C5.75437 38.8603 5.80906 38.215 6.28363 38.0226C6.68946 38.4543 6.84403 39.107 6.67496 39.6749C6.39163 39.873 5.93099 39.6917 5.85865 39.3536L5.82032 39.3682Z" fill="black"/>
<path d="M75.8968 96.0411C76.2895 95.6072 77.0094 95.5187 77.4954 95.8446C77.5602 96.1269 77.5016 96.4353 77.3377 96.6741C76.8805 96.5501 76.4232 96.426 75.9659 96.3019L75.8968 96.0411Z" fill="black"/>
<path d="M7.36376 51.5935C7.20729 50.9817 7.16746 50.133 7.76418 49.9263C7.91917 50.5754 7.96016 51.2515 7.88471 51.9146C7.71014 52.1674 7.21669 51.9151 7.31938 51.6256L7.36376 51.5935Z" fill="black"/>
<path d="M45.6743 6.31602C45.2434 6.42743 44.5683 6.33707 44.6397 5.89769C45.3334 5.68235 46.0909 5.67756 46.7873 5.88411C46.6998 6.31854 46.1017 6.54933 45.745 6.28631L45.6743 6.31602Z" fill="black"/>
<path d="M52.2518 98.9453C52.0046 99.1353 51.7585 98.6184 51.9659 98.3857C52.648 98.2878 53.3519 98.3448 54.0093 98.5514C53.5939 99.0187 52.8605 99.1682 52.2953 98.9008L52.2518 98.9453Z" fill="black"/>
<path d="M25.663 100.439C25.4159 100.629 25.1697 100.112 25.3772 99.8795C26.0593 99.7816 26.7632 99.8386 27.4206 100.045C27.0052 100.512 26.2718 100.662 25.7066 100.395L25.663 100.439Z" fill="black"/>
<path d="M5.18761 20.2478C5.29117 20.6727 4.7267 21.0805 4.3558 20.8487C4.27325 20.5272 4.19155 20.1818 4.30548 19.87C4.41941 19.5582 4.81722 19.3306 5.09415 19.5137C5.1465 19.7567 5.19887 19.9998 5.25123 20.2428L5.18761 20.2478Z" fill="black"/>
<path d="M74.5311 8.20173C75.0406 8.39758 74.4198 9.27207 73.9462 9.00072C73.4725 8.72937 73.4913 8.02556 73.7185 7.52923C73.9849 7.78651 74.2513 8.04379 74.5177 8.30107L74.5311 8.20173Z" fill="black"/>
<path d="M29.2847 10.9048C29.7144 10.7774 30.1442 10.65 30.5739 10.5227C30.6012 11.2465 29.6229 11.7742 29.033 11.3539C28.7356 11.299 28.9733 10.7221 29.223 10.8926L29.2847 10.9048Z" fill="black"/>
<path d="M59.856 66.2588C59.8855 65.7539 59.915 65.2491 59.9444 64.7442C60.3118 65.0668 60.7107 65.4596 60.688 65.9479C60.6652 66.4362 59.8838 66.7613 59.6915 66.3119L59.856 66.2588Z" fill="black"/>
<path d="M83.3254 91.5049C83.1728 90.9419 83.4177 90.2941 83.9047 89.973C84.092 90.4045 84.1532 90.89 84.0786 91.3546C83.862 91.4981 83.5863 91.5493 83.3326 91.4932L83.3254 91.5049Z" fill="black"/>
<path d="M80.8077 20.5426C80.7343 20.0141 80.8244 19.3198 81.3411 19.187C81.5163 19.7181 81.5211 20.304 81.3547 20.8379C81.1961 21.0958 80.6986 20.8348 80.8206 20.5577L80.8077 20.5426Z" fill="black"/>
<path d="M4.34645 81.1782C4.11656 80.7336 4.59464 80.1939 5.09322 80.1492C5.26639 80.5766 5.17025 81.1002 4.85658 81.4382C4.76062 81.7282 4.20611 81.4881 4.35192 81.2197L4.34645 81.1782Z" fill="black"/>
<path d="M80.855 38.149C80.7094 37.6489 80.7014 36.9088 81.2153 36.824C81.3596 37.1236 81.5078 37.4474 81.4548 37.7758C81.4019 38.1042 81.0488 38.4017 80.7444 38.2677L80.855 38.149Z" fill="black"/>
<path d="M79.9974 95.3468C79.5754 95.7866 78.8161 95.8455 78.3313 95.4759C78.6696 95.0024 79.4223 94.8986 79.8763 95.2627L79.9974 95.3468Z" fill="black"/>
<path d="M80.7482 26.8514C80.938 27.1332 80.6808 27.5854 80.3416 27.5664C80.1226 27.1033 80.1236 26.5419 80.3441 26.0795C80.664 25.9207 80.8345 26.4711 80.7691 26.8222L80.7482 26.8514Z" fill="black"/>
<path d="M24.6045 49.3677C24.9496 49.3392 25.2773 49.6733 25.242 50.0178C25.2068 50.3623 24.8181 50.6231 24.486 50.5252C24.215 50.25 24.296 49.7195 24.6367 49.5377L24.6045 49.3677Z" fill="black"/>
<path d="M81.952 67.6514C81.3543 67.279 81.1693 66.3794 81.5716 65.8015C81.9945 66.2779 82.1397 66.9847 81.9388 67.5893L81.952 67.6514Z" fill="black"/>
<path d="M83.7361 60.0131C83.9253 60.2957 83.6671 60.7477 83.3275 60.7283C83.1103 60.2644 83.1123 59.7035 83.3328 59.2412C83.6529 59.0862 83.8209 59.6331 83.7571 59.983L83.7361 60.0131Z" fill="black"/>
<path d="M86.1562 78.2132C86.2199 78.4718 86.1759 78.7552 86.0369 78.9824C85.6093 78.9616 85.1898 78.5378 85.3255 78.1318C85.4613 77.7258 86.24 77.8048 86.1893 78.2299L86.1562 78.2132Z" fill="black"/>
<path d="M5.75058 54.4278C5.64098 54.0511 5.90419 53.6093 6.28767 53.5263C6.47379 54.0363 6.32335 54.6518 5.92292 55.0184C5.69132 55.2246 5.46499 54.6919 5.67429 54.4631L5.75058 54.4278Z" fill="black"/>
<path d="M26.9593 6.29924C27.1841 5.68799 28.1265 5.51356 28.5552 6.00387C28.2506 6.40187 27.6432 6.52901 27.2046 6.28653L26.9593 6.29924Z" fill="black"/>
<path d="M83.4589 67.1678C83.0999 66.7932 83.0548 66.1581 83.3574 65.7366C83.8783 66.0055 83.9772 66.8348 83.5342 67.2187L83.4589 67.1678Z" fill="black"/>
<path d="M28.3265 90.9916C28.5826 91.5132 27.692 92.0828 27.3259 91.6316C27.2963 91.1856 27.8685 90.7796 28.2194 91.0565L28.3265 90.9916Z" fill="black"/>
<path d="M86.1969 9.19406C86.017 8.94215 86.5349 8.67494 86.7311 8.91438C86.9061 9.38621 86.7227 9.96576 86.3081 10.251C86.1521 9.92724 86.1064 9.55157 86.1801 9.19983L86.1969 9.19406Z" fill="black"/>
<path d="M34.6277 61.3476C34.0534 61.3402 33.6794 60.5383 34.0427 60.0935C34.5371 60.245 34.8352 60.8522 34.6528 61.336L34.6277 61.3476Z" fill="black"/>
<path d="M80.7615 42.639C80.9566 42.426 81.3488 42.6154 81.4241 42.8943C81.4994 43.1732 81.3711 43.4622 81.2459 43.7225C80.8043 43.7878 80.7224 43.1101 80.8393 42.6793L80.7615 42.639Z" fill="black"/>
<path d="M19.8423 86.1085C19.8686 86.6676 18.9961 86.9877 18.6546 86.5442C18.6038 86.1171 19.258 86.0554 19.6702 86.1782L19.8423 86.1085Z" fill="black"/>
<path d="M85.1335 31.4082C84.7888 31.3012 84.6255 30.8237 84.8325 30.528C85.147 30.6288 85.5044 30.7709 85.6018 31.0864C85.6991 31.402 85.2209 31.7597 85.0466 31.4792L85.1335 31.4082Z" fill="black"/>
<path d="M24.4793 52.9828C24.0227 52.9617 23.586 52.4049 23.8814 52.0561C24.3339 52.07 24.7707 52.6249 24.4735 52.9666L24.4793 52.9828Z" fill="black"/>
<path d="M80.8392 72.2203C80.7214 71.7982 80.8011 71.1307 81.2341 71.1977C81.3651 71.451 81.4998 71.7348 81.4256 72.0101C81.3514 72.2854 80.9483 72.4604 80.7741 72.2347L80.8392 72.2203Z" fill="black"/>
<path d="M35.8404 99.9163C36.2636 99.7979 36.933 99.8772 36.8664 100.311C36.6135 100.441 36.3306 100.575 36.0561 100.501C35.7815 100.428 35.6037 100.03 35.8253 99.8518L35.8404 99.9163Z" fill="black"/>
<path d="M54.6531 54.4766C54.1965 54.4554 53.7598 53.8987 54.0551 53.5498C54.5077 53.5638 54.9445 54.1187 54.6473 54.4604L54.6531 54.4766Z" fill="black"/>
<path d="M8.07553 70.2813C8.28395 70.6883 7.88473 71.2537 7.43146 71.1935C7.20422 70.8023 7.60173 70.2259 8.04812 70.2993L8.07553 70.2813Z" fill="black"/>
<path d="M84.7931 6.9676C84.5864 6.5593 84.9869 5.99505 85.4406 6.05554C85.6651 6.44738 85.2685 7.02085 84.8227 6.94917L84.7931 6.9676Z" fill="black"/>
<path d="M7.32514 37.5711C7.1394 37.3198 7.66209 37.0681 7.87972 37.2924C7.96802 37.5703 7.89327 37.8936 7.692 38.1046C7.54014 37.9529 7.3883 37.8012 7.23645 37.6495L7.32514 37.5711Z" fill="black"/>
<path d="M81.657 45.9036C82.0545 45.6515 82.5288 46.4208 82.125 46.6627C81.8253 46.8484 81.6399 46.2943 81.7165 45.9502L81.657 45.9036Z" fill="black"/>
<path d="M10.1278 100.738C9.87952 100.926 9.63136 100.407 9.84673 100.181C10.0984 100.114 10.3781 100.157 10.597 100.299C10.6505 100.54 10.3892 100.789 10.1514 100.724L10.1278 100.738Z" fill="black"/>
<path d="M87.4141 71.0572C87.4935 70.7231 87.9464 70.5457 88.2316 70.7371C88.4303 71.1887 87.5149 71.5119 87.3859 71.0356L87.4141 71.0572Z" fill="black"/>
<path d="M74.868 89.5632C74.8261 89.9785 74.1982 90.1759 73.9263 89.8593C73.7592 89.4719 74.4558 89.3563 74.8395 89.5317L74.868 89.5632Z" fill="black"/>
<path d="M61.529 100.143C61.1956 100.216 60.6602 100.038 60.8377 99.7463C61.0464 99.332 61.8259 99.816 61.5471 100.187L61.529 100.143Z" fill="black"/>
<path d="M2.83603 96.306C3.25145 96.1027 3.64055 96.6469 3.72406 97.1018C3.28462 97.1869 2.83233 96.739 2.91316 96.2988L2.83603 96.306Z" fill="black"/>
<path d="M30.6529 90.1606C30.6111 90.5758 29.9832 90.7732 29.7113 90.4566C29.5441 90.0693 30.2407 89.9537 30.6244 90.1291L30.6529 90.1606Z" fill="black"/>
<path d="M5.77451 83.546C6.17189 83.2938 6.64655 84.0625 6.24307 84.3049C5.94469 84.4949 5.75611 83.9375 5.83451 83.5925L5.77451 83.546Z" fill="black"/>
<path d="M7.92688 13.1212C7.52951 13.3736 7.05511 12.604 7.45913 12.3624C7.75847 12.1763 7.9443 12.7305 7.86756 13.0745L7.92688 13.1212Z" fill="black"/>
<path d="M70.7742 11.7098C70.5262 11.8986 70.2778 11.3792 70.4931 11.1537C70.7448 11.0859 71.0244 11.1298 71.2433 11.2714C71.2969 11.5119 71.0355 11.7613 70.7977 11.6965L70.7742 11.7098Z" fill="black"/>
<path d="M81.0882 15.4706C81.1946 15.763 80.6871 16.0148 80.5186 15.7531C80.4197 15.4795 80.4927 15.1517 80.6984 14.946C80.8499 15.0977 81.0013 15.2493 81.1528 15.401L81.0882 15.4706Z" fill="black"/>
<path d="M54.1961 50.7186C54.5964 50.6793 54.99 51.2506 54.6516 51.468C54.3317 51.6232 54.1617 51.0781 54.2231 50.7279L54.1961 50.7186Z" fill="black"/>
</svg>
