<svg width="157" height="175" viewBox="0 0 157 175" fill="none" xmlns="http://www.w3.org/2000/svg">
<path d="M79.8387 4.01648C76.7363 4.2665 73.5491 2.82943 71.6824 0.33887C73.4367 -0.588546 75.4198 1.28525 77.4042 1.28378C79.5202 1.28222 81.7167 -0.825542 83.467 0.363717C82.1393 0.9643 81.0959 2.16243 80.6835 3.56006C80.5869 3.88741 80.1789 3.98907 79.8387 4.01648V4.01648Z" fill="black"/>
<path d="M36.5749 14.3037C32.6348 9.64855 26.5827 7.19179 20.5353 6.40152C14.4879 5.61125 8.35649 6.31829 2.29883 7.02541C2.242 49.4198 2.18518 91.8143 2.12835 134.209C7.70818 127.947 6.79925 116.144 14.6506 113.196C12.6132 117.549 10.5758 121.902 8.53834 126.255C7.66769 128.115 6.78243 129.998 5.4648 131.574C1.69369 136.083 1.58229 142.514 1.65728 148.391C1.75185 155.803 1.84642 163.214 1.94098 170.625C1.94872 171.232 1.96751 171.876 2.30214 172.383C2.87308 173.246 4.07893 173.346 5.11405 173.358C8.2321 173.395 11.3501 173.431 14.4682 173.467C11.655 174.396 8.71058 175.337 5.78333 174.882C2.85608 174.426 -0.00917541 172.095 2.20837e-05 169.132C0.166313 115.572 0.332594 62.0123 0.498885 8.45241C0.502675 7.23181 0.574444 5.85326 1.49153 5.04776C2.27143 4.36276 3.4095 4.32652 4.44751 4.32607C27.0807 4.31622 49.7138 4.30636 72.347 4.29651C71.0068 5.56632 73.7532 7.12567 75.5815 6.86909C78.7667 6.42207 82.5078 5.7909 84.778 8.06946C70.7085 7.75272 56.6389 7.43597 42.5694 7.11922C38.6007 5.74594 34.2321 5.55172 30.1572 6.56739C30.8868 9.58019 34.4819 10.9275 37.5818 10.9358C40.6817 10.9442 43.8419 10.1255 46.8403 10.9122C43.7168 11.3508 40.7263 12.6977 38.3279 14.7461C64.0977 14.7227 89.8676 14.6994 115.637 14.676C115.224 16.0137 113.465 16.2565 112.065 16.2517C88.8089 16.1713 65.5529 16.091 42.2969 16.0106C40.2389 16.0035 37.9045 15.8746 36.5749 14.3037V14.3037ZM67.0464 6.13098C66.3184 5.10511 64.6571 4.92482 63.726 5.77065C64.5009 6.44363 65.662 6.63568 66.6123 6.24807L67.0464 6.13098Z" fill="black"/>
<path d="M146.064 43.9832C146.378 48.6822 144.593 53.4829 141.285 56.8349C142.853 57.2446 144.654 56.4076 145.351 54.945C144.806 57.6371 142.766 59.9755 140.173 60.8807C139.533 52.0157 143.385 42.9413 150.205 37.2423C153.313 34.6452 153.492 30.0147 153.42 25.9649C153.317 20.1554 153.214 14.3459 153.11 8.53632C153.103 8.13405 153.078 7.68714 152.79 7.40631C152.502 7.12557 152.055 7.11142 151.652 7.11442C141.763 7.18817 131.874 7.26193 121.985 7.33568C118.709 4.44732 113.706 5.52668 109.404 6.27528C100.145 7.88596 90.4803 7.09664 81.6062 4.00519C105.191 4.17879 128.775 4.3524 152.36 4.52601C152.95 4.53035 153.582 4.54787 154.061 4.89262C154.788 5.41621 154.865 6.45017 154.874 7.34613C155.417 61.1506 155.961 114.955 156.505 168.76C156.531 171.344 154.063 173.404 151.516 173.844C148.969 174.284 146.386 173.514 143.916 172.753C147.799 172.303 151.683 171.853 155.566 171.402C147.637 170.848 139.696 170.457 131.751 170.228C138.542 169.825 145.333 169.421 152.124 169.017C152.9 168.971 153.759 168.887 154.284 168.314C154.797 167.754 154.818 166.915 154.81 166.155C154.397 126.293 153.983 86.4307 153.57 46.5684C153.561 45.7084 153.522 44.7671 152.952 44.123C152.382 43.4788 151.083 43.4964 150.85 44.3241C152.71 42.3475 153.738 39.6113 153.64 36.8987C149.973 39.1265 147.759 43.5444 148.172 47.816C147.469 46.5384 146.766 45.2608 146.064 43.9832ZM143.702 47.9463C142.642 47.9974 142.201 49.7052 143.103 50.2633C143.578 49.9662 144.081 49.6362 144.291 49.117C144.502 48.5978 144.23 47.8568 143.671 47.8148L143.702 47.9463Z" fill="black"/>
<path d="M22.7188 26.4589C23.3351 25.7275 24.4196 25.6641 25.376 25.6578C59.9776 25.4277 94.5805 25.3846 129.183 25.5286C132.538 25.5426 135.109 29.6809 133.636 32.6954C136.299 31.4896 135.938 27.2051 133.655 25.3791C131.371 23.5531 128.194 23.4869 125.27 23.5044C120.439 23.5333 115.608 23.5622 110.777 23.5911C81.7761 23.7647 52.7749 23.9383 23.7737 24.1119C22.4134 24.1201 20.595 24.5562 20.5976 25.9165C20.6752 67.2137 20.4158 108.512 19.8194 149.805C19.7938 151.574 19.4629 153.78 17.7749 154.312C18.0568 110.294 18.3387 66.2758 18.6206 22.2577C56.7989 21.8326 94.98 21.6668 133.161 21.7601C134.003 21.7622 134.915 21.787 135.58 22.3053C136.483 23.01 136.573 24.3195 136.586 25.4654C137.056 66.3937 137.525 107.322 137.994 148.25C138.011 149.757 137.933 151.48 136.768 152.435C135.882 153.16 134.638 153.201 133.493 153.208C97.4231 153.415 61.3537 153.623 25.2842 153.831C23.3799 153.842 21.1713 153.707 20.0584 152.162C57.3924 151.823 94.7264 151.483 132.06 151.144C133.149 151.134 134.383 151.06 135.084 150.226C135.65 149.553 135.68 148.594 135.682 147.714C135.753 114.006 135.336 80.2973 134.431 46.6016C133.806 55.8282 133.181 65.0549 132.556 74.2816C132.33 59.8171 132.104 45.3527 131.878 30.8883C131.834 28.0783 128.074 27.2262 125.263 27.2375C92.3045 27.3704 59.3458 27.5033 26.387 27.6362C25.7846 27.6386 25.1425 27.6526 24.6425 27.9887C23.8226 28.5398 23.7259 29.6871 23.711 30.6749C23.4665 46.8908 23.2221 63.1066 22.9776 79.3225C22.7207 62.4566 22.4638 45.5907 22.2069 28.7248C22.1948 27.9326 22.2083 27.0647 22.7188 26.4589Z" fill="black"/>
<path d="M90.9479 103.244C90.396 105.596 88.9709 107.969 89.7256 110.264C89.9126 110.833 88.965 111.2 88.5142 110.806C88.0634 110.412 88.0389 109.731 88.0487 109.133C88.0781 107.345 88.1074 105.557 88.1368 103.769C88.9345 103.705 89.7017 103.319 90.2284 102.717C86.3395 100.241 80.5197 101.636 78.1762 105.606C76.4765 108.486 73.5137 110.756 70.1787 110.997C66.8437 111.238 63.3119 109.072 62.5651 105.813C61.8184 102.554 64.5875 98.7993 67.9221 99.0456C66.9755 100.317 66.0289 101.589 65.0823 102.861C63.5149 104.967 65.5485 108.245 68.1387 108.672C70.7288 109.099 73.2486 107.567 75.1422 105.749C77.0358 103.93 78.6161 101.745 80.8193 100.317C83.0224 98.8898 86.1881 98.4382 88.1374 100.196C89.7304 99.1094 88.5139 96.5959 87.0561 95.3333C85.5982 94.0708 83.7762 92.3251 84.5929 90.578C84.8548 90.0175 85.3588 89.6036 85.6523 89.0589C86.8401 86.8546 84.4588 83.19 86.6764 82.0271C88.0634 85.2929 87.6491 89.2597 85.6173 92.1685C89.619 94.0681 91.9596 98.931 90.9479 103.244V103.244Z" fill="black"/>
<path d="M91.4995 50.5523C99.7567 56.4244 105.649 65.3836 108.315 75.1586C110.982 84.9337 110.5 95.4614 107.494 105.138C106.824 107.294 105.822 109.642 103.73 110.494C108.64 100.408 109.9 88.5934 107.229 77.6989C104.559 66.8043 97.9766 56.9121 88.9592 50.2404C89.5713 49.5253 90.7325 50.0068 91.4995 50.5523V50.5523Z" fill="black"/>
<path d="M149.037 112.593C149.074 115.141 149.112 117.69 149.149 120.238C149.176 122.081 149.206 123.952 149.728 125.72C149.931 126.408 148.683 126.677 148.267 126.093C147.85 125.51 148.018 124.715 148.086 124.001C148.154 123.287 147.977 122.392 147.289 122.19C144.599 123.859 147.929 129.282 145.181 130.855C142.506 132.386 142.314 136.104 142.452 139.183C142.66 143.82 142.868 148.458 143.076 153.095C143.122 154.125 143.136 155.26 142.481 156.057C141.827 156.855 140.248 156.852 139.983 155.855C140.571 155.044 140.826 153.998 140.679 153.007C139.737 146.643 139.7 140.146 140.571 133.772C140.815 131.982 141.642 129.744 143.448 129.765C144.604 129.779 144.39 128.013 144.319 126.859C144.264 125.961 144.572 125.084 144.875 124.236C146.262 120.355 147.65 116.474 149.037 112.593V112.593Z" fill="black"/>
<path d="M53.8044 118.94C58.0705 124.972 64.771 129.227 72.0437 130.524C79.3165 131.821 87.075 130.145 93.163 125.96C93.9367 125.428 95.1888 124.95 95.633 125.777C89.2823 130.955 80.7531 133.367 72.6316 132.282C64.5101 131.197 56.9129 126.631 52.1436 119.969C52.6972 119.626 53.2508 119.283 53.8044 118.94Z" fill="black"/>
<path d="M148.328 86.6253C147.958 94.2591 147.588 101.893 147.219 109.527C147.667 109.65 148.116 109.774 148.564 109.898C148.108 110.973 147.449 111.961 146.632 112.795C145.732 112.534 145.587 111.339 145.615 110.403C146.114 93.8821 146.006 77.3429 145.291 60.8298C146.901 61.7741 147.679 63.9295 147.043 65.6846C147.755 65.1975 148.554 66.3967 148.258 67.2067C147.963 68.0167 147.187 68.5807 146.897 69.3928C146.561 70.3367 146.951 71.3648 147.266 72.3163C148.777 76.8845 148.56 81.8193 148.328 86.6253Z" fill="black"/>
<path d="M78.7542 48.7479C73.5978 47.8835 68.1789 48.6594 63.4722 50.9361C62.3257 51.4907 61.2216 52.131 60.1557 52.8281C54.4046 56.5891 49.7793 62.0487 47.0145 68.3397C46.6103 65.1014 48.6725 62.1154 50.7253 59.5784C53.8233 55.7498 57.2441 52.0226 61.6138 49.7509C69.4713 45.666 78.9191 46.9311 87.6685 48.2996C85.2606 50.2139 81.788 49.2564 78.7542 48.7479V48.7479Z" fill="black"/>
<path d="M134.542 147.935C134.555 148.761 134.032 149.948 133.309 149.548C132.778 134.4 132.544 119.242 132.606 104.086C133.282 103.635 133.864 104.785 133.877 105.597C134.099 119.71 134.32 133.822 134.542 147.935Z" fill="black"/>
<path d="M68.5744 70.0668C66.6143 70.5774 65.4263 73.0204 66.2351 74.8775C67.3737 77.4917 67.0497 80.6888 65.4098 83.0216C64.958 83.6643 65.0924 84.5343 65.2457 85.3048C65.8095 88.138 67.1679 91.6622 70.0564 91.6351C69.0583 92.8979 67.1355 93.3189 65.701 92.5888C64.2664 91.8587 63.4752 90.0564 63.9087 88.5062C64.4574 86.5437 61.2086 84.2751 62.7463 82.938C64.6856 81.2516 65.4129 78.3084 64.4823 75.9128C64.1121 74.9599 63.5056 74.0819 63.3619 73.0697C63.0005 70.5258 66.555 68.4781 68.5744 70.0668Z" fill="black"/>
<path d="M147.798 138.019C148.108 144.794 148.242 151.578 148.199 158.36C148.196 158.912 148.187 159.486 147.944 159.983C147.436 161.022 146.134 161.35 144.989 161.51C140.266 162.17 135.423 161.965 130.773 160.908C135.112 160.095 139.575 159.945 143.959 160.465C145.503 160.648 146.386 158.746 146.581 157.204C146.96 154.201 146.625 151.111 145.611 148.259C145.389 147.636 145.131 146.989 145.224 146.333C145.317 145.678 145.922 145.042 146.567 145.187C145.133 142.946 145.699 139.653 147.798 138.019Z" fill="black"/>
<path d="M5.25305 61.0702C5.96892 69.3279 5.8786 77.6319 5.7877 85.9201C5.76384 88.0952 5.73999 90.2703 5.71613 92.4454C5.70097 93.8283 5.49031 95.5185 4.21232 96.0471C3.9878 83.91 3.88188 71.7708 3.89457 59.6316C4.55751 59.1759 5.18357 60.2687 5.25305 61.0702V61.0702Z" fill="black"/>
<path d="M50.276 171.27C49.3314 171.271 48.0068 170.803 48.284 169.9C61.7306 169.514 75.1925 169.66 88.6277 170.335C89.0074 170.797 88.1551 171.266 87.5575 171.266C75.1303 171.268 62.7032 171.269 50.276 171.27Z" fill="black"/>
<path d="M23.4327 102.529C23.4683 111.413 23.5039 120.297 23.5395 129.181C23.5651 135.58 23.5907 141.978 23.6164 148.376C23.6179 148.766 23.589 149.219 23.2708 149.445C22.5399 149.963 21.8936 148.676 21.9047 147.779C22.0866 133.078 22.2684 118.376 22.4503 103.674C22.4581 103.047 22.9271 102.158 23.4327 102.529V102.529Z" fill="black"/>
<path d="M89.401 81.1917C87.5229 77.7204 85.5629 74.1495 82.4685 71.6997C80.8054 70.383 78.88 69.4462 76.9718 68.52C76.4586 67.6106 77.531 66.4697 78.5747 66.5018C79.6185 66.5338 80.487 67.2745 81.2611 67.9753C82.7158 69.2922 84.1705 70.6091 85.6253 71.926C87.0682 73.2323 88.6152 74.7463 88.7253 76.6895C88.8347 78.6193 90.5001 80.0227 91.7434 81.5027C92.9867 82.9827 93.8086 85.3955 92.3792 86.6966C91.3865 84.8616 90.3937 83.0267 89.401 81.1917Z" fill="black"/>
<path d="M139.716 164.905C142.765 164.872 145.814 164.838 148.863 164.805C149.309 164.8 149.799 164.778 150.123 164.472C150.477 164.138 150.5 163.591 150.499 163.103C150.484 157.379 150.468 151.654 150.453 145.93C151.748 146.285 151.981 147.995 151.957 149.337C151.884 153.39 151.811 157.442 151.738 161.495C151.712 162.964 151.626 164.584 150.607 165.642C149.641 166.644 148.131 166.834 146.746 166.966C144.166 167.211 140.986 167.165 139.716 164.905V164.905Z" fill="black"/>
<path d="M118.678 13.2894C119.382 14.0734 120.086 14.8573 120.79 15.6413C118.309 15.4438 115.995 13.8118 114.976 11.5419C116.008 11.7676 117.238 11.9404 117.986 11.1954C118.734 10.4503 117.801 8.73163 116.953 9.36055C114.807 10.9523 111.279 10.018 110.202 7.57245C111.968 7.74139 113.734 7.91034 115.5 8.07928C118.648 8.38052 121.668 9.87695 123.814 12.1999C124.281 12.7051 124.73 13.3067 124.728 13.9946C124.726 14.6825 124.038 15.3811 123.395 15.1387C122.875 14.2474 122.316 13.3161 121.42 12.8041C120.524 12.2922 119.189 12.3935 118.678 13.2894Z" fill="black"/>
<path d="M66.5264 164.826C70.9823 165.505 75.5692 165.313 79.9527 164.263C82.7916 163.584 85.8771 163.994 88.4403 165.39C82.0153 166.665 75.4394 167.178 68.8945 166.913C67.6067 166.861 65.8207 165.905 66.5264 164.826V164.826Z" fill="black"/>
<path d="M4.31436 33.7539C3.75542 25.961 3.62312 18.1374 3.91824 10.33C3.95812 9.27467 4.82114 7.80302 5.63393 8.47726C5.52196 16.5596 5.40999 24.6419 5.29801 32.7242C5.28948 33.3399 4.73417 34.2044 4.31436 33.7539V33.7539Z" fill="black"/>
<path d="M44.9188 166.773C43.2095 165.889 41.0617 165.913 39.3726 166.835C39.0309 166.371 38.8964 165.76 39.0118 165.195C39.9389 165.272 40.8921 164.961 41.5953 164.352C41.1393 163.277 39.5841 163.484 38.4558 163.784C37.3276 164.084 35.6624 163.93 35.5862 162.765C36.6033 161.464 38.5505 161.218 40.1163 161.741C41.682 162.264 42.9571 163.396 44.1847 164.5C45.6096 165.781 47.0344 167.062 48.4593 168.342C47.3311 168.942 46.1688 169.552 44.8995 169.696C43.6301 169.84 42.2112 169.412 41.5353 168.328C42.8365 168.609 44.2846 167.944 44.9188 166.773Z" fill="black"/>
<path d="M10.2901 38.3244C10.8604 41.2918 11.4206 44.2957 11.266 47.3135C11.1346 49.8787 10.4642 52.4518 9.06473 54.6056C8.09375 56.1 6.83119 58.2257 8.19527 59.3726C6.88835 59.7005 5.81871 58.0612 6.04309 56.7326C6.26748 55.4039 7.24229 54.3523 7.9772 53.223C9.74591 50.5049 10.182 46.9619 9.12516 43.8961C8.74817 42.8024 8.18597 41.729 8.20609 40.5724C8.22622 39.4158 9.14517 38.1595 10.2901 38.3244V38.3244Z" fill="black"/>
<path d="M113.186 169.027C111.176 170.592 108.204 170.793 106.002 169.512C105.621 166.222 112.174 165.633 111.985 162.326C111.927 161.314 113.195 160.498 114.092 160.969C114.99 161.441 115.037 162.948 114.17 163.475C113.607 163.817 114.113 164.761 114.761 164.884C115.408 165.007 116.074 164.725 116.727 164.808C117.381 164.892 117.993 165.733 117.502 166.172C115.312 166.311 113.123 166.45 110.933 166.589C109.955 166.651 108.603 167.453 109.22 168.215C109.431 168.476 109.795 168.541 110.127 168.588C111.146 168.735 112.166 168.881 113.186 169.027Z" fill="black"/>
<path d="M4.25519 97.6075C4.62265 97.1943 5.36879 97.4435 5.63289 97.9292C5.89699 98.415 5.82865 99.0059 5.75913 99.5544C4.99031 105.621 4.97189 111.781 5.70442 117.852C5.88781 119.372 5.91143 121.305 4.5352 121.975C3.5511 113.895 3.45702 105.708 4.25519 97.6075Z" fill="black"/>
<path d="M145.264 19.6223C146.925 21.3309 147.393 24.0908 146.387 26.2515C146.794 25.6747 147.788 25.9276 148.145 26.5361C148.503 27.1446 148.42 27.9048 148.325 28.6042C148.037 30.7434 147.749 32.8826 147.46 35.0217C146.761 35.7325 145.774 34.4834 145.595 33.5026C144.762 28.9309 144.65 24.2286 145.264 19.6223Z" fill="black"/>
<path d="M42.3788 93.131C43.0866 96.7403 43.7943 100.35 44.502 103.959C44.883 105.902 46.2384 107.481 47.3003 109.152C48.3622 110.824 49.1659 112.948 48.3374 114.747C44.4483 109.081 41.9816 102.446 41.2245 95.615C41.1111 94.5912 41.3498 93.1762 42.3788 93.131V93.131Z" fill="black"/>
<path d="M32.2306 164.893C33.5589 164.407 35.2096 165.411 35.3882 166.815C33.2151 165.788 30.5008 166.015 28.5282 167.388C26.5929 168.735 23.5296 167.922 22.5171 165.792C24.0637 166.077 25.6768 166.358 27.1883 165.924C28.6998 165.49 30.0632 164.106 29.9171 162.54C29.8828 162.173 29.7695 161.803 29.8466 161.442C30.0902 160.302 31.9952 160.47 32.5178 161.512C33.0404 162.554 32.6381 163.801 32.2306 164.893V164.893Z" fill="black"/>
<path d="M96.6549 161.024C90.203 162.407 83.4804 162.515 76.9873 161.341C83.4517 160.045 90.1522 159.937 96.6549 161.024V161.024Z" fill="black"/>
<path d="M5.92984 44.1251C7.55731 44.7995 8.22393 46.8673 7.87701 48.5944C7.53009 50.3216 6.42293 51.7834 5.34707 53.1784C4.94845 53.6953 4.54981 54.2122 4.15119 54.729C4.06962 53.146 3.94121 51.5654 3.76614 49.9899C3.52753 47.8427 4.35383 45.6029 5.92984 44.1251ZM4.84685 49.096C5.84927 49.4824 6.88822 47.9481 6.15731 47.1608C5.30669 47.2026 4.64546 48.1836 4.92586 48.9878L4.84685 49.096Z" fill="black"/>
<path d="M132.559 79.4814C132.558 78.8325 132.968 77.9082 133.541 78.2134C133.647 86.31 133.646 94.408 133.535 102.504C133.083 102.921 132.572 102.047 132.571 101.432C132.567 94.115 132.563 86.7982 132.559 79.4814Z" fill="black"/>
<path d="M48.9382 166.185C53.1235 164.903 57.6124 164.624 61.9241 165.378C62.8547 165.541 64.021 166.081 63.8707 167.014C59.9904 166.353 55.9879 166.416 52.1306 167.201C50.8959 167.452 49.1193 167.431 48.9382 166.185V166.185Z" fill="black"/>
<path d="M4.88913 159.076C4.88972 159.733 4.52892 160.663 3.91759 160.421C3.78054 153.353 3.78722 146.282 3.93763 139.214C4.39892 138.832 4.87171 139.686 4.87224 140.285C4.87787 146.548 4.8835 152.812 4.88913 159.076Z" fill="black"/>
<path d="M23.4154 19.2068C22.6625 17.3435 24.1417 15.184 26.0166 14.4605C27.8915 13.737 29.9864 14.0481 31.9702 14.3694C32.8059 14.5048 33.87 14.9097 33.8056 15.7538C33.7177 16.9074 31.9868 16.6795 30.8739 16.3638C28.1304 15.5853 24.9446 16.7997 23.4154 19.2068V19.2068Z" fill="black"/>
<path d="M4.11353 170.706C10.9791 169.876 17.9479 169.903 24.8067 170.786C17.9513 171.735 10.9614 171.708 4.11353 170.706V170.706Z" fill="black"/>
<path d="M7.55005 167.547C10.7997 165.545 14.9686 165.11 18.5615 166.398C18.7125 166.452 18.8714 166.516 18.9651 166.646C19.273 167.075 18.6276 167.547 18.1141 167.669C14.6538 168.494 10.9903 168.452 7.55005 167.547V167.547Z" fill="black"/>
<path d="M88.5916 167.378C88.5792 166.173 90.3036 165.953 91.4924 166.153C92.4388 166.312 93.3851 166.471 94.3314 166.63C95.7115 164.492 99.3656 164.464 100.778 166.581C96.854 167.799 92.6409 168.075 88.5916 167.378Z" fill="black"/>
<path d="M9.719 125.078C10.066 124.622 10.8237 124.563 11.2373 124.959C10.269 126.874 10.9513 129.462 12.7376 130.65C14.7166 131.967 14.8526 135.292 12.9877 136.765C13.2354 134.768 12.4781 132.672 11.0114 131.295C9.368 129.751 8.82693 127.149 9.719 125.078V125.078Z" fill="black"/>
<path d="M68.1894 65.2262C70.0631 64.9058 71.9543 64.6882 73.8518 64.5747C74.6103 64.5293 75.4802 64.5449 75.9809 65.1165C76.4817 65.6881 75.9849 66.8912 75.2726 66.6267C74.3373 65.821 72.8832 66.2116 71.8111 66.8235C70.7389 67.4355 69.6696 68.2567 68.4362 68.2067C67.2027 68.1567 66.0895 66.5322 66.9902 65.688C67.3075 65.3906 67.7608 65.2995 68.1894 65.2262V65.2262Z" fill="black"/>
<path d="M8.98119 154.13C9.07277 154.833 9.16446 155.537 9.18635 156.246C9.23439 157.8 8.87572 159.483 7.70901 160.512C7.17031 155.789 7.25496 150.995 7.96008 146.294C8.30046 148.906 8.64082 151.518 8.98119 154.13Z" fill="black"/>
<path d="M24.7603 173.289C30.0787 172.501 35.5133 172.501 40.8316 173.291C35.5401 174.316 30.0516 174.316 24.7603 173.289Z" fill="black"/>
<path d="M140.317 13.0671C137.212 13.2558 133.979 13.4243 131.109 12.2225C134.776 11.1549 138.713 11.03 142.44 11.8632C142.333 12.7442 141.203 13.0133 140.317 13.0671V13.0671Z" fill="black"/>
<path d="M140.503 22.8634C139.611 23.1172 139.133 21.8424 139.12 20.9154C139.107 19.9885 138.744 18.7079 137.828 18.8534C139.584 17.5873 141.34 16.3212 143.096 15.0551C143.584 16.31 143.715 18.2618 142.387 18.4835C140.524 18.7944 139.448 21.2975 140.503 22.8634Z" fill="black"/>
<path d="M38.7441 149.534C44.05 148.702 49.4854 148.703 54.7909 149.537C49.492 150.432 44.0427 150.431 38.7441 149.534V149.534Z" fill="black"/>
<path d="M94.6471 96.8391C96.4341 100.059 95.406 104.551 92.3963 106.673C93.2153 104.892 94.0482 103.057 94.1464 101.099C94.2447 99.1419 93.4354 97.0075 91.6953 96.1055C92.1217 94.8924 94.0232 95.7149 94.6471 96.8391V96.8391Z" fill="black"/>
<path d="M127.6 168.116C128.681 167.149 130.735 167.904 130.932 169.342C129.417 169.86 127.851 170.386 126.254 170.267C124.657 170.149 123.008 169.214 122.559 167.677C124.255 167.864 125.951 168.052 127.647 168.239L127.6 168.116Z" fill="black"/>
<path d="M149.393 130.9C148.532 132.066 147.329 132.979 145.974 133.494C146.264 131.655 147.6 130.018 149.344 129.366C149.56 130.38 151.148 130.714 151.755 129.875C152.668 131.282 152.785 133.17 152.053 134.679C151.294 133.336 150.402 132.068 149.393 130.9Z" fill="black"/>
<path d="M121.951 165.837C121.258 165.842 120.509 165.83 119.955 165.414C119.64 165.177 119.432 164.673 119.723 164.408C122.61 163.571 126.503 163.125 127.893 165.791C125.913 165.806 123.932 165.822 121.951 165.837V165.837Z" fill="black"/>
<path d="M13.6648 141.743C13.6663 144.702 13.6678 147.662 13.6693 150.621C13.6699 151.635 13.003 153.082 12.125 152.574C12.3487 148.642 12.5724 144.711 12.7962 140.78C13.2012 140.402 13.6645 141.189 13.6648 141.743Z" fill="black"/>
<path d="M104.403 155.591C102.752 156.63 100.676 156.631 98.7247 156.599C96.72 156.566 94.7153 156.534 92.7106 156.501C92.6975 155.591 93.8894 155.251 94.7989 155.214C98.0036 155.085 101.219 155.211 104.403 155.591Z" fill="black"/>
<path d="M14.2217 49.7331C14.1769 51.8701 14.132 54.0072 14.0871 56.1442C12.5776 55.9637 12.075 53.9765 12.333 52.4782C12.591 50.9799 13.2184 49.3876 12.5787 48.0085C12.9038 47.5896 13.63 47.7611 13.9314 48.1973C14.2328 48.6335 14.2329 49.203 14.2217 49.7331V49.7331Z" fill="black"/>
<path d="M23.1285 79.9481C23.3389 83.5924 23.5494 87.2367 23.7599 90.881C23.8056 91.672 23.5059 92.795 22.7272 92.6488C22.0636 88.4401 22.2006 84.1066 23.1285 79.9481V79.9481Z" fill="black"/>
<path d="M114.318 159.897C116.628 157.382 121.57 158.503 122.569 161.769C122.302 162.276 121.665 162.555 121.112 162.407C121.379 161.065 119.748 160.104 118.38 160.071C117.012 160.039 115.568 160.455 114.318 159.897V159.897Z" fill="black"/>
<path d="M130.735 149.063C126.327 149.884 121.768 149.88 117.362 149.051C121.76 148.158 126.338 148.162 130.735 149.063V149.063Z" fill="black"/>
<path d="M10.1344 104.459C11.4201 107.283 11.3583 110.686 9.971 113.462C8.82665 110.6 8.88694 107.278 10.1344 104.459V104.459Z" fill="black"/>
<path d="M90.3372 9.80178C93.8873 9.58891 97.4374 9.37603 100.988 9.16316C101.658 9.12297 102.602 9.84961 102.01 10.1656C98.1538 10.891 94.1403 10.7659 90.3372 9.80178V9.80178Z" fill="black"/>
<path d="M15.1861 15.0339C17.4115 14.805 19.6908 15.119 21.7713 15.9413C18.9651 16.352 16.1589 16.7626 13.3526 17.1733C12.5203 16.3345 14.0106 15.1548 15.1861 15.0339V15.0339Z" fill="black"/>
<path d="M24.5269 156.581C26.4973 156.609 28.4851 156.639 30.4061 157.079C31.1115 157.24 31.9843 157.834 31.6469 158.474C29.2396 159.643 26.0357 158.792 24.5269 156.581Z" fill="black"/>
<path d="M112.993 158.515C112.81 159.144 112.07 159.421 111.417 159.479C109.769 159.627 108.068 158.921 107.009 157.65C108.215 156.971 109.621 156.655 111.001 156.753C112.019 156.826 113.278 157.535 112.993 158.515V158.515Z" fill="black"/>
<path d="M32.1082 170.865C34.1077 169.717 36.5296 169.324 38.7897 169.782C39.6816 169.962 40.5959 170.304 41.1588 171.019C38.1641 171.499 35.0849 171.447 32.1082 170.865Z" fill="black"/>
<path d="M63.991 96.6875C64.9709 95.2783 66.9852 94.6995 68.5637 95.3736C66.0396 97.074 63.5156 98.7745 60.9915 100.475C61.468 98.9095 62.4761 97.511 63.8108 96.5641L63.991 96.6875Z" fill="black"/>
<path d="M20.9319 162.398C22.8589 161.693 25.0221 161.655 26.973 162.29C27.4997 162.461 28.0367 163.229 27.5173 163.421C25.371 164.371 22.6887 163.954 20.9319 162.398Z" fill="black"/>
<path d="M47.3112 156.604C46.0263 156.558 44.73 156.966 43.7024 157.739C43.1653 158.143 42.6708 158.657 42.017 158.813C41.3633 158.969 40.5131 158.512 40.6056 157.846C40.6618 157.441 41.0276 157.16 41.3742 156.944C43.0793 155.88 45.0568 155.256 47.064 155.149C47.1464 155.634 47.2288 156.119 47.3112 156.604Z" fill="black"/>
<path d="M51.6152 160.979C53.8918 160.114 56.4751 160.085 58.7706 160.898C59.1353 161.027 59.1971 161.622 58.8668 161.823C56.4547 162.434 53.8224 162.127 51.6152 160.979Z" fill="black"/>
<path d="M21.9377 13.2569C20.6191 13.2285 19.3423 12.4491 18.7144 11.2892C19.306 10.2717 20.8651 10.5847 21.8705 11.1969C22.8759 11.809 24.021 12.6243 25.1141 12.1877C24.4867 13.2476 23.0973 13.7876 21.9188 13.4295L21.9377 13.2569Z" fill="black"/>
<path d="M135.43 154.784C136.695 154.535 138.078 155.035 138.892 156.034C136.384 156.434 133.812 156.432 131.304 156.028C132.101 154.717 133.962 154.187 135.33 154.882L135.43 154.784Z" fill="black"/>
<path d="M35.7722 160.535C34.6215 161.598 32.3854 160.79 32.1804 159.237C34.1047 158.318 36.5441 158.603 38.2054 159.939C37.4425 160.203 36.6795 160.467 35.9166 160.731L35.7722 160.535Z" fill="black"/>
<path d="M92.4331 12.6212C92.7485 12.6534 93.1315 12.746 93.2124 13.0525C93.2582 13.2255 93.1701 13.4246 93.0113 13.5071C89.7484 13.867 86.4294 13.7126 83.2141 13.0514C86.2432 12.4526 89.3614 12.3071 92.4331 12.6212V12.6212Z" fill="black"/>
<path d="M4.25441 43.2755C3.46028 41.4594 3.56038 39.2767 4.51738 37.5409C6.45627 38.7957 6.3 42.2034 4.25441 43.2755V43.2755Z" fill="black"/>
<path d="M16.9477 156.639C16.3945 156.842 15.8412 157.045 15.2879 157.247C14.5713 156.403 14.8957 154.908 15.898 154.436C17.7205 155.675 19.9948 156.232 22.1835 155.977C20.6911 156.947 18.7599 157.211 17.0621 156.676L16.9477 156.639Z" fill="black"/>
<path d="M140.173 86.0455C141.289 86.502 141.867 87.8034 141.843 89.0087C141.82 90.214 141.32 91.3524 140.829 92.4533C140.644 92.8672 140.179 93.356 139.839 93.0567C139.95 90.7196 140.062 88.3826 140.173 86.0455Z" fill="black"/>
<path d="M26.9144 11.8519C26.6531 11.7365 26.3847 11.5903 26.2466 11.3402C25.7896 10.5123 27.0926 9.80515 28.0332 9.90345C29.5318 10.0601 30.9588 10.8193 31.9261 11.9746C30.3257 12.5897 28.4828 12.5446 26.9144 11.8519Z" fill="black"/>
<path d="M97.0627 170.487C99.3779 169.542 101.989 169.338 104.423 169.91C104.674 169.969 104.616 170.437 104.358 170.433C102.103 171.551 99.3342 171.572 97.0627 170.487Z" fill="black"/>
<path d="M142.666 38.9918C143.391 40.9427 143.076 43.2474 141.854 44.9321C140.27 43.2719 140.695 40.1659 142.666 38.9918V38.9918Z" fill="black"/>
<path d="M92.9177 75.3968C93.231 74.5969 93.4424 73.7572 93.5451 72.9043C95.274 74.2611 95.4062 77.2011 93.8062 78.7076C93.0652 77.7696 92.6819 76.5559 92.7499 75.3624L92.9177 75.3968Z" fill="black"/>
<path d="M142.084 116.966C143.911 118.51 143.979 121.69 142.221 123.311C141.453 121.295 141.403 119.013 142.084 116.966V116.966Z" fill="black"/>
<path d="M10.3517 80.297C9.84729 78.1166 9.86582 75.8171 10.4053 73.6451C12.1304 75.4019 12.1049 78.5682 10.3517 80.297V80.297Z" fill="black"/>
<path d="M12.683 39.0306C12.0703 37.4091 12.1305 35.5449 12.8465 33.9664C13.9807 33.7496 14.8868 35.1371 14.6689 36.2711C14.451 37.4051 13.5426 38.2595 12.683 39.0306V39.0306Z" fill="black"/>
<path d="M151.678 102.647C151.65 102.974 151.565 103.368 151.253 103.47C151.064 103.532 150.838 103.441 150.743 103.267C150.157 100.72 150.355 97.999 151.303 95.564C151.755 97.8926 151.881 100.284 151.678 102.647V102.647Z" fill="black"/>
<path d="M11.4564 11.8097C12.0365 12.1205 12.6165 12.4314 13.1966 12.7422C12.4154 13.5642 11.6343 14.3862 10.8531 15.2082C10.2339 14.2414 9.61478 13.2747 8.99561 12.308C9.73293 12.0093 10.5518 11.9151 11.3377 12.0385L11.4564 11.8097Z" fill="black"/>
<path d="M145.027 14.8694C144.809 14.0192 144.591 13.169 144.373 12.3188C144.75 12.0605 145.236 11.9676 145.681 12.0688C146.488 14.0661 146.507 16.3689 145.735 18.3797C144.687 17.6944 144.82 16.144 145.076 14.9176L145.027 14.8694Z" fill="black"/>
<path d="M121.971 155.758C123.176 155.758 124.382 155.759 125.588 155.76C125.891 156.049 125.935 156.571 125.683 156.907C124.781 157.526 123.744 158.174 122.672 157.954C121.601 157.735 120.946 156.093 121.888 155.538L121.971 155.758Z" fill="black"/>
<path d="M54.2013 10.896C53.3224 11.1469 52.0183 11.1466 51.8887 10.2418C53.6127 9.08037 56.0726 9.14746 57.7308 10.4012C56.7475 11.1042 55.4221 11.3024 54.2761 10.9175L54.2013 10.896Z" fill="black"/>
<path d="M127.398 160.679C126.489 161.759 124.566 161.716 123.707 160.596C125.191 159.597 126.947 159.006 128.734 158.905C128.525 159.628 128.035 160.266 127.391 160.656L127.398 160.679Z" fill="black"/>
<path d="M130.913 18.9874C132.115 18.2693 133.648 18.1332 134.958 18.628C132.582 19.8127 129.83 20.2302 127.21 19.8038C128.003 18.7778 129.51 18.3771 130.708 18.8739L130.913 18.9874Z" fill="black"/>
<path d="M143.032 36.4671C142.141 35.6222 142.203 33.9888 143.154 33.2134C143.75 34.0842 144.363 34.9988 144.496 36.0454C144.628 37.092 144.111 38.3025 143.095 38.5887C143.008 37.9287 142.92 37.2687 142.833 36.6087L143.032 36.4671Z" fill="black"/>
<path d="M68.5417 10.7127C68.9824 11.5927 68.0732 12.662 67.0949 12.7689C66.1165 12.8757 65.1908 12.3572 64.3433 11.8569C65.1602 10.6144 66.9701 10.1525 68.2825 10.8515L68.5417 10.7127Z" fill="black"/>
<path d="M44.4073 162.421C43.6415 162.78 42.6787 162.039 42.6477 161.193C43.3195 160.114 44.7507 159.575 45.9677 159.942C46.2296 160.299 46.3277 160.771 46.2294 161.202C45.5235 161.445 44.8902 161.895 44.4282 162.481L44.4073 162.421Z" fill="black"/>
<path d="M9.57446 100.167C9.43501 99.1003 9.44041 97.7453 10.4085 97.2772C11.2581 98.6586 11.3943 100.454 10.7629 101.948C10.0586 102.59 9.35627 101.108 9.59633 100.185L9.57446 100.167Z" fill="black"/>
<path d="M7.16308 136.149C6.58423 136.124 6.23265 135.424 6.34729 134.856C6.46194 134.288 6.88538 133.841 7.29059 133.426C8.00212 132.699 8.71367 131.972 9.42519 131.245C9.54902 133.044 8.57185 134.876 7.00787 135.775L7.16308 136.149Z" fill="black"/>
<path d="M8.94981 18.5095C9.14565 20.2136 9.14793 21.9399 8.9566 23.6445C7.61322 22.1876 7.28613 19.8828 8.1711 18.1098C8.23662 17.5986 9.23409 18.0391 8.9004 18.4318L8.94981 18.5095Z" fill="black"/>
<path d="M150.504 54.29C149.441 53.5323 148.855 52.1556 149.046 50.8639C149.983 51.2329 150.995 51.6672 151.466 52.5568C151.936 53.4465 151.396 54.8602 150.391 54.7915L150.504 54.29Z" fill="black"/>
<path d="M152.85 141.626C152.067 142.745 151.284 143.864 150.501 144.983C150.177 143.985 149.858 142.873 150.295 141.919C150.732 140.965 152.306 140.58 152.794 141.509L152.85 141.626Z" fill="black"/>
<path d="M58.4326 149.488C60.3833 148.933 62.4555 148.809 64.4583 149.128C64.7916 149.181 64.9268 149.693 64.6631 149.903C62.605 150.374 60.4099 150.228 58.4326 149.488Z" fill="black"/>
<path d="M8.06056 69.1426C7.85694 68.4135 7.98807 67.2629 8.73755 67.3693C9.82709 68.6879 9.77697 70.8086 8.62635 72.0742C7.72864 71.5356 7.84486 70.2205 8.07637 69.1996L8.06056 69.1426Z" fill="black"/>
<path d="M64.1723 161.231C64.7546 161.52 65.3368 161.808 65.9191 162.097C65.2715 163.242 63.7896 163.84 62.5283 163.465C62.2653 163.115 62.166 162.647 62.2642 162.22C62.8659 161.962 63.4676 161.703 64.0692 161.444L64.1723 161.231Z" fill="black"/>
<path d="M121.409 170.65C119.795 171.319 117.848 171.111 116.412 170.116C118.092 169.423 120.055 169.452 121.714 170.193L121.409 170.65Z" fill="black"/>
<path d="M152.983 114.584C153.377 116.034 152.349 117.708 150.878 118.012C150.416 116.58 151.224 114.859 152.62 114.3L152.983 114.584Z" fill="black"/>
<path d="M44.9008 20.7177C44.0432 20.9638 42.7966 20.9997 42.6006 20.1292C44.2402 19.3399 46.1551 19.1375 47.9235 19.5668C47.1535 20.3414 46.0413 20.7628 44.9514 20.6931L44.9008 20.7177Z" fill="black"/>
<path d="M9.3042 88.1576C9.63338 87.5413 9.96255 86.9249 10.2917 86.3086C11.2892 87.7136 11.4396 89.6743 10.6682 91.2151C10.0069 90.3954 9.63652 89.3457 9.6369 88.2926L9.3042 88.1576Z" fill="black"/>
<path d="M57.4629 18.7357C58.9944 17.8002 61.1214 17.9734 62.4815 19.1442C60.9606 19.8167 59.1224 19.7209 57.6796 18.894L57.4629 18.7357Z" fill="black"/>
<path d="M65.6259 158.824C64.6315 158.964 63.1628 158.601 63.3857 157.621C64.2506 156.506 66.325 156.8 66.8457 158.112C66.57 158.522 66.1047 158.798 65.6129 158.844L65.6259 158.824Z" fill="black"/>
<path d="M70.7843 162.264C70.0281 162.273 69.282 161.847 68.9045 161.192C70.477 160.732 72.1899 160.766 73.7429 161.288C72.9404 161.997 71.8642 162.388 70.7937 162.359L70.7843 162.264Z" fill="black"/>
<path d="M90.2668 89.0416C90.2593 88.5109 90.2519 87.9802 90.2444 87.4495C91.6163 88.0558 92.5956 89.4663 92.6844 90.9635C91.6252 91.0501 90.5926 90.1237 90.564 89.0614L90.2668 89.0416Z" fill="black"/>
<path d="M91.4299 71.3822C90.0839 71.8862 88.4388 71.4365 87.5361 70.318C88.8601 69.405 90.9426 69.9497 91.6499 71.3941L91.4299 71.3822Z" fill="black"/>
<path d="M103.36 165.58C104.265 165.585 105.171 165.59 106.077 165.595C105.919 166.964 104.062 167.788 102.94 166.987C102.491 166.622 102.796 165.735 103.375 165.724L103.36 165.58Z" fill="black"/>
<path d="M50.7684 117.417C51.3292 117.823 51.4786 118.696 51.0845 119.266C49.8237 118.493 48.9836 117.075 48.9124 115.598C49.8058 115.468 50.7023 116.322 50.6168 117.221L50.7684 117.417Z" fill="black"/>
<path d="M98.0525 161.418C97.7442 160.511 99.056 159.865 99.989 160.082C100.922 160.299 101.816 160.913 102.755 160.723C101.583 161.686 99.8155 161.849 98.4875 161.117L98.0525 161.418Z" fill="black"/>
<path d="M98.7367 122.946C98.6707 123.278 98.0848 123.123 98.0484 122.786C98.0121 122.449 98.2862 122.168 98.538 121.941C99.685 120.91 100.832 119.878 101.979 118.847C101.561 120.519 100.421 121.998 98.9098 122.827L98.7367 122.946Z" fill="black"/>
<path d="M96.8795 173.555C95.3533 174.191 93.534 174.074 92.1013 173.249C93.6434 172.554 95.4851 172.559 97.0236 173.262L96.8795 173.555Z" fill="black"/>
<path d="M110.609 12.5969C109.839 12.5121 109.028 11.6027 109.573 11.052C110.769 10.8919 112.198 10.8195 112.948 11.7635C112.429 12.463 111.443 12.7747 110.617 12.5005L110.609 12.5969Z" fill="black"/>
<path d="M20.0858 161.835C19.3641 163.215 17.0406 163.279 16.2446 161.94C17.2959 161.241 18.7286 161.16 19.8514 161.738L20.0858 161.835Z" fill="black"/>
<path d="M151.553 106.477C152.035 107.217 151.761 108.34 150.992 108.775C150.562 108.123 150.117 107.424 150.106 106.643C150.095 105.862 150.726 105.022 151.5 105.119C151.591 105.536 151.682 105.954 151.773 106.372L151.553 106.477Z" fill="black"/>
<path d="M75.1445 19.32C76.5917 18.4454 78.5149 18.4249 79.9804 19.2684C78.5732 19.896 76.9629 20.0579 75.4589 19.723L75.1445 19.32Z" fill="black"/>
<path d="M42.3934 81.2993C41.9532 80.1038 41.6879 78.8441 41.6086 77.5726C42.4297 77.3701 43.2144 78.1941 43.3024 79.0352C43.3904 79.8763 43.0005 80.6855 42.6211 81.4413L42.3934 81.2993Z" fill="black"/>
<path d="M9.50966 33.2921C8.84887 31.923 9.08031 30.1714 10.074 29.0209C10.8045 30.1606 10.7079 31.7678 9.84621 32.8119L9.50966 33.2921Z" fill="black"/>
<path d="M13.2457 43.0698C13.0807 41.6245 13.786 40.1137 15 39.3122C15.511 40.7171 14.7766 42.4553 13.4131 43.0682L13.2457 43.0698Z" fill="black"/>
<path d="M36.3905 19.4384C35.8639 19.4488 35.367 19.0099 35.3123 18.4861C36.7333 17.9944 38.4666 18.715 39.1201 20.0693C38.238 20.4544 37.1185 20.1986 36.4911 19.4686L36.3905 19.4384Z" fill="black"/>
<path d="M115.293 18.361C116.212 17.9374 117.379 18.1288 118.114 18.8234C117.488 19.3813 116.76 19.9754 115.924 19.907C115.089 19.8387 114.448 18.6361 115.125 18.1412L115.293 18.361Z" fill="black"/>
<path d="M9.2662 65.0782C9.42217 65.744 8.58665 66.3993 7.97717 66.089C7.83245 64.9055 7.93179 63.6927 8.26718 62.5486C8.95678 63.1861 9.38819 64.0952 9.4459 65.0326L9.2662 65.0782Z" fill="black"/>
<path d="M141.145 98.3496C140.495 97.0135 140.619 95.3332 141.457 94.1066C142.139 95.4633 142.123 97.149 141.414 98.4922L141.145 98.3496Z" fill="black"/>
<path d="M38.159 8.94973C37.2654 9.50812 36.1374 9.67678 35.1197 9.40416C34.7326 9.00558 34.7288 8.29809 35.1116 7.89542C36.1078 7.7805 37.1459 8.09068 37.9157 8.73325L38.159 8.94973Z" fill="black"/>
<path d="M145.493 134.821C145.498 135.702 145.503 136.583 145.508 137.464C144.682 137.641 143.789 136.911 143.798 136.067C143.806 135.222 144.714 134.512 145.536 134.706L145.493 134.821Z" fill="black"/>
<path d="M118.383 161.364C119.129 161.62 119.784 162.136 120.209 162.802C119.31 163.66 117.58 163.286 117.116 162.133C117.511 161.874 117.907 161.615 118.302 161.355L118.383 161.364Z" fill="black"/>
<path d="M83.9973 156.451C83.4939 156.371 83.3059 155.584 83.7185 155.284C84.9302 155.119 86.4001 155.058 87.1138 156.051C86.0829 156.282 85.0521 156.513 84.0212 156.744L83.9973 156.451Z" fill="black"/>
<path d="M9.14233 116.876C8.65469 117.56 7.44472 116.882 7.42058 116.042C7.39643 115.203 8.04529 114.515 8.64909 113.931C8.82535 114.856 9.00163 115.78 9.17789 116.705L9.14233 116.876Z" fill="black"/>
<path d="M4.71429 166.738C3.59543 165.605 3.43657 163.653 4.35754 162.354C4.97583 163.665 5.13678 165.186 4.80649 166.598L4.71429 166.738Z" fill="black"/>
<path d="M10.0717 68.125C9.95762 67.2462 10.0523 66.1296 10.8735 65.7965C11.5758 66.5437 11.8432 67.6731 11.5507 68.6558C11.0604 68.9985 10.2633 68.6848 10.1381 68.0998L10.0717 68.125Z" fill="black"/>
<path d="M131.336 166.195C132.016 165.444 133.261 165.291 134.103 165.855C134.215 166.344 134.113 166.877 133.83 167.291C133.038 167.076 132.247 166.861 131.456 166.647L131.336 166.195Z" fill="black"/>
<path d="M12.7426 89.2805C12.4719 88.2218 12.403 86.7531 13.4356 86.3955C13.7038 87.5187 13.7747 88.6887 13.6441 89.8361C13.342 90.2736 12.4881 89.8371 12.6658 89.336L12.7426 89.2805Z" fill="black"/>
<path d="M79.0376 10.9296C78.2918 11.1224 77.1237 10.966 77.2471 10.2057C78.4475 9.83306 79.7585 9.82477 80.9636 10.1822C80.8121 10.9339 79.777 11.3333 79.1599 10.8782L79.0376 10.9296Z" fill="black"/>
<path d="M90.4195 171.221C89.9919 171.55 89.5659 170.655 89.9249 170.253C91.1052 170.083 92.3232 170.182 93.4609 170.539C92.742 171.348 91.4729 171.607 90.4949 171.144L90.4195 171.221Z" fill="black"/>
<path d="M44.4088 173.806C43.9811 174.134 43.5552 173.24 43.9142 172.837C45.0945 172.668 46.3125 172.767 47.4501 173.124C46.7313 173.933 45.4622 174.191 44.4841 173.729L44.4088 173.806Z" fill="black"/>
<path d="M8.97683 35.0381C9.15603 35.7734 8.17923 36.4791 7.53742 36.0781C7.39456 35.5216 7.25318 34.924 7.45033 34.3844C7.64748 33.8448 8.33588 33.451 8.81509 33.7678C8.90569 34.1884 8.99632 34.609 9.08692 35.0295L8.97683 35.0381Z" fill="black"/>
<path d="M128.973 14.193C129.855 14.5319 128.78 16.0452 127.961 15.5756C127.141 15.106 127.174 13.8881 127.567 13.0292C128.028 13.4745 128.489 13.9197 128.95 14.3649L128.973 14.193Z" fill="black"/>
<path d="M50.6761 18.8703C51.4197 18.65 52.1633 18.4296 52.9069 18.2092C52.9542 19.4617 51.2612 20.3749 50.2404 19.6475C49.7259 19.5525 50.1372 18.5543 50.5693 18.8493L50.6761 18.8703Z" fill="black"/>
<path d="M103.578 114.658C103.629 113.785 103.68 112.911 103.731 112.037C104.367 112.596 105.057 113.275 105.018 114.12C104.978 114.965 103.626 115.528 103.293 114.75L103.578 114.658Z" fill="black"/>
<path d="M144.191 158.346C143.927 157.372 144.351 156.251 145.194 155.695C145.518 156.442 145.624 157.282 145.495 158.086C145.12 158.334 144.643 158.423 144.204 158.325L144.191 158.346Z" fill="black"/>
<path d="M139.834 35.5483C139.707 34.6339 139.863 33.4325 140.757 33.2025C141.06 34.1216 141.069 35.1354 140.781 36.0594C140.506 36.5056 139.645 36.054 139.857 35.5745L139.834 35.5483Z" fill="black"/>
<path d="M7.5214 140.476C7.12358 139.706 7.95087 138.772 8.81364 138.695C9.1133 139.434 8.94693 140.341 8.40414 140.925C8.2381 141.427 7.27854 141.012 7.53086 140.547L7.5214 140.476Z" fill="black"/>
<path d="M139.916 66.0153C139.664 65.1499 139.65 63.8692 140.54 63.7224C140.79 64.241 141.046 64.8013 140.954 65.3695C140.863 65.9378 140.252 66.4527 139.725 66.2207L139.916 66.0153Z" fill="black"/>
<path d="M138.432 164.994C137.702 165.755 136.388 165.857 135.549 165.217C136.134 164.398 137.437 164.218 138.222 164.848L138.432 164.994Z" fill="black"/>
<path d="M139.731 46.4655C140.06 46.9531 139.615 47.7357 139.028 47.7028C138.649 46.9015 138.65 45.9299 139.032 45.1298C139.586 44.855 139.881 45.8074 139.767 46.415L139.731 46.4655Z" fill="black"/>
<path d="M42.577 85.4287C43.1742 85.3793 43.7413 85.9576 43.6803 86.5537C43.6192 87.1498 42.9468 87.6011 42.372 87.4317C41.903 86.9556 42.0432 86.0375 42.6328 85.7229L42.577 85.4287Z" fill="black"/>
<path d="M141.814 117.068C140.78 116.423 140.46 114.867 141.156 113.867C141.888 114.691 142.139 115.914 141.791 116.96L141.814 117.068Z" fill="black"/>
<path d="M144.902 103.85C145.229 104.339 144.782 105.122 144.195 105.088C143.819 104.285 143.822 103.315 144.204 102.515C144.758 102.246 145.048 103.193 144.938 103.798L144.902 103.85Z" fill="black"/>
<path d="M149.09 135.345C149.2 135.792 149.124 136.283 148.883 136.676C148.143 136.64 147.417 135.907 147.652 135.204C147.887 134.502 149.235 134.638 149.147 135.374L149.09 135.345Z" fill="black"/>
<path d="M9.95108 94.1854C9.76142 93.5335 10.2169 92.7689 10.8805 92.6253C11.2026 93.5079 10.9422 94.5729 10.2493 95.2074C9.84854 95.5642 9.45688 94.6424 9.81906 94.2464L9.95108 94.1854Z" fill="black"/>
<path d="M46.6519 10.9009C47.0408 9.84319 48.6716 9.54134 49.4134 10.3898C48.8865 11.0785 47.8354 11.2985 47.0764 10.8789L46.6519 10.9009Z" fill="black"/>
<path d="M144.422 116.231C143.801 115.583 143.723 114.484 144.246 113.755C145.148 114.22 145.319 115.655 144.552 116.319L144.422 116.231Z" fill="black"/>
<path d="M49.0177 157.457C49.4608 158.36 47.9196 159.346 47.2861 158.565C47.2349 157.793 48.225 157.091 48.8322 157.57L49.0177 157.457Z" fill="black"/>
<path d="M149.16 15.9098C148.849 15.4739 149.745 15.0115 150.085 15.4259C150.387 16.2424 150.07 17.2452 149.353 17.7388C149.083 17.1786 149.003 16.5285 149.131 15.9198L149.16 15.9098Z" fill="black"/>
<path d="M59.9216 106.16C58.9279 106.147 58.2807 104.759 58.9094 103.989C59.7648 104.252 60.2807 105.302 59.9651 106.14L59.9216 106.16Z" fill="black"/>
<path d="M139.754 73.7852C140.092 73.4166 140.771 73.7444 140.901 74.227C141.031 74.7095 140.809 75.2097 140.593 75.6601C139.828 75.7731 139.687 74.6004 139.889 73.8549L139.754 73.7852Z" fill="black"/>
<path d="M34.3364 149.007C34.3818 149.975 32.8719 150.529 32.281 149.761C32.1931 149.022 33.3252 148.915 34.0385 149.128L34.3364 149.007Z" fill="black"/>
<path d="M147.32 54.351C146.723 54.1658 146.441 53.3395 146.799 52.8279C147.343 53.0022 147.962 53.2481 148.13 53.7941C148.299 54.3402 147.471 54.9592 147.17 54.4739L147.32 54.351Z" fill="black"/>
<path d="M42.3602 91.6848C41.5702 91.6483 40.8145 90.6848 41.3256 90.0812C42.1087 90.1053 42.8645 91.0655 42.3503 91.6568L42.3602 91.6848Z" fill="black"/>
<path d="M139.889 124.974C139.685 124.244 139.823 123.089 140.572 123.205C140.799 123.643 141.032 124.134 140.904 124.611C140.775 125.087 140.078 125.39 139.776 124.999L139.889 124.974Z" fill="black"/>
<path d="M62.0203 172.901C62.7525 172.696 63.9109 172.833 63.7956 173.585C63.358 173.809 62.8685 174.04 62.3934 173.913C61.9183 173.786 61.6106 173.097 61.994 172.789L62.0203 172.901Z" fill="black"/>
<path d="M94.5746 94.2697C93.7845 94.2331 93.0289 93.2697 93.5399 92.666C94.3231 92.6901 95.0788 93.6504 94.5646 94.2416L94.5746 94.2697Z" fill="black"/>
<path d="M13.9743 121.619C14.335 122.323 13.6441 123.302 12.8598 123.197C12.4666 122.52 13.1544 121.523 13.9269 121.65L13.9743 121.619Z" fill="black"/>
<path d="M146.731 12.0575C146.373 11.3509 147.066 10.3745 147.851 10.4792C148.24 11.1573 147.554 12.1496 146.782 12.0256L146.731 12.0575Z" fill="black"/>
<path d="M12.6757 65.0155C12.3543 64.5806 13.2588 64.1451 13.6354 64.5332C13.7882 65.0141 13.6588 65.5736 13.3105 65.9386C13.0477 65.6761 12.785 65.4137 12.5222 65.1512L12.6757 65.0155Z" fill="black"/>
<path d="M141.304 79.4342C141.992 78.9978 142.813 80.3292 142.114 80.7478C141.595 81.069 141.274 80.1102 141.407 79.5148L141.304 79.4342Z" fill="black"/>
<path d="M17.5259 174.322C17.0962 174.648 16.6668 173.749 17.0395 173.36C17.475 173.242 17.959 173.318 18.3377 173.563C18.4304 173.98 17.9782 174.411 17.5667 174.299L17.5259 174.322Z" fill="black"/>
<path d="M151.267 122.962C151.404 122.383 152.188 122.077 152.681 122.408C153.025 123.189 151.441 123.749 151.218 122.924L151.267 122.962Z" fill="black"/>
<path d="M129.556 154.985C129.483 155.704 128.397 156.046 127.926 155.498C127.637 154.827 128.843 154.627 129.506 154.931L129.556 154.985Z" fill="black"/>
<path d="M106.473 173.293C105.896 173.42 104.97 173.111 105.277 172.607C105.638 171.89 106.987 172.727 106.505 173.369L106.473 173.293Z" fill="black"/>
<path d="M4.90747 166.654C5.62635 166.302 6.29967 167.244 6.44416 168.031C5.68373 168.178 4.90107 167.403 5.04094 166.641L4.90747 166.654Z" fill="black"/>
<path d="M53.0436 156.019C52.9712 156.738 51.8847 157.08 51.4141 156.532C51.125 155.861 52.3304 155.661 52.9943 155.965L53.0436 156.019Z" fill="black"/>
<path d="M9.99243 144.573C10.6801 144.137 11.5015 145.467 10.8033 145.886C10.2869 146.215 9.9606 145.25 10.0963 144.653L9.99243 144.573Z" fill="black"/>
<path d="M13.7169 22.706C13.0293 23.1428 12.2084 21.8111 12.9075 21.393C13.4255 21.0709 13.7471 22.0299 13.6143 22.6252L13.7169 22.706Z" fill="black"/>
<path d="M122.472 20.2635C122.043 20.5902 121.613 19.6913 121.985 19.3012C122.421 19.1839 122.905 19.2597 123.284 19.5048C123.376 19.9211 122.924 20.3526 122.513 20.2405L122.472 20.2635Z" fill="black"/>
<path d="M140.32 26.7712C140.504 27.2772 139.626 27.7129 139.334 27.2601C139.163 26.7867 139.289 26.2194 139.645 25.8634C139.907 26.1258 140.169 26.3883 140.431 26.6507L140.32 26.7712Z" fill="black"/>
<path d="M93.7839 87.7666C94.4766 87.6986 95.1577 88.6873 94.5721 89.0634C94.0186 89.332 93.7245 88.3887 93.8306 87.7827L93.7839 87.7666Z" fill="black"/>
</svg>
