<svg width="200" height="200" viewBox="0 0 200 200" fill="none" xmlns="http://www.w3.org/2000/svg">
<path d="M86.6445 200C86.4231 199.956 86.2364 199.886 86.0457 199.872C84.1465 199.734 82.2429 199.644 80.3482 199.461C78.6551 199.298 76.9652 199.075 75.2859 198.803C73.4037 198.499 71.5281 198.144 69.662 197.753C66.6572 197.122 63.6381 196.536 60.671 195.757C57.9162 195.033 55.2197 194.086 52.502 193.223C51.9227 193.039 51.3634 192.792 50.7942 192.576C50.5556 192.485 50.4695 192.322 50.7367 192.212C51.5243 191.887 52.3085 191.447 53.1319 191.338C54.7168 191.129 56.2631 191.537 57.7976 191.954C60.1903 192.604 62.596 193.207 65.0029 193.803C66.6994 194.223 68.3993 194.637 70.1122 194.981C71.5023 195.261 72.9129 195.441 74.3166 195.65C76.1385 195.922 77.9597 196.201 79.7868 196.434C80.8423 196.569 81.9075 196.638 82.9705 196.702C85.3744 196.847 87.7782 197.012 90.1847 197.09C92.9755 197.182 95.769 197.203 98.5616 197.225C99.4872 197.232 100.414 197.158 101.339 197.099C103.262 196.976 105.185 196.865 107.104 196.697C108.616 196.565 110.126 196.393 111.628 196.17C113.749 195.855 115.863 195.486 117.977 195.122C119.675 194.83 121.378 194.559 123.06 194.19C124.941 193.776 126.818 193.318 128.666 192.778C132.01 191.8 135.354 190.81 138.657 189.702C141.078 188.889 143.446 187.91 145.813 186.945C147.278 186.348 148.712 185.669 150.132 184.97C151.066 184.51 151.885 183.873 152.454 182.969C152.515 182.872 152.55 182.758 152.597 182.652C152.49 182.682 152.376 182.697 152.276 182.742C149 184.219 145.775 185.82 142.439 187.143C138.929 188.534 135.336 189.731 131.736 190.878C129.261 191.666 126.726 192.276 124.195 192.869C122.16 193.345 120.093 193.686 118.036 194.068C116.3 194.39 114.564 194.719 112.818 194.982C111.564 195.171 110.295 195.272 109.031 195.385C106.931 195.573 104.832 195.811 102.727 195.9C99.2528 196.046 95.7745 196.12 92.2971 196.167C90.5157 196.191 88.7308 196.126 86.9507 196.037C85.2464 195.952 83.543 195.815 81.845 195.644C80.0437 195.462 78.2439 195.249 76.4534 194.983C74.7072 194.723 72.9698 194.399 71.2356 194.066C68.819 193.603 66.3995 193.147 63.9993 192.607C62.3854 192.245 60.7955 191.768 59.2078 191.298C57.2153 190.709 55.2352 190.077 53.2516 189.458C52.825 189.325 52.4026 189.176 51.9845 189.018C51.6784 188.903 51.4809 188.779 51.411 189.304C51.3097 190.065 50.2206 190.886 49.4611 191.053C47.962 191.382 46.8736 190.524 45.709 189.86C45.6906 189.85 45.6792 189.828 45.6618 189.815C45.3511 189.582 45.0399 189.349 44.7289 189.116C45.0909 188.93 45.4377 188.7 45.818 188.566C46.5477 188.308 47.2977 188.109 48.0358 187.875C48.1639 187.834 48.2752 187.741 48.3943 187.672C48.2666 187.609 48.1418 187.54 48.0108 187.484C46.3088 186.769 44.563 186.143 42.9143 185.321C40.8906 184.312 39.0017 183.059 37.2882 181.568C36.3956 180.791 35.4738 180.037 34.6578 179.184C32.9439 177.393 31.4825 175.405 30.263 173.238C29.1053 171.181 28.2817 168.992 27.7424 166.71C27.4724 165.568 27.4155 164.369 27.3356 163.19C27.2729 162.265 27.3087 161.331 27.3258 160.402C27.3715 157.924 27.9923 155.559 28.828 153.251C29.653 150.974 30.8779 148.894 32.4218 147.04C33.8193 145.362 35.4163 143.862 37.3737 142.826C38.7796 142.083 39.3906 140.896 39.4384 139.372C39.4696 138.378 39.5036 137.377 39.4313 136.386C39.3017 134.611 39.0892 132.842 38.9193 131.07C38.8623 130.475 38.8283 129.877 38.7857 129.281C38.6534 127.425 38.5309 125.568 38.3875 123.714C38.2693 122.186 38.126 120.661 37.9952 119.134C37.8625 117.586 37.7322 116.037 37.5995 114.489C37.4687 112.963 37.3355 111.436 37.2047 109.91C37.072 108.362 36.9417 106.813 36.809 105.265C36.6782 103.738 36.545 102.212 36.4142 100.686C36.2815 99.1375 36.1512 97.589 36.0185 96.0408C35.8877 94.5143 35.7545 92.988 35.6236 91.4616C35.491 89.9133 35.3592 88.365 35.2284 86.8165C35.0957 85.2463 34.9654 83.6759 34.8327 82.1057C34.7019 80.5572 34.5701 79.0089 34.4375 77.4606C34.3067 75.9342 34.1734 74.4079 34.0426 72.8814C33.9099 71.3332 33.7796 69.7847 33.647 68.2364C33.5161 66.71 33.3829 65.1837 33.2521 63.6573C33.1194 62.109 32.9891 60.5605 32.8564 59.0123C32.7256 57.4858 32.5924 55.9595 32.4616 54.4331C32.3289 52.8848 32.1993 51.3363 32.0657 49.7881C31.9359 48.2835 31.8004 46.7794 31.6715 45.2747C31.537 43.7046 31.4088 42.134 31.2752 40.5639C31.1453 39.0373 31.0577 37.5055 30.8703 35.9859C30.5447 33.3467 30.4161 30.7 30.4929 28.0462C30.5767 25.1519 31.1827 22.3559 32.7549 19.9024C33.7324 18.3769 34.9376 16.9844 36.4761 15.9324C37.1895 15.4445 37.8558 14.8796 38.4969 14.2981C38.7894 14.0328 39.031 13.8337 39.4435 13.9589C39.5842 14.0016 39.749 13.9607 39.9025 13.9668C40.182 13.9778 40.4611 13.9954 40.7404 14.0102C40.5373 14.2276 40.3525 14.4663 40.1282 14.6591C37.5722 16.8565 35.3069 19.2762 33.8469 22.3782C32.8457 24.5054 32.4987 26.7405 32.7547 29.0251C33.0112 31.3145 33.8985 33.4001 35.6553 34.9864C36.2483 35.5218 36.9824 35.9011 37.6535 36.3495C37.713 36.3893 37.7835 36.4127 37.8489 36.4438C37.7901 36.461 37.7321 36.4815 37.6725 36.4948C36.2468 36.8142 34.8846 36.5619 33.5955 35.9495C33.24 35.7806 33.2279 35.8532 33.254 36.1445C33.3811 37.5615 33.5174 38.9777 33.6461 40.3946C33.6963 40.9467 33.74 41.4996 33.7779 42.0527C33.8688 43.3775 33.9406 44.7037 34.0457 46.0274C34.2091 48.0855 34.3912 50.1421 34.5703 52.1989C34.6975 53.6599 34.8366 55.1197 34.9638 56.5806C35.1429 58.6375 35.3134 60.6951 35.4926 62.7519C35.6198 64.2128 35.759 65.6727 35.8859 67.1336C36.0223 68.7035 36.1462 70.2745 36.2835 71.8443C36.4093 73.2834 36.5511 74.7211 36.6762 76.1602C36.8569 78.2389 37.0251 80.3186 37.2057 82.3973C37.3308 83.8364 37.4613 85.2751 37.6014 86.7129C37.7699 88.4414 37.9659 90.1672 38.1218 91.8968C38.235 93.1536 38.2826 94.4164 38.395 95.6733C38.5517 97.4247 38.7443 99.1729 38.9157 100.923C38.9697 101.475 39.0091 102.028 39.0482 102.581C39.1386 103.862 39.2119 105.144 39.3154 106.424C39.4801 108.46 39.6638 110.495 39.8395 112.53C39.9713 114.056 40.1023 115.583 40.235 117.109C40.3658 118.614 40.4968 120.118 40.6305 121.622C40.7603 123.083 40.8974 124.543 41.0242 126.004C41.1606 127.574 41.2859 129.145 41.4214 130.715C41.5493 132.197 41.6751 133.681 41.8186 135.162C41.9367 136.382 42.1543 137.598 42.1904 138.82C42.2279 140.093 42.2137 141.429 41.297 142.451C40.6601 143.161 39.858 143.72 39.1506 144.37C37.8454 145.569 36.4885 146.721 35.28 148.012C34.2635 149.097 33.3602 150.306 32.5264 151.541C31.1647 153.558 30.2985 155.788 29.8028 158.187C29.4508 159.891 29.4574 161.605 29.6049 163.283C29.8451 166.015 30.7762 168.586 32.1122 170.992C33.0699 172.717 34.2333 174.288 35.5459 175.767C37.5595 178.037 39.9085 179.905 42.4827 181.448C44.6241 182.731 46.9058 183.79 49.1634 184.868C52.3411 186.386 55.663 187.547 59.0345 188.544C61.9173 189.397 64.8303 190.15 67.7423 190.9C69.4758 191.346 71.2268 191.731 72.982 192.084C74.149 192.318 75.3378 192.443 76.5161 192.623C77.9407 192.839 79.3618 193.081 80.7895 193.274C81.7143 193.399 82.6465 193.484 83.5782 193.539C86.0698 193.686 88.5617 193.844 91.0558 193.929C93.671 194.018 96.2892 194.069 98.9056 194.056C100.582 194.048 102.26 193.924 103.934 193.8C105.862 193.657 107.79 193.491 109.71 193.271C111.604 193.053 113.498 192.805 115.376 192.477C117.553 192.095 119.711 191.602 121.881 191.175C125.705 190.421 129.471 189.443 133.151 188.164C136.411 187.031 139.678 185.901 142.876 184.608C145.677 183.475 148.435 182.21 151.126 180.835C153.733 179.503 156.251 177.979 158.518 176.102C159.987 174.887 161.465 173.667 162.807 172.319C164.496 170.621 165.905 168.682 167.112 166.604C168.121 164.866 168.8 162.986 169.316 161.065C169.651 159.82 169.725 158.5 169.87 157.209C169.961 156.398 170.043 155.573 169.998 154.762C169.8 151.248 169.021 147.898 166.976 144.953C166.049 143.618 164.938 142.47 163.63 141.47C161.968 140.2 161.028 138.424 160.51 136.386C159.782 133.517 159.988 130.605 160.026 127.708C160.05 125.912 160.252 124.104 160.546 122.33C161.031 119.406 161.501 116.469 162.482 113.652C162.534 113.503 162.547 113.342 162.578 113.186C162.64 113.424 162.756 113.661 162.756 113.899C162.768 117.61 162.748 121.321 162.77 125.032C162.785 127.671 162.782 130.313 162.919 132.947C163.022 134.929 163.279 136.913 164.214 138.726C164.747 139.759 165.562 140.528 166.411 141.312C167.358 142.188 168.162 143.234 168.947 144.267C170.663 146.521 171.612 149.141 172.222 151.86C172.683 153.914 172.789 156.039 172.631 158.145C172.448 160.604 171.862 162.997 170.914 165.267C169.986 167.49 168.828 169.609 167.252 171.455C166.107 172.796 164.967 174.154 163.703 175.379C161.879 177.148 159.816 178.629 157.619 179.913C157.196 180.16 156.759 180.385 156.339 180.637C156.189 180.727 156.07 180.868 155.937 180.985C156.107 181 156.281 181.045 156.446 181.023C157.781 180.846 158.97 180.361 159.902 179.348C159.996 179.246 160.118 179.17 160.226 179.082C160.172 179.204 160.117 179.325 160.063 179.447C159.425 180.898 158.463 182.139 157.39 183.27C156.604 184.099 155.698 184.837 154.762 185.495C151.235 187.971 147.251 189.469 143.186 190.778C140.726 191.57 138.267 192.366 135.808 193.162C131.841 194.447 127.855 195.661 123.783 196.576C121.676 197.05 119.58 197.582 117.464 198.009C116.011 198.303 114.532 198.476 113.062 198.679C111.354 198.914 109.645 199.138 107.933 199.336C106.563 199.494 105.188 199.607 103.815 199.735C103.044 199.807 102.272 199.868 101.5 199.967C96.5589 200 91.6182 200 86.6445 200Z" fill="black"/>
<path d="M119.385 5.8529e-09C119.492 0.0523488 119.59 0.0892333 119.637 0.159859C119.793 0.397045 119.991 0.634277 120.044 0.89745C120.062 0.988243 119.719 1.20815 119.511 1.27737C118.863 1.49252 118.181 1.74249 117.586 1.17869C117.283 0.892564 116.884 0.592312 117.178 0.0329374C117.903 -6.53766e-07 118.628 -6.52909e-07 119.385 5.8529e-09Z" fill="black"/>
<path d="M86.4799 52.7008C85.8833 52.6569 85.3534 52.5903 84.8218 52.5733C83.1058 52.5181 81.3885 52.5019 79.6733 52.4305C78.3909 52.3771 77.1095 52.2805 75.8305 52.1693C74.0136 52.0114 72.1964 51.8477 70.3846 51.6401C68.3388 51.4057 66.2815 51.2128 64.26 50.8364C60.3812 50.1142 56.4938 49.397 52.6685 48.4428C50.0346 47.7858 47.4769 46.7932 44.9285 45.8353C43.3937 45.2584 41.9096 44.5208 40.4626 43.7439C39.1948 43.0633 38.2155 42.0596 38.2724 40.4786C38.3178 39.2165 39.2952 38.2404 40.5026 38.1125C40.9061 38.0698 41.4607 38.3443 41.7645 38.6527C43.5059 40.4208 45.4542 41.9037 47.7432 42.8491C49.1869 43.4454 50.7102 43.8814 52.2318 44.2486C54.0417 44.6854 55.8852 44.9862 57.7193 45.3178C59.0729 45.5625 60.4365 45.751 61.7923 45.984C63.7782 46.3254 65.7579 46.7039 67.7464 47.0285C69.0508 47.2413 70.3674 47.3781 71.6763 47.5648C73.1456 47.7743 74.61 48.0195 76.0811 48.2147C77.0062 48.3375 77.9401 48.3921 78.8692 48.4858C80.5752 48.6578 82.2796 48.8467 83.9867 49.007C84.7562 49.0792 85.5302 49.128 86.3029 49.1387C90.2146 49.193 94.1266 49.2618 98.0385 49.2607C99.6707 49.2603 101.304 49.1202 102.935 49.0057C104.397 48.9029 105.86 48.779 107.315 48.609C109.318 48.3753 111.333 48.1891 113.308 47.8054C117.48 46.9948 121.669 46.218 125.779 45.1513C130.363 43.9616 134.879 42.5023 139.233 40.5966C141.185 39.7426 143.173 38.9688 145.099 38.0625C147.38 36.9891 149.617 35.8218 151.863 34.6745C152.681 34.2567 153.466 33.7734 154.274 33.3355C154.399 33.2674 154.57 33.2831 154.72 33.2601C154.663 33.41 154.646 33.6016 154.542 33.7031C153.828 34.399 153.141 35.1358 152.357 35.7461C150.942 36.8479 149.509 37.9371 148.002 38.9069C146.563 39.8341 145.02 40.6018 143.525 41.4431C143.429 41.4969 143.351 41.5816 143.265 41.6519C143.376 41.6458 143.494 41.6639 143.596 41.63C145.022 41.1523 146.465 40.7155 147.866 40.1733C150.058 39.3254 152.027 38.0521 153.795 36.5372C156.88 33.8935 159.182 30.6648 160.09 26.6497C160.458 25.0231 160.566 23.2901 160.483 21.6208C160.369 19.315 159.787 17.0711 158.679 15.0065C157.435 12.6903 155.73 10.8073 153.437 9.4842C153.338 9.42713 153.254 9.34277 153.164 9.27112C153.271 9.29885 153.377 9.3314 153.485 9.3536C155.829 9.83549 157.767 11.0481 159.375 12.769C161.05 14.5604 162.138 16.6869 162.777 19.0633C163.207 20.6651 163.277 22.2953 163.132 23.9063C162.893 26.5706 161.973 29.0377 160.612 31.3519C159.54 33.1725 158.241 34.8067 156.725 36.2543C155.055 37.8487 153.192 39.2024 151.191 40.3697C147.727 42.3909 144.01 43.8241 140.201 44.9996C136.707 46.0779 133.171 47.0306 129.627 47.9352C127.329 48.5218 124.985 48.9292 122.659 49.4048C121.098 49.7239 119.539 50.0594 117.968 50.3189C116.354 50.5854 114.726 50.765 113.105 50.989C111.548 51.2041 109.996 51.4495 108.436 51.6391C107.38 51.7675 106.315 51.8305 105.253 51.9086C103.376 52.0466 101.498 52.1769 99.6205 52.3046C98.2521 52.3976 96.8842 52.5261 95.514 52.5599C92.5253 52.6336 89.5353 52.6569 86.4799 52.7008ZM45.4391 43.8734C45.8334 43.8734 46.2279 43.8753 46.6222 43.8714C46.6819 43.8709 46.7414 43.8438 46.801 43.829C46.7616 43.7999 46.7255 43.7643 46.6824 43.7426C44.6152 42.7032 42.5483 41.6632 40.4767 40.6328C40.3813 40.5854 40.2423 40.6256 40.1236 40.625C40.1563 40.7153 40.1932 40.8044 40.2212 40.8962C40.5893 42.1018 41.7108 42.9469 42.94 42.9533C43.2621 42.955 43.7922 42.8725 43.8698 43.0185C44.1948 43.6298 44.8099 43.6306 45.4391 43.8734Z" fill="black"/>
<path d="M109.668 121.871C111.181 121.654 112.63 121.447 114.075 121.216C115.368 121.009 116.665 120.81 117.948 120.545C119.965 120.13 121.993 119.743 123.977 119.198C126.886 118.4 129.784 117.547 132.64 116.579C135.174 115.719 137.677 114.745 140.133 113.681C142.759 112.544 145.355 111.321 147.889 109.99C150.207 108.773 152.428 107.37 154.683 106.033C155.339 105.643 155.959 105.192 156.606 104.786C156.713 104.719 156.876 104.742 157.013 104.723C156.977 104.86 156.987 105.046 156.899 105.126C155.613 106.301 154.366 107.527 153.005 108.611C151.208 110.042 149.356 111.413 147.461 112.712C145.03 114.377 142.407 115.704 139.727 116.93C136.708 118.311 133.583 119.391 130.436 120.422C126.763 121.626 123.095 122.843 119.42 124.04C116.053 125.137 112.68 126.217 109.308 127.297C109.177 127.339 109.022 127.309 108.878 127.313C108.974 127.181 109.042 126.985 109.172 126.927C110.41 126.377 111.296 125.486 111.835 124.247C111.905 124.087 111.952 123.917 112.01 123.752C111.832 123.774 111.646 123.771 111.477 123.823C110.193 124.22 108.924 124.669 107.628 125.025C104.805 125.798 101.973 126.539 99.1375 127.266C98.1194 127.527 97.0511 127.623 96.0631 127.962C95.355 128.204 95.7516 127.717 95.7352 127.58C95.6576 126.933 95.6581 126.274 95.5571 125.631C95.4977 125.252 95.1875 125.149 94.7882 125.154C92.9662 125.178 91.1434 125.181 89.3213 125.159C87.8681 125.142 86.4123 125.123 84.9634 125.022C83.1226 124.893 81.2743 124.768 79.4533 124.486C76.5205 124.033 73.5921 123.523 70.6904 122.904C68.0459 122.339 65.4309 121.628 62.8239 120.905C62.3856 120.783 62.4922 120.941 62.5043 121.151C62.5584 122.09 63.0172 122.86 63.7271 123.399C65.0952 124.437 66.7017 124.962 68.393 125.152C70.0666 125.341 71.7513 125.431 73.4316 125.559C74.6464 125.652 75.8618 125.735 77.0769 125.824C78.8886 125.955 80.7004 126.086 82.512 126.219C83.6834 126.305 84.8544 126.396 86.0257 126.482C87.8373 126.615 89.6492 126.744 91.4607 126.879C91.9481 126.915 92.4352 126.958 92.9206 127.015C93.018 127.026 93.1067 127.113 93.1994 127.165C93.1127 127.245 93.0371 127.345 92.9365 127.399C92.8129 127.465 92.6699 127.524 92.5325 127.531C91.4753 127.584 90.4177 127.629 89.3598 127.667C87.9729 127.716 86.5857 127.753 85.1988 127.801C84.0751 127.84 82.9519 127.896 81.8281 127.93C80.1119 127.981 78.3953 128.058 76.6791 128.054C74.282 128.047 71.8806 128.051 69.4894 127.909C67.3208 127.78 65.1507 127.521 63.1717 126.483C61.8532 125.792 60.9047 124.817 60.358 123.38C59.5939 121.371 58.1268 119.926 56.2226 118.965C53.9007 117.793 51.5281 116.721 49.2134 115.536C47.0191 114.412 45.0718 112.983 43.9786 110.659C43.9235 110.542 43.8858 110.416 43.8401 110.295C43.9731 110.333 44.1165 110.35 44.2375 110.412C45.6892 111.149 47.1039 111.97 48.5942 112.617C51.273 113.78 53.9803 114.882 56.7073 115.927C58.623 116.662 60.5735 117.319 62.5403 117.903C64.9713 118.625 67.4242 119.281 69.8884 119.881C71.9734 120.388 74.0819 120.806 76.1919 121.2C77.49 121.442 78.8099 121.569 80.1213 121.738C81.8739 121.963 83.6269 122.186 85.3817 122.394C85.9752 122.464 86.5737 122.5 87.1711 122.527C88.404 122.581 89.6373 122.63 90.871 122.659C93.136 122.712 95.4013 122.774 97.6668 122.784C99.0316 122.79 100.399 122.736 101.761 122.654C103.399 122.555 105.036 122.416 106.669 122.259C107.651 122.165 108.625 122.003 109.668 121.871Z" fill="black"/>
<path d="M71.065 156.653C72.7724 156.159 74.4499 156.091 76.1194 156.393C77.2222 156.593 78.2914 156.974 79.382 157.249C79.5274 157.286 79.7714 157.229 79.8662 157.123C80.8456 156.026 82.1753 155.826 83.5124 155.746C85.2253 155.642 86.9447 155.649 88.661 155.597C89.741 155.565 90.8204 155.511 91.9002 155.468C94.1035 155.38 96.3068 155.292 98.5101 155.204C99.5899 155.161 100.67 155.121 101.749 155.071C103.579 154.987 105.411 154.918 107.239 154.802C108.811 154.702 110.388 154.604 111.949 154.402C115.473 153.947 118.949 153.269 122.329 152.12C123.97 151.563 125.659 151.166 127.439 151.236C129.713 151.326 131.587 152.744 132.327 154.871C133.015 156.849 132.98 158.88 132.723 160.921C132.65 161.502 132.609 162.096 132.447 162.653C132.236 163.379 131.788 163.952 131.028 164.216C130.594 164.367 130.361 164.272 130.35 163.767C130.317 162.358 130.361 160.938 130.198 159.542C129.993 157.8 129.952 155.999 129.146 154.388C128.888 153.872 128.447 153.384 127.971 153.055C127.128 152.472 126.137 153.265 126.161 154.169C126.193 155.326 126.386 156.48 126.527 157.632C126.648 158.632 126.793 159.629 126.928 160.627C127.06 161.605 127.112 162.602 127.351 163.553C127.509 164.18 127.099 163.896 126.97 163.858C126.11 163.61 125.512 163.064 125.069 162.268C124.525 161.289 124.398 160.24 124.284 159.163C124.155 157.954 124.118 156.744 123.398 155.639C122.792 154.711 121.046 154.561 120.323 155.167C120.205 155.266 120.157 155.446 120.077 155.589C120.218 155.636 120.356 155.708 120.5 155.727C121.671 155.879 122.567 156.399 123.125 157.494C123.302 157.843 123.231 157.829 122.933 157.843C121.622 157.904 120.649 158.534 120.133 159.727C119.937 160.177 119.994 160.74 119.948 161.252C119.926 161.497 120.05 161.8 119.57 161.545C119.122 161.308 118.668 160.691 118.626 160.013C118.589 159.416 118.549 158.819 118.493 158.223C118.419 157.43 117.29 156.822 116.335 157.047C116.114 157.1 115.891 157.163 115.665 157.176C114.011 157.272 112.356 157.347 110.703 157.447C109.487 157.52 108.272 157.623 107.057 157.707C105.113 157.841 103.17 157.97 101.226 158.103C99.9887 158.188 98.7519 158.281 97.5145 158.366C95.5491 158.5 93.5832 158.627 91.6179 158.762C90.4242 158.845 89.2316 158.942 88.038 159.024C86.0726 159.159 84.0828 159.146 82.1501 159.472C80.9347 159.677 80.1111 159.202 79.1999 158.672C79.0895 158.607 78.9226 158.592 78.7933 158.615C76.8888 158.965 74.9595 159.188 73.0386 158.995C71.4167 158.832 69.8207 158.411 68.2143 158.099C68.1491 158.086 68.0943 158.021 68.0347 157.979C68.1076 157.926 68.1735 157.855 68.2546 157.82C69.1681 157.428 70.0839 157.042 71.065 156.653Z" fill="black"/>
<path d="M103.739 152.437C101.119 152.525 98.5655 152.643 96.0104 152.694C92.3847 152.766 88.7576 152.835 85.1317 152.812C83.451 152.801 81.7605 152.65 80.0947 152.418C77.8322 152.102 75.5626 151.757 73.3461 151.218C71.4969 150.768 69.6989 150.076 67.9162 149.393C65.9445 148.636 64.0981 147.618 62.3816 146.377C61.9763 146.084 61.5686 145.794 61.1641 145.5C60.7949 145.232 60.8584 144.969 61.1889 144.726C62.0836 144.068 63.0925 143.905 64.0767 144.364C64.8913 144.745 65.7251 145.22 66.346 145.853C67.9864 147.526 69.9807 148.438 72.221 148.87C74.0817 149.228 75.9564 149.52 77.832 149.793C79.0658 149.973 80.3102 150.091 81.5535 150.191C82.9859 150.307 84.4212 150.415 85.8571 150.452C88.6703 150.526 91.4851 150.59 94.2988 150.578C96.085 150.57 97.8713 150.429 99.6563 150.325C100.807 150.259 101.956 150.166 103.104 150.063C104.964 149.898 106.824 149.727 108.682 149.535C110.192 149.379 111.699 149.199 113.206 149.009C115.206 148.757 117.202 148.48 119.202 148.223C120.643 148.038 122.098 147.938 123.525 147.68C126.368 147.167 129.184 146.55 131.837 145.332C133.754 144.452 135.425 143.213 137.089 141.951C138.485 140.893 139.876 139.783 141.667 139.503C142.428 139.384 143.228 139.51 144.01 139.536C144.011 139.536 144.042 139.733 144.001 139.767C142.688 140.83 141.439 141.994 140.031 142.913C138.15 144.14 136.192 145.27 134.18 146.269C131.575 147.563 128.848 148.587 126.009 149.274C123.813 149.806 121.627 150.385 119.415 150.837C117.857 151.156 116.266 151.323 114.685 151.508C112.917 151.715 111.144 151.878 109.371 152.038C108.158 152.147 106.941 152.219 105.726 152.305C105.086 152.351 104.446 152.394 103.739 152.437Z" fill="black"/>
<path d="M67.7382 43.3794C69.2264 43.6099 70.6789 43.831 72.1376 43.9991C73.8844 44.2005 75.6351 44.3716 77.3867 44.5272C78.6656 44.6407 79.9479 44.72 81.2299 44.792C82.3306 44.8538 83.4328 44.9065 84.5349 44.9233C88.1617 44.9784 91.7886 45.0307 95.4157 45.051C96.7148 45.0583 98.0148 44.9816 99.3136 44.925C101.1 44.8471 102.886 44.7568 104.672 44.6624C106.195 44.582 107.718 44.4893 109.24 44.4002C110.719 44.3136 112.198 44.2253 113.677 44.1368C115.133 44.0496 116.59 43.9641 118.047 43.872C118.6 43.837 119.152 43.7727 119.706 43.7518C119.827 43.7473 119.953 43.8711 120.077 43.9357C119.977 44.0028 119.886 44.1054 119.777 44.1315C118.637 44.4038 117.497 44.6826 116.35 44.9229C114.811 45.2451 113.268 45.5511 111.721 45.8326C110.794 46.0011 109.858 46.1138 108.925 46.244C107.637 46.4237 106.35 46.6154 105.059 46.7659C104.045 46.8841 103.025 46.9628 102.006 47.0319C100.507 47.1336 99.005 47.209 97.5045 47.3001C96.8855 47.3376 96.2678 47.4119 95.6485 47.4263C93.2954 47.4813 90.942 47.544 88.5885 47.5533C87.1137 47.5591 85.6376 47.4937 84.1638 47.4251C82.8594 47.3644 81.5555 47.276 80.2547 47.1622C78.4811 47.0069 76.7067 46.8486 74.94 46.6311C73.1337 46.4088 71.3261 46.1686 69.5376 45.8365C66.9794 45.3614 64.4393 44.7899 61.8893 44.2702C58.5951 43.5988 55.373 42.6739 52.1655 41.6672C48.9613 40.6617 45.7541 39.6726 42.734 38.1934C40.7227 37.2083 39.0573 35.7882 38.058 33.7197C37.3999 32.3578 37.2538 30.9273 37.5999 29.4508C37.6139 29.3909 37.6289 29.3311 37.6434 29.2712C37.6744 29.3313 37.696 29.3992 37.738 29.4504C38.5435 30.435 39.2575 31.519 40.1818 32.376C41.4299 33.5332 42.7776 34.6093 44.1934 35.5541C47.4538 37.7299 51.0699 39.1704 54.8023 40.3035C57.325 41.0694 59.8696 41.7755 62.4318 42.395C64.165 42.8141 65.9457 43.0362 67.7382 43.3794Z" fill="black"/>
<path d="M85.0308 70.4874C87.1536 70.6631 89.2104 70.8403 91.2675 71.0135C91.8636 71.0636 92.46 71.115 93.0573 71.1434C94.1803 71.1969 95.3054 71.2898 96.4274 71.2648C98.0827 71.2279 99.7559 71.2322 101.385 70.983C103.647 70.6372 105.874 70.0724 108.117 69.6036C108.218 69.5825 108.323 69.5839 108.426 69.5748C108.401 69.6806 108.39 69.7919 108.349 69.8912C108.074 70.5598 108.475 71.4346 109.182 71.5235C109.765 71.597 110.403 71.6352 110.957 71.479C114.511 70.4781 118.047 69.411 121.593 68.3818C124.789 67.4544 127.991 66.5475 131.191 65.6324C131.368 65.5818 131.547 65.5041 131.726 65.5005C131.981 65.4954 132.327 65.1541 132.478 65.5839C132.59 65.9013 132.675 66.3091 132.571 66.6058C132.283 67.4258 131.582 67.8725 130.791 68.1072C127.758 69.007 124.715 69.8731 121.676 70.7508C118.479 71.6737 115.293 72.6335 112.08 73.4974C110.93 73.8067 109.734 73.6938 108.553 73.4113C107.8 73.2311 107.009 73.157 106.233 73.1329C103.88 73.06 101.527 72.9923 99.1738 72.9995C94.208 73.0146 89.2424 73.1048 84.2766 73.1082C82.5347 73.1095 80.7918 72.9596 79.0509 72.854C78.0537 72.7935 77.0563 72.7099 76.0647 72.5894C74.4404 72.3921 72.8185 72.1717 71.1999 71.9324C69.5497 71.6883 67.8937 71.4633 66.2604 71.1311C64.6132 70.7961 62.9709 70.4052 61.3623 69.9201C59.2806 69.2924 57.2308 68.5573 55.175 67.8461C54.5629 67.6344 53.9766 67.348 53.3784 67.096C53.3037 67.0645 53.2285 67.0338 53.1536 67.0028C53.2268 66.9786 53.3037 66.9256 53.3727 66.9344C54.7059 67.1043 56.0368 67.2918 57.3709 67.4535C58.2543 67.5605 59.1431 67.6231 60.0275 67.7228C61.5145 67.8905 62.9988 68.0817 64.4863 68.2442C65.4579 68.3503 66.4354 68.4036 67.4061 68.5159C68.7627 68.6727 70.1142 68.8721 71.4701 69.0347C72.3537 69.1407 73.2423 69.2041 74.1267 69.3038C75.6137 69.4715 77.0981 69.6627 78.5856 69.8252C79.5572 69.9313 80.5335 69.9937 81.5057 70.0949C82.6599 70.215 83.8119 70.3557 85.0308 70.4874Z" fill="black"/>
<path d="M58.1862 167.819C57.1871 166.54 56.2196 165.295 55.255 164.047C54.1239 162.584 52.9928 161.121 51.8665 159.654C50.9719 158.489 50.067 157.331 49.1992 156.146C48.3891 155.041 47.5484 153.946 46.8617 152.765C46.4111 151.99 46.2435 151.075 46.7566 150.186C46.8883 149.958 46.9214 149.852 47.1824 150.081C48.024 150.821 48.9295 151.459 50.0304 151.785C51.1524 152.117 52.2576 152.175 53.44 152.085C55.0996 151.959 56.7825 152.109 58.4536 152.183C59.232 152.217 60.0155 152.3 60.7799 152.448C62.1748 152.718 63.5752 152.989 64.9399 153.377C66.3648 153.782 67.7519 154.321 69.1522 154.811C69.7271 155.012 69.6184 155.31 69.2485 155.639C68.4794 156.323 67.5304 156.437 66.6254 156.203C64.4335 155.638 62.2893 154.886 60.0941 154.336C57.9713 153.805 55.8006 153.549 53.6611 154.295C53.0522 154.508 52.511 154.907 51.9158 155.169C51.55 155.33 51.661 155.473 51.8386 155.676C53.0661 157.077 54.302 158.471 55.5152 159.885C56.3862 160.899 57.229 161.939 58.0788 162.971C58.4142 163.379 58.5398 163.797 58.4402 164.373C58.1947 165.792 59.2252 167.124 60.7229 167.57C61.6521 167.847 62.6308 167.976 63.5959 168.108C65.3895 168.355 67.188 168.567 68.9872 168.77C70.0017 168.884 71.0239 168.93 72.0386 169.043C73.4391 169.199 74.8343 169.402 76.2345 169.561C77.2056 169.671 78.1834 169.722 79.1543 169.833C80.5327 169.991 81.906 170.193 83.2844 170.351C84.2553 170.462 85.2399 170.482 86.1988 170.652C86.4606 170.698 86.7485 171.111 86.846 171.414C86.9312 171.678 86.8439 172.239 86.6963 172.293C86.1763 172.481 85.6005 172.547 85.0406 172.589C82.3715 172.787 79.8275 172.099 77.2639 171.5C75.6894 171.133 74.0804 170.913 72.4887 170.618C70.6511 170.276 68.8552 170.722 67.0413 170.874C65.2417 171.024 63.425 171.233 61.6632 170.615C60.1977 170.1 59.0213 169.204 58.1862 167.819Z" fill="black"/>
<path d="M111.282 186.594C110.018 186.781 108.79 186.963 107.555 187.082C105.479 187.281 103.402 187.5 101.32 187.599C98.9492 187.712 96.5725 187.728 94.1981 187.738C92.7459 187.744 91.2884 187.72 89.8422 187.6C87.9089 187.441 85.9806 187.204 84.0569 186.949C81.985 186.675 79.9147 186.377 77.8554 186.022C76.436 185.777 75.0162 185.487 73.6326 185.092C70.4194 184.173 67.2086 183.237 64.0351 182.191C62.1514 181.571 60.3356 180.741 58.4987 179.983C57.4865 179.565 56.5084 179.061 55.4847 178.677C55.1289 178.543 55.2229 178.503 55.3916 178.319C56.1009 177.543 57.0397 177.562 57.8811 177.824C60.1291 178.525 62.3203 179.409 64.568 180.111C67.5467 181.042 70.5359 181.956 73.562 182.712C75.8906 183.294 78.2791 183.643 80.6489 184.049C82.1962 184.315 83.7548 184.522 85.3139 184.709C86.7037 184.876 88.0988 185.019 89.4957 185.103C91.5424 185.226 93.592 185.319 95.6417 185.366C97.5139 185.41 99.3896 185.427 101.261 185.362C103.293 185.291 105.326 185.155 107.351 184.967C109.022 184.812 110.683 184.544 112.347 184.32C113.947 184.105 115.541 183.772 117.147 183.698C118.427 183.638 119.731 183.833 120.954 184.323C121.019 184.35 121.072 184.405 121.131 184.447C121.076 184.493 121.028 184.567 120.966 184.581C119.02 185.025 117.077 185.486 115.124 185.894C113.863 186.158 112.585 186.342 111.282 186.594Z" fill="black"/>
<path d="M105.979 7.50982C104.826 7.37807 103.734 7.28135 102.654 7.10497C101.512 6.91847 100.328 6.76164 99.7841 5.48275C99.516 4.85166 99.5666 4.77634 100.217 4.73828C102.249 4.61945 104.278 4.44721 106.311 4.35703C108.267 4.27027 110.226 4.24258 112.183 4.22447C112.977 4.21713 113.774 4.2791 114.565 4.35286C116.272 4.51196 117.977 4.69441 119.682 4.87641C120.835 4.99959 121.992 5.10869 123.139 5.27787C124.434 5.46881 125.729 5.67704 127.008 5.95535C128.813 6.34834 130.608 6.79004 132.396 7.25346C133.819 7.62206 135.226 8.05003 136.638 8.45953C138.613 9.03261 140.569 9.6683 142.632 9.90358C143.325 9.98266 144.003 10.2883 144.66 10.5571C144.9 10.6553 145.115 10.9172 145.248 11.1564C145.549 11.6984 145.418 11.979 144.852 12.1819C143.492 12.6691 142.114 12.6497 140.737 12.2892C138.561 11.7193 136.413 11.0089 134.209 10.5877C133.065 10.369 131.807 10.3748 130.637 10.7986C130.556 10.8279 130.365 10.7805 130.365 10.7763C130.435 9.48348 129.445 9.0303 128.528 8.72995C127.415 8.36561 126.225 8.20499 125.057 8.04561C119.618 7.30385 114.147 7.77128 108.691 7.63842C107.809 7.61693 106.927 7.55374 105.979 7.50982Z" fill="black"/>
<path d="M160.92 63.3729C160.986 62.1272 161.375 61.0983 162.318 60.3307C162.38 60.28 162.46 60.2503 162.531 60.2108C162.565 60.2996 162.624 60.3869 162.629 60.4772C162.679 61.4246 162.739 62.372 162.761 63.3203C162.816 65.7166 162.849 68.1134 162.897 70.5099C162.936 72.4236 162.995 74.337 163.026 76.2509C163.078 79.5034 163.129 82.7562 163.157 86.009C163.21 92.0935 163.31 98.1787 163.263 104.263C163.242 106.937 162.334 109.406 160.648 111.53C159.506 112.969 158.226 114.258 156.507 115.015C156.281 115.115 156.028 115.155 155.787 115.223C155.773 114.882 155.622 114.451 155.773 114.218C156.118 113.687 156.529 113.108 157.059 112.806C158.929 111.745 159.826 110.053 160.238 108.076C160.495 106.84 160.606 105.558 160.641 104.293C160.732 100.997 160.767 97.7001 160.784 94.4033C160.839 84.0819 160.876 73.7603 160.92 63.3729Z" fill="black"/>
<path d="M56.8356 10.9355C59.4974 10.101 62.0741 9.19844 64.6954 8.45313C66.9068 7.82436 69.1636 7.34733 71.4136 6.86522C72.4169 6.65025 73.4527 6.58716 74.474 6.45652C74.6003 6.44036 74.7469 6.46922 74.8511 6.41443C75.213 6.22417 75.5926 6.24812 75.7247 6.61038C75.8187 6.86792 75.7485 7.34931 75.5611 7.51335C75.0866 7.92886 74.545 8.33459 73.9588 8.54383C71.776 9.32287 69.5721 10.0454 67.3619 10.7444C63.7694 11.8807 60.151 12.9371 56.5728 14.1162C54.7651 14.7119 52.9745 15.4049 51.2614 16.2308C49.2059 17.2218 47.2006 18.3347 45.2527 19.5243C44.0752 20.2435 42.9762 21.1327 41.9696 22.0809C40.4491 23.5133 39.04 25.064 37.5834 26.5642C37.5222 26.6272 37.4679 26.7019 37.3958 26.7483C37.05 26.9707 36.6991 27.1852 36.3501 27.4025C36.3714 27.0582 36.3567 26.7072 36.4201 26.3708C36.7064 24.8518 37.3762 23.4957 38.3151 22.2858C40.186 19.8749 42.5975 18.1007 45.2234 16.6075C46.9958 15.5997 48.7735 14.5922 50.6052 13.7003C52.5186 12.7687 54.4999 11.9765 56.4503 11.1206C56.5623 11.0715 56.6635 10.9978 56.8356 10.9355Z" fill="black"/>
<path d="M124.161 180.105C121.533 180.972 118.961 181.806 116.276 182.212C114.787 182.438 113.301 182.694 111.806 182.861C110.176 183.042 108.537 183.144 106.9 183.264C106.042 183.327 105.181 183.373 104.321 183.396C102.276 183.45 100.23 183.512 98.1851 183.522C96.9303 183.528 95.6735 183.471 94.4206 183.393C92.7394 183.288 91.0568 183.175 89.3826 182.994C87.336 182.773 85.2971 182.48 83.2561 182.208C83.1005 182.187 82.9549 182.091 82.8047 182.03C82.9041 181.921 82.9897 181.794 83.105 181.706C84.4372 180.692 85.9477 180.488 87.5607 180.72C88.1477 180.804 88.7412 180.849 89.3331 180.894C90.5693 180.988 91.8061 181.076 93.0433 181.158C95.0957 181.294 97.1473 181.454 99.2018 181.546C101.135 181.632 103.079 181.764 105.006 181.655C107.363 181.522 109.71 181.19 112.055 180.888C114.939 180.517 117.748 179.792 120.485 178.827C123.968 177.599 127.426 176.297 130.892 175.018C131.633 174.744 132.357 174.42 133.097 174.143C133.321 174.059 133.632 173.947 133.804 174.038C134.199 174.245 134.391 174.639 134.361 175.109C134.306 175.97 133.661 176.395 133.008 176.661C130.247 177.785 127.456 178.839 124.677 179.919C124.526 179.978 124.377 180.043 124.161 180.105Z" fill="black"/>
<path d="M109.8 159.42C111.392 159.288 112.916 159.109 114.444 159.045C115.207 159.013 115.931 159.29 116.303 160.066C116.536 160.549 116.379 160.78 115.861 160.874C114.475 161.124 113.096 161.416 111.708 161.652C110.94 161.783 110.16 161.871 109.382 161.917C106.891 162.066 104.4 162.204 101.907 162.311C100.804 162.358 99.6959 162.29 98.5926 162.334C98.1957 162.35 97.7591 162.462 97.4201 162.664C95.2273 163.968 92.9076 164.165 90.5731 163.271C89.2548 162.766 88.1151 163.758 88.064 164.939C88.0137 166.101 88.6363 166.983 89.3039 167.849C90.0445 168.811 90.7652 169.788 91.4799 170.768C91.567 170.888 91.5632 171.074 91.6015 171.229C91.4509 171.201 91.2944 171.191 91.1505 171.144C88.3924 170.225 85.6382 169.294 82.8769 168.386C82.3278 168.205 82.0369 167.815 81.8738 167.317C81.2461 165.403 80.6492 163.479 80.0174 161.566C79.8457 161.046 80.1328 160.905 80.5224 160.877C81.5835 160.799 82.25 161.428 82.7885 162.233C83.4288 163.19 83.4529 164.334 83.7128 165.405C84.0507 166.799 84.9813 167.59 85.9616 167.595C86.3248 167.597 86.445 167.551 86.3649 167.121C86.1805 166.132 86.0439 165.129 85.9628 164.126C85.8495 162.725 86.7598 161.908 88.0402 161.811C90.1495 161.652 92.2679 161.566 94.3831 161.552C95.3154 161.545 96.2808 161.687 97.1727 161.956C97.8936 162.174 98.2606 161.699 98.7177 161.448C99.7389 160.887 100.801 160.498 101.95 160.345C103.658 160.117 105.367 159.895 107.077 159.687C107.961 159.58 108.849 159.508 109.8 159.42Z" fill="black"/>
<path d="M156.144 143.709C155.079 144.778 154.758 145.999 154.972 147.451C155.195 148.957 155.851 150.221 156.77 151.388C156.952 151.619 157.064 151.646 157.291 151.403C158.664 149.934 159.477 148.171 159.988 146.262C160.344 144.932 160.613 143.579 160.92 142.235C160.934 142.175 160.947 142.115 160.96 142.055C160.991 142.112 161.013 142.179 161.055 142.227C162.34 143.704 162.295 145.418 161.896 147.172C161.461 149.089 160.332 150.64 159.157 152.16C158.054 153.587 156.811 154.935 156.15 156.641C155.753 157.665 155.483 158.75 155.272 159.83C155.057 160.934 154.66 161.897 153.806 162.652C153.363 163.045 152.841 163.217 152.289 163.082C152.096 163.034 151.874 162.68 151.849 162.446C151.768 161.694 152.246 161.131 152.618 160.536C152.856 160.155 153.127 159.773 153.252 159.353C153.363 158.981 153.281 158.615 152.838 158.351C151.9 157.793 151.428 156.615 151.726 155.771C152.071 154.79 153.284 154.141 154.367 154.57C154.801 154.742 154.771 154.578 154.722 154.32C154.27 151.935 153.43 149.721 151.723 147.929C151.13 147.307 150.467 146.75 149.836 146.162C149.756 146.087 149.681 146.007 149.603 145.93C149.715 145.903 149.825 145.866 149.937 145.851C151.178 145.694 152.314 145.247 153.204 144.379C153.949 143.653 154.389 142.718 154.606 141.674C154.823 140.632 155.086 139.597 155.398 138.579C155.659 137.726 156.196 137.081 157.103 136.816C157.357 136.742 157.458 136.648 157.382 137.056C157.192 138.066 157.077 139.092 156.979 140.116C156.942 140.501 156.8 140.905 157.533 141.016C158.471 141.159 159.182 141.842 159.732 142.632C159.787 142.711 159.813 142.81 159.852 142.9C159.761 142.888 159.666 142.89 159.581 142.861C158.275 142.422 157.156 142.753 156.144 143.709Z" fill="black"/>
<path d="M118.595 37.5823C117.939 37.198 117.311 36.8565 116.697 36.4899C116.487 36.3643 116.13 36.1194 116.158 36.0267C116.252 35.7197 116.432 35.3731 116.685 35.1923C117.817 34.3866 119.173 34.8562 120.142 35.7089C121.474 36.8792 122.403 38.2761 122.587 40.0955C122.639 40.6136 123.068 40.8475 123.5 40.9649C124.621 41.2697 125.743 41.2039 126.85 40.8557C129.802 39.9279 132.759 39.0198 135.704 38.0692C137.21 37.5828 138.699 37.0386 140.184 36.4891C141.043 36.171 141.651 35.5717 141.956 34.6845C141.982 34.6083 142.126 34.5314 142.219 34.5253C143.489 34.4426 144.745 34.2502 145.901 33.716C147.201 33.1159 148.376 32.3296 149.239 31.133C149.581 30.6598 149.485 30.2168 149.358 29.7467C149.236 29.295 149.019 28.859 148.967 28.4021C148.936 28.1329 149.096 27.8028 149.264 27.5661C149.349 27.4447 149.57 27.3195 149.808 27.6518C150.62 28.7814 151.524 29.8444 152.393 30.9329C152.744 31.3719 152.701 31.8097 152.282 32.1426C151.43 32.8189 150.598 33.5442 149.663 34.0859C147.725 35.209 145.753 36.2828 143.743 37.2721C140.861 38.6912 137.832 39.7623 134.764 40.7C132.148 41.4992 129.513 42.2393 126.866 42.9302C124.916 43.4394 122.935 43.828 120.966 44.2622C120.919 44.2725 120.796 44.1761 120.801 44.1465C121.002 43.0467 121.433 42.0425 122.04 41.1032C122.131 40.9615 122.131 40.6077 122.028 40.5167C120.911 39.5306 119.765 38.5774 118.595 37.5823Z" fill="black"/>
<path d="M136.15 165.744C137.471 165.437 138.734 165.155 139.98 164.814C140.98 164.541 141.961 164.197 142.951 163.884C143.042 163.855 143.132 163.822 143.222 163.791C143.189 163.897 143.178 164.019 143.118 164.107C141.911 165.87 140.546 167.48 138.91 168.883C137.508 170.085 135.993 171.107 134.36 171.909C132.491 172.826 130.533 173.579 128.422 173.78C128.145 173.807 127.867 173.823 127.59 173.844C127.817 173.705 128.05 173.574 128.271 173.424C130.549 171.876 132.826 170.326 135.099 168.771C135.207 168.697 135.274 168.563 135.36 168.457C135.241 168.431 135.123 168.386 135.003 168.382C133.362 168.324 131.755 168.546 130.149 168.891C128.966 169.145 127.75 169.244 126.553 169.437C125.034 169.681 123.52 169.959 122.002 170.206C120.806 170.401 119.602 170.547 118.41 170.759C117.546 170.913 116.69 171.051 115.936 170.477C115.683 170.284 115.526 169.961 115.348 169.683C115.339 169.668 115.526 169.493 115.642 169.438C116.668 168.947 117.769 168.576 118.712 167.961C120.658 166.693 121.847 164.851 122.32 162.562C122.344 162.446 122.419 162.341 122.471 162.231C122.551 162.322 122.639 162.407 122.711 162.505C123.688 163.85 123.824 165.339 123.331 166.871C123.186 167.323 123.268 167.353 123.638 167.325C125.405 167.194 127.174 167.089 128.938 166.921C130.318 166.79 131.695 166.612 133.064 166.392C134.079 166.229 135.078 165.964 136.15 165.744Z" fill="black"/>
<path d="M129.53 122.76C132.212 121.922 134.849 121.073 137.515 120.326C139.959 119.641 142.436 119.071 144.897 118.444C146.681 117.99 148.463 117.524 150.247 117.066C150.362 117.036 150.484 117.035 150.603 117.021C150.583 117.156 150.588 117.299 150.541 117.423C150.031 118.754 148.991 119.601 147.712 120C144.908 120.875 142.064 121.627 139.226 122.392C136.757 123.059 134.281 123.706 131.793 124.299C130.79 124.539 129.741 124.934 128.73 124.265C128.574 124.161 128.4 124.071 128.277 123.935C127.973 123.602 127.729 123.279 128.465 123.154C128.819 123.094 129.154 122.917 129.53 122.76Z" fill="black"/>
<path d="M55.9134 138.999C55.2003 138.867 54.5465 138.761 53.9072 138.599C51.8852 138.085 49.8678 137.553 47.8543 137.007C47.7865 136.989 47.7033 136.691 47.7569 136.615C48.1843 136.005 48.728 135.607 49.5269 135.562C50.8341 135.489 52.047 135.895 53.2926 136.167C54.4076 136.411 55.5358 136.625 56.6696 136.745C58.4077 136.93 60.1538 137.091 61.8998 137.135C63.6413 137.179 65.3909 137.125 67.1289 137.001C68.2142 136.924 69.5868 137.291 69.996 138.006C70.1117 138.209 70.3318 138.437 69.7784 138.494C68.2618 138.649 66.7596 138.939 65.2451 139.121C64.1248 139.256 62.9941 139.379 61.8685 139.375C60.5887 139.37 59.3096 139.217 58.0301 139.131C57.3466 139.085 56.6629 139.043 55.9134 138.999Z" fill="black"/>
<path d="M122.053 140.58C120.734 140.536 119.478 140.521 118.226 140.44C116.678 140.34 115.133 140.189 113.588 140.037C113.517 140.03 113.393 139.779 113.421 139.675C113.617 138.939 114.462 138.372 115.334 138.338C117.513 138.255 119.692 138.167 121.87 138.076C123.895 137.991 125.921 137.902 127.946 137.813C130.142 137.716 132.338 137.604 134.535 137.548C134.673 137.545 134.956 137.977 134.94 138.189C134.886 138.911 133.607 139.701 132.901 139.501C132.51 139.39 132.117 139.278 131.741 139.126C130.573 138.655 129.608 139.378 128.584 139.673C127.114 140.097 125.637 140.411 124.104 140.452C123.442 140.47 122.781 140.536 122.053 140.58Z" fill="black"/>
<path d="M39.708 175.099C40.5829 175.582 41.3872 176.073 42.202 176.546C43.9167 177.542 45.6337 178.534 47.356 179.516C48.7922 180.335 50.2545 181.111 51.6739 181.958C53.2287 182.886 54.9577 183.544 56.2619 184.867C56.3389 184.945 56.4286 185.014 56.4904 185.103C56.5325 185.163 56.5362 185.25 56.5571 185.325C56.4945 185.298 56.4343 185.256 56.3691 185.246C52.7937 184.682 49.4987 183.379 46.367 181.581C44.1327 180.298 42.0481 178.839 40.2366 177.005C39.2614 176.018 38.3151 175.002 37.3579 173.998C37.3082 173.946 37.2782 173.875 37.239 173.813C37.3294 173.838 37.4291 173.847 37.5089 173.892C38.2219 174.291 38.9315 174.696 39.708 175.099Z" fill="black"/>
<path d="M138.39 74.1765C138.949 74.3623 139.454 74.5237 139.933 74.7395C140.749 75.1064 141.392 75.621 141.748 76.5158C142.071 77.3298 142.833 77.6299 143.885 77.4476C144.197 77.3937 144.32 77.5838 144.299 77.6895C144.22 78.0846 144.163 78.5752 143.901 78.8177C143.621 79.0777 143.039 79.3059 142.727 79.1862C141.651 78.7724 140.644 78.1849 139.596 77.6933C137.787 76.8445 135.915 76.1802 133.906 76.0296C132.699 75.9391 131.487 75.9233 130.276 75.8928C129.514 75.8736 129.266 75.666 129.168 74.8857C129.163 74.8425 129.169 74.798 129.167 74.7542C129.152 74.2999 129.042 73.9331 129.793 73.8419C131.526 73.6312 133.24 73.3398 134.99 73.646C136.099 73.84 137.213 74.0008 138.39 74.1765Z" fill="black"/>
<path d="M96.7238 4.64429C97.0868 5.5047 96.6777 6.38356 95.7001 6.70183C95.0158 6.92459 94.2795 7.08812 93.5639 7.0979C88.1154 7.17238 82.6664 7.20273 77.2175 7.24506C77.0677 7.24622 76.9179 7.22758 76.7681 7.21818C76.8672 7.09397 76.958 6.96194 77.0667 6.84686C77.6962 6.18077 78.56 6.04549 79.3884 5.94715C80.7052 5.79083 82.0365 5.75922 83.3609 5.66388C85.1071 5.53818 86.8527 5.40226 88.5984 5.26997C89.7477 5.18288 90.8974 5.09945 92.0461 5.00538C93.5947 4.87857 95.1427 4.7431 96.7238 4.64429Z" fill="black"/>
<path d="M44.2862 59.058C45.4413 59.7717 46.5568 60.4637 47.688 61.129C48.411 61.5542 48.4595 61.8007 47.8019 62.3192C47.1467 62.8359 46.4471 62.7135 45.7008 62.4685C44.7733 62.1641 44.1944 61.425 43.4582 60.881C42.9324 60.4925 42.3525 60.1728 41.7766 59.8596C41.6264 59.778 41.4006 59.8355 41.2095 59.8291C41.2055 60.0357 41.1422 60.2633 41.2069 60.4455C41.6849 61.7904 42.5423 62.7812 43.9337 63.2394C44.2778 63.3527 44.3595 63.4869 44.0972 63.8027C43.1999 64.8833 41.7447 64.5476 40.9114 63.4103C39.3574 61.2892 38.2919 58.9074 37.5368 56.3894C37.503 56.2768 37.508 56.1526 37.4949 56.0338C37.6029 56.0647 37.7169 56.0825 37.8181 56.1284C39.9047 57.0766 41.9896 58.0281 44.0756 58.9774C44.1307 59.0024 44.1939 59.0096 44.2862 59.058Z" fill="black"/>
<path d="M143.924 150.066C145.233 149.998 147.721 151.552 147.886 152.921C147.952 153.472 148.04 154.1 147.847 154.586C147.29 155.987 146.412 157.178 145.063 157.952C144.274 158.405 143.516 158.237 142.787 157.815C142.404 157.593 142.149 156.758 142.382 156.308C142.609 155.867 142.864 155.423 143.526 155.454C144.499 155.501 145.033 154.996 144.978 154.192C144.937 153.588 144.112 153.008 143.572 153.271C142.957 153.57 142.39 153.659 141.915 153.113C141.463 152.593 141.114 151.989 141.426 151.261C141.715 150.583 142.215 150.135 142.98 150.07C143.271 150.045 143.565 150.066 143.924 150.066Z" fill="black"/>
<path d="M149.161 8.33341C148.34 7.44988 147.418 7.25329 146.269 7.47415C145.512 7.61957 144.668 7.52046 143.901 7.35591C142.647 7.08705 141.404 6.73427 140.194 6.30939C138.664 5.77231 137.337 4.85645 136.093 3.82537C136.02 3.76496 135.974 3.67253 135.915 3.595C136.019 3.58534 136.127 3.54954 136.224 3.56987C138.281 4.00108 140.342 4.41726 142.392 4.88045C144.814 5.42776 147.246 5.94501 149.636 6.6145C151.076 7.01825 152.221 7.90629 152.675 9.4674C152.973 10.4898 152.299 11.7479 151.274 11.9303C151.174 11.9481 150.985 11.7415 150.914 11.6003C150.46 10.6931 150.035 9.77158 149.583 8.86342C149.492 8.67883 149.326 8.53108 149.161 8.33341Z" fill="black"/>
<path d="M79.497 77.6022C77.9252 77.7778 76.4189 77.9498 74.9137 78.1305C73.8712 78.2556 72.8269 78.3718 71.7892 78.5297C70.516 78.7236 69.2501 78.965 67.9784 79.1696C67.2956 79.2795 66.6089 79.3725 65.9203 79.4302C65.8028 79.44 65.5717 79.2459 65.5549 79.1238C65.4215 78.1525 65.6027 77.2385 66.2309 76.4644C66.3363 76.3345 66.6116 76.2867 66.8055 76.2929C69.1375 76.3679 71.4701 76.5512 73.8 76.5183C75.5492 76.4936 77.2966 76.2147 79.0404 76.0111C79.629 75.9424 80.1999 75.7325 80.7869 75.6352C81.1443 75.5759 81.5491 75.5492 81.7329 75.9872C81.8697 76.3133 81.4977 77.1881 81.0925 77.3215C80.6046 77.482 80.0746 77.5143 79.497 77.6022Z" fill="black"/>
<path d="M98.8648 168.643C99.6644 168.568 100.38 168.466 100.909 167.856C101.39 167.302 101.653 166.708 101.405 165.968C101.401 165.958 101.521 165.872 101.573 165.881C102.584 166.058 103.275 166.934 103.357 167.93C103.527 170.003 102.015 170.991 100.504 171.399C99.0776 171.784 97.6336 171.591 96.1837 171.434C95.3394 171.343 94.4686 171.501 93.6094 171.539C93.4398 171.546 93.1196 171.518 93.1196 171.506C93.1195 171.108 93.0499 170.669 93.1945 170.321C93.6438 169.238 94.6229 168.789 95.6875 168.668C96.7125 168.552 97.7608 168.643 98.8648 168.643Z" fill="black"/>
<path d="M93.0675 142.819C92.0318 142.385 91.7516 141.882 91.8818 140.808C91.9617 140.148 92.838 139.312 93.5656 139.123C94.4766 138.886 95.3447 139.052 96.2328 139.254C97.7203 139.592 99.2197 139.878 100.714 140.184C101.498 140.345 101.715 140.806 101.368 141.576C100.876 142.664 99.7124 143.186 98.5124 142.964C97.4608 142.77 96.3912 142.623 95.3245 142.579C94.5987 142.548 93.8641 142.732 93.0675 142.819Z" fill="black"/>
<path d="M51.4009 169.466C50.2308 168.472 49.0702 167.536 47.9685 166.536C47.5595 166.164 47.2835 165.644 46.9584 165.184C46.8954 165.095 46.8858 164.968 46.8516 164.859C46.9548 164.85 47.0715 164.805 47.1595 164.837C49.8083 165.814 52.4068 166.901 54.6586 168.651C55.7304 169.484 56.7902 170.34 57.7828 171.264C58.5005 171.932 59.1007 172.727 59.7463 173.471C59.8043 173.538 59.8117 173.648 59.8426 173.739C59.7522 173.721 59.6587 173.712 59.5718 173.683C56.7582 172.755 54.1916 171.344 51.751 169.686C51.6497 169.617 51.5398 169.561 51.4009 169.466Z" fill="black"/>
<path d="M53.8383 145.685C54.1128 146.034 54.3172 146.39 54.6046 146.657C55.0294 147.051 54.7488 147.341 54.4818 147.553C52.7759 148.909 50.2693 148.435 49.3713 146.691C48.4254 144.854 47.1913 143.491 45.2305 142.819C45.1925 142.806 45.1577 142.783 45.1213 142.765C45.1686 142.739 45.2168 142.715 45.2629 142.687C46.8697 141.724 48.7512 141.905 50.3363 143.089C50.991 143.578 51.7473 143.931 52.4114 144.409C52.9138 144.771 53.3434 145.234 53.8383 145.685Z" fill="black"/>
<path d="M49.194 127.273C50.3471 127.141 51.4409 126.861 52.5201 126.909C54.61 127.003 56.704 127.206 58.7308 127.791C59.551 128.028 60.3646 128.296 61.1593 128.607C61.3807 128.693 61.5294 128.976 61.6954 129.181C61.7161 129.207 61.6448 129.368 61.6049 129.373C60.7863 129.471 59.9678 129.595 59.1456 129.634C58.2035 129.678 57.2566 129.674 56.3138 129.638C54.3789 129.563 52.456 129.388 50.5784 128.861C49.5323 128.568 48.4714 128.328 47.4171 128.063C47.3575 128.048 47.2979 128.033 47.2383 128.018C47.2996 127.987 47.3587 127.95 47.4224 127.926C47.9905 127.707 48.5595 127.49 49.194 127.273Z" fill="black"/>
<path d="M144.583 174.835C142.964 175.924 141.261 176.695 139.439 177.2C138.667 177.415 137.876 177.566 137.09 177.727C136.928 177.761 136.749 177.712 136.578 177.7C136.681 177.576 136.763 177.423 136.889 177.332C138.41 176.239 139.887 175.075 141.475 174.088C143.723 172.691 146.122 171.573 148.635 170.719C148.722 170.689 148.816 170.68 148.906 170.661C148.845 170.738 148.778 170.813 148.723 170.894C147.638 172.49 146.135 173.654 144.583 174.835Z" fill="black"/>
<path d="M101.072 2.33862C98.6076 2.77353 96.1569 2.83046 93.702 2.76068C92.6896 2.7319 92.0384 2.38038 91.8122 1.69205C91.7807 1.59615 91.9039 1.3466 91.9843 1.33245C92.8686 1.17694 93.7546 0.997093 94.6479 0.933384C96.9596 0.768525 99.2741 0.592996 101.59 0.553907C102.805 0.533398 104.025 0.786856 105.241 0.92838C105.353 0.941473 105.456 1.04007 105.563 1.09896C105.458 1.1299 105.354 1.16305 105.249 1.19144C103.867 1.56325 102.486 1.93438 101.072 2.33862Z" fill="black"/>
<path d="M146.724 144.829C145.709 145.405 144.734 145.963 143.741 146.484C143.248 146.743 142.738 146.753 142.27 146.373C141.924 146.092 141.847 145.876 142.218 145.492C143.855 143.798 145.721 142.432 147.887 141.517C149.025 141.036 150.23 140.71 151.407 140.321C151.48 140.296 151.574 140.334 151.658 140.343C151.622 140.405 151.591 140.47 151.55 140.528C150.284 142.323 148.654 143.71 146.724 144.829Z" fill="black"/>
<path d="M104.003 87.8788C104.366 87.9561 104.658 88.0663 104.96 88.1037C105.543 88.1758 105.379 88.5555 105.218 88.8138C105 89.1625 104.683 89.3885 104.19 89.3454C103.748 89.3068 103.293 89.4336 102.842 89.4559C102.028 89.4962 101.243 89.3647 100.765 88.6301C100.573 88.335 100.511 88.3856 100.336 88.5799C99.7464 89.2332 98.9842 89.593 98.1582 89.8322C97.8461 89.9226 97.6193 89.8813 97.6746 89.4491C97.8188 88.3211 97.9588 87.192 98.0663 86.0601C98.1125 85.5746 98.086 85.0807 98.0711 84.5912C98.0516 83.9548 98.2267 83.4175 98.7392 83.0006C99.2214 82.6084 99.676 82.7625 100.059 83.0972C100.544 83.5203 100.509 84.1218 100.399 84.6895C100.235 85.5342 99.6669 86.2657 99.7723 87.1991C99.849 87.8792 100.086 88.1809 100.822 88.1361C101.862 88.0728 102.899 87.9666 104.003 87.8788Z" fill="black"/>
<path d="M161.216 42.6547C161.183 42.0516 161.194 41.4811 161.182 40.9111C161.123 38.246 161.423 35.6175 161.976 33.0144C161.99 32.9487 162.031 32.8888 162.06 32.8262C162.075 32.8856 162.093 32.9445 162.105 33.0046C162.369 34.3429 162.67 35.6754 162.884 37.0217C163.036 37.9839 163.176 38.9686 163.139 39.9364C163.047 42.3376 162.814 44.7286 161.975 47.0129C161.942 47.1021 161.923 47.1963 161.897 47.2882C161.879 47.2081 161.854 47.1288 161.843 47.0477C161.644 45.5945 161.447 44.1411 161.216 42.6547Z" fill="black"/>
<path d="M106.902 173.386C107.672 173.693 108.377 174.001 109.082 174.307C109.138 174.331 109.199 174.342 109.258 174.359C109.235 174.386 109.218 174.42 109.19 174.439C108.387 174.972 107.62 175.594 106.538 175.236C105.921 175.032 105.367 175.366 104.811 175.553C104.045 175.811 103.303 176.14 102.541 176.413C101.714 176.708 100.943 176.095 100.828 175.176C100.703 174.18 101.624 173.239 102.743 173.155C104.006 173.059 105.288 173.208 106.562 173.26C106.655 173.263 106.744 173.342 106.902 173.386Z" fill="black"/>
<path d="M56.5391 125.461C56.0674 125.165 55.4985 124.998 55.2172 124.619C54.6459 123.848 53.89 124.158 53.2167 124.128C51.4739 124.048 50.0753 123.285 48.852 122.117C48.5195 121.8 48.2806 121.563 48.9945 121.317C50.3874 120.836 51.7225 120.947 52.9451 121.657C53.474 121.964 53.8151 122.621 54.1944 123.153C54.8098 124.016 54.813 123.995 55.8086 123.768C57.0344 123.488 58.7713 124.11 59.3451 125.167C59.5388 125.525 59.4556 125.611 59.0789 125.704C58.2091 125.92 57.3896 125.776 56.5391 125.461Z" fill="black"/>
<path d="M72.3824 144.664C75.1729 144.775 77.5592 145.742 79.6347 147.499C79.7276 147.578 79.8511 147.62 79.9455 147.697C80.0183 147.757 80.0678 147.845 80.1277 147.92C80.0452 147.933 79.9628 147.947 79.88 147.958C77.0581 148.334 74.4377 147.673 71.9604 146.366C71.2517 145.992 70.6087 145.494 69.9371 145.05C69.6724 144.876 69.8026 144.745 70.0158 144.733C70.7818 144.692 71.5495 144.684 72.3824 144.664Z" fill="black"/>
<path d="M116.882 56.1595C117.462 56.515 117.657 57.0194 117.711 57.6282C117.831 58.9884 117.248 60.1811 116.829 61.4079C116.101 63.5385 114.75 65.054 112.492 65.6235C112.399 65.6471 112.311 65.6924 112.221 65.7276C112.265 65.6063 112.295 65.4762 112.357 65.365C113.127 63.9959 114.004 62.6758 114.648 61.2502C115.38 59.6294 115.925 57.922 116.502 56.2351C116.616 55.9001 116.656 55.9268 116.882 56.1595Z" fill="black"/>
<path d="M139.576 16.8643C138.995 16.7325 138.434 16.6856 137.978 16.4422C137.612 16.247 137.328 15.842 137.096 15.4742C136.975 15.2815 136.989 14.9771 137.433 15.0084C138.066 15.053 138.705 15.033 139.34 15.0171C140.748 14.9818 142.155 14.8929 143.562 14.9026C144.411 14.9085 145.285 14.9774 145.941 15.655C146.195 15.9168 146.49 16.1546 146.681 16.4573C147.135 17.179 147.076 17.2945 146.255 17.2528C144.05 17.1408 141.846 16.996 139.576 16.8643Z" fill="black"/>
<path d="M127.62 90.2173C127.339 89.8002 127.053 89.8334 126.676 90.029C125.19 90.7998 123.654 90.7977 122.1 90.2433C122.067 90.2314 122.042 90.0664 122.06 90.0564C123.502 89.2548 124.869 88.3202 126.592 88.1254C128.592 87.8993 130.375 89.0666 130.727 91.1946C130.785 91.5453 130.569 91.9485 130.446 92.3161C130.42 92.3942 130.197 92.4963 130.147 92.4633C129.213 91.8432 128.267 91.2314 127.62 90.2173Z" fill="black"/>
<path d="M82.9557 107.74C81.5224 106.938 80.2486 106.017 79.4389 104.597C79.2803 104.319 79.2894 103.942 79.2355 103.609C79.1285 102.946 79.5365 103.139 79.8199 103.301C81.1695 104.075 82.5203 104.849 83.8402 105.672C85.31 106.588 86.7468 107.558 88.1986 108.503C88.2773 108.554 88.3616 108.596 88.4432 108.643C88.3408 108.661 88.239 108.687 88.1359 108.694C86.342 108.825 84.6304 108.494 82.9557 107.74Z" fill="black"/>
<path d="M65.0372 97.3979C63.5776 98.602 62.101 99.699 60.4002 100.45C59.7333 100.745 59.055 101.014 58.3778 101.284C58.2874 101.32 58.1731 101.296 58.0698 101.3C58.084 101.21 58.0775 101.11 58.1153 101.03C59.2439 98.6656 60.9048 96.8296 63.4059 95.8996C63.8157 95.7472 64.3961 95.7777 64.8038 95.9481C65.9399 96.4229 65.9272 96.5079 65.0372 97.3979Z" fill="black"/>
<path d="M116.915 13.5704C116.392 13.2229 115.737 12.9631 116.011 12.2116C116.116 11.9227 116.384 11.6252 116.657 11.4774C117.699 10.9132 118.836 10.6143 120.015 10.5508C120.984 10.4986 121.959 10.5636 122.929 10.5292C123.35 10.5143 123.149 10.7695 123.096 10.8668C122.259 12.4107 121.009 13.3826 119.252 13.7159C118.464 13.8654 117.72 13.9052 116.915 13.5704Z" fill="black"/>
<path d="M80.1558 89.855C80.7454 89.6354 81.2692 89.416 81.7928 89.1961C81.8564 89.1694 81.9189 89.1401 81.982 89.1121C81.9632 89.187 81.9517 89.2648 81.9244 89.3365C81.5344 90.3598 80.8407 91.1686 79.9104 91.6823C78.1802 92.6375 76.3121 93.221 74.3179 93.2701C73.5772 93.2884 72.8956 93.0515 72.4678 92.3738C72.231 91.9987 72.3824 91.6216 72.7644 91.5669C75.2562 91.2102 77.719 90.7289 80.1558 89.855Z" fill="black"/>
<path d="M68.3311 176.647C66.3578 175.958 64.724 174.834 63.3352 173.344C63.2923 173.298 63.3735 173.024 63.441 173.004C65.2009 172.476 66.8415 172.709 68.3656 173.77C68.815 174.083 69.3385 174.287 69.8081 174.574C70.4399 174.96 70.653 175.455 70.4348 175.927C70.1322 176.581 69.5775 176.844 68.8897 176.686C68.7229 176.647 68.5397 176.68 68.3311 176.647Z" fill="black"/>
<path d="M135.327 152.339C135.73 153.488 136.16 154.589 136.456 155.724C136.928 157.538 136.737 159.24 135.368 160.678C135.081 160.981 135.021 160.646 135.002 160.562C134.712 159.278 134.408 157.995 134.187 156.698C134.032 155.782 133.926 154.846 133.931 153.919C133.935 152.932 134.48 152.276 135.327 152.339Z" fill="black"/>
<path d="M79.3652 86.0343C80.0913 86.832 80.0503 86.7816 79.2726 87.4155C78.8578 87.7535 78.4361 87.6066 78.0388 87.7229C77.0297 88.0184 76.059 88.4444 75.0693 88.8082C74.9775 88.8419 74.7669 88.804 74.7669 88.8005C74.7739 87.836 74.6724 86.8493 74.8441 85.9127C75.0904 84.5698 76.687 83.795 78.0649 84.8121C78.5296 85.1552 78.9335 85.5806 79.3652 86.0343Z" fill="black"/>
<path d="M146.592 167.095C145.089 168.38 143.475 169.402 141.687 170.137C141.639 170.156 141.443 169.989 141.431 169.895C141.223 168.223 142.393 166.903 143.912 166.265C144.077 166.195 144.245 166.06 144.341 165.91C145.099 164.717 146.637 164.487 147.766 165.449C147.938 165.596 148.081 165.811 147.784 166.045C147.381 166.362 147.01 166.721 146.592 167.095Z" fill="black"/>
<path d="M146.197 180.138C144.947 180.729 143.748 181.329 142.507 181.827C141.848 182.091 141.119 182.183 140.418 182.34C140.325 182.361 140.215 182.308 140.113 182.289C140.169 182.227 140.23 182.17 140.278 182.103C141.943 179.784 144.204 178.408 146.989 177.87C147.583 177.755 148.187 177.687 148.787 177.605C148.867 177.594 148.952 177.627 149.034 177.64C148.991 177.702 148.958 177.777 148.902 177.824C148.013 178.587 147.121 179.346 146.197 180.138Z" fill="black"/>
<path d="M154.233 56.0277C153.022 56.8879 151.77 57.5258 150.292 57.5727C150.191 57.5759 150.09 57.5346 149.989 57.514C150.048 57.4521 150.107 57.3905 150.166 57.328C152.414 54.9419 154.926 52.8859 157.775 51.2524C158.066 51.0856 158.362 50.9284 158.656 50.7667C158.532 51.0814 158.455 51.4253 158.277 51.7059C157.339 53.1888 156.288 54.5778 154.826 55.5997C154.639 55.7305 154.453 55.8631 154.233 56.0277Z" fill="black"/>
<path d="M66.816 89.0974C66.7057 88.8993 66.5875 88.7396 66.564 88.567C66.5459 88.4338 66.6054 88.214 66.703 88.1568C66.9081 88.0367 67.1571 87.9803 67.3949 87.9296C68.2366 87.75 68.7822 87.2013 69.3141 86.5603C69.9242 85.8249 70.789 85.6114 71.7138 85.8356C72.7771 86.0934 73.3731 86.8581 73.6893 87.8576C73.7398 88.0172 73.6475 88.2219 73.6212 88.4057C73.5011 88.3252 73.3737 88.2536 73.2621 88.1627C72.5602 87.591 71.1765 87.6151 70.2712 88.2096C69.3479 88.8159 68.7806 89.5979 68.9463 90.7693C68.9513 90.8045 68.7637 90.9225 68.725 90.9001C67.9633 90.4572 67.2091 90.0004 66.816 89.0974Z" fill="black"/>
<path d="M54.3323 80.6324C54.7505 81.2758 54.8596 81.8859 54.8143 82.6215C54.747 83.7134 53.7499 83.919 53.2085 84.53C52.5942 85.2233 51.7174 85.6774 51.0008 86.2894C50.597 86.6343 50.3952 86.4858 50.2617 86.1052C49.8862 85.0354 50.3546 84.1665 51.0044 83.3768C51.6161 82.6333 52.2805 81.9334 52.9002 81.1962C53.0666 80.9982 53.2055 80.747 53.2686 80.4978C53.4518 79.7734 53.4622 79.7607 54.0524 80.2881C54.1504 80.3757 54.2392 80.4735 54.3323 80.6324Z" fill="black"/>
<path d="M150.676 132.905C149.294 132.323 147.939 131.789 146.6 131.216C146.213 131.05 145.898 130.785 146.14 130.251C146.393 129.691 146.715 129.731 147.15 130.025C147.329 130.147 147.561 130.192 147.772 130.263C149.52 130.852 151.293 131.185 153.143 130.835C153.616 130.745 154.099 130.705 154.579 130.658C154.623 130.654 154.715 130.756 154.722 130.816C154.819 131.692 154.292 132.559 152.956 132.906C152.252 133.089 151.461 132.938 150.676 132.905Z" fill="black"/>
<path d="M92.9688 173.353C93.2289 173.525 93.4882 173.631 93.6775 173.81C94.5091 174.597 94.445 174.994 93.3973 175.354C91.356 176.057 89.3813 176.009 87.5627 174.699C87.31 174.517 87.1033 174.271 86.8752 174.054C87.1258 173.954 87.3789 173.86 87.6265 173.753C89.124 173.107 90.7047 173.073 92.2944 173.131C92.5103 173.138 92.7221 173.254 92.9688 173.353Z" fill="black"/>
<path d="M102.257 82.9053C101.413 82.8187 100.815 82.4727 100.73 81.9182C100.7 81.7281 100.871 81.3501 101.014 81.3148C102.39 80.9741 103.749 80.6607 105.218 80.857C106.404 81.0153 107.524 81.3083 108.639 81.6898C108.768 81.734 108.882 81.8227 109.003 81.8908C108.897 81.9529 108.794 82.0216 108.684 82.0761C106.953 82.9355 105.12 83.2816 103.197 83.13C102.891 83.1059 102.592 83.0041 102.257 82.9053Z" fill="black"/>
<path d="M75.6433 178.557C76.4449 178.744 77.2598 178.788 77.9683 179.085C78.5842 179.343 79.1088 179.856 79.6175 180.319C79.9009 180.577 79.5606 180.743 79.3681 180.751C78.6248 180.783 77.8594 180.872 77.139 180.74C75.9575 180.523 74.7617 180.256 73.6524 179.81C72.64 179.404 71.7339 178.732 70.7853 178.169C70.7669 178.158 70.7949 178.007 70.8136 178.004C72.1606 177.804 73.5016 177.718 74.8063 178.245C75.0692 178.351 75.3421 178.432 75.6433 178.557Z" fill="black"/>
<path d="M50.6105 33.9591C51.5217 33.3992 52.3649 32.798 53.2862 32.3619C54.8481 31.6226 56.4908 31.0994 58.2325 30.9652C58.3324 30.9575 58.4362 30.9988 58.5382 31.0173C58.4547 31.0638 58.3521 31.0926 58.2906 31.1594C57.267 32.2706 56.0312 33.1249 54.7007 33.7802C53.507 34.3681 52.2047 34.7422 50.936 35.1682C50.3737 35.357 49.7771 35.4448 49.194 35.5688C49.1192 35.5847 49.0321 35.5426 48.9507 35.5273C48.9994 35.4652 49.0406 35.3951 49.0979 35.3425C49.5894 34.8905 50.0839 34.4418 50.6105 33.9591Z" fill="black"/>
<path d="M61.3154 92.49C60.2441 92.2704 59.2293 92.0844 58.2389 91.8101C57.9545 91.7314 57.5219 91.3756 57.5412 91.1859C57.5788 90.8155 57.8156 90.3947 58.0985 90.1347C58.6891 89.592 59.4455 89.862 60.0845 90.0136C61.0462 90.2418 61.9849 90.6043 62.8961 90.9962C63.5519 91.2784 63.9802 91.8444 64.2114 92.5325C64.2606 92.6787 64.2772 92.8359 64.3088 92.9881C64.1462 92.9765 63.9808 92.98 63.8214 92.9508C63.0072 92.8018 62.1945 92.6445 61.3154 92.49Z" fill="black"/>
<path d="M113.357 165.744C113.195 164.95 113.793 164.915 114.211 164.837C115.263 164.642 115.417 164.849 115.336 166.106C115.279 166.987 115.235 167.869 115.205 168.751C115.169 169.768 114.684 170.628 113.879 170.788C113.509 170.861 113.037 170.701 112.687 170.51C112.313 170.306 112.533 169.913 112.609 169.583C112.784 168.819 112.939 168.05 113.092 167.281C113.189 166.793 113.269 166.301 113.357 165.744Z" fill="black"/>
<path d="M54.2995 96.6733C54.552 96.1386 54.7488 95.6254 54.9966 95.138C55.356 94.4308 56.2396 94.0855 56.8373 94.534C57.0647 94.7046 57.1742 94.8933 56.9687 95.1621C56.2431 96.1115 55.5618 97.0983 54.7893 98.0076C54.0169 98.9168 53.165 99.7599 52.323 100.607C52.1778 100.753 51.8333 100.901 51.7126 100.829C51.4818 100.69 51.2357 100.413 51.1909 100.159C51.0539 99.382 51.3789 98.4767 52.5688 97.8572C53.1712 97.5435 53.7029 97.0942 54.2995 96.6733Z" fill="black"/>
<path d="M59.6024 79.5785C59.2655 79.7028 58.9946 79.827 58.7236 79.9513C58.7091 79.6068 58.6011 79.2333 58.697 78.9229C59.0315 77.8407 59.6622 77.0223 60.8201 76.664C61.3713 76.4934 61.8575 76.1234 62.3952 75.896C63.2914 75.517 64.0959 75.8805 64.8718 76.3001C64.9055 76.3183 64.8648 76.6303 64.7788 76.6897C63.999 77.2281 63.227 77.7865 62.402 78.2485C61.5194 78.7429 60.5818 79.1393 59.6024 79.5785Z" fill="black"/>
<path d="M122.086 175.527C121.066 176.197 120.13 176.94 119.077 177.438C118.186 177.859 117.163 178.004 116.195 178.259C114.946 178.588 113.74 178.25 112.531 177.996C112.455 177.981 112.383 177.949 112.31 177.925C112.384 177.894 112.467 177.875 112.533 177.83C113.843 176.94 115.276 176.564 116.872 176.51C117.943 176.474 119.002 176.074 120.065 175.834C120.747 175.68 121.427 175.52 122.108 175.364C122.121 175.361 122.156 175.391 122.155 175.401C122.149 175.433 122.132 175.463 122.086 175.527Z" fill="black"/>
<path d="M90.5974 81.7195C89.4033 82.9135 88.2239 84.0571 87.0927 85.2466C86.7672 85.5889 86.5165 85.5149 86.225 85.3116C85.7753 84.9978 85.3971 84.0969 85.6764 83.3416C86.4272 81.3114 88.9964 80.8486 90.4626 81.3049C90.549 81.3318 91.0443 81.361 90.5974 81.7195Z" fill="black"/>
<path d="M48.4365 158.86C48.7176 159.317 48.9721 159.737 49.2123 160.166C49.4686 160.623 49.2801 161.108 48.7972 161.265C48.1803 161.465 47.1528 161.208 46.8102 160.634C46.3123 159.798 45.867 158.92 45.5088 158.016C45.1939 157.222 45.5267 156.43 46.2321 156.013C46.3309 155.955 46.6135 156.024 46.6786 156.122C47.2703 157.013 47.8327 157.923 48.4365 158.86Z" fill="black"/>
<path d="M48.7988 9.0909C48.4102 9.07557 48.0874 9.06024 47.7646 9.04491C47.953 8.75544 48.1022 8.42863 48.3364 8.18283C49.4954 6.96637 50.873 6.11814 52.5444 5.79918C52.6291 5.78302 52.7197 5.79403 52.8073 5.79762C53.2242 5.8147 53.7048 5.71336 54.0374 5.89005C54.3013 6.03019 53.9717 7.22321 53.5608 7.39878C52.0303 8.0527 50.6786 9.22405 48.7988 9.0909Z" fill="black"/>
<path d="M72.5142 104.216C73.3232 103.378 75.4288 103.706 75.9031 105.189C75.9379 105.298 75.7674 105.571 75.6383 105.618C74.7995 105.92 73.9591 106.24 73.0929 106.438C72.3392 106.611 71.5503 106.628 70.7779 106.721C70.2952 106.779 70.1987 106.485 70.2818 106.124C70.5147 105.114 71.1733 104.229 72.5142 104.216Z" fill="black"/>
<path d="M81.9015 26.12C80.4152 26.842 78.8754 27.1523 77.2766 27.1285C76.7633 27.1208 76.2517 26.9687 75.7417 26.8703C75.7062 26.8634 75.6515 26.7177 75.6715 26.6953C76.4353 25.841 77.4247 25.4156 78.5199 25.1565C79.3461 24.9611 80.1321 25.0452 80.9298 25.2792C81.0222 25.3063 81.2052 25.1128 81.3111 24.9911C81.8879 24.3287 82.7293 24.3374 83.0865 24.9793C83.2463 25.2664 83.2191 25.3561 82.9382 25.4906C82.5886 25.658 82.2677 25.8855 81.9015 26.12Z" fill="black"/>
<path d="M104.431 15.1186C104.495 15.2704 104.533 15.388 104.556 15.5083C104.624 15.8642 104.686 16.2212 104.751 16.5778C104.34 16.5777 103.899 16.6737 103.526 16.555C102.971 16.3783 102.465 16.047 101.935 15.7887C101.827 15.7358 101.705 15.6975 101.586 15.6813C100.839 15.5804 100.443 15.0515 100.439 14.2216C100.436 13.4779 101.098 13.1388 101.668 13.0472C102.878 12.8528 103.89 13.6374 104.431 15.1186Z" fill="black"/>
<path d="M127.356 18.4782C125.893 18.9155 124.712 18.1992 124.428 16.7406C124.332 16.2502 124.224 15.7512 124.232 15.2581C124.235 15.1059 124.632 14.8084 124.805 14.837C125.761 14.9946 126.716 15.154 127.427 15.9608C128.153 16.7855 128.178 17.6562 127.356 18.4782Z" fill="black"/>
<path d="M100.05 179.183C101.064 178.876 101.993 178.467 102.965 178.284C104.547 177.986 106.153 178.008 107.734 178.394C107.806 178.411 107.875 178.444 107.945 178.469C107.87 178.5 107.781 178.515 107.722 178.565C106.221 179.81 104.456 180.264 102.568 180.073C101.676 179.983 100.819 179.553 99.9463 179.275C99.9394 179.272 99.9336 179.242 99.9394 179.231C99.9492 179.212 99.9689 179.199 100.05 179.183Z" fill="black"/>
<path d="M99.2927 107.345C98.676 107.08 98.0913 106.85 97.5095 106.612C97.4267 106.579 97.3585 106.509 97.2834 106.456C97.3619 106.412 97.4356 106.353 97.5196 106.326C99.2427 105.772 100.966 105.22 102.694 104.68C102.757 104.661 102.91 104.756 102.941 104.831C103.254 105.581 102.897 106.216 102.616 106.885C102.526 107.097 101.8 107.313 102.505 107.659C102.443 107.697 102.377 107.774 102.321 107.767C101.469 107.66 100.618 107.54 99.767 107.425C99.6204 107.405 99.4728 107.393 99.2927 107.345Z" fill="black"/>
<path d="M66.8489 17.6549C66.7172 17.3153 66.5697 17.0475 66.4644 16.764C66.4373 16.691 66.5564 16.4782 66.5851 16.4826C67.0719 16.5564 67.0964 16.0523 67.3706 15.8639C67.9359 15.4756 68.4226 14.9211 69.0376 14.6772C69.3765 14.5429 70.0209 14.7807 70.3284 15.0657C70.7173 15.4262 70.9557 15.9869 70.7419 16.5988C70.5788 17.0656 70.1903 17.2337 69.7768 17.2454C69.101 17.2645 68.495 17.432 68.007 17.8914C67.5207 18.3492 67.1691 18.2232 66.8489 17.6549Z" fill="black"/>
<path d="M131.177 105.632C130.628 105.08 130.659 104.941 131.371 104.745C133.293 104.216 135.544 105.482 135.955 107.526C135.968 107.591 135.789 107.773 135.727 107.761C134.695 107.559 133.634 107.427 132.653 107.075C132.162 106.899 131.817 106.315 131.409 105.911C131.334 105.838 131.276 105.748 131.177 105.632Z" fill="black"/>
<path d="M66.0913 102.47C66.3219 102.68 66.5509 102.833 66.7036 103.043C66.7771 103.143 66.7722 103.429 66.6915 103.495C65.5549 104.425 64.2946 105.073 62.7879 105.144C62.4589 105.16 62.3811 105.077 62.3555 104.732C62.2183 102.883 64.2246 101.397 66.0913 102.47Z" fill="black"/>
<path d="M122.811 104.513C123.481 105.292 123.468 105.322 122.555 105.535C120.858 105.931 119.357 105.436 117.958 104.518C117.784 104.404 117.552 104.076 117.602 103.976C117.736 103.711 117.973 103.429 118.238 103.318C118.505 103.207 118.878 103.22 119.166 103.308C119.987 103.557 120.832 103.667 121.665 103.844C122.063 103.929 122.408 104.26 122.811 104.513Z" fill="black"/>
<path d="M94.0888 82.3781C95.0563 83.0163 94.9536 85.2223 94.2316 85.7131C94.1483 85.7698 93.9195 85.7654 93.8762 85.7049C93.1658 84.7123 92.4691 83.7098 91.7804 82.7019C91.2637 81.9456 91.3772 81.5196 92.2327 81.1738C92.4758 81.0755 92.7859 80.9373 93.0496 81.3132C93.3219 81.7014 93.7154 82.0047 94.0888 82.3781Z" fill="black"/>
<path d="M107.527 169.664C107.807 169.253 108.046 168.869 108.304 168.498C108.446 168.294 108.838 168.153 108.419 167.854C108.606 167.678 108.773 167.386 108.986 167.347C109.601 167.235 110.069 167.504 110.365 168.081C110.773 168.88 110.758 169.381 110.302 169.924C109.681 170.665 108.835 170.894 107.934 171.014C107.891 171.02 107.846 171.014 107.803 171.015C107.562 171.021 107.321 171.027 107.081 171.033C107.153 170.757 107.218 170.479 107.3 170.206C107.352 170.032 107.429 169.866 107.527 169.664Z" fill="black"/>
<path d="M44.0885 174.407C44.0519 174.528 43.9633 174.702 43.9156 174.691C41.8846 174.242 40.1923 172.331 40.3514 170.095C40.3828 169.654 40.6111 169.938 40.6705 169.971C42.2307 170.827 43.2852 172.123 43.9198 173.772C43.993 173.962 44.0116 174.173 44.0885 174.407Z" fill="black"/>
<path d="M75.9727 14.7891C76.7181 14.6009 77.4357 14.5265 77.9648 15.1525C78.2636 15.5061 78.5198 15.9234 78.6765 16.355C78.7337 16.5125 78.7922 16.9907 78.1951 16.9442C77.6845 16.9045 77.1404 17.2731 76.6325 17.2267C75.9982 17.1688 75.3625 16.9226 74.7722 16.6578C74.3943 16.4883 74.1824 16.1504 74.6949 15.7944C75.1267 15.4945 75.5261 15.148 75.9727 14.7891Z" fill="black"/>
<path d="M153.377 52.4044C152.694 53.0964 152.056 53.7097 151.065 53.9208C150.38 54.0666 150.327 53.6303 150.271 53.296C150.168 52.6745 150.417 52.135 150.975 51.7748C151.977 51.129 152.989 50.4972 153.967 49.818C154.253 49.6201 154.202 49.7363 154.202 49.943C154.201 50.8391 153.868 51.6252 153.377 52.4044Z" fill="black"/>
<path d="M69.6158 101.845C69.1673 101.713 68.7812 101.463 68.4028 101.475C67.702 101.496 67.6223 101.036 67.513 100.564C67.4611 100.339 67.461 100.102 67.4476 99.87C67.4451 99.827 67.4849 99.7473 67.516 99.7414C68.3944 99.5744 69.3064 99.2291 70.1564 99.6358C70.625 99.86 71.1016 100.339 71.2813 100.815C71.4421 101.24 71.526 101.875 70.966 102.295C70.6957 102.497 70.5318 102.601 70.2707 102.313C70.1043 102.13 69.88 101.999 69.6158 101.845Z" fill="black"/>
<path d="M162.468 58.8604C161.646 58.7318 160.832 57.8508 160.796 57.0476C160.764 56.3337 160.674 55.5896 161.29 55.0178C161.363 54.9503 161.372 54.7795 161.36 54.6618C161.306 54.1314 161.613 53.6993 162.101 53.7741C162.463 53.8296 162.843 53.9364 162.783 54.537C162.639 55.9621 162.589 57.3967 162.468 58.8604Z" fill="black"/>
<path d="M53.9701 22.4968C53.8599 22.3427 53.7896 22.2162 53.7039 22.1013C53.5077 21.8384 53.6505 21.6809 53.8868 21.6124C55.4749 21.1521 57.0169 21.148 58.4362 22.1402C58.5143 22.1948 58.5353 22.3312 58.5829 22.4295C57.793 22.7439 57.2525 23.5347 56.2466 23.4765C55.3521 23.4248 54.5977 23.2112 53.9701 22.4968Z" fill="black"/>
<path d="M80.3864 141.271C79.9548 139.744 79.973 139.903 81.5196 139.518C82.7393 139.215 83.7871 139.629 84.8163 140.187C85.0166 140.296 85.031 140.346 84.7919 140.512C83.5378 141.385 82.1355 141.571 80.6663 141.494C80.5809 141.49 80.5015 141.37 80.3864 141.271Z" fill="black"/>
<path d="M47.7777 88.7022C48.2541 88.2697 48.6722 87.8362 49.1481 87.48C49.6434 87.1093 50.094 87.4603 50.5182 87.7073C50.5719 87.7385 50.5719 87.9599 50.5229 88.0551C49.7967 89.4657 48.7653 90.6211 47.5102 91.5794C47.4976 91.589 47.2219 91.369 47.2333 91.2763C47.3189 90.576 47.4393 89.8795 47.5647 89.1846C47.5927 89.029 47.6831 88.8847 47.7777 88.7022Z" fill="black"/>
<path d="M128.608 2.141C128.41 1.79891 128.511 1.6944 128.849 1.7091C129.936 1.75637 130.996 1.90893 132.001 2.36427C132.48 2.58137 133.007 2.70101 133.467 2.9483C133.637 3.03974 133.679 3.37064 133.779 3.59233C133.597 3.6685 133.421 3.76642 133.233 3.81743C131.635 4.24961 130.258 3.81659 129.063 2.7202C128.896 2.56678 128.78 2.35741 128.608 2.141Z" fill="black"/>
<path d="M111.941 141.205C112.013 141.375 112.119 141.537 112.079 141.645C111.843 142.293 111.074 142.554 110.435 142.3C109.363 141.874 108.476 141.318 108.168 140.089C108.033 139.552 108.074 139.082 108.374 138.672C108.467 138.545 108.899 138.516 109.061 138.621C109.545 138.931 109.575 139.47 109.53 139.988C109.499 140.344 109.608 140.399 109.965 140.476C110.632 140.62 111.263 140.931 111.941 141.205Z" fill="black"/>
<path d="M148.963 51.8775C148.216 51.2295 148.161 50.4196 148.423 49.6231C148.686 48.8224 149.214 48.1785 150.099 47.961C150.616 47.8339 151.016 48.1686 151.039 48.7175C151.087 49.9009 150.103 51.4394 148.963 51.8775Z" fill="black"/>
<path d="M51.0714 104.776C51.2359 105.598 50.8623 106.158 50.2763 106.604C50.1758 106.68 49.8711 106.667 49.8039 106.582C48.8808 105.413 48.7925 103.789 49.6532 102.482C50.1256 101.765 50.2686 102.129 50.5568 102.598C50.9684 103.266 51.268 103.939 51.0714 104.776Z" fill="black"/>
<path d="M104.695 167.424C104.481 166.623 104.479 165.89 104.893 165.166C105.18 164.663 105.374 164.57 105.916 164.921C107.15 165.722 107.214 167.885 106.234 168.564C106.087 168.665 105.728 168.686 105.626 168.585C105.287 168.248 105.021 167.839 104.695 167.424Z" fill="black"/>
<path d="M133.68 184.684C133.374 184.559 133.265 184.412 133.482 184.157C134.422 183.059 136.395 182.381 137.9 183.264C138.137 183.402 138.093 183.475 137.938 183.669C137.306 184.457 136.486 184.983 135.512 185.077C134.93 185.134 134.314 184.848 133.68 184.684Z" fill="black"/>
<path d="M157.264 173.814C156.128 175.607 154.465 176.512 152.494 176.939C152.418 176.956 152.331 176.916 152.249 176.902C152.279 176.812 152.294 176.712 152.341 176.632C153.365 174.907 154.943 173.938 156.819 173.395C157.014 173.339 157.245 173.407 157.46 173.418C157.406 173.539 157.351 173.66 157.264 173.814Z" fill="black"/>
<path d="M152.323 15.5798C152.763 16.3223 152.805 17.0969 152.745 17.8845C152.735 18.019 152.643 18.1474 152.589 18.2785C152.496 18.2088 152.403 18.1386 152.31 18.0695C151.078 17.1592 150.286 15.9471 149.857 14.4885C149.821 14.367 149.805 14.1307 149.846 14.1139C150.067 14.0245 150.342 13.8879 150.54 13.9511C151.353 14.2112 151.943 14.7554 152.323 15.5798Z" fill="black"/>
<path d="M55.0902 57.5427C53.8801 57.9924 52.8239 57.582 51.8712 56.9717C51.5569 56.7703 51.4261 56.2044 51.3259 55.7782C51.2717 55.5478 51.4456 55.3365 51.8246 55.3188C53.3053 55.2496 54.3891 55.9671 55.3653 56.9578C55.7702 57.3688 55.2853 57.3623 55.0902 57.5427Z" fill="black"/>
<path d="M53.4101 53.4914C52.2232 53.7936 51.1611 53.6139 50.1454 53.0892C50.1139 53.0729 50.1032 52.9264 50.137 52.8865C50.9697 51.9035 52.3806 51.4925 53.6582 51.9783C54.0523 52.1282 54.3962 52.4184 54.7505 52.6627C55.0917 52.8981 54.9715 53.0326 54.6358 53.1263C54.2456 53.2352 53.8623 53.3686 53.4101 53.4914Z" fill="black"/>
<path d="M155.683 123.88C155.499 124.023 155.359 124.158 155.194 124.237C154.888 124.383 154.566 124.496 154.251 124.622C154.147 124.185 153.925 123.733 153.975 123.314C154.014 122.988 154.363 122.674 154.625 122.403C155.213 121.793 155.835 121.214 156.439 120.618C156.597 120.462 156.615 120.339 156.727 120.697C157.05 121.726 156.695 122.568 156.166 123.388C156.052 123.564 155.868 123.695 155.683 123.88Z" fill="black"/>
<path d="M163.028 50.8564C163.024 51.7334 162.678 52.3992 162.149 52.9867C161.976 53.1788 161.87 53.3246 161.699 52.9339C161.029 51.4008 160.994 49.9051 161.84 48.4312C161.882 48.3566 162.014 48.3328 162.104 48.2853C162.511 49.0838 163.132 49.8033 163.028 50.8564Z" fill="black"/>
<path d="M77.389 119.368C76.8511 119.236 76.3274 119.191 75.9214 118.948C75.5149 118.705 75.217 118.273 74.9006 117.899C74.8703 117.864 75.0383 117.547 75.1293 117.539C76.5786 117.417 77.9718 117.694 79.3178 118.216C79.4546 118.269 79.766 118.316 79.5138 118.682C79.1387 119.225 78.1052 119.627 77.389 119.368Z" fill="black"/>
<path d="M92.4089 12.9118C92.9766 12.2498 93.5331 11.6584 94.4088 11.4925C95.0003 11.3804 95.4457 11.5372 95.7103 12.0605C95.9945 12.6225 95.8363 13.0386 95.3217 13.3601C94.4061 13.932 93.4736 13.9924 92.5408 13.4262C92.4424 13.3664 92.4503 13.1314 92.4089 12.9118Z" fill="black"/>
<path d="M122.58 188.669C122.248 188.713 121.982 188.771 121.714 188.796C121.571 188.809 121.422 188.766 121.276 188.749C121.36 188.656 121.433 188.549 121.53 188.472C122.403 187.78 123.313 187.096 124.427 186.917C125.326 186.772 126.26 186.846 127.178 186.828C127.22 186.828 127.263 186.88 127.306 186.908C127.259 186.955 127.22 187.013 127.165 187.046C126.426 187.482 125.712 187.976 124.934 188.323C124.494 188.52 123.945 188.471 123.446 188.539C123.178 188.575 122.913 188.625 122.58 188.669Z" fill="black"/>
<path d="M40.6629 31.0605C40.5422 30.8231 40.4158 30.6262 40.3733 30.4127C40.2078 29.5797 40.3962 29.4233 41.2879 29.3686C42.1601 29.3151 42.8653 29.6546 43.5436 30.1223C43.7401 30.2578 43.8493 30.3958 43.5774 30.589C42.9828 31.0114 42.4035 31.4554 41.8116 31.8818C41.597 32.0364 41.4587 32.1414 41.3846 31.7078C41.3441 31.4708 40.9374 31.2962 40.6629 31.0605Z" fill="black"/>
<path d="M115.861 188.933C116.848 188.669 117.768 188.403 118.692 188.149C118.745 188.134 118.879 188.212 118.883 188.254C118.947 189.028 118.608 189.579 117.939 189.954C117.127 190.409 116.294 190.82 115.403 190.222C115.168 190.064 115.065 189.68 114.967 189.378C114.954 189.338 115.326 189.171 115.521 189.065C115.61 189.017 115.703 188.977 115.861 188.933Z" fill="black"/>
<path d="M118.232 118.182C118.11 118.107 117.987 118.001 118.006 117.961C118.753 116.367 120.797 115.87 122.263 116.755C122.484 116.888 122.651 117.108 122.844 117.288C122.525 117.454 122.22 117.718 121.884 117.768C120.941 117.909 119.984 117.958 119.034 118.053C118.787 118.078 118.543 118.138 118.232 118.182Z" fill="black"/>
<path d="M146.262 93.2477C146.37 93.158 146.479 93.0353 146.515 93.0539C147.781 93.6943 148.497 95.716 147.686 97.0905C147.418 97.5457 147.145 97.3287 146.96 97.028C146.248 95.8745 145.806 94.6594 146.262 93.2477Z" fill="black"/>
<path d="M130.716 142.655C130.573 142.77 130.431 142.831 130.358 142.938C129.668 143.957 128.44 144.417 127.404 143.991C127.248 143.927 127.046 143.638 127.08 143.508C127.311 142.613 127.997 142.123 128.831 141.931C129.523 141.771 130.226 141.906 130.746 142.493C130.768 142.517 130.749 142.578 130.716 142.655Z" fill="black"/>
<path d="M110.887 103.129C111.182 103.822 111.396 104.484 111.119 105.198C110.917 105.718 110.156 106.119 109.545 105.904C109.274 105.809 108.882 105.408 108.917 105.211C109.032 104.567 109.304 103.949 109.54 103.329C109.742 102.801 110.199 102.726 110.685 102.781C110.752 102.789 110.798 102.986 110.887 103.129Z" fill="black"/>
<path d="M60.2282 6.81806C59.6503 7.07058 59.1074 7.29572 58.5586 7.50524C58.4441 7.54894 58.2997 7.51183 58.1826 7.55152C57.6732 7.72399 57.2229 7.56195 57.1443 7.07406C57.0746 6.64149 57.2093 6.30271 57.7728 6.17262C58.7618 5.94428 59.7222 5.59288 60.6967 5.30008C60.7921 5.27143 60.9022 5.29195 61.0055 5.28965C61.0053 5.40841 61.0495 5.55331 60.9974 5.64144C60.7671 6.03157 60.5091 6.40539 60.2282 6.81806Z" fill="black"/>
<path d="M89.1152 140.843C88.7136 141.486 88.3153 142.066 87.9036 142.636C87.8757 142.674 87.6844 142.663 87.6751 142.637C87.4438 141.989 87.1273 141.35 87.0321 140.679C86.9105 139.823 87.1856 139.596 88.0769 139.528C88.2508 139.514 88.4266 139.526 88.6016 139.526C89.5262 139.526 89.5299 139.53 89.2459 140.438C89.2097 140.554 89.1591 140.664 89.1152 140.843Z" fill="black"/>
<path d="M86.7764 89.8879C86.3677 90.1161 85.992 90.3112 85.6162 90.5064C85.6376 90.0946 85.5919 89.6654 85.6937 89.2746C85.944 88.3144 86.2705 87.3743 86.5482 86.4208C86.6359 86.1198 86.7329 86.1765 86.875 86.3661C87.7598 87.5459 87.6523 88.7075 86.7764 89.8879Z" fill="black"/>
<path d="M118.002 53.4585C118.024 52.5871 118.46 52.0596 119.112 52.0422C119.791 52.0241 120.523 52.736 120.587 53.561C120.609 53.8376 120.483 54.3477 120.349 54.3746C119.858 54.4731 119.297 54.5269 118.837 54.3742C118.508 54.2651 118.298 53.7985 118.002 53.4585Z" fill="black"/>
<path d="M118.759 75.0988C118.487 75.0682 118.275 75.0585 118.076 75.0033C117.43 74.8245 117.41 74.6509 117.847 74.091C118.595 73.1333 120.028 72.9666 121.018 73.6493C121.292 73.8386 121.536 73.9167 121.039 74.2458C120.346 74.7049 119.687 75.1301 118.759 75.0988Z" fill="black"/>
<path d="M87.1717 114.065C86.0157 113.774 85.2149 113.179 84.8435 112.027C84.7303 111.676 84.8555 111.692 85.0618 111.732C85.6462 111.845 86.224 111.993 86.8079 112.109C86.8619 112.12 86.9925 112.013 86.9957 111.956C87.0015 111.849 86.9397 111.738 86.906 111.629C87.0144 111.714 87.1262 111.795 87.2307 111.885C88.0802 112.612 88.0687 113.072 87.7822 113.635C87.6804 113.836 87.4023 113.946 87.1717 114.065Z" fill="black"/>
<path d="M129.431 104.084C128.669 104.092 127.962 104.164 127.408 103.585C127.242 103.411 126.903 101.924 127.074 101.788C127.185 101.699 127.408 101.683 127.56 101.721C128.486 101.953 129.221 102.494 129.816 103.224C130.175 103.663 129.929 103.918 129.431 104.084Z" fill="black"/>
<path d="M120.834 124.605C121.658 124.134 122.414 124.116 123.21 124.623C123.683 124.924 123.722 125.097 123.352 125.538C122.51 126.538 120.899 126.302 120.394 125.437C120.062 124.867 120.749 124.941 120.834 124.605Z" fill="black"/>
<path d="M129.596 186.858C128.955 187.468 128.406 187.482 127.714 187.04C127.431 186.86 127.395 186.797 127.639 186.567C128.562 185.696 129.621 185.259 130.898 185.519C130.997 185.539 131.127 185.717 131.133 185.827C131.163 186.337 130.741 186.783 130.219 186.822C130.024 186.837 129.826 186.825 129.596 186.858Z" fill="black"/>
<path d="M58.285 107.642C58.3312 107.529 58.3902 107.49 58.4215 107.436C58.531 107.244 58.631 107.046 58.7346 106.851C59.0388 107.107 59.4312 107.31 59.6274 107.632C59.9618 108.181 59.4473 110.095 58.9389 110.455C58.9019 110.482 58.7839 110.425 58.7227 110.381C58.0802 109.916 57.7243 108.7 58.285 107.642Z" fill="black"/>
<path d="M49.2929 23.946C48.9318 23.7688 48.4484 23.7788 48.5115 23.1251C48.5877 22.335 48.6619 21.5541 49.396 21.149C49.5548 21.0614 50.1618 21.4977 50.3559 21.8178C50.8902 22.6992 50.3453 23.7301 49.2929 23.946Z" fill="black"/>
<path d="M143.924 30.1713C145.012 30.0889 145.623 30.9666 145.889 31.7431C146.041 32.1862 145.658 32.352 145.327 32.4011C144.326 32.5496 143.227 31.5644 143.414 30.5512C143.442 30.4023 143.704 30.2968 143.924 30.1713Z" fill="black"/>
<path d="M119.418 87.8789C119.767 87.9861 120.111 88.0263 120.318 88.2165C120.615 88.4907 120.814 88.8687 120.369 89.2354C119.669 89.8123 118.883 90.066 117.991 89.8347C117.921 89.8166 117.852 89.478 117.908 89.3402C118.186 88.6638 118.598 88.0957 119.418 87.8789Z" fill="black"/>
<path d="M38.9502 157.411C39.1397 158.452 38.558 159.151 37.6676 159.025C37.1791 158.956 36.9643 158.526 37.0614 158.033C37.2133 157.26 37.705 156.783 38.3275 156.403C38.4148 156.349 38.6849 156.141 38.6716 156.567C38.6633 156.835 38.8294 157.108 38.9502 157.411Z" fill="black"/>
<path d="M152.191 125.132C151.562 125.223 151.025 125.103 150.592 124.656C150.544 124.606 150.429 124.536 150.414 124.55C150.275 124.68 150.106 124.864 150.005 124.572C149.928 124.35 149.901 124.038 150 123.841C150.375 123.092 151.241 122.966 151.844 123.535C152.066 123.745 152.289 123.957 152.484 124.191C152.83 124.606 152.767 124.927 152.191 125.132Z" fill="black"/>
<path d="M101.862 146.212C101.209 146.865 100.605 146.974 99.9128 146.554C99.7911 146.481 99.6674 146.292 99.667 146.156C99.6647 145.328 100.946 144.609 101.607 144.839C102.111 145.014 102.371 145.301 102.03 145.843C101.966 145.943 101.939 146.066 101.862 146.212Z" fill="black"/>
<path d="M106.902 108.827C106.663 110.366 105.862 110.682 104.751 110.272C104.326 110.116 104.302 109.833 104.502 109.437C104.962 108.526 105.828 108.266 106.902 108.827Z" fill="black"/>
<path d="M71.9872 188.538C71.451 188.243 70.9681 187.966 70.5182 187.643C70.3882 187.549 70.3531 187.324 70.2744 187.159C70.443 187.091 70.6367 186.933 70.7759 186.972C71.5397 187.183 72.2957 187.427 73.0416 187.695C73.2486 187.769 73.4185 187.957 73.5937 188.106C73.7251 188.218 73.8378 188.352 73.9589 188.476C73.7881 188.541 73.6158 188.663 73.4468 188.658C72.9815 188.646 72.5175 188.581 71.9872 188.538Z" fill="black"/>
<path d="M120.736 98.2873C120.076 98.2434 119.482 98.203 118.889 98.1517C118.799 98.144 118.636 98.0745 118.639 98.0517C118.676 97.7878 118.651 97.4277 118.812 97.2887C119.074 97.0622 119.45 96.9079 119.798 96.8566C120.225 96.7937 120.679 96.8268 121.106 96.9053C121.255 96.9327 121.444 97.2096 121.461 97.387C121.488 97.6763 121.418 97.9881 121.319 98.2652C121.297 98.3264 120.982 98.2827 120.736 98.2873Z" fill="black"/>
<path d="M42.4748 77.3386C42.589 78.0588 42.2947 78.4633 41.7032 78.7069C41.1423 78.9379 40.637 78.6436 40.6341 78.0471C40.631 77.4209 40.8807 76.8817 41.3977 76.5404C41.5467 76.4421 41.9101 76.5315 42.0906 76.6567C42.2732 76.7834 42.3511 77.0612 42.4748 77.3386Z" fill="black"/>
<path d="M44.7475 120.059C45.4385 120.29 46.102 120.542 46.7475 120.833C46.823 120.867 46.8738 121.195 46.8099 121.257C46.5294 121.532 46.2362 121.878 45.8853 121.977C45.208 122.168 44.8003 121.591 44.5034 121.136C44.3652 120.924 44.6316 120.448 44.7475 120.059Z" fill="black"/>
<path d="M92.6724 65.2175C91.7522 64.7733 92.5689 64.3009 92.7308 64.115C93.0416 63.7581 93.5757 63.5696 94.0474 63.391C94.2534 63.3129 94.5338 63.4312 94.7804 63.4603C94.6983 63.7988 94.6945 64.1867 94.5182 64.4656C94.1169 65.1006 93.4769 65.3091 92.6724 65.2175Z" fill="black"/>
<path d="M151.664 101.285C151.961 101.213 152.224 101.175 152.488 101.137C152.488 101.471 152.556 101.824 152.474 102.137C152.277 102.898 151.529 103.456 150.837 103.418C150.77 103.415 150.643 103.295 150.653 103.256C150.833 102.538 150.748 101.68 151.664 101.285Z" fill="black"/>
<path d="M69.3192 26.1197C69.0105 26.0621 68.6457 26.3891 68.4826 25.9301C68.3778 25.6351 68.3154 25.3113 68.3076 24.9985C68.2954 24.5034 68.6998 24.6364 68.9718 24.6454C69.305 24.6564 69.6387 24.7123 69.9673 24.7742C70.1623 24.811 70.5015 24.8816 70.5097 24.9634C70.5358 25.2273 70.5308 25.6162 70.368 25.7493C70.0991 25.9691 69.6977 26.0267 69.3192 26.1197Z" fill="black"/>
<path d="M135.096 93.2807C134.876 93.5442 134.684 93.8042 134.427 93.9218C134.172 94.0387 133.778 94.1395 133.574 94.0222C133.157 93.7819 133.194 93.3438 133.379 92.9168C133.58 92.4545 134.342 91.9071 134.672 92.1216C134.937 92.2939 135.055 92.6997 135.22 93.0115C135.239 93.0475 135.14 93.1455 135.096 93.2807Z" fill="black"/>
<path d="M93.2323 166.963C93.0175 167.222 92.8419 167.453 92.6483 167.668C92.6143 167.706 92.4752 167.708 92.4355 167.671C92.1987 167.453 91.8506 167.254 91.7747 166.983C91.5806 166.29 92.6077 165.194 93.2962 165.37C93.8558 165.512 93.5686 166.029 93.5284 166.39C93.5075 166.577 93.3571 166.75 93.2323 166.963Z" fill="black"/>
<path d="M55.4194 140.81C55.5137 140.698 55.0205 140.472 55.4965 140.429C55.9302 140.389 56.3652 140.045 56.7694 140.093C57.1534 140.138 57.543 140.47 57.8453 140.763C58.0625 140.974 57.617 141.451 57.1423 141.5C56.4711 141.568 55.8767 141.42 55.4194 140.81Z" fill="black"/>
<path d="M133.384 84.585C133.893 84.8924 134.337 85.1983 134.778 85.5088C134.848 85.5581 134.965 85.6415 134.956 85.687C134.82 86.3302 133.552 86.8571 133.061 86.3983C132.844 86.1955 132.884 85.6488 132.921 85.2693C132.944 85.0305 133.178 84.8124 133.384 84.585Z" fill="black"/>
<path d="M122.349 83.7616C122.802 84.2358 122.765 84.4241 122.125 84.5592C121.707 84.6476 121.24 84.6516 120.825 84.5588C120.577 84.5032 120.009 84.4525 120.233 83.9639C120.385 83.6324 120.726 83.2906 121.062 83.1629C121.581 82.9657 121.983 83.3422 122.349 83.7616Z" fill="black"/>
<path d="M123.338 59.3215C122.918 59.6399 122.498 60.0518 122.005 60.1779C121.429 60.3251 121.13 59.8947 121.263 59.3192C121.37 58.8541 122.184 58.4438 122.668 58.4803C123.242 58.5235 123.082 59.0336 123.338 59.3215Z" fill="black"/>
<path d="M147.317 59.6507C147.041 59.8389 146.815 60.0461 146.549 60.1347C146.288 60.2221 145.986 60.1895 145.701 60.2095C145.736 59.8684 145.643 59.3693 145.831 59.2185C146.245 58.8853 146.787 58.684 147.305 58.5219C147.482 58.4668 147.745 58.6909 147.968 58.7874C147.855 58.9711 147.751 59.1609 147.626 59.336C147.55 59.4418 147.443 59.5246 147.317 59.6507Z" fill="black"/>
<path d="M46.526 57.1475C45.9862 57.2277 45.5243 56.9847 45.5485 56.5248C45.5694 56.1288 45.8862 55.628 46.2246 55.4095C46.4702 55.2509 46.9654 55.4728 47.3468 55.5395C47.3835 55.546 47.4377 55.6656 47.4236 55.7159C47.2704 56.2638 47.1917 56.8623 46.526 57.1475Z" fill="black"/>
<path d="M87.9623 147.727C88.5114 147.214 88.8442 147.472 89.1148 147.974C89.1818 148.098 89.2724 148.218 89.3039 148.352C89.3654 148.611 89.3927 148.879 89.4342 149.144C89.1117 149.169 88.7326 149.313 88.4801 149.192C88.0963 149.009 87.7846 148.656 87.4917 148.33C87.4625 148.298 87.7753 147.957 87.9623 147.727Z" fill="black"/>
<path d="M124.161 98.2871C124.187 98.5903 124.288 99.0092 124.227 99.0339C123.939 99.1511 123.552 99.2877 123.306 99.1786C122.97 99.0297 122.652 98.7046 122.482 98.3748C122.401 98.2164 122.626 97.8297 122.803 97.6246C123.097 97.2832 123.452 97.4002 123.739 97.6764C123.903 97.834 124.022 98.0381 124.161 98.2871Z" fill="black"/>
<path d="M150.116 45.9817C149.926 45.4447 149.864 44.9712 150.269 44.5877C150.648 44.2294 151.563 44.1375 151.967 44.4137C152.065 44.4807 152.125 44.815 152.077 44.8491C151.696 45.119 151.309 45.4672 150.877 45.5511C150.475 45.629 150.315 45.6947 150.376 46.1027C150.399 46.2518 150.388 46.4079 150.376 46.5595C150.371 46.6268 150.326 46.6911 150.299 46.7567C150.282 46.6983 150.263 46.6403 150.248 46.5813C150.204 46.4036 150.16 46.2255 150.116 45.9817Z" fill="black"/>
<path d="M54.3325 60.7377C54.3064 60.6101 54.2802 60.5484 54.2541 60.4867C54.6271 60.6318 55.1395 60.6755 55.3373 60.9478C55.5793 61.2809 55.5702 61.8038 55.6323 62.2499C55.6392 62.2994 55.3715 62.4679 55.2843 62.4359C54.8878 62.2906 54.3849 62.1838 54.1688 61.884C54.0166 61.6728 54.2637 61.174 54.3325 60.7377Z" fill="black"/>
<path d="M68.5945 93.1159C69.0589 92.7017 69.5541 92.4489 70.2217 92.7399C70.7658 92.9771 70.7823 93.3944 70.6033 93.7741C70.4324 94.1366 70.0543 94.4187 69.6138 94.0656C69.2645 93.7856 68.9548 93.4563 68.5945 93.1159Z" fill="black"/>
<path d="M80.1558 65.3491C80.8184 65.7199 80.8103 65.7839 80.3255 66.3098C79.9742 66.6909 79.5243 66.7467 79.1035 66.6376C78.8868 66.5814 78.5718 66.1762 78.6154 66.0125C78.6842 65.7543 78.9839 65.492 79.2495 65.3715C79.4846 65.2648 79.8064 65.3491 80.1558 65.3491Z" fill="black"/>
<path d="M100.94 63.0104C101.104 63.8296 100.874 64.1789 100.32 64.0314C99.7964 63.8921 99.4069 63.0603 99.6218 62.5481C99.684 62.3996 99.7105 62.231 99.7965 62.0998C99.8375 62.0372 100.034 61.9883 100.067 62.0225C100.359 62.3295 100.63 62.6564 100.94 63.0104Z" fill="black"/>
<path d="M43.6604 26.2187C43.168 26.675 42.6386 26.8662 42.1479 26.339C41.9249 26.0993 41.8346 25.7361 41.6841 25.4288C41.9224 25.3847 42.1591 25.3183 42.3994 25.3006C43.1344 25.2466 43.5046 25.5049 43.6604 26.2187Z" fill="black"/>
<path d="M88.1597 3.19495C88.0878 2.80576 88.0492 2.44945 88.0094 2.09329C87.9993 2.00265 88.0173 1.86804 87.9662 1.83094C87.8433 1.7417 87.6872 1.69824 87.5444 1.63632C87.7561 1.61787 87.9674 1.59131 88.1794 1.58313C88.4202 1.57384 88.6618 1.57644 88.9028 1.58243C89.0954 1.58721 89.2876 1.60483 89.48 1.61675C89.3504 1.67868 89.1355 1.71656 89.1097 1.80782C89.064 1.96975 89.1862 2.17808 89.1429 2.34188C89.0564 2.66951 88.9383 3.00092 88.7589 3.2835C88.713 3.35571 88.3889 3.2512 88.1597 3.19495Z" fill="black"/>
<path d="M150.479 87.9118C150.176 87.5642 150.48 86.9572 149.896 86.8027C149.929 86.7407 149.969 86.6221 149.994 86.6252C150.352 86.6685 150.759 86.6388 151.051 86.8067C151.412 87.015 151.756 87.3693 151.619 87.8722C151.576 88.0308 151.368 88.2352 151.216 88.2532C150.96 88.2835 150.57 88.4344 150.479 87.9118Z" fill="black"/>
<path d="M55.7816 73.3861C56.4815 73.428 57.0082 74.1056 56.8271 74.6463C56.7156 74.9791 56.0045 75.0924 55.7054 74.8251C55.2672 74.4334 55.2714 73.8539 55.7816 73.3861Z" fill="black"/>
<path d="M46.9872 81.39C46.8434 81.0726 46.6422 80.7843 46.6541 80.5051C46.6618 80.3232 46.992 79.9963 47.1557 80.0094C47.6585 80.0496 48.2013 80.2773 48.2265 80.8387C48.2402 81.1458 47.909 81.5309 47.4105 81.4268C47.2855 81.4008 47.1505 81.423 46.9872 81.39Z" fill="black"/>
</svg>
